<svg xmlns="http://www.w3.org/2000/svg" viewBox="0 0 66.35 15.91"><defs><style>.cls-1{fill:#6ebe44;}.cls-2{fill:#1d1d1b;}.cls-3{fill:#fdd70b;}.cls-13,.cls-4{fill:none;}.cls-4{stroke:#fdd70b;stroke-width:0.22px;}.cls-5{fill:#fff;}.cls-6{fill:#21bcef;}.cls-7{fill:#db2625;}.cls-8{fill:#fac48b;}.cls-9{fill:#8c733c;}.cls-10{fill:#c99e72;}.cls-11{fill:#77160f;}.cls-12{fill:#c0a675;}.cls-13{stroke:#1d1d1b;stroke-width:0.4px;}.cls-14{fill:#e52825;}.cls-15{fill:#287935;}.cls-16{fill:#8cc047;}</style></defs><title>Recurso 1</title><g id="Capa_2" data-name="Capa 2"><g id="Capa_1-2" data-name="Capa 1"><path class="cls-1" d="M0,8C0,3.56,2.93,0,6.55,0S13.1,3.56,13.1,8s-2.93,8-6.55,8S0,12.32,0,8"/><path class="cls-2" d="M6.55,15.4C3.14,15.4.42,12.05.42,7.92S3.17.45,6.55.45s6.13,3.35,6.13,7.47S9.93,15.4,6.55,15.4M6.55.33C3.08.33.27,3.74.27,8s2.81,7.6,6.28,7.6S12.8,12.14,12.8,8,10,.33,6.55.33Z"/><path class="cls-3" d="M6.43,4.72a1.83,1.83,0,0,0-.21.42.58.58,0,0,1,0,.24v0c0-.06,0-.12,0-.18A.45.45,0,0,1,6.22,5a.52.52,0,0,0,0-.3l-.3.51L6,4.6H6a1,1,0,0,0-.33.3,1.3,1.3,0,0,1-.12.21l0,0c0-.06,0-.12,0-.18a.65.65,0,0,1,.15-.24.43.43,0,0,0,.06-.26l-.48.35.36-.44h0a1,1,0,0,0-.42.15,1.1,1.1,0,0,1-.18.14,0,0,0,0,0,0,0s.06-.09.12-.15l.24-.17a.4.4,0,0,0,.18-.21L5,4.31,5.5,4h0a1.14,1.14,0,0,0-.45,0A.71.71,0,0,1,4.81,4h0s.09-.06.15-.12a.88.88,0,0,1,.27-.06,1.07,1.07,0,0,0,.27-.12L4.9,3.65l.57-.09a1.83,1.83,0,0,0-.42-.21.58.58,0,0,1-.24,0l0,0c.06,0,.12,0,.18,0a.45.45,0,0,1,.27.06.52.52,0,0,0,.3,0L5,3l.57.15h0a1,1,0,0,0-.3-.33.48.48,0,0,1-.21-.12H5a.38.38,0,0,0,.18,0,.65.65,0,0,1,.24.15A.48.48,0,0,0,5.71,3l-.33-.45.45.36h0a1,1,0,0,0-.15-.42.54.54,0,0,1-.15-.21v0s.09.06.15.12a.65.65,0,0,1,.15.24A.4.4,0,0,0,6,2.75l-.15-.57.3.48h0a1.14,1.14,0,0,0,0-.45A.71.71,0,0,1,6.16,2v0a.53.53,0,0,0,.12.15.88.88,0,0,1,.06.27.41.41,0,0,0,.15.24L6.58,2l.09.57a.65.65,0,0,0,.15-.24.88.88,0,0,1,.06-.27A.65.65,0,0,1,7,1.94V2a.35.35,0,0,0-.15.21.77.77,0,0,0,0,.45h0l.3-.51L7,2.69a.32.32,0,0,0,.21-.18.65.65,0,0,1,.15-.24c.06-.06.12-.09.15-.12v0c-.06.06-.09.12-.15.18a1,1,0,0,0-.15.42h0l.44-.36-.35.48a.43.43,0,0,0,.26-.09.65.65,0,0,1,.24-.15.53.53,0,0,1,.18,0l0,0-.21.12a1,1,0,0,0-.29.33h0L8,3l-.5.3a.83.83,0,0,0,.29,0,.88.88,0,0,1,.27-.06c.06,0,.12,0,.18,0a0,0,0,0,0,0,0,.75.75,0,0,1-.24,0,1.11,1.11,0,0,0-.42.21l.57.09-.57.09a.37.37,0,0,0,.24.12.88.88,0,0,1,.27.06A.65.65,0,0,1,8.25,4h0L8,4a.73.73,0,0,0-.44,0h0l.47.3-.53-.12a.43.43,0,0,0,.17.21.51.51,0,0,1,.24.17A.65.65,0,0,0,8,4.69a0,0,0,0,1,0,0,2.2,2.2,0,0,0-.18-.14.69.69,0,0,0-.41-.15h0l.35.44-.5-.32a.48.48,0,0,0,.09.26A.65.65,0,0,1,7.48,5a1.06,1.06,0,0,0,0,.18l0,0-.12-.21A1,1,0,0,0,7,4.63H7l.15.57-.3-.51a.52.52,0,0,0,0,.3.83.83,0,0,1,0,.27.38.38,0,0,0,0,.18,0,0,0,0,0,0,0c0-.09,0-.18,0-.24a.8.8,0,0,0-.21-.42Z"/><path class="cls-4" d="M6.43,4.72a1.83,1.83,0,0,0-.21.42.58.58,0,0,1,0,.24v0c0-.06,0-.12,0-.18A.45.45,0,0,1,6.22,5a.52.52,0,0,0,0-.3l-.3.51L6,4.6H6a1,1,0,0,0-.33.3,1.3,1.3,0,0,1-.12.21l0,0c0-.06,0-.12,0-.18a.65.65,0,0,1,.15-.24.43.43,0,0,0,.06-.26l-.48.35.36-.44h0a1,1,0,0,0-.42.15,1.1,1.1,0,0,1-.18.14,0,0,0,0,0,0,0s.06-.09.12-.15l.24-.17a.4.4,0,0,0,.18-.21L5,4.31,5.5,4h0a1.14,1.14,0,0,0-.45,0A.71.71,0,0,1,4.81,4h0s.09-.06.15-.12a.88.88,0,0,1,.27-.06,1.07,1.07,0,0,0,.27-.12L4.9,3.65l.57-.09a1.83,1.83,0,0,0-.42-.21.58.58,0,0,1-.24,0l0,0c.06,0,.12,0,.18,0a.45.45,0,0,1,.27.06.52.52,0,0,0,.3,0L5,3l.57.15h0a1,1,0,0,0-.3-.33.48.48,0,0,1-.21-.12H5a.38.38,0,0,0,.18,0,.65.65,0,0,1,.24.15A.48.48,0,0,0,5.71,3l-.33-.45.45.36h0a1,1,0,0,0-.15-.42.54.54,0,0,1-.15-.21v0s.09.06.15.12a.65.65,0,0,1,.15.24A.4.4,0,0,0,6,2.75l-.15-.57.3.48h0a1.14,1.14,0,0,0,0-.45A.71.71,0,0,1,6.16,2v0a.53.53,0,0,0,.12.15.88.88,0,0,1,.06.27.41.41,0,0,0,.15.24L6.58,2l.09.57a.65.65,0,0,0,.15-.24.88.88,0,0,1,.06-.27A.65.65,0,0,1,7,1.94V2a.35.35,0,0,0-.15.21.77.77,0,0,0,0,.45h0l.3-.51L7,2.69a.32.32,0,0,0,.21-.18.65.65,0,0,1,.15-.24c.06-.06.12-.09.15-.12v0c-.06.06-.09.12-.15.18a1,1,0,0,0-.15.42h0l.44-.36-.35.48a.43.43,0,0,0,.26-.09.65.65,0,0,1,.24-.15.53.53,0,0,1,.18,0l0,0-.21.12a1,1,0,0,0-.29.33h0L8,3l-.5.3a.83.83,0,0,0,.29,0,.88.88,0,0,1,.27-.06c.06,0,.12,0,.18,0a0,0,0,0,0,0,0,.75.75,0,0,1-.24,0,1.11,1.11,0,0,0-.42.21l.57.09-.57.09a.37.37,0,0,0,.24.12.88.88,0,0,1,.27.06A.65.65,0,0,1,8.25,4h0L8,4a.73.73,0,0,0-.44,0h0l.47.3-.53-.12a.43.43,0,0,0,.17.21.51.51,0,0,1,.24.17A.65.65,0,0,0,8,4.69a0,0,0,0,1,0,0,2.2,2.2,0,0,0-.18-.14.69.69,0,0,0-.41-.15h0l.35.44-.5-.32a.48.48,0,0,0,.09.26A.65.65,0,0,1,7.48,5a1.06,1.06,0,0,0,0,.18l0,0-.12-.21A1,1,0,0,0,7,4.63H7l.15.57-.3-.51a.52.52,0,0,0,0,.3.83.83,0,0,1,0,.27.38.38,0,0,0,0,.18,0,0,0,0,0,0,0c0-.09,0-.18,0-.24a.8.8,0,0,0-.21-.42Z"/><path class="cls-2" d="M5.38,4.37a.4.4,0,0,0,.18-.21L5,4.31,5.47,4h0A1.14,1.14,0,0,0,5,4,.71.71,0,0,1,4.78,4h0a.3.3,0,0,0,.15-.12.88.88,0,0,1,.27-.06,1.07,1.07,0,0,0,.27-.12L4.9,3.65l.57-.09a1.05,1.05,0,0,0-.42-.18.58.58,0,0,1-.24,0l0,0,.18,0a.45.45,0,0,1,.27.06.52.52,0,0,0,.3,0L5,3l.54.15h0a1,1,0,0,0-.3-.33.48.48,0,0,1-.21-.12l0,0a.38.38,0,0,0,.18,0,.65.65,0,0,1,.24.15A.48.48,0,0,0,5.71,3l-.33-.45.45.36h0a1,1,0,0,0-.15-.42.54.54,0,0,1-.15-.21l0,0s.09.06.15.12a.65.65,0,0,1,.15.24A.4.4,0,0,0,6,2.75l-.15-.57.3.51h0a1.14,1.14,0,0,0,0-.45A.71.71,0,0,1,6.13,2V1.94a.3.3,0,0,0,.12.15.88.88,0,0,1,.06.27.41.41,0,0,0,.15.24L6.55,2l.09.57a.65.65,0,0,0,.15-.24.88.88,0,0,1,.06-.27A.65.65,0,0,1,7,1.94V2c0,.09,0,.15-.06.24a.77.77,0,0,0,0,.45h0l.3-.51-.15.57a.32.32,0,0,0,.21-.18.65.65,0,0,1,.15-.24c.06-.06.12-.09.14-.12v0a2.2,2.2,0,0,1-.14.18,1,1,0,0,0-.15.42h0l.44-.36L7.39,3a.43.43,0,0,0,.26-.09.65.65,0,0,1,.24-.15.53.53,0,0,1,.18,0l0,0a.75.75,0,0,1-.21.12.9.9,0,0,0-.29.33h0L8.1,3l-.51.3a.52.52,0,0,0,.3,0,.88.88,0,0,1,.27-.06c.06,0,.12,0,.18,0l0,0a.75.75,0,0,1-.24,0,1.05,1.05,0,0,0-.42.18l.57.09-.57.09a.38.38,0,0,0,.27.12.88.88,0,0,1,.27.06A.65.65,0,0,1,8.34,4h0L8.07,4a.77.77,0,0,0-.45,0h0l.48.3-.62-.15a.33.33,0,0,0,.17.21.65.65,0,0,1,.24.15l0,0a.65.65,0,0,0-.24-.15s-.09-.06-.11-.09l.59.15.18,0h0l-.15-.09L7.65,4A.62.62,0,0,1,8,4a.71.71,0,0,0,.24.06.27.27,0,0,0,.15,0l.12,0H8.37a.65.65,0,0,1-.24-.15.88.88,0,0,0-.27-.06c-.06,0-.09,0-.15-.06l.63-.09.18,0-.18,0L7.71,3.5A.9.9,0,0,1,8,3.38a.58.58,0,0,0,.24,0s.09,0,.12-.06a.22.22,0,0,0,.09-.09.1.1,0,0,1-.09.09.83.83,0,0,1-.27,0,.45.45,0,0,0-.27.06H7.68L8.22,3l.15-.12-.18,0-.6.15a.81.81,0,0,1,.24-.21A.48.48,0,0,0,8,2.75a.41.41,0,0,0,.09-.12l.06-.12a.41.41,0,0,1-.12.09.88.88,0,0,1-.27.06.54.54,0,0,0-.23.15.23.23,0,0,1-.12.06l.38-.48L8,2.24H8l-.15.12-.5.36a.9.9,0,0,1,.12-.3.54.54,0,0,0,.15-.21.32.32,0,0,0,0-.15V1.94s0,.09,0,.12l-.21.18a.65.65,0,0,0-.15.24s-.06.09-.09.12L7.24,2l.06-.21-.09.15-.33.57a.62.62,0,0,1,0-.33.71.71,0,0,0,.06-.24V1.79s0-.09,0-.12a.18.18,0,0,1,0,.12A.65.65,0,0,1,6.73,2a.88.88,0,0,0-.06.27.16.16,0,0,1-.06.12h0l-.09-.63,0-.18h0l0,.18-.09.63s0-.09-.06-.12A.88.88,0,0,0,6.25,2a.65.65,0,0,1-.15-.24s0-.09,0-.12a.18.18,0,0,0,0,.12,1.3,1.3,0,0,0,0,.15c0,.09,0,.15.06.24a.62.62,0,0,1,0,.33L5.8,2l0-.18L5.8,2l.15.6a.41.41,0,0,1-.09-.12.65.65,0,0,0-.15-.24.54.54,0,0,1-.21-.15.23.23,0,0,1-.06-.12v.12c0,.06,0,.09,0,.12s.09.12.15.18a.53.53,0,0,1,.12.3l-.48-.39-.15-.12h0l.12.24.39.51a.16.16,0,0,1-.12-.06.65.65,0,0,0-.24-.15A.88.88,0,0,1,5,2.63a.41.41,0,0,0-.12-.09l.06.12s.06.09.09.12a.75.75,0,0,0,.21.12,1.71,1.71,0,0,1,.24.21L4.87,3l-.18,0L4.84,3l.54.3H5.23A.88.88,0,0,0,5,3.26a.83.83,0,0,1-.27,0l-.12,0,.09.09a.23.23,0,0,0,.12.06c.09,0,.18,0,.24,0a.9.9,0,0,1,.3.12l-.63.09-.17,0,.17,0,.63.09s-.09,0-.15.06a.88.88,0,0,0-.27.06.65.65,0,0,1-.24.15H4.54a.18.18,0,0,0,.12,0c.06,0,.09,0,.15,0l.24-.06a.62.62,0,0,1,.33,0l-.54.33-.15.09h0l.18,0,.6-.15s-.06.09-.12.09Z"/><path class="cls-2" d="M6.67,3.32V3.17H7a.47.47,0,0,1,.24.18s-.09-.06-.18-.09a1.56,1.56,0,0,0-.42.06"/><path class="cls-2" d="M7,3.41H6.76c-.06,0-.09.09-.12.12s0,0,.06,0l0,0s.06,0,.09-.06v0a.13.13,0,0,0,.12.12c.06,0,.12,0,.12-.09v0a.23.23,0,0,1,.12.06s.09.06.09,0A2.43,2.43,0,0,1,7,3.41"/><path class="cls-2" d="M6.37,3.32l0-.12H6a.47.47,0,0,0-.24.18s.09-.06.18-.09a1.06,1.06,0,0,1,.45,0"/><path class="cls-2" d="M6,3.41h.24c.06,0,.09.09.12.12s0,0-.06,0h0s-.06,0-.09-.06v0c0,.06,0,.12-.09.12S6,3.59,6,3.53V3.47s-.06,0-.12.06-.09.06-.09,0A.54.54,0,0,0,6,3.41"/><path class="cls-5" d="M3.5,8C3.5,10.2,4.87,12,6.55,12S9.6,10.2,9.6,8V7.89H3.5V8"/><path class="cls-6" d="M6.55,3.89c-1.68,0-3,1.79-3,4H9.6c0-2.21-1.38-4-3-4"/><path class="cls-7" d="M7.39,6.91a4.48,4.48,0,0,0-.06-.63,4.44,4.44,0,0,1,0-.66A.8.8,0,0,0,6.67,5c-.54,0-.63.27-.63.36s.27.21.36.21a1.43,1.43,0,0,0-.9,1.11c0,.21.69.39.84.39s1,.15,1-.12"/><path class="cls-8" d="M3.53,8.73S5,8.61,5.17,8.55s.48-.18.6-.21a3.31,3.31,0,0,1,.54-.06s.12.09.12.09l.21-.21H7c.09,0,.54.27.65.3l.78.15c.12,0,1,.27,1.11.27-.09.36-.18.72-.3,1.08a13.35,13.35,0,0,1-1.62-.75s0,.18-.23.18a.39.39,0,0,1-.3.12.38.38,0,0,1-.27.12s0,.12-.36,0c0,0-.27.27-.42,0,0,0-.24.12-.3-.09,0,0-.18.12-.21-.15a.2.2,0,0,1-.24-.12,12.13,12.13,0,0,0-1.46.54,8.5,8.5,0,0,1-.27-1.11"/><path class="cls-9" d="M5.41,9.63a1.45,1.45,0,0,0-1.31.78,2,2,0,0,0,.21.32,2,2,0,0,0,.29-.5,1.16,1.16,0,0,1,.81-.6"/><path class="cls-9" d="M5.14,11.36c-.15-.54.3-.95.24-.95a1.24,1.24,0,0,0-.51.95,1.33,1.33,0,0,0,.33.24.57.57,0,0,1-.06-.24"/><path class="cls-9" d="M4.72,11.21l.09-.39c0-.56.6-.77.54-.8s-.66.27-.89.89a2,2,0,0,0,.26.3"/><path class="cls-9" d="M7.71,10.11s.51.24.54.8a1.08,1.08,0,0,0,.06.33,2.7,2.7,0,0,0,.27-.3c-.24-.56-.75-.86-.87-.83"/><path class="cls-9" d="M5.65,11.75a1.17,1.17,0,0,1-.09-1,1.28,1.28,0,0,0-.18.93l.36.18a.41.41,0,0,1-.09-.12"/><path class="cls-9" d="M7.65,10.53a1.24,1.24,0,0,1,.24,1c0,.06,0,.09,0,.15l.3-.21a1.13,1.13,0,0,0-.51-.89"/><path class="cls-9" d="M7.48,10.88c-.06,0,.23.51-.09,1h0a1.34,1.34,0,0,0,.29-.15,1.23,1.23,0,0,0-.2-.84"/><path class="cls-10" d="M7.71,8.94c-.09,0-.06,0-.12-.12,0,.09-.08.09-.08.09A.86.86,0,0,1,7,8.34s-.09.3-.24,0c0,0-.18.36-.36.33s-.21,0-.21,0l.09,0H6.19a.48.48,0,0,0,.39.18c.24,0,.24-.09.27-.12a1.75,1.75,0,0,1,.45.33s-.06,0-.12,0l-.33-.18.51.42.21-.12V9.09a9,9,0,0,0,1.55.78,1.44,1.44,0,0,0,.24-.48,4.35,4.35,0,0,1-1.65-.45"/><path class="cls-10" d="M6.64,9.06s.3.24.39.24a.11.11,0,0,0,.09-.15l.18.21-.15.09L7,9.42Z"/><path class="cls-10" d="M6.49,9.3l.27.27s.06.09.18,0S7,9.45,7,9.45s-.06-.09-.06-.09-.12.12-.18.09-.27-.18-.27-.15"/><path class="cls-10" d="M3.68,9.3S5.26,9,5.5,9a1.61,1.61,0,0,1,.63.15,2.92,2.92,0,0,0,.33.15l.36.27-.06.12H6.49c-.12,0-.24.09-.36.09A.2.2,0,0,1,6,9.63a.19.19,0,0,1-.27,0s0,0,0-.06a.14.14,0,0,1-.21-.15s-.24.06-.24-.12a13.26,13.26,0,0,0-1.46.54c0-.18-.06-.36-.09-.51"/><path class="cls-8" d="M6.28,9.36s-.09.09-.15.09S6,9.42,6,9.33s.18-.09.21-.06,0,0,0,.09"/><path class="cls-8" d="M6,9.21a.66.66,0,0,1-.15.09s-.15,0-.09-.12A.2.2,0,0,1,6,9.12c0,.06,0,0,0,.09"/><path class="cls-11" d="M7.36,6.94c0,.12-.45.15-1,.09s-.9-.24-.9-.36.45-.15,1-.09.9.24.9.36"/><polygon class="cls-9" points="6.64 6.64 6.4 6.61 6.4 8.28 6.64 8.16 6.64 6.64"/><polygon class="cls-12" points="6.46 8.22 6.55 8.22 6.55 6.85 6.46 6.82 6.46 8.22"/><polygon class="cls-9" points="7.15 10.35 6.73 10.35 6.73 9.93 6.31 9.93 6.31 10.35 5.89 10.35 5.89 10.76 6.31 10.76 6.31 11.9 6.73 11.9 6.73 10.76 7.15 10.76 7.15 10.35"/><rect class="cls-12" x="6.31" y="9.96" width="0.42" height="0.03"/><polygon class="cls-12" points="6.7 10.38 6.73 10.41 7.12 10.41 7.12 10.38 6.7 10.38"/><rect class="cls-12" x="5.92" y="10.38" width="0.45" height="0.03"/><rect class="cls-12" x="6.37" y="9.99" width="0.03" height="0.45"/><polygon class="cls-12" points="6.37 11.54 6.4 11.54 6.4 10.76 6.37 10.71 6.37 11.54"/><path class="cls-2" d="M6.64,7.09c.42,0,.75,0,.78-.12.09-.57,0-.69,0-.69a.51.51,0,0,0,0-.42.79.79,0,0,0-.6-.93H6.73c-.51-.09-.72.21-.75.33s.18.27.3.27a1.35,1.35,0,0,0-.84,1.14c0,.15.42.33,1,.42l0-.06c-.48-.09-.87-.24-.84-.33s.42-.12.9-.06.87.24.84.33-.3.12-.66.09ZM5.56,6.55a1.31,1.31,0,0,1,1.05-1s-.51,0-.54-.21S6.37,5,6.7,5a.62.62,0,0,1,.54.66c0,.12-.3.18-.42.18.24,0,.42,0,.39.09a.45.45,0,0,1-.45.15c.3.18.33-.06.48.15s0,.12-.33,0c-.54-.15-.69-.09-.69-.09a2.29,2.29,0,0,1,1,.33.25.25,0,0,1,.06.27,3.37,3.37,0,0,0-.78-.24A3,3,0,0,0,5.56,6.55Z"/><polygon class="cls-13" points="6.67 6.64 6.4 6.58 6.4 8.28 6.67 8.16 6.67 6.64"/><path class="cls-2" d="M9.21,9.87a15.16,15.16,0,0,1-1.59-.72l-.11-.09a2.85,2.85,0,0,0-.6-.45.91.91,0,0,1-.15-.21c.06.21-.12.18-.21.3s-.24,0-.3,0,.15-.15.33-.33,0-.12.24-.09.27,0,.33.09a2.07,2.07,0,0,0,.56.27,1.71,1.71,0,0,1,.66.12A7,7,0,0,0,9.51,9c-.09.27-.18.57-.3.87M7.39,9.3a6.42,6.42,0,0,1-.57-.39L6.91,9a1.57,1.57,0,0,1,.3.33c0,.06-.09.09-.15.09a4.39,4.39,0,0,1-.39-.27c.06.09.3.3.3.36s-.09.06-.15.06l-.27-.18c.09.12.12.18.15.21s-.09,0-.15,0h0a.11.11,0,0,0,0-.09c0-.06-.06-.12-.24-.12,0,0,.06-.24-.27-.18-.09-.12-.15-.15-.39-.06a.2.2,0,0,0-.27-.06,0,0,0,0,0,0,0s-.09.06-.09.12c-.36.09-1.49.51-1.49.51a3.47,3.47,0,0,1-.24-1,11.35,11.35,0,0,0,1.73-.21c.12,0,.45-.18.57-.21a2.42,2.42,0,0,1,.48,0l.06,0a1.33,1.33,0,0,0-.24.27s.06.09.24.12.3-.15.42-.15a.11.11,0,0,0,.09,0l0,0L7,8.76c.15.12.39.3.48.39s-.06.15-.09.15Zm-1.2.45S6,9.69,6.1,9.66a1.66,1.66,0,0,0,.24-.18c.06,0,.24.06.12.12a.61.61,0,0,1-.27.15Zm-.36-.09c-.09,0,0-.15.12-.24s.18-.18.33-.09-.09.15-.15.21a.63.63,0,0,1-.3.12Zm-.21-.12a.23.23,0,0,1,0-.24s.18-.18.3-.09,0,.12-.12.21a.51.51,0,0,1-.21.12Zm-.24-.18c-.06,0,0-.12,0-.18s.15-.09.18,0a.13.13,0,0,1,0,.15C5.53,9.3,5.44,9.39,5.38,9.36Zm4.13-.54a5.41,5.41,0,0,1-1.2-.3,4.66,4.66,0,0,0-.63-.12c-.26-.09-.56-.33-.65-.3s-.42-.06-.48,0-.06.09-.09.12-.09-.06-.15-.06H5.86c-.09,0-.51.24-.63.27a10.47,10.47,0,0,1-1.67.15,5.41,5.41,0,0,0,.3,1.2,11.68,11.68,0,0,1,1.43-.54,0,0,0,0,0,0,0,.27.27,0,0,0,.21.09c0,.06,0,.21.21.18a.2.2,0,0,0,.3.09c0,.09.15.18.33.06s.06,0,.09-.06h0c.09.06.33.12.42-.06a.17.17,0,0,0,.21-.12s.21.06.27-.12c0,0,.23,0,.26-.18.51.27,1,.51,1.56.75a10.12,10.12,0,0,0,.3-1l0-.09Z"/><path class="cls-2" d="M5.38,10c-.12-.06-.72.18-1,.86l.06.06c.23-.62.74-.92.89-.89s-.51.24-.54.8a1.52,1.52,0,0,1-.06.39l.06.06c0-.12,0-.24.06-.36,0-.74.6-.89.51-.92"/><path class="cls-2" d="M5.41,10.38a1.1,1.1,0,0,0-.6.92l.06.06a1.14,1.14,0,0,1,.54-.92,1.24,1.24,0,0,0-.24,1c0,.09,0,.15.06.24l.09.06a.56.56,0,0,0-.06-.21,1.33,1.33,0,0,1,.15-1.1"/><path class="cls-2" d="M5.59,10.73a1.1,1.1,0,0,0-.27,1l.09,0a1.13,1.13,0,0,1,.18-.93,1.17,1.17,0,0,0,.09,1l.09.12.09,0-.09-.12a1.32,1.32,0,0,1-.18-1.08"/><path class="cls-2" d="M8.25,10.91c0-.56-.6-.77-.54-.8s.63.27.87.86l.06-.06c-.27-.65-.87-.86-1-.8s.51.18.57.92c0,.09,0,.21,0,.3l.06-.06a.8.8,0,0,1-.09-.36"/><path class="cls-2" d="M7.62,10.5a1.2,1.2,0,0,1,.21,1l0,.12.06-.06c0-.06,0-.09,0-.15.15-.54-.3-.95-.24-.95a1.12,1.12,0,0,1,.51.86l.06-.06c-.12-.51-.51-.83-.6-.8"/><path class="cls-2" d="M7.45,10.82a1.35,1.35,0,0,1-.15,1l.09,0h0a1.22,1.22,0,0,0,.09-1,1.08,1.08,0,0,1,.17.84l.06,0a1,1,0,0,0-.26-.84"/><path class="cls-2" d="M5.44,9.63a1.31,1.31,0,0,0-1.4.72.1.1,0,0,0,0,.06c.42-.66,1-.81,1.19-.75a1.18,1.18,0,0,0-.69.57,2,2,0,0,1-.29.5s0,0,0,.06a1.28,1.28,0,0,0,.26-.47c.36-.69,1-.6.87-.69"/><path class="cls-2" d="M6.7,10v.42h.42v.32H6.7v1.14H6.37V10.7H6v-.32h.42V10ZM6.28,9.9v.42H5.86v.5h.42V12h.51V10.82h.42v-.5H6.79V9.9Z"/><path class="cls-2" d="M6.76,11c.09.09.27.15.21.36.06-.15.09-.24.42-.3-.12.33-.18.24-.18.54A.4.4,0,0,1,7,12a1.83,1.83,0,0,1-.9,0,.53.53,0,0,1-.24-.84c.15.42,0,.15.21.3a.61.61,0,0,1,.18-.69c0,.39.09.36.21.75,0-.18.12-.15.09-.6a.75.75,0,0,1,.24.54c0-.33.09-.21,0-.48"/><path class="cls-14" d="M6.82,11.06a.47.47,0,0,1,.12.48c.06-.15.09-.39.36-.45-.09.27-.18.24-.18.51a.4.4,0,0,1-.24.33A2,2,0,0,1,6,12a.48.48,0,0,1-.3-.63s0,0,0-.06c.15.42,0-.06.36.45a1,1,0,0,1,0-.9c0,.33.21.48.27.93,0-.3.12-.42.12-.72.27.27.12.48.15.6.09-.27.21-.27.15-.57"/><path class="cls-3" d="M6,11.87a.34.34,0,0,1-.09-.24s.15.21.3.18,0-.15,0-.3a.56.56,0,0,0,.21.36.36.36,0,0,0,.18-.39.43.43,0,0,1,.06.21v.12s.06,0,.12-.12l.09-.15a.25.25,0,0,1,0,.21s.09-.21.18-.24c-.06.09,0,.3-.15.45a1.84,1.84,0,0,1-.81,0c0-.09-.06-.09-.12-.09"/><path class="cls-2" d="M3.56,8c0-2.21,1.34-4,3-4s3,1.79,3,4-1.38,4-3,4-3-1.79-3-4M3.41,8c0,2.28,1.4,4.13,3.11,4.13S9.63,10.23,9.63,8,8.22,3.83,6.52,3.83,3.41,5.68,3.41,8Z"/><path class="cls-15" d="M5,4.4a.67.67,0,0,0-.39.09A.54.54,0,0,0,4.6,4s-.17.21-.14.33.08.26,0,.32a.74.74,0,0,1,.26,0A.66.66,0,0,0,5,4.4"/><path class="cls-16" d="M4.57,4a.57.57,0,0,1,.06.39c0,.17-.09-.15-.06-.24V4"/><path class="cls-16" d="M5,4.37s-.15.23-.33.2.33-.2.33-.2"/><path class="cls-2" d="M4.72,4.6c-.09,0-.18,0-.26,0s0-.2,0-.32S4.57,4,4.57,4a.6.6,0,0,1,0,.51A.77.77,0,0,1,5,4.4c0,.12-.15.17-.27.2m.39-.23a.83.83,0,0,0-.27,0l-.18.06c.12-.18-.09-.51-.12-.51a1.28,1.28,0,0,0-.14.21.45.45,0,0,0,0,.39c.06.14-.12.35-.12.35s.18-.12.38-.12a.84.84,0,0,0,.45-.35Z"/><path class="cls-15" d="M4.6,4.69c-.06-.06-.23,0-.38.09a.52.52,0,0,0,0-.47S4,4.52,4,4.63s.09.27,0,.33a.83.83,0,0,1,.27,0,.41.41,0,0,0,.26-.24"/><path class="cls-16" d="M4.19,4.34a.54.54,0,0,1,.06.38c0,.18-.09-.15-.06-.23V4.34"/><path class="cls-16" d="M4.63,4.69s-.14.24-.32.21.32-.21.32-.21"/><path class="cls-2" d="M4.31,4.93,4,5c.06-.06,0-.21,0-.33s.15-.32.15-.32a.52.52,0,0,1,0,.47c.15-.06.33-.12.38-.09a.31.31,0,0,1-.26.24m.41-.27a.8.8,0,0,0-.26,0l-.18.09a.45.45,0,0,0-.12-.5A.54.54,0,0,0,4,4.43a.42.42,0,0,0,0,.38c.06.15-.12.36-.12.36s.18-.12.39-.15.44-.36.44-.36Z"/><path class="cls-15" d="M4.34,5.05A.57.57,0,0,0,4,5.17a.54.54,0,0,0-.06-.48s-.18.21-.12.33.12.27.06.33a.93.93,0,0,1,.24-.06c.12-.06.24-.12.27-.24"/><path class="cls-16" d="M3.89,4.72A.83.83,0,0,1,4,5.11c0,.18-.09-.15-.09-.24V4.72"/><path class="cls-16" d="M4.37,5s-.12.27-.3.24.3-.24.3-.24"/><path class="cls-2" d="M4.07,5.26a.57.57,0,0,0-.24.06c.06-.06,0-.21-.06-.33s.12-.33.12-.33A.7.7,0,0,1,4,5.14c.12-.06.3-.15.39-.12a.45.45,0,0,1-.3.24M4.46,5a.42.42,0,0,0-.27,0A.66.66,0,0,0,4,5.08c.09-.21-.15-.51-.18-.51s-.09.15-.15.21a.37.37,0,0,0,0,.39c.09.15-.09.36-.09.36s.15-.12.39-.15S4.46,5,4.46,5Z"/><path class="cls-15" d="M4.13,5.38c-.09,0-.24.09-.36.15a.5.5,0,0,0-.15-.45s-.15.24-.09.36.15.24.09.33.15-.09.24-.09a.66.66,0,0,0,.27-.3"/><path class="cls-16" d="M3.62,5.11a.55.55,0,0,1,.15.36c0,.18-.12-.15-.12-.21a1.3,1.3,0,0,1,0-.15"/><path class="cls-16" d="M4.13,5.38s-.09.27-.27.27.27-.27.27-.27"/><path class="cls-2" d="M3.86,5.65l-.24.09a.5.5,0,0,0-.09-.33c-.06-.12.09-.36.09-.36a.47.47,0,0,1,.12.48c.12-.09.3-.18.36-.15a.37.37,0,0,1-.24.27m.36-.33a.83.83,0,0,0-.27,0l-.15.09C3.89,5.23,3.59,5,3.56,5s-.09.15-.12.24a.32.32,0,0,0,.06.36c.09.12,0,.36,0,.36.09-.15.12-.15.36-.21S4.22,5.32,4.22,5.32Z"/><path class="cls-15" d="M3.92,5.77c-.09,0-.24.12-.36.21a.57.57,0,0,0-.18-.45s-.12.27,0,.36.18.24.15.3a.6.6,0,0,1,.24-.12.73.73,0,0,0,.18-.3"/><path class="cls-16" d="M3.38,5.56a.52.52,0,0,1,.18.36c0,.21-.12-.12-.15-.21a.22.22,0,0,0,0-.15"/><path class="cls-16" d="M3.92,5.74s-.06.3-.24.3.24-.3.24-.3"/><path class="cls-2" d="M3.71,6.07a.9.9,0,0,0-.24.12c0-.09-.06-.21-.15-.3s0-.36,0-.36A.64.64,0,0,1,3.56,6c.12-.12.27-.24.36-.21a.55.55,0,0,1-.21.3M4,5.68a.88.88,0,0,0-.27.06c-.06,0-.09.09-.15.12.06-.24-.27-.48-.3-.45l-.09.27A.41.41,0,0,0,3.32,6c.12.12,0,.39,0,.39a.51.51,0,0,1,.33-.27c.21-.09.33-.48.33-.48Z"/><path class="cls-15" d="M3.74,6.19c-.09,0-.21.15-.33.27A.53.53,0,0,0,3.14,6s-.09.27,0,.39.21.21.18.3a.91.91,0,0,1,.21-.15.46.46,0,0,0,.21-.36"/><path class="cls-16" d="M3.17,6a.68.68,0,0,1,.24.33c.06.18-.15-.12-.18-.18s0-.09-.06-.15"/><path class="cls-16" d="M3.74,6.16s0,.3-.21.33.21-.33.21-.33"/><path class="cls-2" d="M3.56,6.52a.54.54,0,0,0-.21.15c0-.09-.09-.18-.18-.3s0-.39,0-.39a.64.64,0,0,1,.27.45c.12-.12.24-.27.33-.27a.56.56,0,0,1-.21.36m.27-.42a.48.48,0,0,0-.27.09c0,.06-.09.09-.12.15,0-.24-.33-.45-.36-.42s0,.18-.06.27a.43.43,0,0,0,.18.36c.12.12.06.36.06.36.06-.18.09-.18.3-.3s.27-.51.27-.51Z"/><path class="cls-15" d="M3.59,6.61c-.09,0-.21.18-.3.3A.51.51,0,0,0,3,6.52s-.06.3.06.39.24.18.21.27S3.38,7,3.47,7a.47.47,0,0,0,.12-.39"/><path class="cls-16" d="M3,6.55a.66.66,0,0,1,.27.3c.09.18-.18-.09-.18-.15S3.05,6.61,3,6.55"/><path class="cls-16" d="M3.59,6.58s0,.3-.15.36.15-.36.15-.36"/><path class="cls-2" d="M3.47,7a1.3,1.3,0,0,0-.21.18c0-.09-.12-.18-.21-.27S3,6.52,3,6.52a.78.78,0,0,1,.33.42c.09-.15.21-.3.3-.3A.48.48,0,0,1,3.47,7m.21-.45a.41.41,0,0,0-.24.15c-.09.12-.09.15-.09.15,0-.24-.39-.39-.42-.39V6.7A.37.37,0,0,0,3.14,7c.15.09.12.36.12.36,0-.18.06-.21.27-.36s.15-.51.15-.51Z"/><path class="cls-15" d="M3.5,7.09c-.09,0-.18.18-.27.33a.54.54,0,0,0-.36-.36s0,.3.09.36.24.15.24.23a1.8,1.8,0,0,1,.18-.2.34.34,0,0,0,.12-.36"/><path class="cls-16" d="M2.93,7.09a.94.94,0,0,1,.33.27c.09.18-.18-.06-.21-.15S3,7.12,2.93,7.09"/><path class="cls-16" d="M3.5,7.06s.06.3-.12.39.12-.39.12-.39"/><path class="cls-2" d="M3.41,7.45a1.8,1.8,0,0,0-.18.2c0-.08-.12-.17-.24-.23s-.09-.36-.09-.36a.61.61,0,0,1,.36.36c.09-.15.18-.33.27-.33a.52.52,0,0,1-.12.36M3.56,7a.65.65,0,0,0-.24.15l-.09.18c0-.24-.42-.36-.45-.33a.83.83,0,0,0,0,.27c0,.12.09.21.24.3s.15.35.15.35a.59.59,0,0,1,.21-.38A1,1,0,0,0,3.56,7Z"/><path class="cls-15" d="M3.47,7.54c-.09,0-.18.2-.24.35a.46.46,0,0,0-.39-.32s0,.29.12.35.27.15.27.24A.54.54,0,0,1,3.38,8a.55.55,0,0,0,.09-.41"/><path class="cls-16" d="M2.87,7.57a.74.74,0,0,1,.33.23C3.32,8,3,7.74,3,7.68a.3.3,0,0,0-.12-.11"/><path class="cls-16" d="M3.47,7.51s.09.29-.09.38.09-.38.09-.38"/><path class="cls-2" d="M3.38,7.89a.91.91,0,0,0-.15.21C3.23,8,3.08,8,3,7.86s-.12-.35-.12-.35a.69.69,0,0,1,.39.32c.06-.15.15-.32.24-.35a.46.46,0,0,1-.09.41m.12-.47a.33.33,0,0,0-.21.17.43.43,0,0,0-.06.18c-.06-.23-.45-.32-.48-.29s0,.17,0,.26a.35.35,0,0,0,.27.3c.15.06.18.33.18.33,0-.18,0-.21.21-.39A.71.71,0,0,0,3.5,7.42Z"/><path class="cls-15" d="M3.44,8c-.09,0-.18.21-.24.36A.59.59,0,0,0,2.81,8s0,.3.12.36.27.15.27.24a.54.54,0,0,1,.15-.21A.45.45,0,0,0,3.44,8"/><path class="cls-16" d="M2.84,8a.85.85,0,0,1,.33.24c.12.18-.18-.06-.21-.12A.23.23,0,0,0,2.84,8"/><path class="cls-16" d="M3.44,7.92s.09.3-.09.39.09-.39.09-.39"/><path class="cls-2" d="M3.38,8.34a.91.91,0,0,0-.15.21c0-.09-.15-.15-.27-.24S2.84,8,2.84,8a.66.66,0,0,1,.39.36c.06-.15.15-.33.24-.36a.83.83,0,0,1-.09.39m.12-.48S3.32,8,3.29,8l-.09.18c-.06-.24-.45-.33-.48-.3a.83.83,0,0,0,0,.27.39.39,0,0,0,.27.3c.15.06.18.33.18.33,0-.18,0-.21.21-.39A1,1,0,0,0,3.5,7.86Z"/><path class="cls-15" d="M3.44,8.37c-.09,0-.15.21-.21.39a.78.78,0,0,0-.42-.33s0,.3.15.36.27.12.27.21a1.05,1.05,0,0,1,.15-.24.38.38,0,0,0,.06-.39"/><path class="cls-16" d="M2.87,8.46a.72.72,0,0,1,.36.21c.12.15-.18,0-.24-.12s-.09-.06-.12-.09"/><path class="cls-16" d="M3.44,8.37s.09.3-.06.42.06-.42.06-.42"/><path class="cls-2" d="M3.41,8.76A.65.65,0,0,0,3.26,9c0-.09-.15-.15-.27-.21s-.15-.36-.15-.36a.58.58,0,0,1,.42.33c.06-.15.12-.36.21-.39a.54.54,0,0,1-.06.39m.09-.48s-.18.09-.21.21,0,.12-.06.18c-.06-.24-.48-.3-.51-.27a.88.88,0,0,0,.06.27.4.4,0,0,0,.3.27c.18.06.21.33.21.33,0-.18,0-.21.18-.42A.75.75,0,0,0,3.5,8.28Z"/><path class="cls-15" d="M3.53,8.85c-.09,0-.15.24-.18.39a.62.62,0,0,0-.42-.3s0,.3.18.36.27.09.3.18a1.78,1.78,0,0,1,.12-.24.86.86,0,0,0,0-.39"/><path class="cls-16" d="M2.93,9a.56.56,0,0,1,.36.21c.12.15-.18,0-.24-.09S3,9,2.93,9"/><path class="cls-16" d="M3.5,8.82s.12.27,0,.42,0-.42,0-.42"/><path class="cls-2" d="M3.5,9.24a.9.9,0,0,0-.12.24c0-.09-.18-.15-.3-.18s-.18-.36-.18-.36a.62.62,0,0,1,.42.3c0-.15.09-.36.18-.39a.45.45,0,0,1,0,.39m.06-.51s-.18.12-.21.21a.38.38,0,0,0,0,.18c-.09-.24-.51-.27-.51-.24a1,1,0,0,0,.09.27.35.35,0,0,0,.33.24c.18,0,.24.33.24.33,0-.18,0-.21.15-.42a1.85,1.85,0,0,0-.06-.57Z"/><path class="cls-15" d="M3.62,9.27c-.09,0-.12.24-.15.42A.64.64,0,0,0,3,9.42s.06.3.21.33.3.09.3.18a1.07,1.07,0,0,1,.12-.27.61.61,0,0,0,0-.39"/><path class="cls-16" d="M3,9.45a.53.53,0,0,1,.39.18c.15.15-.18,0-.24-.06A.53.53,0,0,0,3,9.45"/><path class="cls-16" d="M3.59,9.27s.15.27,0,.42,0-.42,0-.42"/><path class="cls-2" d="M3.62,9.69A1.07,1.07,0,0,0,3.5,10c0-.09-.18-.12-.3-.18S3,9.42,3,9.42a.56.56,0,0,1,.45.27c0-.15.06-.36.15-.42a.43.43,0,0,1,0,.42m0-.51a.47.47,0,0,0-.18.24.38.38,0,0,0,0,.18.62.62,0,0,0-.54-.21L3,9.66a.46.46,0,0,0,.33.24c.18,0,.24.3.24.3,0-.18,0-.21.12-.42a.82.82,0,0,0,0-.6Z"/><path class="cls-15" d="M3.71,9.66c-.09.06-.12.27-.12.42a.6.6,0,0,0-.48-.21s.09.3.24.33.3.06.33.15l.09-.27a.66.66,0,0,0-.06-.42"/><path class="cls-16" d="M3.14,9.87a.69.69,0,0,1,.42.12c.15.15-.18,0-.27-.06s-.09,0-.15-.06"/><path class="cls-16" d="M3.71,9.63s.18.27,0,.42,0-.42,0-.42"/><path class="cls-2" d="M3.77,10.05l-.09.27c0-.09-.18-.12-.33-.15s-.24-.3-.24-.3a.6.6,0,0,1,.48.21c0-.18,0-.39.12-.42a.54.54,0,0,1,.06.39m-.06-.51a.65.65,0,0,0-.15.24.59.59,0,0,1,0,.21C3.41,9.78,3,9.81,3,9.84a1.07,1.07,0,0,0,.12.27.46.46,0,0,0,.36.21c.18,0,.27.27.27.27-.06-.18,0-.21.06-.45A.59.59,0,0,0,3.71,9.54Z"/><path class="cls-15" d="M3.89,10.05c-.09.06-.06.27-.06.45a.65.65,0,0,0-.51-.15s.12.26.27.29.3,0,.36.09A.82.82,0,0,1,4,10.47a.69.69,0,0,0-.12-.42"/><path class="cls-16" d="M3.32,10.35a.52.52,0,0,1,.42.09c.18.12-.21,0-.27,0a.51.51,0,0,1-.15-.06"/><path class="cls-16" d="M3.86,10s.21.24.09.42S3.86,10,3.86,10"/><path class="cls-2" d="M4,10.44a.82.82,0,0,0-.06.26c0-.09-.21-.09-.36-.09s-.27-.29-.27-.29a.65.65,0,0,1,.51.15c0-.18,0-.39.06-.45a.45.45,0,0,1,.12.42m-.09-.51a.45.45,0,0,0-.12.27v.21c-.15-.21-.57-.09-.57-.09a.65.65,0,0,0,.15.24.4.4,0,0,0,.39.14c.18,0,.33.24.33.24a.47.47,0,0,1,0-.44A1.47,1.47,0,0,0,3.89,9.93Z"/><path class="cls-15" d="M4.07,10.44c-.06.06,0,.26,0,.44a.68.68,0,0,0-.54-.09s.18.24.33.24.3,0,.36.06v-.3a.43.43,0,0,0-.15-.35"/><path class="cls-16" d="M3.59,10.79a.51.51,0,0,1,.42,0c.18.09-.18.06-.27,0a.22.22,0,0,0-.15,0"/><path class="cls-16" d="M4,10.41s.24.2.15.38S4,10.41,4,10.41"/><path class="cls-2" d="M4.22,10.79v.3C4.16,11,4,11,3.86,11s-.33-.24-.33-.24a.58.58,0,0,1,.54.09c0-.18-.06-.38,0-.44a.35.35,0,0,1,.15.35m-.15-.47a.5.5,0,0,0-.09.29c0,.06,0,.12,0,.21-.18-.18-.57,0-.6,0a1.3,1.3,0,0,0,.18.21.39.39,0,0,0,.39.09c.18,0,.36.18.36.18a.56.56,0,0,1-.06-.45.88.88,0,0,0-.21-.53Z"/><path class="cls-15" d="M4.31,10.82c-.06.09,0,.27,0,.45a.58.58,0,0,0-.54,0s.21.24.33.21.3-.06.36,0a1,1,0,0,1,0-.3.26.26,0,0,0-.15-.33"/><path class="cls-16" d="M3.86,11.24a.69.69,0,0,1,.42,0c.21.06-.18.06-.27.06a.22.22,0,0,0-.15,0"/><path class="cls-16" d="M4.31,10.79s.26.18.18.39-.18-.39-.18-.39"/><path class="cls-2" d="M4.52,11.18a1.51,1.51,0,0,0,0,.3c0-.06-.23,0-.35,0s-.33-.21-.33-.21a.58.58,0,0,1,.54,0,.6.6,0,0,1,0-.45.56.56,0,0,1,.15.33m-.21-.45a.54.54,0,0,0-.06.3.43.43,0,0,0,.06.18c-.21-.15-.57,0-.6.06a1.39,1.39,0,0,0,.21.21.42.42,0,0,0,.42.06c.18-.06.35.15.35.15-.12-.15-.12-.21-.09-.45a.7.7,0,0,0-.29-.51Z"/><path class="cls-15" d="M4.63,11.18c-.06.09,0,.27.09.45a.55.55,0,0,0-.53,0s.21.21.35.18.3-.09.36,0a.92.92,0,0,1,0-.3.63.63,0,0,0-.24-.33"/><path class="cls-16" d="M4.22,11.66a.64.64,0,0,1,.41-.06c.21.06-.17.09-.26.09a.22.22,0,0,0-.15,0"/><path class="cls-16" d="M4.6,11.18s.27.15.21.36-.18-.36-.21-.36"/><path class="cls-2" d="M4.87,11.54c0,.09,0,.18,0,.3-.06-.06-.24,0-.36,0s-.35-.21-.35-.21a.56.56,0,0,1,.53,0c-.06-.15-.15-.36-.09-.45a.6.6,0,0,1,.24.36m-.27-.45a.52.52,0,0,0,0,.3l.09.18c-.2-.15-.56.09-.56.12a1.66,1.66,0,0,0,.24.18.35.35,0,0,0,.41,0c.18-.06.39.12.39.12C5,11.84,5,11.81,5,11.54a.65.65,0,0,0-.39-.45Z"/><path class="cls-15" d="M5,11.51c0,.09.09.27.18.42a.61.61,0,0,0-.54.15s.27.18.39.09.27-.15.36-.09a.48.48,0,0,1-.09-.27.43.43,0,0,0-.3-.3"/><path class="cls-16" d="M4.66,12.05a.72.72,0,0,1,.42-.15c.21,0-.15.12-.24.12a.38.38,0,0,0-.18,0"/><path class="cls-16" d="M5,11.48s.3.09.3.33-.3-.33-.3-.33"/><path class="cls-2" d="M5.26,11.78l.09.27c-.09-.06-.24,0-.36.09S4.6,12,4.6,12a.58.58,0,0,1,.54-.12c-.09-.15-.21-.33-.18-.42a.43.43,0,0,1,.3.3m-.33-.39a.52.52,0,0,0,0,.3.63.63,0,0,0,.12.18c-.24-.09-.56.21-.54.24a1.07,1.07,0,0,0,.27.12.42.42,0,0,0,.42-.06c.15-.09.42,0,.42,0-.15-.12-.15-.15-.24-.39S4.93,11.39,4.93,11.39Z"/><path class="cls-15" d="M5.41,11.78c0,.09.12.27.24.39a.64.64,0,0,0-.51.24s.3.12.42,0,.24-.21.33-.18A1.05,1.05,0,0,1,5.74,12a.46.46,0,0,0-.33-.24"/><path class="cls-16" d="M5.2,12.38a.86.86,0,0,1,.39-.24c.21,0-.12.15-.21.18s-.12,0-.18.06"/><path class="cls-16" d="M5.38,11.78s.33.06.36.27-.36-.27-.36-.27"/><path class="cls-2" d="M5.77,12a.65.65,0,0,0,.15.24c-.09,0-.21.06-.33.15s-.42,0-.42,0a.64.64,0,0,1,.51-.24c-.12-.12-.27-.3-.24-.39a.94.94,0,0,1,.33.27m-.45-.33a.51.51,0,0,0,.09.3c0,.06.09.09.15.15-.27-.06-.51.3-.51.33l.3.09a.39.39,0,0,0,.39-.15c.12-.12.42,0,.42,0C6,12.29,6,12.26,5.86,12S5.32,11.69,5.32,11.69Z"/><path class="cls-15" d="M8,4.4a.67.67,0,0,1,.39.09.54.54,0,0,1,0-.48s.18.21.15.33-.09.26,0,.32a.83.83,0,0,0-.27,0A.66.66,0,0,1,8,4.4"/><path class="cls-16" d="M8.49,4a.57.57,0,0,0-.06.39c0,.17.09-.15.06-.24V4"/><path class="cls-16" d="M8,4.37s.15.23.33.2S8,4.37,8,4.37"/><path class="cls-2" d="M8,4.4a.67.67,0,0,1,.39.09.54.54,0,0,1,0-.48s.18.21.15.33-.09.26,0,.32a.83.83,0,0,0-.27,0A.66.66,0,0,1,8,4.4m.33.29c.24,0,.27,0,.39.15s-.18-.21-.09-.35a.44.44,0,0,0,0-.39,1.27,1.27,0,0,0-.15-.21s-.24.33-.12.51a.54.54,0,0,0-.45,0,.72.72,0,0,0,.42.32Z"/><path class="cls-15" d="M8.43,4.69c.09-.06.27,0,.39.09a.52.52,0,0,1,0-.47s.18.21.15.32S8.91,4.9,9,5a.83.83,0,0,0-.27,0,.51.51,0,0,1-.27-.24"/><path class="cls-16" d="M8.88,4.34a.54.54,0,0,0-.06.38c0,.18.09-.15.06-.23V4.34"/><path class="cls-16" d="M8.43,4.69s.15.24.33.21-.33-.21-.33-.21"/><path class="cls-2" d="M8.43,4.69c.09-.06.27,0,.39.09a.52.52,0,0,1,0-.47s.18.21.15.32S8.91,4.9,9,5a.83.83,0,0,0-.27,0,.51.51,0,0,1-.27-.24m.33.3C9,5,9,5,9.15,5.14S9,4.93,9.06,4.78a.42.42,0,0,0,0-.38,1.27,1.27,0,0,0-.15-.21s-.24.33-.12.5a.51.51,0,0,0-.15-.06.42.42,0,0,0-.27,0A.55.55,0,0,0,8.76,5Z"/><path class="cls-15" d="M8.73,5.05a.57.57,0,0,1,.39.12.46.46,0,0,1,.09-.48s.18.21.12.33-.12.27-.06.33A.93.93,0,0,0,9,5.29a.51.51,0,0,1-.3-.24"/><path class="cls-16" d="M9.18,4.69a.58.58,0,0,0-.09.39c0,.18.09-.15.09-.21a.19.19,0,0,1,0-.18"/><path class="cls-16" d="M8.7,5s.12.27.3.24S8.7,5,8.7,5"/><path class="cls-2" d="M8.73,5.05a.57.57,0,0,1,.39.12.46.46,0,0,1,.09-.48s.18.21.12.33-.12.27-.06.33A.93.93,0,0,0,9,5.29a.51.51,0,0,1-.3-.24m.3.3c.24,0,.27,0,.39.15s-.15-.21-.09-.36a.37.37,0,0,0,0-.39.83.83,0,0,0-.15-.23s-.27.29-.15.5l-.15-.09a.42.42,0,0,0-.27,0c0,.06.15.39.39.42Z"/><path class="cls-15" d="M8.94,5.38c.09,0,.24.09.36.15a.5.5,0,0,1,.15-.45s.15.24.09.36-.15.24-.09.33-.15-.09-.24-.09a.44.44,0,0,1-.27-.3"/><path class="cls-16" d="M9.45,5.11a.77.77,0,0,0-.15.36c0,.18.12-.15.12-.21a.33.33,0,0,1,0-.15"/><path class="cls-16" d="M8.94,5.35s.09.27.27.27-.27-.27-.27-.27"/><path class="cls-2" d="M8.94,5.38c.09,0,.24.09.36.15a.5.5,0,0,1,.15-.45s.15.24.09.36-.15.24-.09.33-.15-.09-.24-.09a.44.44,0,0,1-.27-.3m.27.36c.21.06.27.06.36.21,0,0-.12-.24,0-.36a.32.32,0,0,0,.06-.36A.9.9,0,0,0,9.48,5s-.3.27-.24.48l-.15-.12a.42.42,0,0,0-.27,0s.18.36.39.42Z"/><path class="cls-15" d="M9.15,5.77c.09,0,.24.12.36.21a.5.5,0,0,1,.21-.45s.12.27,0,.36-.18.24-.15.3a.6.6,0,0,0-.24-.12.43.43,0,0,1-.21-.3"/><path class="cls-16" d="M9.69,5.56a.52.52,0,0,0-.18.36c0,.21.15-.12.15-.21a.22.22,0,0,1,0-.15"/><path class="cls-16" d="M9.12,5.74s.06.3.24.3-.24-.3-.24-.3"/><path class="cls-2" d="M9.15,5.77c.09,0,.24.12.36.21a.5.5,0,0,1,.21-.45s.12.27,0,.36-.18.24-.15.3a.6.6,0,0,0-.24-.12.43.43,0,0,1-.21-.3m.21.39c.21.09.24.09.33.27a.54.54,0,0,1,0-.39.41.41,0,0,0,.12-.36l-.09-.27s-.33.24-.3.45a.3.3,0,0,0-.15-.12A.45.45,0,0,0,9,5.68c.06,0,.15.39.36.48Z"/><path class="cls-15" d="M9.33,6.19c.09,0,.21.15.33.27A.67.67,0,0,1,9.9,6s.09.27,0,.39-.21.21-.18.3a.91.91,0,0,0-.21-.15.43.43,0,0,1-.18-.36"/><path class="cls-16" d="M9.87,6a.53.53,0,0,0-.24.33c-.06.18.15-.12.18-.18s.06-.09.06-.15"/><path class="cls-16" d="M9.3,6.16s0,.3.21.33-.21-.33-.21-.33"/><path class="cls-2" d="M9.33,6.19c.09,0,.21.15.33.27A.67.67,0,0,1,9.9,6s.09.27,0,.39-.21.21-.18.3a.91.91,0,0,0-.21-.15.43.43,0,0,1-.18-.36m.15.42c.21.12.24.12.3.3,0,0-.06-.27.06-.36A.34.34,0,0,0,10,6.19a.88.88,0,0,0-.06-.27s-.36.18-.36.42c0-.06-.09-.09-.12-.15a.37.37,0,0,0-.27-.09c.06,0,.09.39.3.51Z"/><path class="cls-15" d="M9.45,6.61c.09,0,.21.18.3.3a.58.58,0,0,1,.33-.42s.06.3-.06.39-.24.18-.21.27C9.75,7.09,9.69,7,9.6,7a.55.55,0,0,1-.15-.36"/><path class="cls-16" d="M10.05,6.55a.72.72,0,0,0-.3.3c-.09.18.18-.09.21-.15s0-.09.09-.15"/><path class="cls-16" d="M9.45,6.58s0,.3.15.36-.15-.36-.15-.36"/><path class="cls-2" d="M9.45,6.61c.09,0,.21.18.3.3a.58.58,0,0,1,.33-.42s.06.3-.06.39-.24.18-.21.27C9.75,7.09,9.69,7,9.6,7a.55.55,0,0,1-.15-.36m.12.45c.18.15.21.15.27.36,0,0,0-.27.12-.36a.37.37,0,0,0,.21-.33V6.46a.56.56,0,0,0-.42.39.49.49,0,0,0-.33-.3s0,.36.15.51Z"/><path class="cls-15" d="M9.54,7.09c.09,0,.18.18.27.33a.54.54,0,0,1,.36-.36s0,.3-.09.36-.24.15-.24.23a1.8,1.8,0,0,0-.18-.2.52.52,0,0,1-.12-.36"/><path class="cls-16" d="M10.14,7.09a.66.66,0,0,0-.3.27c-.09.18.18-.06.21-.15s.06-.09.09-.12"/><path class="cls-16" d="M9.54,7.06s-.06.3.12.39-.12-.39-.12-.39"/><path class="cls-2" d="M9.54,7.09c.09,0,.18.18.27.33a.54.54,0,0,1,.36-.36s0,.3-.09.36-.24.15-.24.23a1.8,1.8,0,0,0-.18-.2.52.52,0,0,1-.12-.36m.06.45c.18.17.21.17.21.38,0,0,0-.27.15-.35a.36.36,0,0,0,.24-.3c0-.09,0-.18,0-.27s-.42.09-.45.33l-.09-.18A.72.72,0,0,0,9.45,7c.06,0,0,.39.15.57Z"/><path class="cls-15" d="M9.6,7.51c.09,0,.18.2.24.35a.48.48,0,0,1,.39-.32s0,.29-.12.35a.54.54,0,0,0-.27.24.54.54,0,0,0-.15-.21.51.51,0,0,1-.09-.41"/><path class="cls-16" d="M10.2,7.57a.56.56,0,0,0-.33.23c-.09.18.18-.06.21-.12a.19.19,0,0,1,.12-.11"/><path class="cls-16" d="M9.6,7.51s-.09.29.09.38-.09-.38-.09-.38"/><path class="cls-2" d="M9.6,7.51c.09,0,.18.2.24.35a.48.48,0,0,1,.39-.32s0,.29-.12.35a.54.54,0,0,0-.27.24.54.54,0,0,0-.15-.21.51.51,0,0,1-.09-.41m0,.47a.63.63,0,0,1,.21.39s0-.27.18-.33a.35.35,0,0,0,.27-.3.77.77,0,0,0,0-.26s-.42.06-.48.29c0-.06,0-.12-.06-.18a.43.43,0,0,0-.21-.17A.65.65,0,0,0,9.63,8Z"/><path class="cls-15" d="M9.63,8c.09,0,.18.21.24.36A.49.49,0,0,1,10.26,8s0,.3-.12.36a.54.54,0,0,0-.27.24.54.54,0,0,0-.15-.21A.46.46,0,0,1,9.63,8"/><path class="cls-16" d="M10.2,8a.85.85,0,0,0-.33.24c-.12.18.18-.06.21-.12A.23.23,0,0,0,10.2,8"/><path class="cls-16" d="M9.63,7.92s-.09.3.09.39-.09-.39-.09-.39"/><path class="cls-2" d="M9.63,8c.09,0,.18.21.24.36A.49.49,0,0,1,10.26,8s0,.3-.12.36-.27.12-.27.21a.54.54,0,0,0-.15-.21A.39.39,0,0,1,9.63,8m0,.45a.63.63,0,0,1,.21.39s0-.27.18-.33a.35.35,0,0,0,.27-.3.83.83,0,0,0,0-.27s-.42.06-.48.3L9.78,8a.81.81,0,0,0-.21-.18A.89.89,0,0,0,9.66,8.4Z"/><path class="cls-15" d="M9.6,8.37c.09,0,.15.21.21.39a.78.78,0,0,1,.42-.33s0,.3-.15.36-.27.12-.27.21a1.05,1.05,0,0,0-.15-.24.46.46,0,0,1-.06-.39"/><path class="cls-16" d="M10.2,8.46a.72.72,0,0,0-.36.21c-.12.15.18,0,.24-.12s.09-.06.12-.09"/><path class="cls-16" d="M9.6,8.34s-.09.3.06.42-.06-.42-.06-.42"/><path class="cls-2" d="M9.6,8.37c.09,0,.15.21.21.39a.78.78,0,0,1,.42-.33s0,.3-.15.36-.27.12-.27.21a1.05,1.05,0,0,0-.15-.24.46.46,0,0,1-.06-.39m0,.48c.15.18.18.21.18.42,0,0,0-.27.21-.33a.39.39,0,0,0,.3-.27c0-.09,0-.18.06-.27a.54.54,0,0,0-.51.27c0-.06,0-.12-.06-.18s-.21-.18-.21-.18a.67.67,0,0,0,0,.54Z"/><path class="cls-15" d="M9.54,8.85c.09,0,.15.24.18.39a.62.62,0,0,1,.45-.3s-.06.3-.18.36-.27.09-.3.18a.6.6,0,0,0-.12-.24.45.45,0,0,1,0-.39"/><path class="cls-16" d="M10.14,9a.56.56,0,0,0-.36.21c-.12.15.18,0,.24-.09A.23.23,0,0,1,10.14,9"/><path class="cls-16" d="M9.54,8.82s-.12.27,0,.42,0-.42,0-.42"/><path class="cls-2" d="M9.54,8.85c.09,0,.15.24.18.39a.62.62,0,0,1,.45-.3s-.06.3-.18.36-.27.09-.3.18a.6.6,0,0,0-.12-.24.45.45,0,0,1,0-.39m0,.45c.12.21.15.24.15.42,0,0,.06-.27.24-.33a.41.41,0,0,0,.3-.24l.09-.27s-.42,0-.51.24a.43.43,0,0,0-.06-.18c0-.12-.21-.21-.21-.21a.64.64,0,0,0,0,.57Z"/><path class="cls-15" d="M9.45,9.27c.09,0,.12.24.15.42a.64.64,0,0,1,.45-.27s-.06.3-.21.33-.3.09-.3.18a1.07,1.07,0,0,0-.12-.27.59.59,0,0,1,0-.39"/><path class="cls-16" d="M10.05,9.45a.53.53,0,0,0-.39.18c-.15.15.18,0,.24-.06a.3.3,0,0,1,.15-.12"/><path class="cls-16" d="M9.45,9.27s-.15.27,0,.42,0-.42,0-.42"/><path class="cls-2" d="M9.45,9.27c.09,0,.12.24.15.42a.64.64,0,0,1,.45-.27s-.06.3-.21.33-.3.09-.3.18a1.07,1.07,0,0,0-.12-.27.59.59,0,0,1,0-.39m-.06.48c.12.21.15.24.12.45,0,0,.09-.27.24-.3a.35.35,0,0,0,.33-.24l.09-.27s-.45,0-.54.21c0-.06,0-.12,0-.18a.58.58,0,0,0-.18-.24.74.74,0,0,0,0,.57Z"/><path class="cls-15" d="M9.36,9.63c.09.06.09.27.12.42A.6.6,0,0,1,10,9.84s-.09.3-.24.33-.3.06-.33.15l-.09-.27a.51.51,0,0,1,.06-.42"/><path class="cls-16" d="M9.93,9.87a1,1,0,0,0-.42.12c-.15.12.18,0,.27-.06a.51.51,0,0,0,.15-.06"/><path class="cls-16" d="M9.36,9.63s-.18.27,0,.42,0-.42,0-.42"/><path class="cls-2" d="M9.36,9.63c.09.06.09.27.12.42A.6.6,0,0,1,10,9.84s-.09.3-.24.33-.3.06-.33.15l-.09-.27a.51.51,0,0,1,.06-.42m-.12.48c.09.24.12.27.06.45,0,0,.12-.27.27-.27a.43.43,0,0,0,.36-.18,1.07,1.07,0,0,0,.12-.27.6.6,0,0,0-.57.15V9.78a.65.65,0,0,0-.15-.24A.89.89,0,0,0,9.24,10.11Z"/><path class="cls-15" d="M9.18,10.05c.09.06.06.27.06.45a.65.65,0,0,1,.51-.15s-.12.26-.27.29-.3,0-.36.09a.82.82,0,0,0-.06-.26.69.69,0,0,1,.12-.42"/><path class="cls-16" d="M9.72,10.35a.52.52,0,0,0-.42.09c-.18.12.18,0,.27,0l.15-.06"/><path class="cls-16" d="M9.21,10s-.21.24-.09.42.09-.42.09-.42"/><path class="cls-2" d="M9.18,10.05c.09.06.06.27.06.45a.65.65,0,0,1,.51-.15s-.12.26-.27.29-.3,0-.36.09a.82.82,0,0,0-.06-.26.69.69,0,0,1,.12-.42M9,10.53c.06.23.09.26,0,.44,0,0,.15-.24.3-.24a.4.4,0,0,0,.39-.14,1.05,1.05,0,0,0,.15-.24s-.42-.12-.57.09v-.21A1.07,1.07,0,0,0,9.18,10a.92.92,0,0,0-.18.57Z"/><path class="cls-15" d="M9,10.41c.06.06,0,.26,0,.44a.68.68,0,0,1,.54-.09s-.18.24-.33.24-.3,0-.36.06v-.3A.53.53,0,0,1,9,10.41"/><path class="cls-16" d="M9.48,10.79a1,1,0,0,0-.42,0c-.18.09.18.06.27,0a1.3,1.3,0,0,1,.15,0"/><path class="cls-16" d="M9,10.41s-.24.2-.15.38.15-.38.15-.38"/><path class="cls-2" d="M9,10.41c.06.06,0,.26,0,.44a.68.68,0,0,1,.54-.09s-.18.24-.33.24-.3,0-.36.06v-.3A.53.53,0,0,1,9,10.41m-.24.41c0,.24.06.3-.06.45,0,0,.18-.24.36-.18A.32.32,0,0,0,9.45,11l.18-.21a.58.58,0,0,0-.6,0,.42.42,0,0,0,0-.2.51.51,0,0,0-.09-.3c.06,0-.24.3-.21.53Z"/><path class="cls-15" d="M8.73,10.82c.06.09,0,.27,0,.45a.58.58,0,0,1,.54,0s-.21.24-.33.21-.3-.06-.36,0v-.3a.34.34,0,0,1,.18-.33"/><path class="cls-16" d="M9.21,11.24a.69.69,0,0,0-.42,0c-.21.06.18.06.27.06a.22.22,0,0,1,.15,0"/><path class="cls-16" d="M8.76,10.79s-.24.18-.18.39.18-.39.18-.39"/><path class="cls-2" d="M8.73,10.82c.06.09,0,.27,0,.45a.58.58,0,0,1,.54,0s-.21.24-.33.21-.3-.06-.36,0v-.3a.34.34,0,0,1,.18-.33m-.27.36c0,.24,0,.3-.09.45,0,0,.21-.21.36-.15a.42.42,0,0,0,.42-.06.7.7,0,0,0,.21-.21.61.61,0,0,0-.6-.06A.76.76,0,0,1,8.82,11a.54.54,0,0,0-.06-.3s-.3.3-.3.51Z"/><path class="cls-15" d="M8.4,11.18c.06.09,0,.27-.09.45a.57.57,0,0,1,.54,0s-.21.21-.36.18-.3-.09-.36,0a1,1,0,0,0,0-.3.56.56,0,0,1,.24-.33"/><path class="cls-16" d="M8.82,11.66a.66.66,0,0,0-.42-.06c-.21.06.18.09.24.09a.38.38,0,0,1,.18,0"/><path class="cls-16" d="M8.43,11.18s-.27.15-.21.36.21-.36.21-.36"/><path class="cls-2" d="M8.4,11.18c.06.09,0,.27-.09.45a.67.67,0,0,1,.54,0s-.24.21-.36.18-.3-.09-.36,0a1,1,0,0,0,0-.3.56.56,0,0,1,.24-.33m-.3.36c0,.24,0,.3-.15.45,0,0,.21-.18.39-.12a.36.36,0,0,0,.42,0L9,11.69s-.36-.27-.57-.12l.09-.18a.52.52,0,0,0,0-.3s-.36.21-.39.45Z"/><path class="cls-15" d="M8.07,11.51c0,.09-.09.27-.18.42a.61.61,0,0,1,.54.15s-.27.18-.39.09-.27-.15-.36-.09a.48.48,0,0,0,.09-.27.38.38,0,0,1,.3-.3"/><path class="cls-16" d="M8.37,12.05A.72.72,0,0,0,8,11.9c-.21,0,.15.12.24.12s.15,0,.18,0"/><path class="cls-16" d="M8.1,11.48s-.3.09-.3.33.3-.33.3-.33"/><path class="cls-2" d="M8.07,11.51c0,.09-.09.27-.18.42a.61.61,0,0,1,.54.15s-.27.18-.39.09-.27-.15-.36-.09a.48.48,0,0,0,.09-.27.38.38,0,0,1,.3-.3m-.39.27c-.06.24-.06.3-.23.39a.48.48,0,0,1,.41-.06.42.42,0,0,0,.42.06l.27-.12s-.3-.33-.54-.24c0-.06.09-.12.12-.18a.52.52,0,0,0,0-.3s-.42.21-.48.45Z"/><path class="cls-15" d="M7.65,11.78c0,.09-.11.27-.23.39a.64.64,0,0,1,.5.24s-.3.12-.41,0-.24-.21-.33-.15a1.05,1.05,0,0,0,.15-.24.38.38,0,0,1,.32-.27"/><path class="cls-16" d="M7.86,12.38a.88.88,0,0,0-.38-.24c-.21,0,.11.15.2.18s.12,0,.18.06"/><path class="cls-16" d="M7.68,11.78s-.32.06-.35.27.35-.27.35-.27"/><path class="cls-2" d="M7.65,11.78c0,.09-.11.27-.23.39a.64.64,0,0,1,.5.24s-.3.12-.41,0-.24-.21-.33-.15a1.05,1.05,0,0,0,.15-.24.38.38,0,0,1,.32-.27M7.21,12c-.12.24-.12.27-.3.36a.52.52,0,0,1,.42,0,.38.38,0,0,0,.38.15,1.14,1.14,0,0,0,.3-.09s-.24-.39-.5-.33L7.65,12a.51.51,0,0,0,.09-.3S7.33,11.78,7.21,12Z"/><path class="cls-2" d="M6.07,12.32a7,7,0,0,0,1.14.27l0,.15s-1.23-.3-1.41-.39-.09-.09.24,0"/><path class="cls-2" d="M7,12.29a5.41,5.41,0,0,1-1.2.3v.15l1.38-.39c.06,0,.18-.12-.18-.06"/><path class="cls-6" d="M6.67,12.47s.27.39.54.3c-.06.18-.24.3-.33.27a.58.58,0,0,1-.3-.39c0-.15.09-.21.09-.18"/><path class="cls-5" d="M7.18,12.89a1.32,1.32,0,0,1-.54-.36s0,.06,0,.09a1.41,1.41,0,0,0,.45.39.23.23,0,0,0,.12-.12"/><path class="cls-6" d="M6.37,12.47s-.27.39-.54.3c.06.18.24.3.33.27a.58.58,0,0,0,.3-.39c0-.15-.06-.21-.09-.18"/><path class="cls-5" d="M5.89,12.92a1.32,1.32,0,0,0,.54-.36s0,.06,0,.09A1.53,1.53,0,0,1,6,13a.41.41,0,0,0-.09-.12"/><path class="cls-6" d="M6.52,12.08c-.18,0-.66,0-.45.27a.83.83,0,0,0,.45.24.86.86,0,0,0,.42-.24c.24-.27-.21-.27-.42-.27"/><path class="cls-5" d="M6.52,12.14c-.09,0-.27.06-.15.24a.51.51,0,0,0,.18.18h0a.36.36,0,0,0,.15-.15c.09-.21-.09-.27-.18-.27"/><path class="cls-6" d="M6.52,12.35h0c-.15,0-.27.09-.21.15s.12.12.21.15h0c.06,0,.12-.06.21-.15s-.06-.15-.21-.15"/><path class="cls-5" d="M6.52,12.44h0q-.13,0-.09.09l.09.09s.06,0,.09-.09,0-.09-.09-.09"/><path class="cls-5" d="M6.28,12.14a.23.23,0,0,0,0,.3c-.09-.06-.36-.24,0-.3"/><path class="cls-5" d="M6.76,12.14a.23.23,0,0,1,0,.3c.09-.06.36-.24,0-.3"/><path class="cls-2" d="M1,8.52A.71.71,0,0,1,.9,8.28.45.45,0,0,1,1,8a.81.81,0,0,1,.5-.18c.48,0,.66.24.66.48a.51.51,0,0,1,0,.21L2,8.43a.27.27,0,0,0,0-.15c0-.15-.12-.3-.48-.3s-.44.15-.44.27v.06h.36V8.16h.17v.33Z"/><path class="cls-2" d="M1.64,9.06c-.26.06-.44.12-.41.27s.24.12.5.09.45-.12.42-.24S1.88,9,1.64,9.06m.09.54c-.47.09-.68-.06-.71-.27s.21-.42.56-.48.66,0,.69.3S2.09,9.57,1.73,9.6Z"/><path class="cls-2" d="M2,10.14l0,.06a.2.2,0,0,0,.24.12h0a.13.13,0,0,0,.12-.18v0a.1.1,0,0,0,0-.06Zm-.53.18v.06a.18.18,0,0,0,.23.15h0a.2.2,0,0,0,.15-.24v0l0-.06Zm1-.51a.57.57,0,0,1,.09.24.51.51,0,0,1,0,.3.3.3,0,0,1-.39.15L2,10.41H2a.28.28,0,0,1-.24.29.39.39,0,0,1-.26,0,.45.45,0,0,1-.24-.32c0-.06,0-.15-.06-.21Z"/><polygon class="cls-2" points="2.84 10.88 1.7 11.42 1.61 11.24 2.78 10.71 2.84 10.88"/><polygon class="cls-2" points="2.69 11.99 2.54 11.75 2.21 11.96 2.39 12.26 2.24 12.35 1.94 11.9 3.02 11.21 3.29 11.66 3.14 11.75 2.99 11.48 2.69 11.66 2.84 11.9 2.69 11.99"/><path class="cls-2" d="M3.17,12.44l0,0a.19.19,0,0,0,.27,0l0,0a.16.16,0,0,0,.06-.24l0,0-.06-.06Zm.3-.54.18.15a.57.57,0,0,1,.15.3.37.37,0,0,1-.42.33.11.11,0,0,1-.09,0h0a.32.32,0,0,1-.09.3c-.06.09-.15.18-.21.27l-.15-.15A1.66,1.66,0,0,1,3,12.83c.12-.12.12-.21.06-.27l0,0-.39.33-.12-.15Z"/><path class="cls-2" d="M3.38,13.61l.75-1,.15.12-.15.57c0,.12-.09.3-.12.41H4a4.18,4.18,0,0,1,.33-.47l.2-.3.15.09L4,14l-.15-.12L4,13.31c0-.15.09-.27.12-.42h0c-.09.12-.18.27-.33.48l-.21.29Z"/><path class="cls-2" d="M4.84,13.78c-.12.27-.12.45,0,.51s.24-.15.33-.39.15-.44,0-.5-.24.12-.33.38m.54.18c-.18.45-.39.57-.6.48s-.24-.39-.12-.75.39-.53.6-.44S5.5,13.66,5.38,14Z"/><path class="cls-2" d="M6.49,14.11h.06a.21.21,0,0,0,.21-.24c0-.15-.06-.21-.18-.21H6.52Zm-.21-.59a.66.66,0,0,1,.24,0,.6.6,0,0,1,.33.09.4.4,0,0,1,.12.26.58.58,0,0,1-.09.3.42.42,0,0,1-.3.15H6.52v.51H6.28Z"/><path class="cls-2" d="M7.51,14h.06a.16.16,0,0,0,.11-.24v0a.18.18,0,0,0-.23-.14s0,0-.06,0Zm-.36-.47.24-.09a.58.58,0,0,1,.32,0c.09.06.15.12.15.21a.33.33,0,0,1-.12.35h0c.09,0,.15.09.24.21a.94.94,0,0,0,.15.3l-.21.06c-.06-.09-.09-.18-.15-.27s-.12-.18-.23-.15h0l.14.51-.17,0Z"/><path class="cls-2" d="M8.46,13.66c.15.24.27.39.39.33s0-.27-.09-.5-.27-.39-.39-.33-.06.27.09.5m.48-.29c.24.41.18.65,0,.77s-.45,0-.66-.39-.21-.62,0-.74.45.06.63.36Z"/><path class="cls-2" d="M9.84,13.49l-1.08-.75.15-.15.45.36a3.18,3.18,0,0,1,.36.3h0l-.27-.39-.3-.48.15-.15.63,1.14Z"/><rect class="cls-2" x="9.99" y="11.72" width="0.21" height="1.26" transform="translate(-5.85 12.45) rotate(-51.07)"/><path class="cls-2" d="M10.91,12.2l-1.07-.66.09-.15.57.09.41.09h0a2.79,2.79,0,0,1-.5-.27l-.3-.18L10.2,11l1.07.63-.09.15-.57-.09-.41-.09h0a3.09,3.09,0,0,1,.5.3l.3.18Z"/><path class="cls-2" d="M11.72,10.56a.27.27,0,0,1-.06.2c-.12.27-.39.33-.75.21s-.5-.5-.41-.71c0-.06.06-.09.09-.15l.14.09s-.06.06-.06.09,0,.3.33.41.48.06.54-.09,0-.08,0-.11Z"/><polygon class="cls-2" points="10.68 9.66 11.9 9.99 11.84 10.17 10.62 9.84 10.68 9.66"/><path class="cls-2" d="M11.6,9H11l.27.09.27.09Zm.12.27.3.12,0,.18-1.2-.48,0-.24,1.29-.06,0,.18-.33,0Z"/><polygon class="cls-2" points="10.88 8.31 10.88 8.13 11.99 8.16 11.99 7.8 12.17 7.8 12.14 8.34 10.88 8.31"/><path class="cls-5" d="M19.22,12.31a3.63,3.63,0,0,1-1.24.18c-2.28,0-3.2-1.89-3.2-4,0-3,1.74-4.25,3.43-4.25a2.37,2.37,0,0,1,1.14.22L19.06,6a1.43,1.43,0,0,0-.69-.16c-.92,0-1.62.74-1.62,2.54s.66,2.42,1.59,2.42a3.22,3.22,0,0,0,.72-.09Z"/><path class="cls-5" d="M22.19,12.51c-2,0-2.68-2.16-2.68-4.16s.84-4.11,2.79-4.11c2.2,0,2.63,2.42,2.63,3.95,0,3.06-1.1,4.32-2.72,4.32Zm.06-1.61c.51,0,.75-1,.75-2.61,0-1.39-.19-2.45-.76-2.45s-.81,1.06-.8,2.49c0,1.61.26,2.57.8,2.57Z"/><path class="cls-5" d="M25.88,4.45a11.94,11.94,0,0,1,1.88-.15,3.37,3.37,0,0,1,2.3.61,2.07,2.07,0,0,1,.68,1.72,2.17,2.17,0,0,1-1.23,2v0a1.79,1.79,0,0,1,.94,1.51A13.46,13.46,0,0,0,31,12.42H29.05a10.06,10.06,0,0,1-.4-1.91c-.12-1-.34-1.19-.74-1.19h-.18v3.1H25.88Zm1.85,3.44H28c.6,0,.9-.51.9-1.1s-.23-1-.81-1a1,1,0,0,0-.33,0Z"/><path class="cls-5" d="M31.84,4.45a12.07,12.07,0,0,1,1.89-.15,3.38,3.38,0,0,1,2.3.61,2.06,2.06,0,0,1,.67,1.72,2.17,2.17,0,0,1-1.22,2v0a1.81,1.81,0,0,1,.93,1.51A15.79,15.79,0,0,0,37,12.42H35a10.06,10.06,0,0,1-.4-1.91c-.12-1-.33-1.19-.74-1.19h-.18v3.1H31.84Zm1.85,3.44h.24c.6,0,.9-.51.9-1.1s-.23-1-.8-1a1.09,1.09,0,0,0-.34,0Z"/><path class="cls-5" d="M39.67,4.33v8.09H37.81V4.33Z"/><path class="cls-5" d="M44.66,9H42.89v1.82h2v1.61H41V4.33h3.7V5.94H42.89V7.45h1.77Z"/><path class="cls-5" d="M46,12.42V4.33h1.69l1.14,2.9c.2.52.59,1.54.79,2.16h0c-.05-.66-.18-2.23-.18-3.75V4.33h1.61v8.09H49.37L48.28,9.69a22,22,0,0,1-.77-2.29h0c0,.7.11,2,.11,3.62v1.4Z"/><path class="cls-5" d="M53.27,6.06h-1.4V4.33h4.68V6.06H55.13v6.36H53.27Z"/><path class="cls-5" d="M61,9H59.21v1.82h2v1.61H57.36V4.33h3.7V5.94H59.21V7.45H61Z"/><path class="cls-5" d="M62.12,10.57a3.28,3.28,0,0,0,1.4.31c.7,0,1-.31,1-.72s-.34-.73-1-1.15A2.59,2.59,0,0,1,62,6.74,2.44,2.44,0,0,1,64.7,4.26,2.92,2.92,0,0,1,66,4.55l-.26,1.59a2.1,2.1,0,0,0-1.06-.27c-.62,0-.92.32-.92.69s.16.58,1.08,1.09a2.55,2.55,0,0,1-1.36,4.84,4,4,0,0,1-1.63-.31Z"/></g></g></svg>