<svg xmlns="http://www.w3.org/2000/svg" viewBox="0 0 645.8 104.77"><defs><style>.cls-1{fill:#fff;}.cls-2{fill:#1d1d1b;}.cls-3{fill:#fdd70b;}.cls-12,.cls-4{fill:none;}.cls-4{stroke:#fdd70b;stroke-width:0.22px;}.cls-5{fill:#21bcef;}.cls-6{fill:#db2625;}.cls-7{fill:#fac48b;}.cls-8{fill:#8c733c;}.cls-9{fill:#c99e72;}.cls-10{fill:#77160f;}.cls-11{fill:#c0a675;}.cls-12{stroke:#1d1d1b;stroke-width:0.4px;}.cls-13{fill:#e52825;}.cls-14{fill:#287935;}.cls-15{fill:#8cc047;}</style></defs><title>Recurso 1</title><g id="Capa_2" data-name="Capa 2"><g id="Capa_1-2" data-name="Capa 1"><path class="cls-1" d="M0,52.38C0,23.43,19.3,0,43.13,0S86.25,23.43,86.25,52.38,67,104.77,43.13,104.77,0,81.13,0,52.38"/><path class="cls-2" d="M43.13,101.42c-22.45,0-40.37-22.06-40.37-49.23S20.87,3,43.13,3,83.5,25,83.5,52.19s-18.12,49.23-40.37,49.23m0-99.25C20.28,2.17,1.77,24.62,1.77,52.38s18.51,50,41.36,50S84.29,80,84.29,52.38,65.77,2.17,43.13,2.17Z"/><path class="cls-3" d="M42.34,31.11A12.08,12.08,0,0,0,41,33.87a3.71,3.71,0,0,1-.2,1.58v.19c0-.39-.19-.78-.19-1.18A3,3,0,0,1,41,32.69a3.41,3.41,0,0,0-.2-2l-2,3.35,1-3.74h0a6.71,6.71,0,0,0-2.17,2,8.81,8.81,0,0,1-.78,1.37l-.2.2c0-.39.2-.79.2-1.18a4.2,4.2,0,0,1,1-1.58,2.88,2.88,0,0,0,.39-1.77l-3.15,2.37,2.37-3h0a6.67,6.67,0,0,0-2.76,1,5.31,5.31,0,0,1-1.18,1,.19.19,0,0,0-.2.19h0c.2-.2.39-.59.79-1a11.3,11.3,0,0,1,1.57-1.18,2.6,2.6,0,0,0,1.19-1.38l-3.75,1,3.15-2h0a7.52,7.52,0,0,0-2.95-.2,4.78,4.78,0,0,1-1.57.4h-.2c.2-.2.59-.4,1-.79a5.75,5.75,0,0,1,1.78-.4A7.17,7.17,0,0,0,36,24.62L32.3,24l3.74-.6a12.25,12.25,0,0,0-2.76-1.37,4,4,0,0,1-1.57-.2l-.2-.2c.39,0,.79-.19,1.18-.19a2.88,2.88,0,0,1,1.77.39,3.41,3.41,0,0,0,2-.2l-3.35-2,3.75,1h0a6.94,6.94,0,0,0-2-2.17,3.09,3.09,0,0,1-1.38-.79h-.4a2.56,2.56,0,0,0,1.19.2,4.32,4.32,0,0,1,1.57,1,3.23,3.23,0,0,0,1.77.59l-2.16-3,2.95,2.37h0a6.66,6.66,0,0,0-1-2.76,3.48,3.48,0,0,1-1-1.38v-.2c.2.2.59.4,1,.79a4.33,4.33,0,0,1,1,1.58,2.7,2.7,0,0,0,1.38,1.18l-1-3.74,2,3.15h0a7.4,7.4,0,0,0,.2-3A4.53,4.53,0,0,1,40.57,13v-.2a3.38,3.38,0,0,0,.78,1,5.75,5.75,0,0,1,.4,1.78,2.7,2.7,0,0,0,1,1.57l.59-3.74.6,3.74a4.34,4.34,0,0,0,1-1.57,6,6,0,0,1,.39-1.78,4.65,4.65,0,0,1,.79-1V13a2.27,2.27,0,0,0-1,1.38,5.12,5.12,0,0,0,.19,2.95h0l2-3.35-1,3.74a2.09,2.09,0,0,0,1.38-1.18,4.21,4.21,0,0,1,1-1.57c.4-.4.79-.59,1-.79v.2c-.4.39-.59.78-1,1.18a6.53,6.53,0,0,0-1,2.75h0l3-2.36L48.25,19.1A3.15,3.15,0,0,0,50,18.51a4.25,4.25,0,0,1,1.58-1,3.33,3.33,0,0,1,1.18-.2l-.2.2c-.39.19-1,.59-1.38.78a6.93,6.93,0,0,0-2,2.17h0l3.74-1-3.34,2a6.2,6.2,0,0,0,2,.19,5.61,5.61,0,0,1,1.77-.39c.39,0,.79.2,1.18.2a.18.18,0,0,0-.2.18h0a4.91,4.91,0,0,1-1.57.2A7.32,7.32,0,0,0,50,23.24l3.74.59L50,24.42a2.46,2.46,0,0,0,1.58.79,5.74,5.74,0,0,1,1.77.39,4.36,4.36,0,0,1,1,.79h-.19c-.6-.2-1-.2-1.58-.4a5,5,0,0,0-2.95.2h0l3.15,2-3.55-.79a2.63,2.63,0,0,0,1.18,1.38A3.11,3.11,0,0,1,52,29.93a4.2,4.2,0,0,0,.79,1,.19.19,0,0,1-.2-.19h0c-.39-.39-.79-.59-1.18-1a4.69,4.69,0,0,0-2.76-1h0l2.36,3-3.34-2.17a3.13,3.13,0,0,0,.59,1.77,4.33,4.33,0,0,1,1,1.58,6.77,6.77,0,0,0,.2,1.18l-.2-.2c-.19-.39-.59-1-.79-1.38a7,7,0,0,0-2.16-2h0l1,3.75-2-3.35a3.4,3.4,0,0,0-.19,2,5.27,5.27,0,0,1,.19,1.77,2.51,2.51,0,0,0-.19,1.18.21.21,0,0,0-.19-.2h0c0-.59-.2-1.18-.2-1.57a5.19,5.19,0,0,0-1.38-2.76Z"/><path class="cls-4" d="M42.34,31.11A12.08,12.08,0,0,0,41,33.87a3.71,3.71,0,0,1-.2,1.58v.19c0-.39-.19-.78-.19-1.18A3,3,0,0,1,41,32.69a3.41,3.41,0,0,0-.2-2l-2,3.35,1-3.74h0a6.71,6.71,0,0,0-2.17,2,8.81,8.81,0,0,1-.78,1.37l-.2.2c0-.39.2-.79.2-1.18a4.2,4.2,0,0,1,1-1.58,2.88,2.88,0,0,0,.39-1.77l-3.15,2.37,2.37-3h0a6.67,6.67,0,0,0-2.76,1,5.31,5.31,0,0,1-1.18,1,.19.19,0,0,0-.2.19h0c.2-.2.39-.59.79-1a11.3,11.3,0,0,1,1.57-1.18,2.6,2.6,0,0,0,1.19-1.38l-3.75,1,3.15-2h0a7.52,7.52,0,0,0-2.95-.2,4.78,4.78,0,0,1-1.57.4h-.2c.2-.2.59-.4,1-.79a5.75,5.75,0,0,1,1.78-.4A7.17,7.17,0,0,0,36,24.62L32.3,24l3.74-.6a12.25,12.25,0,0,0-2.76-1.37,4,4,0,0,1-1.57-.2l-.2-.2c.39,0,.79-.19,1.18-.19a2.88,2.88,0,0,1,1.77.39,3.41,3.41,0,0,0,2-.2l-3.35-2,3.75,1h0a6.94,6.94,0,0,0-2-2.17,3.09,3.09,0,0,1-1.38-.79h-.4a2.56,2.56,0,0,0,1.19.2,4.32,4.32,0,0,1,1.57,1,3.23,3.23,0,0,0,1.77.59l-2.16-3,2.95,2.37h0a6.66,6.66,0,0,0-1-2.76,3.48,3.48,0,0,1-1-1.38v-.2c.2.2.59.4,1,.79a4.33,4.33,0,0,1,1,1.58,2.7,2.7,0,0,0,1.38,1.18l-1-3.74,2,3.15h0a7.4,7.4,0,0,0,.2-3A4.53,4.53,0,0,1,40.57,13v-.2a3.38,3.38,0,0,0,.78,1,5.75,5.75,0,0,1,.4,1.78,2.7,2.7,0,0,0,1,1.57l.59-3.74.6,3.74a4.34,4.34,0,0,0,1-1.57,6,6,0,0,1,.39-1.78,4.65,4.65,0,0,1,.79-1V13a2.27,2.27,0,0,0-1,1.38,5.12,5.12,0,0,0,.19,2.95h0l2-3.35-1,3.74a2.09,2.09,0,0,0,1.38-1.18,4.21,4.21,0,0,1,1-1.57c.4-.4.79-.59,1-.79v.2c-.4.39-.59.78-1,1.18a6.53,6.53,0,0,0-1,2.75h0l3-2.36L48.25,19.1A3.15,3.15,0,0,0,50,18.51a4.25,4.25,0,0,1,1.58-1,3.33,3.33,0,0,1,1.18-.2l-.2.2c-.39.19-1,.59-1.38.78a6.93,6.93,0,0,0-2,2.17h0l3.74-1-3.34,2a6.2,6.2,0,0,0,2,.19,5.61,5.61,0,0,1,1.77-.39c.39,0,.79.2,1.18.2a.18.18,0,0,0-.2.18h0a4.91,4.91,0,0,1-1.57.2A7.32,7.32,0,0,0,50,23.24l3.74.59L50,24.42a2.46,2.46,0,0,0,1.58.79,5.74,5.74,0,0,1,1.77.39,4.36,4.36,0,0,1,1,.79h-.19c-.6-.2-1-.2-1.58-.4a5,5,0,0,0-2.95.2h0l3.15,2-3.55-.79a2.63,2.63,0,0,0,1.18,1.38A3.11,3.11,0,0,1,52,29.93a4.2,4.2,0,0,0,.79,1,.19.19,0,0,1-.2-.19h0c-.39-.39-.79-.59-1.18-1a4.69,4.69,0,0,0-2.76-1h0l2.36,3-3.34-2.17a3.13,3.13,0,0,0,.59,1.77,4.33,4.33,0,0,1,1,1.58,6.77,6.77,0,0,0,.2,1.18l-.2-.2c-.19-.39-.59-1-.79-1.38a7,7,0,0,0-2.16-2h0l1,3.75-2-3.35a3.4,3.4,0,0,0-.19,2,5.27,5.27,0,0,1,.19,1.77,2.51,2.51,0,0,0-.19,1.18.21.21,0,0,0-.19-.2h0c0-.59-.2-1.18-.2-1.57a5.19,5.19,0,0,0-1.38-2.76Z"/><path class="cls-2" d="M35.45,28.75a2.63,2.63,0,0,0,1.18-1.38l-3.74,1,3.15-2h0a7.57,7.57,0,0,0-3-.2,4.72,4.72,0,0,1-1.57.4h0a2,2,0,0,0,1-.79,5.75,5.75,0,0,1,1.78-.4A7.17,7.17,0,0,0,36,24.62L32.3,24l3.74-.6a6.93,6.93,0,0,0-2.76-1.18,3.8,3.8,0,0,1-1.57-.19l-.2-.2c.39,0,.79-.2,1.18-.2a2.88,2.88,0,0,1,1.77.4,3.41,3.41,0,0,0,2-.2l-3.35-2,3.55,1h0a6.78,6.78,0,0,0-2-2.16,3.14,3.14,0,0,1-1.38-.79l-.2-.2a2.56,2.56,0,0,0,1.19.2,4.32,4.32,0,0,1,1.57,1,3.23,3.23,0,0,0,1.77.59l-2.16-3,2.95,2.37h0a6.66,6.66,0,0,0-1-2.76,3.48,3.48,0,0,1-1-1.38l-.2-.2c.2.2.6.4,1,.79a4.33,4.33,0,0,1,1,1.58,2.7,2.7,0,0,0,1.38,1.18l-1-3.74,2,3.34h0a7.34,7.34,0,0,0,.19-2.95,4.76,4.76,0,0,1-.39-1.58V12.8a1.91,1.91,0,0,0,.79,1,5.74,5.74,0,0,1,.39,1.78,2.67,2.67,0,0,0,1,1.57l.59-3.74.59,3.74a4.21,4.21,0,0,0,1-1.57,5.75,5.75,0,0,1,.4-1.78,4.31,4.31,0,0,1,.78-1v.39c-.19.6-.19,1-.39,1.58a5,5,0,0,0,.2,2.95h0l2-3.34-1,3.74a2.07,2.07,0,0,0,1.38-1.18,4.35,4.35,0,0,1,1-1.58c.39-.39.78-.59,1-.79v.2c-.39.39-.59.79-1,1.18a6.54,6.54,0,0,0-1,2.76h0l3-2.36L48.64,19.5a3.18,3.18,0,0,0,1.77-.59,4.35,4.35,0,0,1,1.58-1,3.66,3.66,0,0,1,1.18-.2l-.2.2a4.94,4.94,0,0,1-1.37.79,6.78,6.78,0,0,0-2,2.16h0l3.74-1-3.35,2a3.41,3.41,0,0,0,2,.2,5.69,5.69,0,0,1,1.77-.4c.4,0,.79.2,1.18.2l-.19.2a5,5,0,0,1-1.58.19,7.05,7.05,0,0,0-2.76,1.18l3.75.6-3.75.59a2.48,2.48,0,0,0,1.78.78,5.75,5.75,0,0,1,1.77.4,4.15,4.15,0,0,1,1,.79h-.19c-.59-.2-1-.2-1.58-.4a5,5,0,0,0-3,.2h0l3.15,2-4.14-1a2.07,2.07,0,0,0,1.18,1.38,4.35,4.35,0,0,1,1.58,1l.2-.2a4.35,4.35,0,0,0-1.58-1c-.2-.19-.59-.39-.79-.59l3.94,1,1.18.2h0l-1-.6-3.55-2.16a4,4,0,0,1,2.17,0,4.76,4.76,0,0,0,1.58.39,1.84,1.84,0,0,0,1-.19c.2,0,.59-.2.79-.2h-.79a4.35,4.35,0,0,1-1.58-1A5.9,5.9,0,0,0,51.79,25c-.39,0-.59-.2-1-.39L54.94,24l1.18-.2-1.18-.2L50.81,23a5.82,5.82,0,0,1,2-.79,3.8,3.8,0,0,0,1.57-.19c.2-.2.59-.2.79-.4a1.4,1.4,0,0,0,.59-.59.63.63,0,0,1-.59.59,5.53,5.53,0,0,1-1.77-.19,2.88,2.88,0,0,0-1.77.39h-1l3.55-2,1-.79L54,19.3l-3.94,1a5.2,5.2,0,0,1,1.58-1.37A3.31,3.31,0,0,0,53,18.12a2.52,2.52,0,0,0,.59-.79l.4-.79a2.52,2.52,0,0,1-.79.59,5.69,5.69,0,0,1-1.77.4,4.33,4.33,0,0,0-1.58,1,1.47,1.47,0,0,1-.78.4l2.56-3.16.78-1h0l-1,.79-3.35,2.36a5.82,5.82,0,0,1,.79-2,3.49,3.49,0,0,0,1-1.38,1.46,1.46,0,0,0,.2-1V12.8c-.2.2-.2.59-.39.79-.4.39-1,.79-1.38,1.18a4.27,4.27,0,0,0-1,1.58c-.19.19-.39.59-.59.78l1-3.94.39-1.37-.59,1-2.17,3.74a4.16,4.16,0,0,1,0-2.16,4.6,4.6,0,0,0,.4-1.58v-1c0-.2-.2-.6-.2-.79a1.18,1.18,0,0,1-.2.79,4.29,4.29,0,0,1-1,1.57,5.46,5.46,0,0,0-.39,1.77,1.06,1.06,0,0,1-.4.79h0l-.59-4.13-.2-1.19h0l-.19,1.19L42,16c-.2-.2-.2-.59-.4-.79a5.74,5.74,0,0,0-.39-1.77,4.32,4.32,0,0,1-1-1.57c0-.2-.19-.6,0-.79a1.21,1.21,0,0,0-.19.79,8.1,8.1,0,0,0-.2,1c.2.59.2,1,.39,1.58a4,4,0,0,1,0,2.16L38.2,13,38,11.82,38.2,13l1,3.94a3,3,0,0,1-.59-.79,4.35,4.35,0,0,0-1-1.58,3.64,3.64,0,0,1-1.38-1,1.55,1.55,0,0,1-.39-.79v.79c0,.39.2.59.2.79.39.39.59.78,1,1.18a3.47,3.47,0,0,1,.79,2L34.66,15l-1-.79h0l.79,1.57L37,19.1a1,1,0,0,1-.79-.39,4.23,4.23,0,0,0-1.57-1,5.61,5.61,0,0,1-1.77-.39,2.86,2.86,0,0,0-.79-.59l.39.79c.2.19.4.59.59.78a4.75,4.75,0,0,0,1.38.79A10.93,10.93,0,0,1,36,20.48l-3.94-1-1.18-.2,1,.59,3.55,2h-1a5.35,5.35,0,0,0-1.77-.39,5.56,5.56,0,0,1-1.77.19c-.2,0-.59-.19-.79-.19l.59.59a1.55,1.55,0,0,0,.79.39c.59,0,1.18.2,1.57.2a6,6,0,0,1,2,.78l-4.13.6-1.18.19,1.18.2,4.13.59c-.19.2-.59.2-1,.39a5.63,5.63,0,0,0-1.77.4,4.33,4.33,0,0,1-1.58,1h-.79a1.16,1.16,0,0,0,.79.2c.39,0,.59.2,1,.2.59-.2,1-.2,1.57-.4a4.2,4.2,0,0,1,2.17,0L31.9,29l-1,.59h0l1.18-.2,3.94-1c-.2.19-.4.59-.79.59Z"/><path class="cls-2" d="M43.92,21.86v-1h2.36a3,3,0,0,1,1.57,1.19c0,.19-.59-.4-1.18-.59a9.83,9.83,0,0,0-2.75.39"/><path class="cls-2" d="M46.28,22.45H44.51c-.4.2-.59.59-.79.79,0,.19.2.19.39.19l.2-.19c.2-.2.39-.2.59-.4V23a.85.85,0,0,0,.79.79c.39,0,.79-.2.79-.59V23a1.52,1.52,0,0,1,.78.39c.2.2.59.4.59.2a15,15,0,0,1-1.57-1.18"/><path class="cls-2" d="M42,21.86l-.2-.79H39.39a3.07,3.07,0,0,0-1.58,1.18c0,.2.59-.39,1.18-.59a7,7,0,0,1,3,.2"/><path class="cls-2" d="M39.58,22.45h1.58c.39.2.59.59.79.79,0,.19-.2.19-.4,0h0c-.2-.2-.39-.2-.59-.4V23c0,.39-.2.79-.59.79s-.79-.2-.79-.59v-.4c-.19,0-.39.2-.79.4-.19.19-.59.39-.59.19a3.39,3.39,0,0,0,1.38-1"/><path class="cls-1" d="M23,52.38c0,14.77,9.06,26.79,20.09,26.79s20.08-12,20.08-26.79V52H23v.39"/><path class="cls-5" d="M43.13,25.6C32.1,25.6,23,37.42,23,52H63.21C63,37.42,54.16,25.6,43.13,25.6"/><path class="cls-6" d="M48.64,45.49a28.71,28.71,0,0,0-.39-4.14A28.78,28.78,0,0,1,48.44,37a5.21,5.21,0,0,0-4.52-4.33c-3.55-.2-4.14,1.77-4.14,2.36s1.77,1.38,2.36,1.38a9.4,9.4,0,0,0-5.91,7.29c-.19,1.38,4.53,2.56,5.52,2.56s6.89,1,6.89-.79"/><path class="cls-7" d="M23.24,57.5s9.45-.78,10.83-1.18c.79-.2,3.15-1.18,3.94-1.38a21.07,21.07,0,0,1,3.54-.39c.2,0,.79.59.79.59l1.38-1.38h2.16c.6,0,3.55,1.77,4.34,2,0,0,4.33.79,5.12,1s6.89,1.77,7.28,1.77c-.59,2.36-1.18,4.72-2,7.09A86.78,86.78,0,0,1,50,60.65c-.2-.19-.2,1.19-1.58,1.19a2.51,2.51,0,0,1-2,.78,2.51,2.51,0,0,1-1.78.79s.2.79-2.36.2c-.2,0-1.77,1.77-2.76,0,0,0-1.57.79-2-.59,0,0-1.18.78-1.38-1a1.33,1.33,0,0,1-1.57-.79A80.8,80.8,0,0,0,25,64.79a55.31,55.31,0,0,1-1.77-7.29"/><path class="cls-8" d="M35.64,63.41c-1-.39-5.71.39-8.66,5.12a13.28,13.28,0,0,0,1.38,2.17,19.11,19.11,0,0,0,2-3.35c1.57-3.55,5.31-3.74,5.31-3.94"/><path class="cls-8" d="M33.87,74.83c-1-3.54,2-6.3,1.58-6.3a8.41,8.41,0,0,0-3.35,6.3,8.63,8.63,0,0,0,2.17,1.58,3.77,3.77,0,0,1-.4-1.58"/><path class="cls-8" d="M31.11,73.85c.2-.79.4-1.77.6-2.56.19-3.74,3.93-5.12,3.54-5.32-1-.2-4.33,1.77-5.91,5.91a14.39,14.39,0,0,0,1.77,2"/><path class="cls-8" d="M50.81,66.56c-.2.2,3.35,1.58,3.54,5.32a7,7,0,0,0,.4,2.17,18.31,18.31,0,0,0,1.77-2c-1.58-3.75-4.92-5.72-5.71-5.52"/><path class="cls-8" d="M37.22,77.39c-2.17-3-.39-6.5-.59-6.5A8.42,8.42,0,0,0,35.45,77l2.36,1.18a2.72,2.72,0,0,1-.59-.79"/><path class="cls-8" d="M50.41,69.32c-.39,0,2.56,2.56,1.58,6.3,0,.39-.2.59-.2,1,.59-.4,1.38-1,2-1.38a7.63,7.63,0,0,0-3.35-5.91"/><path class="cls-8" d="M49.23,71.68c-.39,0,1.58,3.35-.59,6.5h0a9.53,9.53,0,0,0,2-1,7.8,7.8,0,0,0-1.38-5.52"/><path class="cls-9" d="M50.81,58.88c-.59-.2-.4-.2-.79-.79-.2.59-.59.59-.59.59s-3-1.18-3.35-3.74c0,0-.59,2-1.57-.19,0,0-1.19,2.36-2.37,2.16s-1.38,0-1.38,0l.59.2h-.59a3.18,3.18,0,0,0,2.56,1.18c1.58-.2,1.58-.59,1.78-.79a11.42,11.42,0,0,1,2.95,2.17c0,.2-.39.2-.79.2-.78-.4-1.38-.79-2.16-1.19l3.34,2.76,1.38-.79v-.78A63.16,63.16,0,0,0,60.06,65a9.62,9.62,0,0,0,1.58-3.15,28.53,28.53,0,0,1-10.83-3"/><path class="cls-9" d="M43.72,59.67s2,1.57,2.56,1.57a.69.69,0,0,0,.65-.75.86.86,0,0,0-.06-.23c-.2-.2,1.18,1.38,1.18,1.38l-1,.59-1-.2Z"/><path class="cls-9" d="M42.73,61.24,44.51,63s.39.59,1.18,0,.59-.79.39-.79-.39-.59-.39-.59-.79.79-1.18.59-1.78-1.18-1.78-1"/><path class="cls-9" d="M24.22,61.24s10.44-1.77,12-2.16a10.56,10.56,0,0,1,4.14,1,18.5,18.5,0,0,0,2.17,1l2.36,1.77-.39.79H42.73c-.78,0-1.57.59-2.36.59a1.32,1.32,0,0,1-1-.79,1.25,1.25,0,0,1-1.76-.17h0l0,0c-.19-.19-.19-.19-.19-.39a.93.93,0,0,1-1.38-1s-1.58.39-1.58-.79c0,0-8.66,2.75-9.65,3.54-.19-1.18-.39-2.36-.59-3.35"/><path class="cls-7" d="M41.35,61.64s-.59.59-1,.59-1.18-.2-.59-.79,1.18-.59,1.38-.39.19,0,.19.59"/><path class="cls-7" d="M39.58,60.65a4.26,4.26,0,0,1-1,.59c-.2,0-1-.19-.59-.78a1.31,1.31,0,0,1,1.38-.4c0,.4.19.2.19.59"/><path class="cls-10" d="M48.44,45.69c-.19.79-2.95,1-6.3.59s-5.91-1.58-5.91-2.36,3-1,6.31-.6,5.9,1.58,5.9,2.37"/><polygon class="cls-8" points="43.72 43.72 42.14 43.52 42.14 54.55 43.72 53.76 43.72 43.72"/><polygon class="cls-11" points="42.54 54.16 43.13 54.16 43.13 45.1 42.54 44.9 42.54 54.16"/><polygon class="cls-8" points="47.07 68.14 44.31 68.14 44.31 65.38 41.55 65.38 41.55 68.14 38.8 68.14 38.8 70.89 41.55 70.89 41.55 78.38 44.31 78.38 44.31 70.89 47.07 70.89 47.07 68.14"/><rect class="cls-11" x="41.55" y="65.58" width="2.76" height="0.2"/><polygon class="cls-11" points="44.11 68.33 44.31 68.53 46.87 68.53 46.87 68.33 44.11 68.33"/><rect class="cls-11" x="38.99" y="68.33" width="2.95" height="0.2"/><rect class="cls-11" x="41.95" y="65.77" width="0.2" height="2.95"/><polygon class="cls-11" points="41.95 76.01 42.14 76.01 42.14 70.89 41.95 70.5 41.95 76.01"/><path class="cls-2" d="M43.72,46.67c2.76.2,4.92,0,5.12-.79.59-3.74-.2-4.52-.2-4.52a3.32,3.32,0,0,0,0-2.76,5.16,5.16,0,0,0-3.94-6.11h-.39c-3.35-.59-4.73,1.38-4.92,2.17-.2,1.57,1.18,1.77,2,1.77a8.87,8.87,0,0,0-5.51,7.49c-.2,1,2.76,2.16,6.3,2.75l.2-.39c-3.15-.59-5.71-1.58-5.51-2.17s2.75-.79,5.9-.39,5.71,1.57,5.52,2.16-2,.79-4.33.6Zm-7.09-3.54a8.63,8.63,0,0,1,6.89-6.7s-3.35-.2-3.54-1.38,2-2.36,4.13-2a4.11,4.11,0,0,1,3.55,4.34c-.2.78-2,1.18-2.76,1.18,1.58,0,2.76.19,2.56.59a3,3,0,0,1-3,1c2,1.18,2.16-.39,3.15,1,.39.59,0,.79-2.17,0-3.54-1-4.53-.59-4.53-.59a15,15,0,0,1,6.3,2.16,1.65,1.65,0,0,1,.4,1.78,21.92,21.92,0,0,0-5.12-1.58,19.86,19.86,0,0,0-5.91.2Z"/><polygon class="cls-12" points="43.91 43.72 42.14 43.32 42.14 54.55 43.91 53.76 43.91 43.72"/><path class="cls-2" d="M60.65,65a101.87,101.87,0,0,1-10.43-4.73l-.79-.59a18.6,18.6,0,0,0-3.94-3,6.3,6.3,0,0,1-1-1.38c.39,1.38-.79,1.18-1.38,2s-1.58,0-2-.2,1-1,2.16-2.17c.2-.39.2-.78,1.58-.59s1.77.2,2.17.59a12.87,12.87,0,0,0,3.74,1.78,11.26,11.26,0,0,1,4.33.78,46.78,46.78,0,0,0,7.48,1.78C62,61.05,61.44,63,60.65,65m-12-3.75a41.19,41.19,0,0,1-3.74-2.56l.59.6a10.11,10.11,0,0,1,2,2.16c.2.4-.59.59-1,.59a26.47,26.47,0,0,1-2.56-1.77c.39.59,2,2,2,2.36s-.59.4-1,.4l-1.77-1.18c.59.78.79,1.18,1,1.37s-.59.2-1,.2h-.2a.75.75,0,0,0,.2-.59c0-.39-.4-.79-1.58-.79,0,0,.4-1.57-1.77-1.18-.59-.79-1-1-2.56-.39a1.28,1.28,0,0,0-1.77-.4h0a.2.2,0,0,0-.2.19h0c-.2.2-.59.39-.59.79-2.36.59-9.85,3.35-9.85,3.35a22.9,22.9,0,0,1-1.57-6.31,74.48,74.48,0,0,0,11.42-1.37c.79-.2,3-1.19,3.74-1.38a15.84,15.84,0,0,1,3.15-.2l.4.2a8.44,8.44,0,0,0-1.58,1.77c0,.2.39.59,1.58.79,1.77.19,2-1,2.75-1a.73.73,0,0,0,.59.2l.2.2.59.39c1,.79,2.56,2,3.15,2.56s-.39,1-.59,1Zm-7.88,3c-.19,0-1-.4-.59-.59a11.39,11.39,0,0,0,1.58-1.18c.39,0,1.57.39.79.78a4,4,0,0,1-1.78,1Zm-2.36-.59c-.59-.2,0-1,.79-1.58s1.18-1.18,2.16-.59c.2.4-.59,1-1,1.38a4.19,4.19,0,0,1-2,.79ZM37,62.82a1.51,1.51,0,0,1,.2-1.58c.2-.19,1.18-1.18,2-.59.39.2-.2.79-.79,1.38A3.35,3.35,0,0,1,37,62.82Zm-1.57-1.18c-.4-.2-.2-.79.19-1.18s1-.59,1.19-.2a.88.88,0,0,1,0,1c-.4,0-1,.6-1.38.4Zm27.17-3.55a35,35,0,0,1-7.87-2,30.51,30.51,0,0,0-4.14-.78c-1.77-.59-3.74-2.17-4.33-2s-2.76-.4-3.15.19c-.2.2-.4.6-.59.79-.4-.19-.59-.39-1-.39H38.6c-.59,0-3.35,1.57-4.14,1.77a70.22,70.22,0,0,1-11,1,36.15,36.15,0,0,0,2,7.87,77.36,77.36,0,0,1,9.46-3.54.18.18,0,0,0,.19.19h0a1.82,1.82,0,0,0,1.38.6c0,.39,0,1.37,1.38,1.18a1.34,1.34,0,0,0,2,.59c.2.59,1,1.18,2.17.39.19-.2.39-.2.59-.39h0c.59.39,2.16.79,2.75-.4a1.11,1.11,0,0,0,1.38-.78h0s1.38.39,1.77-.79c0,0,1.58.2,1.78-1.18,3.34,1.77,6.69,3.34,10.24,4.92a67.67,67.67,0,0,0,2-6.7l.19-.59Z"/><path class="cls-2" d="M35.45,65.77c-.79-.39-4.73,1.19-6.5,5.72l.39.39c1.58-4.14,4.93-6.11,5.91-5.91.2.2-3.35,1.58-3.54,5.32a10.05,10.05,0,0,1-.4,2.56l.4.39c.19-.79.19-1.57.39-2.36C32.1,67,36,66,35.45,65.77"/><path class="cls-2" d="M35.64,68.33c-.78,0-3.34,2.17-3.93,6.11l.39.39a7.67,7.67,0,0,1,3.54-6.1c.4,0-2.56,2.56-1.57,6.3.2.59.2,1,.39,1.58l.59.39a3.7,3.7,0,0,0-.39-1.38c-1.58-4.92,1.57-7.29,1-7.29"/><path class="cls-2" d="M36.83,70.7c-.6.19-2.17,2.75-1.78,6.3l.59.2a7.47,7.47,0,0,1,1.19-6.11c.19,0-1.58,3.35.59,6.5.19.2.39.59.59.79l.59.19L38,77.79c-3-3.94-.59-7.29-1.18-7.09"/><path class="cls-2" d="M54.35,71.88c-.19-3.74-3.94-5.12-3.54-5.32,1-.2,4.13,1.77,5.71,5.71l.39-.39c-1.77-4.33-5.71-5.71-6.3-5.32s3.35,1.18,3.74,6.11c0,.59.2,1.38.2,2l.39-.4a5.25,5.25,0,0,1-.59-2.36"/><path class="cls-2" d="M50.22,69.12c-.59,0,2.75,2.37,1.38,6.89l-.2.79.39-.39c0-.4.2-.59.2-1,1-3.54-2-6.3-1.58-6.3a7.56,7.56,0,0,1,3.35,5.71l.4-.39c-.79-3.35-3.35-5.51-3.94-5.32"/><path class="cls-2" d="M49,71.29c-.6-.2,1.77,3.15-1,6.89l.59-.2h0c2.17-3,.4-6.49.59-6.49A6.81,6.81,0,0,1,50.41,77l.4-.2A6.74,6.74,0,0,0,49,71.29"/><path class="cls-2" d="M35.84,63.41c-.59-.59-5.91-.59-9.25,4.73a.69.69,0,0,0,.19.39c2.76-4.33,6.5-5.32,7.88-4.92a7.75,7.75,0,0,0-4.53,3.74,19.11,19.11,0,0,1-2,3.35c0,.19.2.19.2.39a9.8,9.8,0,0,0,1.77-3.15c2.36-4.53,6.3-3.94,5.71-4.53"/><path class="cls-2" d="M44.11,65.58v2.75h2.76V70.5H44.11V78H42V70.5H39.19V68.33H42V65.58Zm-2.76-.4v2.76H38.6v3.35h2.75v7.48H44.7V71.29h2.76V67.94H44.7V65.18Z"/><path class="cls-2" d="M44.51,72.27c.59.59,1.77,1,1.37,2.37.4-1,.6-1.58,2.76-2-.79,2.16-1.18,1.57-1.18,3.54a2.64,2.64,0,0,1-1.58,2.56A11.91,11.91,0,0,1,40,79c-2.37-.79-3.15-4.14-1.58-5.52,1,2.76.2,1,1.38,2A4,4,0,0,1,41,70.89c0,2.56.59,2.37,1.38,4.93,0-1.18.79-1,.59-3.94a4.94,4.94,0,0,1,1.58,3.54c.19-2.16.59-1.37,0-3.15"/><path class="cls-13" d="M44.9,72.86A3.08,3.08,0,0,1,45.69,76c.39-1,.59-2.56,2.36-3-.59,1.77-1.18,1.58-1.18,3.35a2.61,2.61,0,0,1-1.58,2.16,13,13,0,0,1-5.51.2,3.16,3.16,0,0,1-2-4l.07-.18c0-.2,0-.2.2-.4,1,2.76.19-.39,2.36,3a6.31,6.31,0,0,1,0-5.91c0,2.16,1.38,3.15,1.77,6.1,0-2,.79-2.75.79-4.72,1.77,1.77.79,3.15,1,3.94.59-1.78,1.37-1.78,1-3.75"/><path class="cls-3" d="M39.19,78.18a2.19,2.19,0,0,1-.59-1.57s1,1.37,2,1.18c.19,0-.2-1,0-2A3.63,3.63,0,0,0,42,78.18a2.38,2.38,0,0,0,1.18-2.56A2.9,2.9,0,0,1,43.52,77v.79s.4.19.79-.79c.21-.32.41-.65.59-1a1.65,1.65,0,0,1,.2,1.38s.59-1.38,1.18-1.57c-.4.59-.2,2-1,3a11.9,11.9,0,0,1-5.31,0c-.2-.59-.4-.59-.79-.59"/><path class="cls-2" d="M23.43,52.38C23.43,37.81,32.3,26,43.13,26S62.82,37.81,62.82,52.38,53.76,78.77,42.93,78.77,23.24,67,23.43,52.38m-1,0c0,15,9.26,27.18,20.48,27.18S63.41,67.35,63.41,52.38,54.16,25.21,42.93,25.21,22.45,37.42,22.45,52.38Z"/><path class="cls-14" d="M33.08,29a4.4,4.4,0,0,0-2.56.59,3.57,3.57,0,0,0-.19-3.15s-1.18,1.38-1,2.16.59,1.78.2,2.17a5.57,5.57,0,0,1,1.77-.2A4.4,4.4,0,0,0,33.08,29"/><path class="cls-15" d="M30.13,26.59a3.73,3.73,0,0,1,.39,2.56c-.19,1.18-.59-1-.39-1.58v-1"/><path class="cls-15" d="M33.08,28.75s-1,1.58-2.16,1.38,2.16-1.38,2.16-1.38"/><path class="cls-2" d="M31.11,30.33c-.59,0-1.18.19-1.77.19.4-.39,0-1.37-.19-2.16s1-2.17,1-2.17a4,4,0,0,1,.2,3.35c1-.39,2.16-.79,2.56-.59a2.2,2.2,0,0,1-1.78,1.38m2.56-1.58a5.54,5.54,0,0,0-1.77-.2c-.39.2-.79.2-1.18.4.79-1.18-.59-3.35-.79-3.35A6.07,6.07,0,0,0,29,27a2.88,2.88,0,0,0,0,2.56c.39,1-.79,2.36-.79,2.36.79-.79,1.18-.79,2.56-.79a5.5,5.5,0,0,0,3-2.36Z"/><path class="cls-14" d="M30.33,30.92c-.4-.4-1.58.19-2.56.59a3.56,3.56,0,0,0-.2-3.15s-1.18,1.38-1,2.16.59,1.78.19,2.17a5.6,5.6,0,0,1,1.77-.2,2.78,2.78,0,0,0,1.78-1.57"/><path class="cls-15" d="M27.57,28.55A3.74,3.74,0,0,1,28,31.11c-.19,1.19-.59-1-.39-1.57v-1"/><path class="cls-15" d="M30.52,30.92s-1,1.57-2.16,1.38,2.16-1.38,2.16-1.38"/><path class="cls-2" d="M28.36,32.49c-.59,0-1.18.2-1.77.2.39-.39,0-1.38-.2-2.17s1-2.16,1-2.16a3.53,3.53,0,0,1,.2,3.15c1-.4,2.17-.79,2.56-.59a2.1,2.1,0,0,1-1.77,1.57m2.75-1.77a5.54,5.54,0,0,0-1.77-.2l-1.18.59c.79-1.37-.59-3.54-.79-3.34a3.49,3.49,0,0,0-1,1.38,2.88,2.88,0,0,0,0,2.56c.39,1-.79,2.36-.79,2.36.79-.79,1.18-.79,2.56-1s2.95-2.36,2.95-2.36Z"/><path class="cls-14" d="M28.55,33.28a3.77,3.77,0,0,0-2.56.79,3.52,3.52,0,0,0-.39-3.15s-1.18,1.38-.79,2.16.79,1.78.4,2.17a6,6,0,0,1,1.57-.39c.79-.4,1.58-.79,1.77-1.58"/><path class="cls-15" d="M25.6,31.11a5.46,5.46,0,0,1,.59,2.56c-.2,1.19-.59-1-.59-1.57v-1"/><path class="cls-15" d="M28.75,33.08s-.79,1.78-2,1.58,2-1.58,2-1.58"/><path class="cls-2" d="M26.78,34.66a3.71,3.71,0,0,0-1.57.39c.39-.39,0-1.38-.4-2.16s.79-2.17.79-2.17a4.58,4.58,0,0,1,.59,3.15c.79-.39,2-1,2.56-.79a3,3,0,0,1-2,1.58m2.56-1.77a2.69,2.69,0,0,0-1.77,0,4.26,4.26,0,0,0-1,.59c.59-1.38-1-3.35-1.19-3.35-.39.39-.59,1-1,1.38a2.42,2.42,0,0,0,.2,2.56c.59,1-.59,2.36-.59,2.36.78-.79,1-.79,2.56-1s2.75-2.56,2.75-2.56Z"/><path class="cls-14" d="M27.18,35.45c-.59-.2-1.58.59-2.37,1a3.22,3.22,0,0,0-1-3s-1,1.57-.59,2.36,1,1.58.59,2.17c.59-.2,1-.59,1.57-.59a4.35,4.35,0,0,0,1.78-2"/><path class="cls-15" d="M23.83,33.67a3.68,3.68,0,0,1,1,2.37c0,1.18-.78-1-.78-1.38a6.43,6.43,0,0,1-.2-1"/><path class="cls-15" d="M27.18,35.45s-.59,1.77-1.78,1.77,1.78-1.77,1.78-1.77"/><path class="cls-2" d="M25.4,37.22a12.94,12.94,0,0,0-1.57.59c.2-.59-.2-1.38-.59-2.17s.59-2.36.59-2.36a3.07,3.07,0,0,1,.79,3.15c.78-.59,2-1.18,2.36-1a2.42,2.42,0,0,1-1.58,1.77m2.37-2.17a5.63,5.63,0,0,0-1.78.2c-.39.2-.59.39-1,.59.59-1.38-1.38-3.15-1.58-3.15-.19.59-.59,1-.78,1.58A2.09,2.09,0,0,0,23,36.63c.59.79-.2,2.36-.2,2.36.59-1,.79-1,2.37-1.38s2.56-2.56,2.56-2.56Z"/><path class="cls-14" d="M25.8,38c-.59-.2-1.58.78-2.37,1.38a3.71,3.71,0,0,0-1.18-3s-.78,1.77-.19,2.36,1.18,1.58,1,2A4,4,0,0,1,24.62,40a4.9,4.9,0,0,0,1.18-2"/><path class="cls-15" d="M22.25,36.63A3.4,3.4,0,0,1,23.43,39c.2,1.38-.78-.79-1-1.38a1.46,1.46,0,0,0-.2-1"/><path class="cls-15" d="M25.8,37.81s-.4,2-1.58,2,1.58-2,1.58-2"/><path class="cls-2" d="M24.42,40a6,6,0,0,0-1.58.78c.2-.59-.39-1.37-1-2s.2-2.36.2-2.36a4.19,4.19,0,0,1,1.37,3c.79-.79,1.78-1.58,2.37-1.38a3.63,3.63,0,0,1-1.38,2m2-2.56a5.61,5.61,0,0,0-1.77.39c-.4.2-.59.59-1,.79.4-1.58-1.77-3.15-2-3l-.59,1.78a2.69,2.69,0,0,0,.79,2.36c.79.79.2,2.56.2,2.56a3.36,3.36,0,0,1,2.16-1.77c1.38-.59,2.17-3.15,2.17-3.15Z"/><path class="cls-14" d="M24.62,40.76c-.59,0-1.38,1-2.17,1.78a3.49,3.49,0,0,0-1.77-3c-1.77-1.18-.59,1.78,0,2.56s1.38,1.38,1.18,2a5.86,5.86,0,0,1,1.38-1,3,3,0,0,0,1.38-2.37"/><path class="cls-15" d="M20.87,39.78A4.41,4.41,0,0,1,22.45,42c.39,1.18-1-.79-1.18-1.19,0-.39-.2-.59-.4-1"/><path class="cls-15" d="M24.62,40.57s0,2-1.38,2.16,1.38-2.16,1.38-2.16"/><path class="cls-2" d="M23.43,42.93a3.45,3.45,0,0,0-1.37,1c.19-.6-.59-1.19-1.19-2s0-2.56,0-2.56a4.22,4.22,0,0,1,1.78,3c.78-.79,1.57-1.77,2.16-1.77a3.63,3.63,0,0,1-1.38,2.36m1.78-2.76a3.24,3.24,0,0,0-1.78.59c-.19.4-.59.59-.78,1,.19-1.58-2.17-3-2.37-2.76-.19.59-.19,1.18-.39,1.77a2.83,2.83,0,0,0,1.18,2.37c.79.79.4,2.36.4,2.36.39-1.18.59-1.18,2-2s1.78-3.35,1.78-3.35Z"/><path class="cls-14" d="M23.63,43.52c-.59,0-1.38,1.18-2,2a3.35,3.35,0,0,0-2-2.56s-.39,2,.4,2.56,1.57,1.18,1.38,1.77c.39-.39.78-1,1.37-1.18a3.09,3.09,0,0,0,.79-2.56"/><path class="cls-15" d="M19.89,43.13a4.29,4.29,0,0,1,1.77,2c.59,1.18-1.18-.59-1.18-1-.2-.39-.39-.59-.59-1"/><path class="cls-15" d="M23.63,43.32s.2,2-1,2.37,1-2.37,1-2.37"/><path class="cls-2" d="M22.84,45.88a8.19,8.19,0,0,0-1.37,1.19c0-.59-.79-1.19-1.38-1.78s-.4-2.36-.4-2.36a5,5,0,0,1,2.17,2.76c.59-1,1.38-2,2-2a3.16,3.16,0,0,1-1,2.16m1.38-3a2.67,2.67,0,0,0-1.57,1c-.59.78-.59,1-.59,1,0-1.58-2.56-2.56-2.76-2.56v1.77a2.42,2.42,0,0,0,1.38,2.17c1,.59.79,2.36.79,2.36.19-1.18.39-1.38,1.77-2.36s1-3.35,1-3.35Z"/><path class="cls-14" d="M23,46.67c-.59,0-1.18,1.18-1.77,2.17a3.55,3.55,0,0,0-2.36-2.36s-.2,2,.59,2.36,1.57,1,1.57,1.57A8.61,8.61,0,0,1,22.25,49,2.26,2.26,0,0,0,23,46.67"/><path class="cls-15" d="M19.3,46.67a6.32,6.32,0,0,1,2.17,1.77c.59,1.19-1.19-.39-1.38-1-.4-.2-.59-.59-.79-.79"/><path class="cls-15" d="M23,46.48s.39,2-.79,2.56.79-2.56.79-2.56"/><path class="cls-2" d="M22.45,49a8.13,8.13,0,0,0-1.18,1.37c0-.59-.79-1.18-1.58-1.57s-.59-2.36-.59-2.36a4,4,0,0,1,2.37,2.36c.59-1,1.18-2.17,1.77-2.17A3.47,3.47,0,0,1,22.45,49m1-3a4.32,4.32,0,0,0-1.57,1l-.59,1.18c-.2-1.58-2.76-2.37-3-2.17a5.54,5.54,0,0,0,.2,1.77c0,.79.59,1.38,1.58,2s1,2.37,1,2.37c.2-1.19.4-1.38,1.38-2.56a6.75,6.75,0,0,0,1-3.55Z"/><path class="cls-14" d="M22.84,49.63c-.59.19-1.18,1.37-1.57,2.36a3.22,3.22,0,0,0-2.56-2.17s0,2,.79,2.37,1.77,1,1.77,1.57a3.64,3.64,0,0,1,1-1.38,3.71,3.71,0,0,0,.59-2.75"/><path class="cls-15" d="M18.91,49.82a5.63,5.63,0,0,1,2.16,1.58c.79,1.18-1.18-.4-1.38-.79s-.59-.59-.78-.79"/><path class="cls-15" d="M22.84,49.43s.59,2-.59,2.56.59-2.56.59-2.56"/><path class="cls-2" d="M22.25,52a5.86,5.86,0,0,0-1,1.38c0-.59-1-1-1.77-1.58s-.79-2.36-.79-2.36a4.67,4.67,0,0,1,2.56,2.17c.39-1,1-2.17,1.57-2.37A3.1,3.1,0,0,1,22.25,52M23,48.84A2.09,2.09,0,0,0,21.66,50a2.75,2.75,0,0,0-.39,1.18c-.4-1.57-3-2.16-3.15-2,0,.59.19,1.18.19,1.77a2.31,2.31,0,0,0,1.78,2c1,.4,1.18,2.17,1.18,2.17,0-1.18.2-1.38,1.38-2.56A4.83,4.83,0,0,0,23,48.84Z"/><path class="cls-14" d="M22.65,52.38c-.59.2-1.18,1.38-1.58,2.37a3.86,3.86,0,0,0-2.56-2.37s0,2,.79,2.37,1.77,1,1.77,1.57a3.56,3.56,0,0,1,1-1.38,3,3,0,0,0,.59-2.56"/><path class="cls-15" d="M18.71,52.78a5.53,5.53,0,0,1,2.16,1.57c.79,1.18-1.18-.39-1.37-.79a1.54,1.54,0,0,0-.79-.78"/><path class="cls-15" d="M22.65,52.19s.59,2-.59,2.56.59-2.56.59-2.56"/><path class="cls-2" d="M22.25,54.94a6.07,6.07,0,0,0-1,1.38c0-.59-1-1-1.77-1.57s-.79-2.37-.79-2.37a4.31,4.31,0,0,1,2.56,2.37c.39-1,1-2.17,1.57-2.37a5.29,5.29,0,0,1-.59,2.56M23,51.79s-1.18.59-1.38,1.18l-.59,1.19c-.39-1.58-2.95-2.17-3.15-2a5.33,5.33,0,0,0,.2,1.77,2.58,2.58,0,0,0,1.77,2c1,.39,1.18,2.16,1.18,2.16,0-1.18.2-1.37,1.38-2.56A6.27,6.27,0,0,0,23,51.79Z"/><path class="cls-14" d="M22.65,55.14c-.59.2-1,1.38-1.38,2.56a5.13,5.13,0,0,0-2.76-2.17s.2,2,1,2.37,1.77.78,1.77,1.38a7,7,0,0,1,1-1.58,2.46,2.46,0,0,0,.4-2.56"/><path class="cls-15" d="M18.91,55.73a4.81,4.81,0,0,1,2.36,1.38c.79,1-1.18-.2-1.58-.79-.39,0-.59-.39-.78-.59"/><path class="cls-15" d="M22.65,55.14s.59,2-.4,2.76.4-2.76.4-2.76"/><path class="cls-2" d="M22.45,57.7a4.12,4.12,0,0,0-1,1.58c0-.6-1-1-1.78-1.38s-1-2.37-1-2.37a3.84,3.84,0,0,1,2.76,2.17c.39-1,.78-2.36,1.37-2.56a3.52,3.52,0,0,1-.39,2.56M23,54.55s-1.18.59-1.38,1.38c-.19.39-.19.79-.39,1.18-.4-1.58-3.15-2-3.35-1.77a6,6,0,0,0,.39,1.77,2.6,2.6,0,0,0,2,1.77c1.19.4,1.38,2.17,1.38,2.17,0-1.18.2-1.38,1.18-2.76a4.9,4.9,0,0,0,.2-3.74Z"/><path class="cls-14" d="M23.24,58.29c-.59.2-1,1.58-1.18,2.56a4.12,4.12,0,0,0-2.76-2s.2,2,1.18,2.36,1.77.6,2,1.19a11.65,11.65,0,0,1,.79-1.58,5.82,5.82,0,0,0,0-2.56"/><path class="cls-15" d="M19.3,59.08a3.61,3.61,0,0,1,2.36,1.38c.79,1-1.18-.2-1.57-.59-.2-.4-.59-.59-.79-.79"/><path class="cls-15" d="M23,58.09s.79,1.78-.2,2.76.2-2.76.2-2.76"/><path class="cls-2" d="M23,60.85a6,6,0,0,0-.79,1.58c-.19-.59-1.18-1-2-1.19s-1.18-2.36-1.18-2.36a4.12,4.12,0,0,1,2.76,2c.2-1,.59-2.36,1.18-2.56a3,3,0,0,1,0,2.56m.39-3.35s-1.18.79-1.37,1.38a2.52,2.52,0,0,0-.2,1.18c-.59-1.57-3.35-1.77-3.35-1.57a6.47,6.47,0,0,0,.59,1.77,2.31,2.31,0,0,0,2.17,1.58C22.45,62,22.84,64,22.84,64c-.19-1.18,0-1.38,1-2.76a12.1,12.1,0,0,0-.4-3.74Z"/><path class="cls-14" d="M23.83,61.05c-.59.19-.79,1.57-1,2.75A4.24,4.24,0,0,0,19.89,62s.39,2,1.38,2.17,2,.59,2,1.18A6.85,6.85,0,0,1,24,63.61a4,4,0,0,0-.2-2.56"/><path class="cls-15" d="M19.89,62.23a3.46,3.46,0,0,1,2.56,1.18c1,1-1.18,0-1.58-.39a3.41,3.41,0,0,0-1-.79"/><path class="cls-15" d="M23.63,61.05s1,1.77,0,2.75,0-2.75,0-2.75"/><path class="cls-2" d="M23.83,63.8A6.91,6.91,0,0,0,23,65.58c-.2-.59-1.18-.79-2-1.18S19.69,62,19.69,62a3.68,3.68,0,0,1,3,1.77c.19-1,.39-2.36,1-2.75a2.79,2.79,0,0,1,.2,2.75m0-3.34A3,3,0,0,0,22.65,62a2.52,2.52,0,0,0-.2,1.18c-.79-1.37-3.54-1.57-3.54-1.37l.59,1.77a3,3,0,0,0,2.16,1.57c1.18.2,1.58,2,1.58,2-.2-1.18,0-1.38.79-2.75a5.42,5.42,0,0,0-.2-3.94Z"/><path class="cls-14" d="M24.42,63.61c-.59.39-.79,1.77-.79,2.75A3.91,3.91,0,0,0,20.48,65s.59,2,1.58,2.16,2,.4,2.16,1l.59-1.78a4.3,4.3,0,0,0-.39-2.75"/><path class="cls-15" d="M20.68,65a4.47,4.47,0,0,1,2.75.78c1,1-1.18,0-1.77-.39-.39,0-.59-.2-1-.39"/><path class="cls-15" d="M24.42,63.41s1.18,1.77.2,2.76-.2-2.76-.2-2.76"/><path class="cls-2" d="M24.81,66.17l-.59,1.77c-.19-.59-1.18-.79-2.16-1s-1.58-2-1.58-2a3.91,3.91,0,0,1,3.15,1.37c.2-1.18.2-2.56.79-2.75a3.52,3.52,0,0,1,.39,2.56m-.39-3.35a4.27,4.27,0,0,0-1,1.58,3.76,3.76,0,0,1-.19,1.37c-.79-1.37-3.55-1.18-3.74-1a6.82,6.82,0,0,0,.78,1.77,3,3,0,0,0,2.37,1.38c1.18,0,1.77,1.77,1.77,1.77-.39-1.18-.2-1.38.39-2.95a3.89,3.89,0,0,0-.39-3.94Z"/><path class="cls-14" d="M25.6,66.17c-.59.39-.39,1.77-.39,3a4.26,4.26,0,0,0-3.35-1s.79,1.77,1.77,2,2,0,2.36.59a5.63,5.63,0,0,1,.4-1.77,4.5,4.5,0,0,0-.79-2.76"/><path class="cls-15" d="M21.86,68.14a3.41,3.41,0,0,1,2.76.59c1.18.79-1.38.19-1.78-.2a3.46,3.46,0,0,1-1-.39"/><path class="cls-15" d="M25.4,66s1.38,1.58.59,2.76S25.4,66,25.4,66"/><path class="cls-2" d="M26.19,68.73a5.61,5.61,0,0,0-.39,1.77c-.2-.59-1.38-.59-2.37-.59s-1.77-2-1.77-2a4.21,4.21,0,0,1,3.35,1c0-1.19,0-2.57.39-3a2.91,2.91,0,0,1,.79,2.76m-.59-3.35a2.94,2.94,0,0,0-.79,1.77v1.38c-1-1.38-3.74-.59-3.74-.59a4.35,4.35,0,0,0,1,1.58,2.57,2.57,0,0,0,2.56,1c1.18,0,2.16,1.58,2.16,1.58-.39-1.19-.39-1.38.2-3a9.51,9.51,0,0,0-1.38-3.74Z"/><path class="cls-14" d="M26.78,68.73c-.39.39-.19,1.77,0,3a4.44,4.44,0,0,0-3.54-.59s1.18,1.58,2.16,1.58,2-.2,2.37.39v-2a3,3,0,0,0-1-2.36"/><path class="cls-15" d="M23.63,71.09a3.4,3.4,0,0,1,2.76,0c1.18.59-1.18.4-1.77.2a1.5,1.5,0,0,0-1-.2"/><path class="cls-15" d="M26.59,68.53s1.57,1.38,1,2.56-1-2.56-1-2.56"/><path class="cls-2" d="M27.77,71.09v2c-.4-.59-1.38-.39-2.37-.39s-2.16-1.58-2.16-1.58a3.84,3.84,0,0,1,3.54.59c-.19-1.18-.39-2.56,0-3a2.4,2.4,0,0,1,1,2.36m-1-3.15a3.38,3.38,0,0,0-.59,2c0,.39.2.79.2,1.38-1.18-1.18-3.74,0-3.94,0a8.61,8.61,0,0,0,1.18,1.38,2.58,2.58,0,0,0,2.56.59c1.18-.2,2.36,1.18,2.36,1.18a3.68,3.68,0,0,1-.39-3c.2-1.58-1.38-3.55-1.38-3.55Z"/><path class="cls-14" d="M28.36,71.29c-.4.59,0,1.77.19,2.95A3.75,3.75,0,0,0,25,74.05s1.38,1.57,2.17,1.37,2-.39,2.36,0a6.84,6.84,0,0,1-.2-2,1.66,1.66,0,0,0-1-2.16"/><path class="cls-15" d="M25.4,74.05a4.43,4.43,0,0,1,2.76-.2c1.38.39-1.18.39-1.77.39a1.44,1.44,0,0,0-1-.19"/><path class="cls-15" d="M28.36,71.09s1.77,1.18,1.18,2.56-1.18-2.56-1.18-2.56"/><path class="cls-2" d="M29.74,73.65a6.53,6.53,0,0,0,.19,2c-.39-.39-1.57-.2-2.36,0s-2.17-1.38-2.17-1.38a3.8,3.8,0,0,1,3.55.2,3.92,3.92,0,0,1-.2-3,3.66,3.66,0,0,1,1,2.16m-1.38-3a3.54,3.54,0,0,0-.4,2,2.76,2.76,0,0,0,.4,1.18c-1.38-1-3.74.2-3.94.39a9,9,0,0,0,1.38,1.38,2.74,2.74,0,0,0,2.75.39c1.19-.39,2.37,1,2.37,1-.79-1-.79-1.38-.59-3S28.36,70.5,28.36,70.7Z"/><path class="cls-14" d="M30.52,73.65c-.39.59.2,1.77.59,3a3.74,3.74,0,0,0-3.54.19S29,78.18,29.93,78s2-.59,2.37-.19a6,6,0,0,1-.2-2,4.1,4.1,0,0,0-1.58-2.17"/><path class="cls-15" d="M27.77,76.8a4.3,4.3,0,0,1,2.75-.39c1.38.39-1.18.59-1.77.59a1.46,1.46,0,0,0-1-.2"/><path class="cls-15" d="M30.33,73.65s1.77,1,1.38,2.36-1.19-2.36-1.38-2.36"/><path class="cls-2" d="M32.1,76c0,.6.2,1.19.2,2-.4-.39-1.58,0-2.37.2s-2.36-1.38-2.36-1.38a3.75,3.75,0,0,1,3.54-.19c-.39-1-1-2.37-.59-3A3.89,3.89,0,0,1,32.1,76m-1.77-3a3.41,3.41,0,0,0-.2,2l.59,1.18c-1.38-1-3.74.59-3.74.79a10.56,10.56,0,0,0,1.57,1.18,2.37,2.37,0,0,0,2.76,0c1.18-.39,2.56.79,2.56.79-.79-1-.79-1.18-1-3a4.29,4.29,0,0,0-2.56-3Z"/><path class="cls-14" d="M32.89,75.82c-.2.59.59,1.77,1.18,2.75a4.05,4.05,0,0,0-3.55,1s1.78,1.18,2.56.59,1.78-1,2.37-.59a3.15,3.15,0,0,1-.59-1.77,2.82,2.82,0,0,0-2-2"/><path class="cls-15" d="M30.72,79.36a4.68,4.68,0,0,1,2.76-1c1.38,0-1,.79-1.58.79a2.39,2.39,0,0,0-1.18.19"/><path class="cls-15" d="M32.69,75.62s2,.59,2,2.17-2-2.17-2-2.17"/><path class="cls-2" d="M34.66,77.59l.59,1.77c-.59-.39-1.58.2-2.36.59s-2.56-.78-2.56-.78a3.74,3.74,0,0,1,3.54-.79c-.59-1-1.38-2.17-1.18-2.76a2.8,2.8,0,0,1,2,2M32.49,75a3.41,3.41,0,0,0,.2,2,3.94,3.94,0,0,0,.79,1.18c-1.58-.59-3.74,1.38-3.55,1.58a7.08,7.08,0,0,0,1.78.78,2.74,2.74,0,0,0,2.75-.39c1-.59,2.76.2,2.76.2-1-.79-1-1-1.58-2.56S32.49,75,32.49,75Z"/><path class="cls-14" d="M35.64,77.59c-.19.59.79,1.77,1.58,2.56a4.19,4.19,0,0,0-3.35,1.58s2,.78,2.76.19,1.57-1.38,2.16-1.18a7.51,7.51,0,0,1-1-1.57,3,3,0,0,0-2.17-1.58"/><path class="cls-15" d="M34.27,81.53A5.66,5.66,0,0,1,36.83,80c1.37-.19-.79,1-1.38,1.18-.4.2-.79.2-1.18.4"/><path class="cls-15" d="M35.45,77.59s2.16.39,2.36,1.77-2.36-1.77-2.36-1.77"/><path class="cls-2" d="M38,79.17a4.29,4.29,0,0,0,1,1.57c-.59-.2-1.38.39-2.16,1s-2.76-.2-2.76-.2A4.19,4.19,0,0,1,37.42,80c-.79-.78-1.78-2-1.58-2.56A6.24,6.24,0,0,1,38,79.17m-3-2.17a3.38,3.38,0,0,0,.59,2c.2.39.59.59,1,1-1.77-.39-3.35,2-3.35,2.17.59.2,1.38.39,2,.59a2.58,2.58,0,0,0,2.56-1c.79-.79,2.76-.2,2.76-.2-1.18-.59-1.18-.79-2-2.36S35.05,77,35.05,77Z"/><path class="cls-14" d="M53,29a4.39,4.39,0,0,1,2.56.59,3.6,3.6,0,0,1,.2-3.15s1.18,1.38,1,2.16-.6,1.78-.2,2.17a5.6,5.6,0,0,0-1.77-.2A4.48,4.48,0,0,1,53,29"/><path class="cls-15" d="M55.93,26.59a3.79,3.79,0,0,0-.4,2.56c.2,1.18.59-1,.4-1.58v-1"/><path class="cls-15" d="M53,28.75s1,1.58,2.17,1.38S53,28.75,53,28.75"/><path class="cls-2" d="M53,29a4.39,4.39,0,0,1,2.56.59,3.6,3.6,0,0,1,.2-3.15s1.18,1.38,1,2.16-.6,1.78-.2,2.17a5.6,5.6,0,0,0-1.77-.2A4.48,4.48,0,0,1,53,29m2.17,2c1.58.19,1.77,0,2.56,1,0,0-1.18-1.38-.59-2.36a3,3,0,0,0,0-2.56,8.29,8.29,0,0,0-1-1.38c-.19,0-1.57,2.17-.78,3.35a3.53,3.53,0,0,0-3-.2s1.18,2,2.76,2.17Z"/><path class="cls-14" d="M55.53,30.92c.59-.4,1.78.19,2.56.59a3.6,3.6,0,0,1,.2-3.15s1.18,1.38,1,2.16-.6,1.78-.2,2.17a5.6,5.6,0,0,0-1.77-.2,3.34,3.34,0,0,1-1.78-1.57"/><path class="cls-15" d="M58.49,28.55a3.8,3.8,0,0,0-.4,2.56c.2,1.19.59-1,.4-1.57v-1"/><path class="cls-15" d="M55.53,30.92s1,1.57,2.17,1.38-2.17-1.38-2.17-1.38"/><path class="cls-2" d="M55.53,30.92c.59-.4,1.78.19,2.56.59a3.6,3.6,0,0,1,.2-3.15s1.18,1.38,1,2.16-.6,1.78-.2,2.17a5.6,5.6,0,0,0-1.77-.2,3.34,3.34,0,0,1-1.78-1.57m2.17,2c1.58.19,1.77,0,2.56,1,0,0-1-1.38-.59-2.36a3,3,0,0,0,0-2.56,7.9,7.9,0,0,0-1-1.38c-.19,0-1.57,2.17-.78,3.35a3.27,3.27,0,0,0-1-.4,2.77,2.77,0,0,0-1.77.2,3.58,3.58,0,0,0,2.56,2.17Z"/><path class="cls-14" d="M57.5,33.28a3.76,3.76,0,0,1,2.56.79,3,3,0,0,1,.59-3.15s1.19,1.38.79,2.16-.79,1.78-.39,2.17a6.2,6.2,0,0,0-1.58-.39,3.39,3.39,0,0,1-2-1.58"/><path class="cls-15" d="M60.46,30.92a3.77,3.77,0,0,0-.59,2.56c.19,1.18.59-1,.59-1.38a1.24,1.24,0,0,1,0-1.18"/><path class="cls-15" d="M57.31,33.08s.78,1.78,2,1.58-2-1.58-2-1.58"/><path class="cls-2" d="M57.5,33.28a3.76,3.76,0,0,1,2.56.79,3,3,0,0,1,.59-3.15s1.19,1.38.79,2.16-.79,1.78-.39,2.17a6.2,6.2,0,0,0-1.58-.39,3.39,3.39,0,0,1-2-1.58m2,2c1.58.2,1.77.2,2.56,1,0,0-1-1.37-.59-2.36a2.42,2.42,0,0,0,.2-2.56,6.72,6.72,0,0,0-1-1.57c-.19,0-1.77,2-1,3.34-.39-.19-.59-.39-1-.59a2.82,2.82,0,0,0-1.77,0c-.19.4,1,2.56,2.56,2.76Z"/><path class="cls-14" d="M58.88,35.45c.59-.2,1.58.59,2.36,1a3.25,3.25,0,0,1,1-3s1,1.57.59,2.36-1,1.58-.59,2.17c-.59-.2-1-.59-1.58-.59a2.93,2.93,0,0,1-1.77-2"/><path class="cls-15" d="M62.23,33.67a5.16,5.16,0,0,0-1,2.37c0,1.18.79-1,.79-1.38a2.25,2.25,0,0,1,.2-1"/><path class="cls-15" d="M58.88,35.25S59.47,37,60.65,37s-1.77-1.77-1.77-1.77"/><path class="cls-2" d="M58.88,35.45c.59-.2,1.58.59,2.36,1a3.25,3.25,0,0,1,1-3s1,1.57.59,2.36-1,1.58-.59,2.17c-.59-.2-1-.59-1.58-.59a2.93,2.93,0,0,1-1.77-2m1.77,2.36c1.38.39,1.78.39,2.37,1.38,0,0-.79-1.58-.2-2.36a2.11,2.11,0,0,0,.39-2.37,5.76,5.76,0,0,0-.78-1.57c-.2,0-2,1.77-1.58,3.15a10.58,10.58,0,0,0-1-.79,2.8,2.8,0,0,0-1.78-.2c.2,0,1.19,2.37,2.56,2.76Z"/><path class="cls-14" d="M60.26,38c.59-.2,1.58.78,2.36,1.38a3.33,3.33,0,0,1,1.38-3s.79,1.77.2,2.36-1.18,1.58-1,2A4,4,0,0,0,61.64,40a2.85,2.85,0,0,1-1.38-2"/><path class="cls-15" d="M63.8,36.63A3.48,3.48,0,0,0,62.62,39c-.19,1.38,1-.79,1-1.38a1.52,1.52,0,0,1,.19-1"/><path class="cls-15" d="M60.06,37.81s.4,2,1.58,2-1.58-2-1.58-2"/><path class="cls-2" d="M60.26,38c.59-.2,1.58.78,2.36,1.38a3.33,3.33,0,0,1,1.38-3s.79,1.77.2,2.36-1.18,1.58-1,2A4,4,0,0,0,61.64,40a2.85,2.85,0,0,1-1.38-2m1.38,2.56c1.38.59,1.57.59,2.16,1.77a3.53,3.53,0,0,1,0-2.56,2.67,2.67,0,0,0,.79-2.36L64,35.64c-.2,0-2.16,1.58-2,3a2,2,0,0,0-1-.79,2.91,2.91,0,0,0-1.77-.39c.39,0,1,2.56,2.36,3.15Z"/><path class="cls-14" d="M61.44,40.76c.59,0,1.38,1,2.17,1.78a4.43,4.43,0,0,1,1.57-3s.59,1.78,0,2.56-1.38,1.38-1.18,2a5.86,5.86,0,0,0-1.38-1,2.83,2.83,0,0,1-1.18-2.37"/><path class="cls-15" d="M65,39.78A3.5,3.5,0,0,0,63.41,42c-.39,1.18,1-.79,1.18-1.19s.4-.59.4-1"/><path class="cls-15" d="M61.24,40.57s0,2,1.38,2.16-1.38-2.16-1.38-2.16"/><path class="cls-2" d="M61.44,40.76c.59,0,1.38,1,2.17,1.78a4.43,4.43,0,0,1,1.57-3s.59,1.78,0,2.56-1.38,1.38-1.18,2a5.86,5.86,0,0,0-1.38-1,2.83,2.83,0,0,1-1.18-2.37m1,2.76c1.37.79,1.57.79,2,2,0,0-.4-1.77.39-2.36a2.25,2.25,0,0,0,1-2.37A5.74,5.74,0,0,0,65.38,39c-.2,0-2.36,1.18-2.36,2.76-.2-.39-.59-.59-.79-1a2.44,2.44,0,0,0-1.77-.59c.39,0,.59,2.56,2,3.35Z"/><path class="cls-14" d="M62.23,43.52c.59,0,1.38,1.18,2,2a3.83,3.83,0,0,1,2.16-2.76s.4,2-.39,2.56-1.57,1.19-1.38,1.78a4,4,0,0,0-1.38-1.19,3.64,3.64,0,0,1-1-2.36"/><path class="cls-15" d="M66.17,43.13a4.68,4.68,0,0,0-2,2c-.59,1.18,1.18-.59,1.38-1,0-.39.19-.59.59-1"/><path class="cls-15" d="M62.23,43.32s-.2,2,1,2.37c1.38.59-1-2.37-1-2.37"/><path class="cls-2" d="M62.23,43.52c.59,0,1.38,1.18,2,2a3.83,3.83,0,0,1,2.16-2.76s.4,2-.39,2.56-1.57,1.19-1.38,1.78a4,4,0,0,0-1.38-1.19,3.64,3.64,0,0,1-1-2.36m.79,3c1.18,1,1.38,1,1.77,2.36,0,0-.2-1.77.79-2.36A2.44,2.44,0,0,0,67,44.31V42.54c-.2-.2-2.56,1-2.76,2.56a3.22,3.22,0,0,0-2.17-2c0-.2-.19,2.36,1,3.35Z"/><path class="cls-14" d="M62.82,46.67c.59,0,1.18,1.18,1.77,2.17A3.55,3.55,0,0,1,67,46.48s.19,2-.6,2.36-1.57,1-1.57,1.57A8.13,8.13,0,0,0,63.61,49a3.47,3.47,0,0,1-.79-2.37"/><path class="cls-15" d="M66.76,46.67a4.29,4.29,0,0,0-2,1.77c-.59,1.19,1.18-.39,1.38-1,.19-.2.39-.59.59-.79"/><path class="cls-15" d="M62.82,46.48s-.39,2,.79,2.56-.79-2.56-.79-2.56"/><path class="cls-2" d="M62.82,46.67c.59,0,1.18,1.18,1.77,2.17A3.55,3.55,0,0,1,67,46.48s.19,2-.6,2.36-1.57,1-1.57,1.57A8.13,8.13,0,0,0,63.61,49a3.47,3.47,0,0,1-.79-2.37m.39,3c1.19,1.18,1.38,1.18,1.38,2.56,0,0,0-1.78,1-2.37a2.33,2.33,0,0,0,1.57-2c0-.59.2-1.18.2-1.77-.2-.2-2.76.59-2.95,2.17l-.6-1.18a4.8,4.8,0,0,0-1.57-1.19c.39.2,0,2.56,1,3.75Z"/><path class="cls-14" d="M63.21,49.43c.59.2,1.19,1.38,1.58,2.36a3.21,3.21,0,0,1,2.56-2.16s0,2-.79,2.36a3.52,3.52,0,0,0-1.77,1.57,3.45,3.45,0,0,0-1-1.37,3.48,3.48,0,0,1-.59-2.76"/><path class="cls-15" d="M67.15,49.82A4.13,4.13,0,0,0,65,51.4c-.59,1.18,1.18-.4,1.37-.79a1.6,1.6,0,0,1,.79-.79"/><path class="cls-15" d="M63.21,49.43s-.59,2,.59,2.56-.59-2.56-.59-2.56"/><path class="cls-2" d="M63.21,49.43c.59.2,1.19,1.38,1.58,2.36a3.21,3.21,0,0,1,2.56-2.16s0,2-.79,2.36a3.52,3.52,0,0,0-1.77,1.57,3.45,3.45,0,0,0-1-1.37,3.48,3.48,0,0,1-.59-2.76m.2,3.15a4.15,4.15,0,0,1,1.38,2.56S65,53.37,66,53a2.3,2.3,0,0,0,1.77-2,5.27,5.27,0,0,0,.2-1.77c-.2-.19-2.76.4-3.15,2-.2-.39-.2-.79-.39-1.18A2.7,2.7,0,0,0,63,48.84a4.41,4.41,0,0,0,.39,3.74Z"/><path class="cls-14" d="M63.41,52.38c.59.2,1.18,1.38,1.58,2.37a3.18,3.18,0,0,1,2.56-2.17s0,2-.79,2.36A3.53,3.53,0,0,0,65,56.52a3.59,3.59,0,0,0-1-1.38,3,3,0,0,1-.59-2.76"/><path class="cls-15" d="M67.15,52.58A5.46,5.46,0,0,0,65,54.16c-.79,1.18,1.18-.4,1.37-.79a1.52,1.52,0,0,0,.79-.79"/><path class="cls-15" d="M63.41,52.19s-.59,2,.59,2.56-.59-2.56-.59-2.56"/><path class="cls-2" d="M63.41,52.38c.59.2,1.18,1.38,1.58,2.37a3.18,3.18,0,0,1,2.56-2.17s0,2-.79,2.36S65,55.73,65,56.32a3.66,3.66,0,0,0-1-1.38,2.56,2.56,0,0,1-.59-2.56m.2,3c1,1.18,1.18,1.38,1.38,2.56,0,0,.19-1.78,1.18-2.17a2.32,2.32,0,0,0,1.77-2,5.54,5.54,0,0,0,.2-1.77c-.2-.2-2.76.39-3.15,2l-.59-1.18A5.37,5.37,0,0,0,63,51.6a5.79,5.79,0,0,0,.59,3.74Z"/><path class="cls-14" d="M63.21,55.14c.59.2,1,1.38,1.38,2.56a5.13,5.13,0,0,1,2.76-2.17s-.2,2-1,2.37-1.77.78-1.77,1.38a6.62,6.62,0,0,0-1-1.58,3,3,0,0,1-.4-2.56"/><path class="cls-15" d="M67.15,55.73a4.77,4.77,0,0,0-2.36,1.38c-.79,1,1.18-.2,1.57-.79.2,0,.6-.39.79-.59"/><path class="cls-15" d="M63.21,54.94s-.59,2,.4,2.76c1.18.79-.4-2.76-.4-2.76"/><path class="cls-2" d="M63.21,55.14c.59.2,1,1.38,1.38,2.56a5.13,5.13,0,0,1,2.76-2.17s-.2,2-1,2.37-1.77.78-1.77,1.38a6.62,6.62,0,0,0-1-1.58,3,3,0,0,1-.4-2.56m0,3.15c1,1.18,1.19,1.38,1.19,2.76,0,0,.19-1.77,1.37-2.17a2.55,2.55,0,0,0,2-1.77c.2-.59.2-1.18.4-1.77-.2-.2-2.76.19-3.35,1.77-.2-.39-.2-.79-.39-1.18-.2-.79-1.38-1.18-1.38-1.18s-.79,2.16.19,3.54Z"/><path class="cls-14" d="M62.82,58.29c.59.2,1,1.58,1.18,2.56a4.05,4.05,0,0,1,3-2s-.4,2-1.19,2.36-1.77.6-2,1.19A4,4,0,0,0,63,60.85a2.94,2.94,0,0,1-.2-2.56"/><path class="cls-15" d="M66.76,59.08a3.61,3.61,0,0,0-2.36,1.38c-.79,1,1.18-.2,1.57-.59a1.52,1.52,0,0,1,.79-.79"/><path class="cls-15" d="M62.82,58.09s-.79,1.78.2,2.76-.2-2.76-.2-2.76"/><path class="cls-2" d="M62.82,58.29c.59.2,1,1.58,1.18,2.56a4.05,4.05,0,0,1,3-2s-.4,2-1.19,2.36-1.77.6-2,1.19A4,4,0,0,0,63,60.85a2.94,2.94,0,0,1-.2-2.56m-.2,3c.79,1.38,1,1.58,1,2.76,0,0,.39-1.77,1.57-2.16a2.69,2.69,0,0,0,2-1.58l.59-1.77c0-.2-2.75,0-3.34,1.57a2.9,2.9,0,0,0-.4-1.18c-.2-.79-1.38-1.38-1.38-1.38a4.17,4.17,0,0,0,0,3.74Z"/><path class="cls-14" d="M62.23,61.05c.59.19.79,1.57,1,2.75a4.26,4.26,0,0,1,3-1.77s-.4,2-1.38,2.17-2,.59-2,1.18A6.85,6.85,0,0,0,62,63.61a3.82,3.82,0,0,1,.2-2.56"/><path class="cls-15" d="M66.17,62.23a3.46,3.46,0,0,0-2.56,1.18c-1,1,1.18-.2,1.57-.39a2,2,0,0,1,1-.79"/><path class="cls-15" d="M62.23,61.05s-1,1.77,0,2.75,0-2.75,0-2.75"/><path class="cls-2" d="M62.23,61.05c.59.19.79,1.57,1,2.75a4.26,4.26,0,0,1,3-1.77s-.4,2-1.38,2.17-2,.59-2,1.18A6.85,6.85,0,0,0,62,63.61a3.82,3.82,0,0,1,.2-2.56m-.39,3.15c.78,1.38,1,1.57.78,3,0,0,.59-1.77,1.58-2a2.3,2.3,0,0,0,2.16-1.57l.6-1.77c0-.2-3-.2-3.55,1.37,0-.39-.2-.78-.2-1.18A3.73,3.73,0,0,0,62,60.46a4.8,4.8,0,0,0-.19,3.74Z"/><path class="cls-14" d="M61.64,63.41c.59.39.59,1.77.79,2.76a3.91,3.91,0,0,1,3.15-1.38S65,66.76,64,67s-2,.39-2.16,1l-.6-1.77a3.39,3.39,0,0,1,.4-2.76"/><path class="cls-15" d="M65.38,65a6.5,6.5,0,0,0-2.76.78c-1,.79,1.18,0,1.78-.39a3.46,3.46,0,0,0,1-.39"/><path class="cls-15" d="M61.64,63.41s-1.18,1.77-.2,2.76.2-2.76.2-2.76"/><path class="cls-2" d="M61.64,63.41c.59.39.59,1.77.79,2.76a3.91,3.91,0,0,1,3.15-1.38S65,66.76,64,67s-2,.39-2.16,1l-.6-1.77a3.39,3.39,0,0,1,.4-2.76m-.79,3.15c.59,1.58.79,1.77.39,3,0,0,.79-1.78,1.78-1.78a2.8,2.8,0,0,0,2.36-1.18,7.2,7.2,0,0,0,.79-1.77c0-.2-2.76-.39-3.74,1V64.4a4.27,4.27,0,0,0-1-1.58,5.85,5.85,0,0,0-.59,3.74Z"/><path class="cls-14" d="M60.46,66.17c.59.39.39,1.77.39,3a4.24,4.24,0,0,1,3.35-1s-.79,1.77-1.77,2-2,0-2.37.59a5.61,5.61,0,0,0-.39-1.77,4.5,4.5,0,0,1,.79-2.76"/><path class="cls-15" d="M64,68.14a3.41,3.41,0,0,0-2.76.59c-1.18.79,1.19.19,1.78-.2.39-.2.59-.2,1-.39"/><path class="cls-15" d="M60.65,66s-1.37,1.58-.59,2.76.59-2.76.59-2.76"/><path class="cls-2" d="M60.46,66.17c.59.39.39,1.77.39,3a4.24,4.24,0,0,1,3.35-1s-.79,1.77-1.77,2-2,0-2.37.59a5.61,5.61,0,0,0-.39-1.77,4.5,4.5,0,0,1,.79-2.76m-1.18,3.15c.39,1.57.59,1.77.19,3,0,0,1-1.57,2-1.57a2.57,2.57,0,0,0,2.56-1,7.16,7.16,0,0,0,1-1.57c0-.2-2.76-.79-3.75.59V67.35a6.82,6.82,0,0,0-.78-1.77,6,6,0,0,0-1.18,3.74Z"/><path class="cls-14" d="M59.28,68.53c.39.39.19,1.77,0,3a4.49,4.49,0,0,1,3.54-.6s-1.18,1.58-2.17,1.58-2-.2-2.36.39v-2a3.6,3.6,0,0,1,1-2.36"/><path class="cls-15" d="M62.43,71.09a6.42,6.42,0,0,0-2.76,0c-1.18.59,1.18.4,1.77.2a8.26,8.26,0,0,1,1-.2"/><path class="cls-15" d="M59.28,68.53s-1.58,1.38-1,2.56,1-2.56,1-2.56"/><path class="cls-2" d="M59.28,68.53c.39.39.19,1.77,0,3a4.49,4.49,0,0,1,3.54-.6s-1.18,1.58-2.17,1.58-2-.2-2.36.39v-2a3.6,3.6,0,0,1,1-2.36M57.7,71.29c.2,1.57.39,2-.39,2.95,0,0,1.18-1.57,2.36-1.18a2.09,2.09,0,0,0,2.56-.59c.39-.39.79-1,1.18-1.38,0-.2-2.56-1.18-3.94,0a2.84,2.84,0,0,0,.2-1.38,3.31,3.31,0,0,0-.59-2c.39-.19-1.58,2-1.38,3.55Z"/><path class="cls-14" d="M57.5,71.29c.4.59,0,1.77-.19,2.95a3.75,3.75,0,0,1,3.54-.19s-1.38,1.57-2.17,1.37-2-.39-2.36,0v-2a2.26,2.26,0,0,1,1.18-2.16"/><path class="cls-15" d="M60.65,74.05a4.4,4.4,0,0,0-2.75-.2c-1.38.39,1.18.39,1.77.39a1.4,1.4,0,0,1,1-.19"/><path class="cls-15" d="M57.7,71.09s-1.58,1.18-1.18,2.56,1.18-2.56,1.18-2.56"/><path class="cls-2" d="M57.5,71.29c.4.59,0,1.77-.19,2.95a3.75,3.75,0,0,1,3.54-.19s-1.38,1.57-2.17,1.37-2-.39-2.36,0v-2a2.26,2.26,0,0,1,1.18-2.16m-1.77,2.36c0,1.58.2,2-.59,3,0,0,1.38-1.38,2.36-1a2.77,2.77,0,0,0,2.76-.39,4.78,4.78,0,0,0,1.38-1.38c0-.2-2.56-1.38-3.94-.4a5.1,5.1,0,0,1,.39-1.18,3.55,3.55,0,0,0-.39-2s-2,2-2,3.35Z"/><path class="cls-14" d="M55.34,73.65c.39.59-.2,1.77-.59,3a3.74,3.74,0,0,1,3.54.19S56.91,78.18,55.93,78s-2-.59-2.37-.19a6.57,6.57,0,0,0,.2-2,3.73,3.73,0,0,1,1.58-2.17"/><path class="cls-15" d="M58.09,76.8a4.3,4.3,0,0,0-2.75-.39c-1.38.39,1.18.59,1.57.59a2.52,2.52,0,0,1,1.18-.2"/><path class="cls-15" d="M55.53,73.65s-1.77,1-1.37,2.36,1.37-2.36,1.37-2.36"/><path class="cls-2" d="M55.34,73.65c.39.59-.2,1.77-.59,3a4.38,4.38,0,0,1,3.54.19S56.72,78.18,55.93,78s-2-.59-2.37-.19a6.57,6.57,0,0,0,.2-2,3.73,3.73,0,0,1,1.58-2.17m-2,2.36c0,1.58,0,2-1,3,0,0,1.38-1.18,2.56-.79a2.37,2.37,0,0,0,2.76,0c.59-.39,1-.79,1.58-1.18,0-.2-2.37-1.77-3.75-.79L56.12,75a3.32,3.32,0,0,0-.19-2c-.2-.2-2.37,1.38-2.56,3Z"/><path class="cls-14" d="M53.17,75.82c.2.59-.59,1.77-1.18,2.75a4,4,0,0,1,3.54,1s-1.77,1.18-2.56.59-1.77-1-2.36-.59a3.15,3.15,0,0,0,.59-1.77,2.53,2.53,0,0,1,2-2"/><path class="cls-15" d="M55.14,79.36a4.68,4.68,0,0,0-2.76-1c-1.38,0,1,.79,1.58.79s1,0,1.18.19"/><path class="cls-15" d="M53.37,75.62s-2,.59-2,2.17,2-2.17,2-2.17"/><path class="cls-2" d="M53.17,75.82c.2.59-.59,1.77-1.18,2.75a4,4,0,0,1,3.54,1s-1.77,1.18-2.56.59-1.77-1-2.36-.59a3.15,3.15,0,0,0,.59-1.77,2.53,2.53,0,0,1,2-2m-2.56,1.77c-.39,1.58-.39,2-1.57,2.56,0,0,1.57-1,2.75-.39a2.8,2.8,0,0,0,2.76.39c.59-.2,1.18-.59,1.77-.79,0-.19-2-2.16-3.54-1.57.19-.4.59-.79.78-1.18a3.42,3.42,0,0,0,.2-2c-.2.19-2.76,1.37-3.15,3Z"/><path class="cls-14" d="M50.41,77.59c.2.59-.78,1.77-1.57,2.56a4.21,4.21,0,0,1,3.35,1.58s-2,.78-2.76.19-1.58-1.38-2.17-1a7,7,0,0,0,1-1.58,2.5,2.5,0,0,1,2.16-1.77"/><path class="cls-15" d="M51.79,81.53A5.66,5.66,0,0,0,49.23,80c-1.38-.19.79,1,1.38,1.18.39.2.79.2,1.18.4"/><path class="cls-15" d="M50.61,77.59s-2.17.39-2.36,1.77,2.36-1.77,2.36-1.77"/><path class="cls-2" d="M50.41,77.59c.2.59-.78,1.77-1.57,2.56a4.21,4.21,0,0,1,3.35,1.58s-2,.78-2.76.19-1.58-1.38-2.17-1a7,7,0,0,0,1-1.58,2.5,2.5,0,0,1,2.16-1.77M47.46,79c-.79,1.57-.79,1.77-2,2.36,0,0,1.77-.59,2.76.2a2.56,2.56,0,0,0,2.56,1,7,7,0,0,0,2-.59c0-.19-1.58-2.56-3.35-2.16l1-1a3.31,3.31,0,0,0,.59-2s-2.75.79-3.54,2.17Z"/><path class="cls-2" d="M40,81.13a45.72,45.72,0,0,0,7.48,1.78l.2,1s-8.08-2-9.26-2.56c-.39-.2-.59-.59,1.58-.2"/><path class="cls-2" d="M46.28,80.94a36.24,36.24,0,0,1-7.88,2v1l9.06-2.56c.39,0,1.18-.79-1.18-.39"/><path class="cls-5" d="M43.92,82.12s1.77,2.56,3.54,2c-.39,1.18-1.58,2-2.17,1.77a3.83,3.83,0,0,1-2-2.56c0-1,.6-1.38.6-1.18"/><path class="cls-1" d="M47.26,84.88a8.62,8.62,0,0,1-3.54-2.37c0,.2-.2.4-.2.59a9.11,9.11,0,0,0,3,2.56,1.49,1.49,0,0,0,.78-.78"/><path class="cls-5" d="M42,82.12s-1.78,2.56-3.55,2c.39,1.18,1.58,2,2.17,1.77a3.83,3.83,0,0,0,2-2.56c0-1-.4-1.38-.59-1.18"/><path class="cls-1" d="M38.79,85.07a8.63,8.63,0,0,0,3.55-2.36c0,.2.2.39.2.59a10.12,10.12,0,0,1-3.15,2.56,2.71,2.71,0,0,0-.6-.79"/><path class="cls-5" d="M42.93,79.56c-1.18,0-4.33,0-3,1.77a5.35,5.35,0,0,0,3,1.58,5.65,5.65,0,0,0,2.76-1.58c1.57-1.77-1.38-1.77-2.76-1.77"/><path class="cls-1" d="M42.93,80c-.59,0-1.77.4-1,1.58a3.26,3.26,0,0,0,1.18,1.18h0a2.37,2.37,0,0,0,1-1c.59-1.38-.59-1.78-1.18-1.78"/><path class="cls-5" d="M42.93,81.33h0c-1,0-1.77.59-1.38,1,.2.59.79.78,1.38,1h0c.39,0,.79-.39,1.38-1s-.39-1-1.38-1"/><path class="cls-1" d="M42.93,81.92h0c-.59,0-.79.2-.59.59l.59.59c.2,0,.39-.19.59-.59s0-.59-.59-.59"/><path class="cls-1" d="M41.35,80a1.52,1.52,0,0,0,.2,2c-.59-.39-2.36-1.57-.2-2"/><path class="cls-1" d="M44.51,80a1.52,1.52,0,0,1-.2,2c.59-.39,2.36-1.57.2-2"/><path class="cls-2" d="M6.3,56.12a4.71,4.71,0,0,1-.39-1.57,3,3,0,0,1,.79-2.17A5.34,5.34,0,0,1,10,51.2c3.15,0,4.34,1.58,4.34,3.15a3.41,3.41,0,0,1-.2,1.38L13,55.53a1.75,1.75,0,0,0,.19-1c0-1-.78-2-3.15-2s-2.95,1-2.95,1.77v.4H9.45v-1h1.18v2.17Z"/><path class="cls-2" d="M10.83,59.67c-1.77.39-2.95.79-2.76,1.77.2.79,1.58.79,3.35.59s3-.79,2.76-1.57-1.77-1-3.35-.79m.59,3.54c-3.15.59-4.53-.39-4.72-1.77s1.37-2.76,3.74-3.15,4.33.2,4.53,2-1.19,2.76-3.55,3Z"/><path class="cls-2" d="M13,66.76l.19.39a1.35,1.35,0,0,0,1.58.79h0a.87.87,0,0,0,.85-.89,1.36,1.36,0,0,0-.06-.29v-.2a.64.64,0,0,0-.2-.39ZM9.45,67.94v.39a1.22,1.22,0,0,0,1.38,1l.2,0h.19a1.3,1.3,0,0,0,1-1.54h0v-.23l-.2-.4ZM16,64.59a3.75,3.75,0,0,1,.59,1.58,3.31,3.31,0,0,1,0,2,2,2,0,0,1-2.56,1c-.2-.2-.59-.39-.79-.59h0a1.91,1.91,0,0,1-1.57,2,2.69,2.69,0,0,1-1.77,0,3,3,0,0,1-1.58-2.17c-.2-.39-.2-1-.39-1.37Z"/><polygon class="cls-2" points="18.71 71.68 11.22 75.23 10.63 74.05 18.32 70.5 18.71 71.68"/><polygon class="cls-2" points="17.72 78.97 16.74 77.39 14.57 78.77 15.75 80.74 14.77 81.33 12.8 78.38 19.89 73.85 21.66 76.8 20.68 77.39 19.69 75.62 17.72 76.8 18.71 78.38 17.72 78.97"/><path class="cls-2" d="M20.87,81.92l.2.2a1.27,1.27,0,0,0,1.77.2l.2-.2a1.06,1.06,0,0,0,.48-1.43.6.6,0,0,0-.09-.15l-.19-.19-.4-.4Zm2-3.54c.4.39.79.59,1.19,1a3.8,3.8,0,0,1,1,2,2.44,2.44,0,0,1-2.7,2.17h-.06a.76.76,0,0,1-.59-.2h0c.2.59,0,1.18-.59,2-.39.59-1,1.18-1.38,1.77l-1-1a10.65,10.65,0,0,1,1.18-1.58c.79-.79.79-1.38.39-1.77l-.19-.2-2.56,2.17-.79-1Z"/><path class="cls-2" d="M22.25,89.6l4.93-6.89,1,.79-1,3.74c-.2.79-.59,2-.79,2.76h0a22.79,22.79,0,0,1,2.16-3.15l1.38-2,1,.59L26,92.16l-1-.79,1-3.74c.2-1,.6-1.77.79-2.75h0c-.59.78-1.18,1.77-2.16,3.15l-1.38,2Z"/><path class="cls-2" d="M31.9,90.78c-.79,1.78-.79,3,0,3.35s1.58-1,2.17-2.56,1-2.95,0-3.35-1.58.79-2.17,2.56M35.45,92c-1.18,3-2.56,3.74-3.94,3.15s-1.58-2.56-.79-4.93,2.56-3.54,3.94-3S36.23,90,35.45,92Z"/><path class="cls-2" d="M42.73,93h.4a1.41,1.41,0,0,0,1.38-1.58c0-1-.4-1.37-1.19-1.37h-.39ZM41.35,89a4.46,4.46,0,0,1,1.58-.2,4,4,0,0,1,2.17.6,2.9,2.9,0,0,1,.78,1.77,3.72,3.72,0,0,1-.59,2,2.73,2.73,0,0,1-2,1h-.39v3.35H41.35Z"/><path class="cls-2" d="M49.43,92h.39a1.07,1.07,0,0,0,.79-1.58v-.2a1.23,1.23,0,0,0-1.38-1l-.19,0c-.2,0-.2,0-.4.2Zm-2.36-3.16a16.36,16.36,0,0,1,1.57-.59,4.2,4.2,0,0,1,2.17,0c.59.4,1,.79,1,1.38A2.25,2.25,0,0,1,51,92h0c.6,0,1,.59,1.58,1.37a6.27,6.27,0,0,0,1,2l-1.37.4c-.4-.59-.59-1.18-1-1.78-.39-1-.79-1.18-1.57-1h-.2l1,3.35-1.18.2Z"/><path class="cls-2" d="M55.73,90c1,1.57,1.77,2.56,2.56,2.16s.2-1.77-.59-3.35-1.77-2.56-2.56-2.16-.39,1.77.59,3.35m3.15-2c1.58,2.75,1.18,4.33,0,5.12s-3-.2-4.33-2.56-1.38-4.14.2-4.93S57.7,86.06,58.88,88Z"/><path class="cls-2" d="M64.79,88.81,57.7,83.89l1-1,3,2.36a22.19,22.19,0,0,1,2.36,2h0c-.59-.79-1.18-1.77-1.77-2.56l-2-3.15,1-1L65.38,88Z"/><rect class="cls-2" x="65.78" y="77.24" width="1.38" height="8.27" transform="translate(-38.6 81.95) rotate(-51.07)"/><path class="cls-2" d="M71.88,80.35,64.79,76l.59-1,3.74.59c.79.2,2,.39,2.76.59h0a18.49,18.49,0,0,1-3.35-1.77l-2-1.18.59-1,7.09,4.14-.59,1-3.74-.59c-1-.19-1.77-.39-2.76-.59h0a23,23,0,0,1,3.35,2l2,1.18Z"/><path class="cls-2" d="M77.2,69.52a1.87,1.87,0,0,1-.4,1.37c-.79,1.78-2.56,2.17-4.92,1.38-3-1.38-3.35-3.35-2.76-4.72.2-.4.4-.59.59-1l1,.59c-.2.2-.4.4-.4.59-.39.79,0,2,2.17,2.76s3.15.39,3.54-.59a1.16,1.16,0,0,0,.2-.79Z"/><polygon class="cls-2" points="70.3 63.61 78.38 65.77 77.98 66.96 69.91 64.79 70.3 63.61"/><path class="cls-2" d="M76.41,59.28H72.47l1.77.59,1.77.59Zm.79,1.77,2,.79L79,63l-7.88-3.15.2-1.58,8.47-.39-.2,1.18-2.17.2Z"/><polygon class="cls-2" points="71.68 54.75 71.68 53.56 78.97 53.76 78.97 51.4 80.15 51.4 79.95 54.94 71.68 54.75"/><path class="cls-1" d="M102.53,69.27A18,18,0,0,0,111,71.62c6.08,0,9.74-4,9.74-9.91,0-5.39-3.13-8.69-7.74-12.17-4.61-3.22-11-8.7-11-16.26,0-8.87,6.26-15.39,15.47-15.39a16.11,16.11,0,0,1,8.26,2.17L124,25.8a12.28,12.28,0,0,0-7-2,8.09,8.09,0,0,0-8.43,8.35c0,5.82,3,8.17,8.61,12.08,7,5,10.17,10.35,10.17,16.87,0,10.09-7.13,16.43-16.43,16.43-4,0-8.26-1.3-9.91-2.6Z"/><path class="cls-1" d="M140,56.58c.09,13,5.13,15.65,9.92,15.65a14.94,14.94,0,0,0,7-1.56L158,75.53a20.33,20.33,0,0,1-9.3,2c-10,0-15.22-8.17-15.22-21.12,0-13.65,5.74-22.17,14.18-22.17s12,9,12,18.52c0,1.65-.08,2.78-.17,3.82Zm13.22-5c.09-8.43-3-12.17-6.26-12.17-4.35,0-6.61,6.44-6.87,12.17Z"/><path class="cls-1" d="M187.38,76a14.44,14.44,0,0,1-7,1.56c-9.21,0-15.39-7.39-15.39-21.3,0-12.08,6.09-21.91,16.61-21.91a12.38,12.38,0,0,1,5.91,1.39l-1.3,5.39A11,11,0,0,0,181.47,40c-6.79,0-9.74,8-9.74,16.26,0,9.83,3.74,15.74,9.91,15.74a10,10,0,0,0,4.78-1.13Z"/><path class="cls-1" d="M193,45.8c0-3.57-.27-7.74-.35-10.87h6l.35,6.61h.17c1.39-4,5-7.3,8.87-7.3a7.65,7.65,0,0,1,1.39.08v6.87a6.82,6.82,0,0,0-1.39-.09c-4.26,0-7.39,3.92-8.09,8.79a25.2,25.2,0,0,0-.26,3.82V77H193Z"/><path class="cls-1" d="M218.15,56.58c.09,13,5.13,15.65,9.91,15.65a15,15,0,0,0,7-1.56l1.13,4.86a20.33,20.33,0,0,1-9.3,2c-10,0-15.22-8.17-15.22-21.12,0-13.65,5.74-22.17,14.17-22.17s12,9,12,18.52c0,1.65-.09,2.78-.17,3.82Zm13.22-5c.08-8.43-3.05-12.17-6.26-12.17-4.35,0-6.61,6.44-6.87,12.17Z"/><path class="cls-1" d="M253.19,25.11v9.82h8.08v5h-8.08V65c0,5.57,1.91,7,4.34,7a11.54,11.54,0,0,0,2.7-.26l.35,5.13a14.82,14.82,0,0,1-5,.69c-2.69,0-5-.69-6.61-2.52-1.73-1.91-2.52-4.78-2.52-10.6V40h-5.13v-5h5.13V27.8Z"/><path class="cls-1" d="M289.35,67.45a65.79,65.79,0,0,0,.44,9.56h-6l-.44-4.43h-.26a9.43,9.43,0,0,1-8.34,5.13c-5.65,0-10-4.7-10-12,0-10.61,8.43-15.22,17.91-15.3V49.1c0-5.65-1.39-9.56-6.7-9.56A12,12,0,0,0,269,41.71L267.53,37a18.32,18.32,0,0,1,9.83-2.78c8.43,0,12,5.56,12,14.95Zm-6.52-12.26c-3.47,0-11.56.7-11.56,9.82,0,5.57,2.78,7.48,5.13,7.48,3,0,5.39-2.17,6.17-6.35a11.16,11.16,0,0,0,.26-2.43Z"/><path class="cls-1" d="M298.74,45.8c0-3.57-.26-7.74-.35-10.87h6l.35,6.61h.18c1.39-4,4.95-7.3,8.86-7.3a7.54,7.54,0,0,1,1.39.08v6.87a6.72,6.72,0,0,0-1.39-.09c-4.26,0-7.39,3.92-8.08,8.79a24,24,0,0,0-.26,3.82V77h-6.7Z"/><path class="cls-1" d="M323.52,28.41c-2.17,0-3.83-1.74-3.83-4.35s1.74-4.34,3.92-4.34c2.43,0,4,1.73,4,4.34s-1.57,4.35-4,4.35ZM320.39,77V34.93h6.69V77Z"/><path class="cls-1" d="M358.56,67.45A67.31,67.31,0,0,0,359,77h-6l-.43-4.43h-.26A9.45,9.45,0,0,1,344,77.71c-5.65,0-10-4.7-10-12,0-10.61,8.43-15.22,17.91-15.3V49.1c0-5.65-1.39-9.56-6.69-9.56a12,12,0,0,0-7,2.17L336.73,37a18.32,18.32,0,0,1,9.83-2.78c8.43,0,12,5.56,12,14.95ZM352,55.19c-3.48,0-11.57.7-11.57,9.82,0,5.57,2.78,7.48,5.13,7.48,3,0,5.39-2.17,6.17-6.35a11.17,11.17,0,0,0,.27-2.43Z"/><path class="cls-1" d="M407.07,16.85V66.93c0,2.87.26,7.65.35,10.08h-5.74l-.44-5.21h-.34a9.67,9.67,0,0,1-8.79,5.91c-7.13,0-12.26-7.65-12.26-21.56,0-15,6.18-21.91,12.7-21.91a8.07,8.07,0,0,1,7.65,4.95h.17V16.85Zm-6.7,34.08c0-.87,0-1.83-.08-2.78C399.94,43.8,397.24,40,394,40c-5.57,0-7.48,7.74-7.48,16.18,0,8.86,2.26,16,7.13,16,2.09,0,5-1.13,6.43-7.21a9.27,9.27,0,0,0,.26-2.79Z"/><path class="cls-1" d="M421.06,56.58c.09,13,5.13,15.65,9.91,15.65a15,15,0,0,0,7-1.56l1.13,4.86a20.33,20.33,0,0,1-9.3,2c-10,0-15.22-8.17-15.22-21.12,0-13.65,5.74-22.17,14.17-22.17s12,9,12,18.52c0,1.65-.08,2.78-.17,3.82Zm13.22-5c.09-8.43-3-12.17-6.26-12.17-4.35,0-6.61,6.44-6.87,12.17Z"/><path class="cls-1" d="M465.92,24.41H455.23v-6h28.08v6H472.62V77h-6.7Z"/><path class="cls-1" d="M484.53,45.8c0-3.57-.26-7.74-.35-10.87h6l.35,6.61h.17c1.39-4,5-7.3,8.87-7.3a7.6,7.6,0,0,1,1.39.08v6.87a6.77,6.77,0,0,0-1.39-.09c-4.26,0-7.39,3.92-8.09,8.79a25.2,25.2,0,0,0-.26,3.82V77h-6.69Z"/><path class="cls-1" d="M527.83,67.45a67.31,67.31,0,0,0,.43,9.56h-6l-.43-4.43h-.26a9.45,9.45,0,0,1-8.35,5.13c-5.65,0-10-4.7-10-12,0-10.61,8.43-15.22,17.91-15.3V49.1c0-5.65-1.39-9.56-6.69-9.56a12,12,0,0,0-7,2.17L506,37a18.32,18.32,0,0,1,9.83-2.78c8.43,0,12,5.56,12,14.95ZM521.3,55.19c-3.47,0-11.56.7-11.56,9.82,0,5.57,2.78,7.48,5.13,7.48,3,0,5.39-2.17,6.17-6.35a11.16,11.16,0,0,0,.26-2.43Z"/><path class="cls-1" d="M537.21,16.85h6.7v23h.17c2.18-4.18,5.31-5.65,8.87-5.65,6.61,0,11.48,7.47,11.48,21.3,0,15.21-6.26,22.17-12.7,22.17-4.52,0-6.78-2.61-8.34-6.17H543L542.6,77h-5.73c.08-2.43.34-7.21.34-10Zm6.7,45.38a12.27,12.27,0,0,0,.26,2.61c1.56,6.17,4.43,7.3,6.26,7.3,5.39,0,7.3-7.3,7.3-16.25,0-8.44-2-15.92-7.39-15.92-3.13,0-5.65,3.83-6.26,7.48-.08,1-.17,2-.17,3Z"/><path class="cls-1" d="M594.16,67.45a67.31,67.31,0,0,0,.43,9.56h-6l-.44-4.43h-.26a9.44,9.44,0,0,1-8.35,5.13c-5.65,0-10-4.7-10-12,0-10.61,8.44-15.22,17.91-15.3V49.1c0-5.65-1.39-9.56-6.69-9.56a12,12,0,0,0-7,2.17L572.34,37a18.28,18.28,0,0,1,9.82-2.78c8.43,0,12,5.56,12,14.95Zm-6.52-12.26c-3.48,0-11.57.7-11.57,9.82,0,5.57,2.79,7.48,5.13,7.48,3,0,5.4-2.17,6.18-6.35a11.81,11.81,0,0,0,.26-2.43Z"/><path class="cls-1" d="M596.5,89.1c1.92-.44,4.27-1.22,5.66-3.22,1.47-2.26,2-5.48,2-13.39V34.93h6.69V74.32c0,8.87-1.3,13-4.26,16.17a15.08,15.08,0,0,1-9.22,3.91Zm11-60.69c-2.26,0-3.91-1.74-3.91-4.35a4,4,0,0,1,4-4.34c2.34,0,3.91,1.73,3.91,4.34s-1.57,4.35-3.91,4.35Z"/><path class="cls-1" d="M631.8,77.71c-7.56,0-13.65-6.87-13.65-21.65,0-15.39,6.87-21.82,14.09-21.82,7.56,0,13.56,6.95,13.56,21.65,0,16.34-7.48,21.82-13.91,21.82Zm.35-5.31c5.74,0,7-9.82,7-16.43S637.89,39.54,632,39.54s-7.13,9.91-7.13,16.43c0,7,1.21,16.43,7.21,16.43Z"/></g></g></svg>