<?xml version="1.0" encoding="utf-8"?>
<!-- Generator: Adobe Illustrator 24.0.1, SVG Export Plug-In . SVG Version: 6.00 Build 0)  -->
<svg version="1.1" id="Capa_1" xmlns="http://www.w3.org/2000/svg" xmlns:xlink="http://www.w3.org/1999/xlink" x="0px" y="0px"
	 viewBox="0 0 302.1 56" style="enable-background:new 0 0 302.1 56;" xml:space="preserve">
<style type="text/css">
	.st0{fill-rule:evenodd;clip-rule:evenodd;fill:#FFFFFF;}
	.st1{fill:#6EBE44;}
</style>
<title>logoSustiVerde</title>
<g>
	<path class="st0" d="M265.3,55.3h1.6v-6.2c0-0.3,0-0.6,0.1-0.9c0.2-1,0.8-1.6,1.5-1.6c1.1,0,1.4,1.2,1.4,2.4v6.4h1.6v-6.7
		c0-2.4-1-3.4-2.4-3.4c-1,0-1.8,0.5-2.3,1.3l0,0l-0.1-1.2h-1.4c0,0.8,0.1,1.4,0.1,2.6L265.3,55.3z M261.4,41.3l-1.6,2.8h1l2.2-2.7
		L261.4,41.3z M260.6,46.5c1.4,0,1.7,2.3,1.7,3.8s-0.3,3.9-1.6,3.9s-1.7-2.2-1.7-3.8S259.2,46.5,260.6,46.5L260.6,46.5z M260.6,45.3
		c-1.7,0-3.3,1.5-3.3,5.1s1.4,5.1,3.2,5.1c1.5,0,3.3-1.3,3.3-5.1C263.8,47,262.4,45.3,260.6,45.3L260.6,45.3z M255.1,41.8
		c-0.5,0-0.9,0.4-0.9,1l0,0l0,0c0,0.5,0.5,0.9,1,0.9s0.9-0.5,0.9-1C256,42.2,255.5,41.8,255.1,41.8z M255.9,55.3v-9.9h-1.6v9.9
		L255.9,55.3z M253,53.9c-0.3,0.2-0.7,0.3-1.1,0.3c-1.4,0-2.3-1.4-2.3-3.7c0-1.9,0.7-3.8,2.3-3.8c0.4,0,0.8,0.1,1.1,0.3l0.3-1.3
		c-0.4-0.2-0.9-0.3-1.4-0.3c-2.5,0-3.9,2.3-3.9,5.2c0,3.3,1.4,5,3.6,5c0.6,0,1.1-0.1,1.6-0.4L253,53.9z M245,52.2
		c0,0.2,0,0.4-0.1,0.6c-0.2,1-0.8,1.5-1.4,1.5s-1.2-0.4-1.2-1.8c0-2.2,1.9-2.3,2.7-2.3V52.2z M246.5,48.8c0-2.2-0.8-3.5-2.8-3.5
		c-0.8,0-1.6,0.2-2.3,0.7l0.4,1.1c0.5-0.3,1-0.5,1.6-0.5c1.2,0,1.6,0.9,1.6,2.2v0.3c-2.2,0-4.2,1.1-4.2,3.6c0,1.7,1,2.8,2.3,2.8
		c0.8,0,1.6-0.5,2-1.2h0.1l0.1,1h1.4c-0.1-0.7-0.1-1.5-0.1-2.3L246.5,48.8z M228.9,55.4h1.6v-6.3c0-0.3,0-0.6,0.1-0.8
		c0.2-1.1,0.8-1.6,1.5-1.6c1.2,0,1.4,1.2,1.4,2.3v6.5h1.6V49c0-0.3,0-0.6,0.1-0.9c0.2-0.9,0.8-1.5,1.4-1.5c1.2,0,1.4,1.3,1.4,2.5
		v6.2h1.6v-6.6c0-2.5-1-3.5-2.4-3.5c-0.5,0-1,0.1-1.4,0.4c-0.4,0.3-0.8,0.7-1,1.1l0,0c-0.2-0.9-1.1-1.6-2.1-1.5
		c-0.9,0-1.8,0.5-2.2,1.4l0,0l-0.1-1.2h-1.4c0,0.8,0.1,1.4,0.1,2.6L228.9,55.4z M224.2,55.4h1.6v-5.5c0-0.3,0-0.6,0.1-0.9
		c0-1.1,0.8-1.9,1.9-2h0.3v-1.6c-0.1,0-0.2,0-0.3,0c-1,0.1-1.8,0.8-2.1,1.7l0,0l-0.1-1.6h-1.4c0,0.7,0.1,1.7,0.1,2.6L224.2,55.4z
		 M219.5,46.5c1.4,0,1.7,2.3,1.7,3.8s-0.3,3.9-1.6,3.9s-1.7-2.2-1.7-3.9S218.1,46.5,219.5,46.5L219.5,46.5z M219.5,45.3
		c-1.7,0-3.3,1.5-3.3,5.1s1.4,5.1,3.2,5.1c1.5,0,3.3-1.3,3.3-5.1C222.7,47,221.3,45.3,219.5,45.3L219.5,45.3z M214.3,55.4v-8.7h1.8
		v-1.2h-1.8v-0.6c0-1.3,0.3-2.5,1.4-2.5c0.3,0,0.6,0,0.9,0.2l0.3-1.2c-0.4-0.2-0.8-0.3-1.2-0.3c-0.8,0-1.5,0.3-2,0.8
		c-0.7,0.9-1,1.9-0.9,3v0.6h-1.3v1.2h1.3v8.7L214.3,55.4z M204.4,55.4h1.6v-6.2c0-0.3,0-0.6,0.1-0.9c0.2-1,0.8-1.6,1.5-1.6
		c1.1,0,1.4,1.2,1.4,2.4v6.4h1.6v-6.7c0-2.4-1-3.4-2.4-3.4c-1,0-1.8,0.5-2.3,1.3l0,0l-0.1-1.2h-1.4c0,0.8,0.1,1.4,0.1,2.6
		L204.4,55.4z M200.8,41.5v13.8h1.6V41.5H200.8z M194,52.2c0,0.2,0,0.4-0.1,0.6c-0.2,1-0.8,1.5-1.5,1.5c-0.6,0-1.2-0.4-1.2-1.8
		c0-2.2,1.9-2.3,2.7-2.3V52.2z M195.5,48.8c0-2.2-0.8-3.5-2.8-3.5c-0.8,0-1.6,0.2-2.3,0.7l0.3,1.1c0.5-0.3,1.1-0.5,1.6-0.5
		c1.2,0,1.6,0.9,1.6,2.2v0.3c-2.2,0-4.2,1.1-4.2,3.6c0,1.7,1,2.8,2.3,2.8c0.8,0,1.6-0.5,2-1.2h0.1l0.1,1h1.4
		c-0.1-0.7-0.1-1.5-0.1-2.3L195.5,48.8z M186.7,55.4h1.6V41.2h-1.6V55.4z M177.5,49.4c0.1-1.3,0.6-2.8,1.6-2.8
		c0.8,0,1.5,0.9,1.5,2.8H177.5z M182.1,50.5v-0.9c0-2.2-0.8-4.3-2.8-4.3s-3.4,2-3.4,5.2c0,3,1.2,5,3.6,5c0.8,0,1.5-0.1,2.2-0.5
		l-0.3-1.1c-0.5,0.2-1.1,0.4-1.6,0.4c-1.1,0-2.3-0.6-2.3-3.7L182.1,50.5z M173,51.8c0,0.2,0,0.4-0.1,0.7c-0.4,1.4-1,1.7-1.5,1.7
		c-1.1,0-1.7-1.7-1.7-3.8s0.4-3.8,1.8-3.8c0.8,0,1.4,0.9,1.5,1.9v0.7L173,51.8z M173,41.2v5.3l0,0c-0.3-0.7-1-1.2-1.8-1.2
		c-1.5,0-3,1.6-3,5.1c0,3.3,1.2,5.1,2.9,5.1c0.9,0,1.7-0.6,2-1.4h0.1l0.1,1.2h1.4c0-0.6-0.1-1.7-0.1-2.4V41.2L173,41.2z M297.2,34.5
		c0.6,0.4,1.2,0.6,1.9,0.6c1.5,0.1,2.9-1,3-2.5c0-0.2,0-0.3,0-0.5c-0.1-1.3-0.9-2.4-2-3c-1-0.7-1.2-1-1.2-1.7c0-0.7,0.5-1.2,1.1-1.3
		c0,0,0.1,0,0.1,0c0.5,0,0.9,0.2,1.3,0.5l0.4-1.2c-0.5-0.3-1.1-0.5-1.8-0.5c-1.5,0-2.7,1.1-2.7,2.6c0,0,0,0,0,0c0,0.1,0,0.1,0,0.2
		c0,1.1,0.7,2,2,2.8c1,0.7,1.3,1.2,1.3,2c0,0.7-0.5,1.4-1.3,1.4c-0.1,0-0.1,0-0.2,0c-0.6,0-1.1-0.2-1.6-0.5L297.2,34.5z M294.4,31.8
		c0,0.2,0,0.4-0.1,0.6c-0.2,1-0.8,1.5-1.5,1.5s-1.2-0.5-1.2-1.8c0-2.1,1.9-2.3,2.7-2.3L294.4,31.8z M295.9,28.4
		c0-2.2-0.8-3.5-2.8-3.5c-0.8,0-1.6,0.2-2.3,0.6l0.4,1.1c0.5-0.3,1.1-0.5,1.6-0.5c1.2,0,1.6,0.9,1.6,2.2v0.3c-2.2,0-4.2,1.1-4.2,3.6
		c0,1.7,1,2.8,2.3,2.8c0.8,0,1.6-0.5,2-1.2h0.1l0.1,1h1.4c-0.1-0.8-0.1-1.5-0.1-2.3L295.9,28.4z M288.8,21l-1.6,2.8h1l2.2-2.8H288.8
		z M288.8,35v-9.9h-1.6V35H288.8z M283.8,31.4c0,0.3,0,0.6-0.1,0.9c-0.3,1.2-0.9,1.4-1.4,1.4c-1,0-1.8-1.2-1.8-3.7
		c0-2.2,0.6-3.7,1.8-3.7c0.9,0,1.3,0.8,1.4,1.5c0.1,0.2,0.1,0.5,0.1,0.7V31.4z M285.4,28.2c0-1.5,0.1-2.4,0.1-3.1h-1.4l-0.1,1.1l0,0
		c-0.3-0.8-1.1-1.2-1.9-1.2c-1.5,0-3.1,1.5-3.1,5.1c0,2.9,1.1,4.9,2.9,4.9c0.8,0,1.6-0.5,1.9-1.2l0,0v1c0,2.2-0.8,3-2,3
		c-0.6,0-1.3-0.1-1.9-0.4l-0.4,1.2c0.7,0.3,1.4,0.5,2.2,0.5c1,0.1,1.9-0.3,2.6-1c0.7-0.7,1-1.7,1-4.3L285.4,28.2z M274.7,26.2
		c1.4,0,1.7,2.3,1.7,3.9s-0.3,3.9-1.6,3.9S273,31.7,273,30S273.3,26.2,274.7,26.2L274.7,26.2z M274.8,24.9c-1.7,0-3.3,1.5-3.3,5.1
		s1.4,5.1,3.2,5.1c1.5,0,3.3-1.3,3.3-5.1C278,26.6,276.5,25,274.8,24.9L274.8,24.9z M268.3,35h1.6V20.8h-1.6V35z M263.6,26.2
		c1.4,0,1.7,2.3,1.7,3.9s-0.3,3.9-1.6,3.9s-1.7-2.2-1.7-3.9S262.2,26.2,263.6,26.2L263.6,26.2z M263.6,24.9c-1.7,0-3.3,1.5-3.3,5.1
		s1.4,5.1,3.2,5.1c1.5,0,3.3-1.3,3.3-5.1C266.8,26.6,265.4,25,263.6,24.9L263.6,24.9z M252.8,35h1.6v-6.2c0-0.3,0-0.6,0.1-0.9
		c0.2-1,0.8-1.6,1.5-1.6c1.2,0,1.4,1.2,1.4,2.4V35h1.6v-6.6c0-2.4-1-3.4-2.4-3.4c-1,0-1.8,0.5-2.3,1.4l0,0l-0.1-1.2h-1.4
		c0,0.8,0.1,1.4,0.1,2.6V35z M251.5,33.5c-0.3,0.2-0.7,0.3-1.1,0.3c-1.4,0-2.3-1.4-2.3-3.7c0-2,0.7-3.8,2.3-3.8
		c0.4,0,0.8,0.1,1.1,0.3l0.3-1.3c-0.4-0.2-0.9-0.3-1.4-0.3c-2.5,0-3.9,2.3-3.9,5.2c0,3.3,1.5,5,3.6,5c0.6,0,1.1-0.1,1.6-0.4
		L251.5,33.5z M240.9,29c0.1-1.4,0.6-2.9,1.6-2.9c0.8,0,1.5,0.9,1.5,2.9H240.9z M245.5,30.2c0-0.2,0.1-0.5,0.1-0.9
		c0-2.2-0.8-4.3-2.8-4.3s-3.4,2-3.4,5.2c0,3,1.2,5,3.6,5c0.8,0,1.5-0.2,2.2-0.5l-0.3-1.2c-0.5,0.3-1.1,0.4-1.6,0.4
		c-1.1,0-2.3-0.6-2.3-3.7L245.5,30.2z M235.9,35h1.6V22.6h2.6v-1.4h-6.6v1.4h2.5L235.9,35z M224,25.1l2.5,9.1c0,0.1,0.1,0.2,0.1,0.4
		c0,0.2,0,0.3-0.1,0.5c-0.2,0.6-0.5,1.2-0.9,1.7c-0.4,0.5-0.9,0.9-1.4,1.2l0.6,1.3c0.7-0.4,1.3-0.9,1.8-1.5c1.1-1.5,1.8-3.9,2.4-6.4
		l1.6-6.4H229l-1.2,5.7c-0.1,0.7-0.3,1.4-0.4,2l0,0c-0.1-0.6-0.2-1.3-0.4-2l-1.3-5.7L224,25.1z M215.4,34.5c0.6,0.4,1.3,0.6,1.9,0.6
		c1.5,0.1,2.9-1,3-2.5c0-0.2,0-0.3,0-0.5c-0.1-1.3-0.9-2.4-2-3c-1-0.7-1.2-1-1.2-1.7c0-0.7,0.5-1.2,1.1-1.3c0,0,0.1,0,0.1,0
		c0.5,0,1,0.2,1.3,0.5l0.4-1.2c-0.6-0.3-1.2-0.5-1.8-0.4c-1.5,0-2.7,1.1-2.7,2.6c0,0.1,0,0.1,0,0.2c0,1.1,0.7,2,2,2.8
		c1,0.7,1.3,1.2,1.3,2c0,0.7-0.5,1.4-1.3,1.4c-0.1,0-0.1,0-0.2,0c-0.6,0-1.1-0.2-1.6-0.5L215.4,34.5z M212.6,31.9
		c0,0.2,0,0.4-0.1,0.6c-0.2,1-0.8,1.5-1.4,1.5s-1.2-0.5-1.2-1.8c0-2.1,1.9-2.3,2.7-2.3L212.6,31.9z M214.1,28.4
		c0-2.2-0.8-3.5-2.8-3.5c-0.8,0-1.6,0.2-2.3,0.6l0.4,1.1c0.5-0.3,1.1-0.5,1.6-0.5c1.2,0,1.6,0.9,1.6,2.2v0.3c-2.2,0-4.2,1.1-4.2,3.6
		c0,1.7,1,2.8,2.3,2.8c0.8,0,1.6-0.5,2-1.2h0.1l0.1,1h1.4c-0.1-0.8-0.1-1.5-0.1-2.3L214.1,28.4z M196.5,35h1.6v-6.3
		c0-0.3,0-0.6,0.1-0.8c0.2-1.1,0.8-1.6,1.5-1.6c1.2,0,1.4,1.2,1.4,2.3V35h1.6v-6.4c0-0.3,0-0.6,0.1-0.9c0.2-0.9,0.8-1.5,1.5-1.5
		c1.2,0,1.4,1.3,1.4,2.5V35h1.5v-6.5c0-2.5-1-3.5-2.4-3.5c-0.5,0-1,0.1-1.4,0.4c-0.4,0.3-0.8,0.7-1,1.1h-0.1c-0.2-0.9-1.1-1.5-2-1.5
		c-0.9,0-1.8,0.5-2.2,1.3l0,0l-0.1-1.2h-1.4c0,0.8,0.1,1.4,0.1,2.6L196.5,35z M190.5,29c0.1-1.4,0.6-2.9,1.6-2.9
		c0.8,0,1.5,0.9,1.5,2.9H190.5z M195.1,30.2v-0.9c0-2.2-0.8-4.3-2.8-4.3S189,27,189,30.1c0,3,1.2,5,3.6,5c0.8,0,1.5-0.2,2.2-0.5
		l-0.3-1.2c-0.5,0.3-1.1,0.4-1.6,0.4c-1.1,0-2.3-0.6-2.3-3.7L195.1,30.2z M185,23.4v1.7h-1.2v1.2h1.2V32c-0.1,0.9,0.1,1.8,0.6,2.5
		c0.4,0.4,1,0.6,1.6,0.6c0.4,0,0.8,0,1.2-0.2l-0.1-1.2c-0.2,0-0.4,0.1-0.6,0.1c-0.6,0-1-0.3-1-1.6v-5.9h1.9v-1.2h-1.9v-2.3L185,23.4
		z M178.4,34.5c0.6,0.4,1.2,0.6,1.9,0.6c1.5,0.1,2.9-1,3-2.5c0-0.2,0-0.3,0-0.5c-0.1-1.3-0.8-2.4-2-3c-1-0.7-1.2-1-1.2-1.7
		c0-0.7,0.5-1.2,1.1-1.3c0,0,0.1,0,0.1,0c0.5,0,0.9,0.2,1.3,0.5l0.4-1.2c-0.5-0.3-1.1-0.5-1.8-0.5c-1.5,0-2.7,1.1-2.7,2.6
		c0,0.1,0,0.1,0,0.2c0,1.1,0.7,2,2,2.8c1,0.7,1.3,1.2,1.3,2c0,0.7-0.5,1.4-1.3,1.4c-0.1,0-0.1,0-0.2,0c-0.6,0-1.1-0.2-1.6-0.5
		L178.4,34.5z M176.4,21.5c-0.5,0-0.9,0.5-0.9,1c0,0.5,0.5,0.9,1,0.9c0.5,0,0.9-0.5,0.9-1C177.3,21.9,176.9,21.5,176.4,21.5z
		 M177.2,35v-10h-1.6V35L177.2,35z M168,34.5c0.7,0.4,1.5,0.6,2.3,0.6c2,0.1,3.8-1.5,3.9-3.5c0-0.1,0-0.3,0-0.4c0-1.7-1-3.2-2.4-4
		c-1.3-0.9-2-1.5-2-2.8c-0.1-1.1,0.8-1.9,1.8-2c0.1,0,0.1,0,0.2,0c0.6,0,1.2,0.2,1.6,0.5l0.4-1.4c-1.8-1-4-0.4-5.1,1.3
		c-0.3,0.5-0.5,1.2-0.5,1.8c0,1.8,1.5,3.1,2.6,3.8c1.1,0.6,1.8,1.7,1.8,2.9c0.1,1.2-0.8,2.2-2,2.3c-0.1,0-0.2,0-0.3,0
		c-0.7,0-1.4-0.2-2-0.6L168,34.5z M261.1,8.7c0.1-1.3,0.6-2.8,1.6-2.8c0.8,0,1.5,0.9,1.5,2.8H261.1z M265.7,9.9V9
		c0-2.2-0.8-4.3-2.8-4.3s-3.4,2-3.4,5.2c0,3,1.2,5,3.6,5c0.8,0,1.5-0.2,2.2-0.5l-0.3-1.1c-0.5,0.2-1.1,0.4-1.6,0.4
		c-1.1,0-2.3-0.6-2.3-3.7L265.7,9.9z M256.5,11.2c0,0.2,0,0.4-0.1,0.7c-0.4,1.4-1,1.7-1.5,1.7c-1.1,0-1.7-1.7-1.7-3.8S253.7,6,255,6
		c0.8,0,1.4,0.9,1.5,1.9v0.7L256.5,11.2z M256.5,0.5v5.3l0,0c-0.3-0.7-1-1.2-1.8-1.2c-1.5,0-3,1.6-3,5.2c0,3.3,1.2,5.1,2.9,5.1
		c0.9,0,1.7-0.6,2.1-1.4h0.1l0.1,1.2h1.4c0-0.6-0.1-1.7-0.1-2.4V0.5L256.5,0.5z M245.4,11.5c0,0.2,0,0.4-0.1,0.6
		c-0.2,1-0.8,1.5-1.4,1.5s-1.2-0.4-1.2-1.8c0-2.1,1.9-2.3,2.7-2.3V11.5z M247,8.1c0-2.2-0.8-3.5-2.8-3.5c-0.8,0-1.6,0.2-2.3,0.7
		l0.3,1.1c0.5-0.3,1.1-0.5,1.6-0.5c1.2,0,1.6,0.9,1.6,2.2v0.3c-2.2,0-4.2,1.1-4.2,3.6c0,1.7,1,2.8,2.3,2.8c0.8,0,1.6-0.5,2-1.2h0.1
		l0.1,1h1.4c-0.1-0.7-0.1-1.5-0.1-2.3L247,8.1z M239.9,0.7l-1.6,2.8h1l2.2-2.8H239.9z M239.9,14.7V4.8h-1.6v9.9L239.9,14.7z
		 M233.5,14.7h1.6V9.2c0-0.3,0-0.6,0.1-0.9c0.1-1,0.9-1.9,1.9-2h0.3V4.6c-0.1,0-0.2,0-0.3,0c-1,0.1-1.8,0.8-2.1,1.7l0,0l-0.1-1.6
		h-1.4c0,0.7,0.1,1.7,0.1,2.6L233.5,14.7z M230.1,11.6c0,0.2,0,0.4-0.1,0.6c-0.2,1-0.8,1.5-1.4,1.5s-1.2-0.4-1.2-1.8
		c0-2.1,1.9-2.3,2.7-2.3V11.6z M231.6,8.1c0-2.2-0.8-3.5-2.8-3.5c-0.8,0-1.6,0.2-2.3,0.7l0.4,1.1c0.5-0.3,1-0.5,1.6-0.5
		c1.2,0,1.6,0.9,1.6,2.2v0.3c-2.2,0-4.2,1.1-4.2,3.6c0,1.7,1,2.8,2.3,2.8c0.8,0,1.6-0.5,2-1.2l0,0l0.1,1h1.4
		c-0.1-0.7-0.1-1.5-0.1-2.3L231.6,8.1z M221.9,3.1v1.6h-1.2v1.2h1.2v5.8c-0.1,0.9,0.1,1.8,0.6,2.5c0.4,0.4,1,0.6,1.6,0.6
		c0.4,0,0.8,0,1.2-0.2l-0.1-1.2c-0.2,0.1-0.4,0.1-0.6,0.1c-0.6,0-1-0.4-1-1.6V5.9h1.9V4.8h-1.9V2.4L221.9,3.1z M215.5,8.8
		c0.1-1.3,0.6-2.8,1.6-2.8c0.8,0,1.5,0.9,1.5,2.8H215.5z M220.1,9.9V9c0-2.2-0.8-4.3-2.8-4.3S214,6.6,214,9.8c0,3,1.2,5,3.6,5
		c0.8,0,1.5-0.2,2.2-0.5l-0.3-1.1c-0.5,0.3-1.1,0.4-1.6,0.4c-1.1,0-2.3-0.6-2.3-3.7L220.1,9.9z M209.9,14.7h1.6V9.2
		c0-0.3,0-0.6,0.1-0.9c0.1-1,0.9-1.9,1.9-2h0.3V4.6c-0.1,0-0.2,0-0.3,0c-1,0.1-1.8,0.8-2.1,1.7l0,0l-0.1-1.6h-1.4
		c0,0.7,0.1,1.7,0.1,2.6L209.9,14.7z M208.7,13.3c-0.3,0.2-0.7,0.3-1.1,0.3c-1.4,0-2.3-1.4-2.3-3.7c0-1.9,0.7-3.8,2.3-3.8
		c0.4,0,0.8,0.1,1.1,0.3l0.3-1.3c-0.4-0.2-0.9-0.3-1.4-0.3c-2.5,0-3.9,2.3-3.9,5.2c0,3.3,1.4,5,3.6,5c0.6,0,1.1-0.1,1.6-0.4
		L208.7,13.3z M198.1,8.8c0.1-1.3,0.6-2.8,1.6-2.8c0.8,0,1.5,0.9,1.5,2.8H198.1z M202.7,9.9V9c0-2.2-0.8-4.3-2.8-4.3s-3.4,2-3.4,5.2
		c0,3,1.2,5,3.6,5c0.8,0,1.5-0.2,2.2-0.5l-0.3-1.1c-0.5,0.3-1.1,0.4-1.6,0.4c-1.1,0-2.3-0.6-2.3-3.7L202.7,9.9z M190.7,14.3
		c0.6,0.4,1.3,0.6,1.9,0.6c1.5,0.1,2.9-1,3-2.5c0-0.1,0-0.3,0-0.4c-0.1-1.3-0.9-2.4-2.1-3c-1-0.7-1.2-1-1.2-1.7
		c0-0.7,0.5-1.2,1.2-1.3c0,0,0.1,0,0.1,0c0.5,0,0.9,0.1,1.3,0.4l0.4-1.2c-0.5-0.3-1.1-0.5-1.8-0.5c-1.5,0-2.7,1.1-2.7,2.6
		c0,0,0,0,0,0c0,0.1,0,0.1,0,0.2c0,1.1,0.7,2,2,2.8c1,0.7,1.3,1.2,1.3,1.9c0.1,0.7-0.5,1.4-1.3,1.4c-0.1,0-0.1,0-0.2,0
		c-0.6,0-1.1-0.2-1.6-0.5L190.7,14.3z M185.1,8.4V7.7c0.1-0.9,0.7-1.8,1.5-1.8c1.3,0,1.8,1.7,1.8,3.7s-0.4,3.8-1.7,3.8
		c-0.4,0-1.1-0.3-1.5-1.7c0-0.2-0.1-0.4-0.1-0.6L185.1,8.4z M183.5,12.3c0,0.7-0.1,1.8-0.1,2.4h1.3l0.1-1.3h0.1
		c0.3,0.9,1.1,1.5,2,1.5c1.5,0,3-1.6,3-5.2c0-3.3-1.1-5-2.7-5c-0.9,0-1.8,0.5-2.1,1.3l0,0V0.5h-1.6V12.3z M181.6,4.8h-1.6v6.5
		c0,0.3,0,0.6-0.1,0.9c-0.1,0.7-0.7,1.3-1.4,1.3c-1.1,0-1.3-1.1-1.3-2.7v-6h-1.6V11c0,2.5,0.7,3.8,2.4,3.8c0.9,0,1.7-0.5,2.1-1.2
		l0,0l0.1,1h1.4c0-0.7-0.1-1.6-0.1-2.7L181.6,4.8z M168,14.2c0.7,0.4,1.5,0.6,2.3,0.6c2,0.1,3.8-1.5,3.9-3.5c0-0.1,0-0.3,0-0.4
		c0-1.7-1-3.2-2.4-4c-1.3-0.9-2-1.5-2-2.8c-0.1-1.1,0.8-1.9,1.8-2c0.1,0,0.1,0,0.2,0c0.6,0,1.2,0.2,1.6,0.5l0.4-1.4
		c-1.7-1-4-0.5-5,1.3c-0.3,0.6-0.5,1.2-0.5,1.8c0,1.8,1.5,3.1,2.6,3.8c1.1,0.6,1.8,1.7,1.8,2.9c0.1,1.2-0.8,2.2-2,2.3
		c-0.1,0-0.2,0-0.3,0c-0.7,0-1.4-0.2-2-0.6L168,14.2z"/>
	<path class="st1" d="M1.6,42.8c3,1.4,6.2,2.1,9.5,2.1c4.7,0,6.8-2.1,6.8-4.9c0-3.4-2.3-5-7.1-7.8C2,26.9,0.6,20.9,0.6,16.9
		C0.6,7.8,6.4,0,19.1,0c3.1,0,6.2,0.7,9,2l-1.8,10.8c-2.2-1.3-4.6-1.9-7.2-1.9c-4.2,0-6.3,2.2-6.3,4.7c0,2.4,1.1,3.9,7.3,7.4
		c7.6,4.2,10.1,10,10.1,15.6c0,10.3-7.7,17.2-19.3,17.2C6.3,55.8,2,54.8,0,53.7L1.6,42.8z"/>
	<path class="st1" d="M67.7,42.6c0,4.2,0.2,8.7,0.3,12.8H57.2l-0.7-4.2h-0.2c-2.2,3.1-5.7,5-9.5,4.9c-7.9,0-11.1-5.7-11.1-16.8V15.3
		h12.6v22.5c0,4.8,1.1,7.7,3.4,7.7c1.1,0,2.1-0.6,2.5-1.6c0.5-1,0.8-2.2,0.7-3.3V15.3h12.6V42.6z"/>
	<path class="st1" d="M74.9,42.8c3,1.4,6.2,2.1,9.5,2.1c4.7,0,6.8-2.1,6.8-4.9c0-3.4-2.3-5-7.1-7.8c-8.9-5.3-10.3-11.3-10.3-15.4
		c0-9,5.9-16.8,18.6-16.8c3.1,0,6.2,0.7,9,2l-1.8,10.8c-2.2-1.3-4.7-1.9-7.2-1.9c-4.2,0-6.3,2.2-6.3,4.7c0,2.4,1.1,3.9,7.3,7.4
		c7.6,4.2,10.1,10,10.1,15.6c0,10.3-7.7,17.2-19.3,17.2c-4.7,0-9.1-1.1-11.1-2.1L74.9,42.8z"/>
	<path class="st1" d="M115.1,12.2h-9.5V0.5h31.7v11.7h-9.6v43.1h-12.6V12.2z"/>
	<path class="st1" d="M155.4,0.5v54.8h-12.6V0.5H155.4z"/>
</g>
</svg>
