<svg xmlns="http://www.w3.org/2000/svg" viewBox="0 0 291.53 124.92"><defs><style>.cls-1{fill:#fff;}.cls-2{fill:#1d1d1b;}.cls-3{fill:#fdd70b;}.cls-12,.cls-4{fill:none;}.cls-4{stroke:#fdd70b;stroke-width:0.22px;}.cls-5{fill:#21bcef;}.cls-6{fill:#db2625;}.cls-7{fill:#fac48b;}.cls-8{fill:#8c733c;}.cls-9{fill:#c99e72;}.cls-10{fill:#77160f;}.cls-11{fill:#c0a675;}.cls-12{stroke:#1d1d1b;stroke-width:0.4px;}.cls-13{fill:#e52825;}.cls-14{fill:#287935;}.cls-15{fill:#8cc047;}</style></defs><title>Recurso 2</title><g id="Capa_2" data-name="Capa 2"><g id="Capa_1-2" data-name="Capa 1"><path class="cls-1" d="M108.71,35.58a12.49,12.49,0,0,0,5.82,1.62c4.2,0,6.72-2.76,6.72-6.84,0-3.72-2.16-6-5.34-8.4-3.18-2.22-7.62-6-7.62-11.22A10.22,10.22,0,0,1,119,.12a11.07,11.07,0,0,1,5.7,1.5l-1.14,4a8.45,8.45,0,0,0-4.8-1.38A5.58,5.58,0,0,0,112.91,10c0,4,2.1,5.64,5.94,8.34,4.86,3.42,7,7.14,7,11.64,0,7-4.92,11.34-11.34,11.34-2.76,0-5.7-.9-6.84-1.8Z"/><path class="cls-1" d="M134.57,26.82c.06,8.94,3.54,10.8,6.84,10.8a10.32,10.32,0,0,0,4.8-1.08L147,39.9a14.09,14.09,0,0,1-6.42,1.38c-6.9,0-10.5-5.64-10.5-14.58,0-9.42,4-15.3,9.78-15.3s8.28,6.24,8.28,12.78c0,1.14-.06,1.92-.12,2.64Zm9.12-3.42c.06-5.82-2.1-8.4-4.32-8.4-3,0-4.56,4.44-4.74,8.4Z"/><path class="cls-1" d="M167.27,40.2a10,10,0,0,1-4.8,1.08c-6.36,0-10.62-5.1-10.62-14.7,0-8.34,4.2-15.12,11.46-15.12a8.52,8.52,0,0,1,4.08,1l-.9,3.72a7.54,7.54,0,0,0-3.3-.78c-4.68,0-6.72,5.52-6.72,11.22,0,6.78,2.58,10.86,6.84,10.86a6.87,6.87,0,0,0,3.3-.78Z"/><path class="cls-1" d="M171.17,19.38c0-2.46-.18-5.34-.24-7.5h4.14l.24,4.56h.12c1-2.76,3.42-5,6.12-5a4.85,4.85,0,0,1,1,.06V16.2a4.85,4.85,0,0,0-1-.06c-2.94,0-5.1,2.7-5.58,6.06a17.11,17.11,0,0,0-.18,2.64V40.92h-4.62Z"/><path class="cls-1" d="M188.51,26.82c.06,8.94,3.54,10.8,6.84,10.8a10.32,10.32,0,0,0,4.8-1.08l.78,3.36a14.09,14.09,0,0,1-6.42,1.38c-6.9,0-10.5-5.64-10.5-14.58,0-9.42,4-15.3,9.78-15.3s8.28,6.24,8.28,12.78c0,1.14-.06,1.92-.12,2.64Zm9.12-3.42c.06-5.82-2.1-8.4-4.32-8.4-3,0-4.56,4.44-4.74,8.4Z"/><path class="cls-1" d="M212.69,5.1v6.78h5.58v3.48h-5.58V32.64c0,3.84,1.32,4.8,3,4.8a7.77,7.77,0,0,0,1.86-.18l.24,3.54a10.12,10.12,0,0,1-3.42.48,5.72,5.72,0,0,1-4.56-1.74c-1.2-1.32-1.74-3.3-1.74-7.32V15.36h-3.54V11.88h3.54V7Z"/><path class="cls-1" d="M237.64,34.32a46,46,0,0,0,.3,6.6H233.8l-.29-3.06h-.18a6.53,6.53,0,0,1-5.76,3.54c-3.9,0-6.9-3.24-6.9-8.28,0-7.32,5.82-10.5,12.35-10.56v-.9c0-3.9-1-6.6-4.61-6.6a8.26,8.26,0,0,0-4.8,1.5l-1-3.24a12.67,12.67,0,0,1,6.78-1.92c5.81,0,8.27,3.84,8.27,10.32Zm-4.49-8.46c-2.4,0-8,.48-8,6.78,0,3.84,1.92,5.16,3.54,5.16,2,0,3.71-1.5,4.26-4.38a8,8,0,0,0,.18-1.68Z"/><path class="cls-1" d="M244.13,19.38c0-2.46-.18-5.34-.24-7.5H248l.24,4.56h.12c1-2.76,3.42-5,6.13-5a4.9,4.9,0,0,1,1,.06V16.2a4.9,4.9,0,0,0-1-.06c-2.94,0-5.1,2.7-5.59,6.06a18.58,18.58,0,0,0-.17,2.64V40.92h-4.62Z"/><path class="cls-1" d="M268.36,0l-6.3,8.1H259L263.62,0Zm-9.3,40.92v-29h4.62v29Z"/><path class="cls-1" d="M285.4,34.32a46,46,0,0,0,.3,6.6h-4.14l-.3-3.06h-.18a6.52,6.52,0,0,1-5.76,3.54c-3.9,0-6.9-3.24-6.9-8.28,0-7.32,5.82-10.5,12.36-10.56v-.9c0-3.9-1-6.6-4.62-6.6a8.29,8.29,0,0,0-4.8,1.5l-1-3.24a12.67,12.67,0,0,1,6.78-1.92c5.82,0,8.28,3.84,8.28,10.32Zm-4.5-8.46c-2.4,0-8,.48-8,6.78,0,3.84,1.92,5.16,3.54,5.16,2,0,3.72-1.5,4.26-4.38a8,8,0,0,0,.18-1.68Z"/><path class="cls-1" d="M126.77,71.4V106c0,2,.18,5.28.24,7h-4l-.3-3.6h-.24a6.66,6.66,0,0,1-6.06,4.08c-4.92,0-8.46-5.28-8.46-14.88,0-10.32,4.26-15.12,8.76-15.12A5.57,5.57,0,0,1,122,86.82h.12V71.4Zm-4.62,23.52c0-.6,0-1.26-.06-1.92-.24-3-2.1-5.64-4.32-5.64-3.84,0-5.16,5.34-5.16,11.16,0,6.12,1.56,11,4.92,11,1.44,0,3.42-.78,4.44-5a6.34,6.34,0,0,0,.18-1.92Z"/><path class="cls-1" d="M136.43,98.82c.06,8.94,3.54,10.8,6.84,10.8a10.32,10.32,0,0,0,4.8-1.08l.78,3.36a14.09,14.09,0,0,1-6.42,1.38c-6.9,0-10.5-5.64-10.5-14.58,0-9.42,4-15.3,9.78-15.3S150,89.64,150,96.18c0,1.14-.06,1.92-.12,2.64Zm9.12-3.42c.06-5.82-2.1-8.4-4.32-8.4-3,0-4.56,4.44-4.74,8.4Z"/><path class="cls-1" d="M167.39,76.62H160V72.48h19.38v4.14H172v36.3h-4.62Z"/><path class="cls-1" d="M180.23,91.38c0-2.46-.18-5.34-.24-7.5h4.14l.24,4.56h.12c1-2.76,3.42-5,6.12-5a4.85,4.85,0,0,1,1,.06V88.2a4.85,4.85,0,0,0-1-.06c-2.94,0-5.1,2.7-5.58,6.06a17.11,17.11,0,0,0-.18,2.64v16.08h-4.62Z"/><path class="cls-1" d="M210.11,106.32a46,46,0,0,0,.3,6.6h-4.14l-.3-3.06h-.18A6.52,6.52,0,0,1,200,113.4c-3.9,0-6.9-3.24-6.9-8.28,0-7.32,5.82-10.5,12.36-10.56v-.9c0-3.9-1-6.6-4.62-6.6a8.29,8.29,0,0,0-4.8,1.5l-1-3.24a12.67,12.67,0,0,1,6.78-1.92c5.82,0,8.28,3.84,8.28,10.32Zm-4.5-8.46c-2.4,0-8,.48-8,6.78,0,3.84,1.92,5.16,3.54,5.16,2,0,3.72-1.5,4.26-4.38a8,8,0,0,0,.18-1.68Z"/><path class="cls-1" d="M216.59,71.4h4.62V87.3h.12a6.48,6.48,0,0,1,6.12-3.9c4.56,0,7.92,5.16,7.92,14.7,0,10.5-4.32,15.3-8.76,15.3-3.12,0-4.68-1.8-5.76-4.26h-.24l-.3,3.78h-4c.06-1.68.24-5,.24-6.9Zm4.62,31.32a8.31,8.31,0,0,0,.18,1.8c1.08,4.26,3.06,5,4.32,5,3.72,0,5-5,5-11.22,0-5.82-1.38-11-5.1-11-2.16,0-3.9,2.64-4.32,5.16-.06.66-.12,1.38-.12,2Z"/><path class="cls-1" d="M255.89,106.32a46,46,0,0,0,.3,6.6h-4.14l-.3-3.06h-.18a6.52,6.52,0,0,1-5.76,3.54c-3.9,0-6.9-3.24-6.9-8.28,0-7.32,5.82-10.5,12.36-10.56v-.9c0-3.9-1-6.6-4.62-6.6a8.29,8.29,0,0,0-4.8,1.5l-1-3.24a12.67,12.67,0,0,1,6.78-1.92c5.82,0,8.28,3.84,8.28,10.32Zm-4.5-8.46c-2.4,0-8,.48-8,6.78,0,3.84,1.92,5.16,3.54,5.16,2,0,3.72-1.5,4.26-4.38a8,8,0,0,0,.18-1.68Z"/><path class="cls-1" d="M257.51,121.26a6.21,6.21,0,0,0,3.9-2.22c1-1.56,1.38-3.78,1.38-9.24V83.88h4.62v27.18c0,6.12-.9,8.94-2.94,11.16a10.39,10.39,0,0,1-6.36,2.7Zm7.56-41.88a2.74,2.74,0,0,1-2.7-3,2.78,2.78,0,0,1,2.76-3,3,3,0,0,1,0,6Z"/><path class="cls-1" d="M281.87,113.4c-5.22,0-9.42-4.74-9.42-14.94,0-10.62,4.74-15.06,9.72-15.06,5.22,0,9.36,4.8,9.36,14.94,0,11.28-5.16,15.06-9.6,15.06Zm.24-3.66c4,0,4.8-6.78,4.8-11.34s-.84-11.34-4.92-11.34-4.92,6.84-4.92,11.34c0,4.8.84,11.34,5,11.34Z"/><path class="cls-1" d="M0,60C0,27.85,21.41,1.85,47.85,1.85S95.69,27.85,95.69,60s-21.41,58.11-47.84,58.11S0,91.87,0,60"/><path class="cls-2" d="M47.85,114.37c-24.91,0-44.79-24.47-44.79-54.62S23.16,5.13,47.85,5.13,92.64,29.6,92.64,59.75s-20.1,54.62-44.79,54.62m0-110.11C22.5,4.26,2,29.16,2,60s20.53,55.49,45.88,55.49S93.51,90.56,93.51,60,73,4.26,47.85,4.26Z"/><path class="cls-3" d="M47,36.37a13.89,13.89,0,0,0-1.53,3.06,4.43,4.43,0,0,1-.21,1.75v.22c0-.44-.22-.88-.22-1.31a3.3,3.3,0,0,1,.43-2,3.81,3.81,0,0,0-.21-2.18L43,39.65l1.09-4.15h0a7.71,7.71,0,0,0-2.4,2.18,9.78,9.78,0,0,1-.87,1.53l-.22.22c0-.44.22-.87.22-1.31A4.68,4.68,0,0,1,42,36.37a3.21,3.21,0,0,0,.44-2L38.89,37l2.62-3.28h0a7.48,7.48,0,0,0-3.06,1.09,5.59,5.59,0,0,1-1.31,1.1.21.21,0,0,0-.22.21c.22-.21.44-.65.88-1.09a11.93,11.93,0,0,1,1.74-1.31,2.94,2.94,0,0,0,1.32-1.53L36.7,33.31l3.5-2.18h0a8.28,8.28,0,0,0-3.28-.22,5.07,5.07,0,0,1-1.74.44H35c.22-.22.65-.44,1.09-.88A6.58,6.58,0,0,1,38,30a7.7,7.7,0,0,0,2-.88l-4.15-.65L40,27.85a13.47,13.47,0,0,0-3.06-1.53,4.19,4.19,0,0,1-1.74-.22L35,25.89c.43,0,.87-.22,1.31-.22a3.27,3.27,0,0,1,2,.43,3.85,3.85,0,0,0,2.19-.21L36.7,23.7l4.16,1.09h0a7.74,7.74,0,0,0-2.19-2.4,3.66,3.66,0,0,1-1.53-.87H36.7a2.91,2.91,0,0,0,1.32.21,4.71,4.71,0,0,1,1.74,1.1,3.58,3.58,0,0,0,2,.65l-2.4-3.27,3.27,2.62h0a7.11,7.11,0,0,0-1.09-3.06,4,4,0,0,1-1.09-1.53V18c.22.22.65.44,1.09.87a4.68,4.68,0,0,1,1.09,1.75A3,3,0,0,0,44.13,22L43,17.8l2.19,3.5h0A8.47,8.47,0,0,0,45.44,18,5.34,5.34,0,0,1,45,16.27v-.22a3.81,3.81,0,0,0,.87,1.1,6.3,6.3,0,0,1,.44,2,3,3,0,0,0,1.09,1.75l.66-4.15.65,4.15a4.6,4.6,0,0,0,1.09-1.75,6.3,6.3,0,0,1,.44-2,5.07,5.07,0,0,1,.87-1.1v.22A2.58,2.58,0,0,0,50,17.8a5.59,5.59,0,0,0,.22,3.28h0l2.19-3.72-1.1,4.16a2.32,2.32,0,0,0,1.53-1.31A4.78,4.78,0,0,1,54,18.46c.44-.44.88-.66,1.1-.88v.22c-.44.44-.66.88-1.1,1.31a7.48,7.48,0,0,0-1.09,3.06h0l3.28-2.62-2.62,3.5a3.49,3.49,0,0,0,2-.66,4.81,4.81,0,0,1,1.75-1.09,3.83,3.83,0,0,1,1.31-.22l-.22.22c-.43.22-1.09.65-1.53.87a7.71,7.71,0,0,0-2.18,2.4h0l4.15-1.09-3.71,2.19a6.66,6.66,0,0,0,2.18.22,6.36,6.36,0,0,1,2-.44c.44,0,.87.22,1.31.22a.22.22,0,0,0-.22.22,5.62,5.62,0,0,1-1.75.21,8.24,8.24,0,0,0-3.06,1.53l4.16.66-4.16.65a2.72,2.72,0,0,0,1.75.88,6.36,6.36,0,0,1,2,.44,4.46,4.46,0,0,1,1.09.87h-.22c-.65-.22-1.09-.22-1.75-.44a5.56,5.56,0,0,0-3.27.22h0l3.49,2.19-3.93-.88a3,3,0,0,0,1.31,1.53,3.43,3.43,0,0,1,1.75,1.31,4.5,4.5,0,0,0,.87,1.09.21.21,0,0,1-.22-.21c-.43-.44-.87-.66-1.31-1.1A5.23,5.23,0,0,0,54,33.75h0L56.59,37l-3.72-2.41a3.49,3.49,0,0,0,.66,2,4.86,4.86,0,0,1,1.09,1.75,7.8,7.8,0,0,0,.22,1.31l-.22-.22c-.22-.44-.66-1.09-.87-1.53a7.51,7.51,0,0,0-2.41-2.18h0l1.1,4.15-2.19-3.72A3.77,3.77,0,0,0,50,38.34a6,6,0,0,1,.22,2A2.73,2.73,0,0,0,50,41.62a.22.22,0,0,0-.22-.22c0-.66-.21-1.31-.21-1.75a5.9,5.9,0,0,0-1.53-3.06Z"/><path class="cls-4" d="M47,36.37a13.89,13.89,0,0,0-1.53,3.06,4.43,4.43,0,0,1-.21,1.75v.22c0-.44-.22-.88-.22-1.31a3.3,3.3,0,0,1,.43-2,3.81,3.81,0,0,0-.21-2.18L43,39.65l1.09-4.15h0a7.71,7.71,0,0,0-2.4,2.18,9.78,9.78,0,0,1-.87,1.53l-.22.22c0-.44.22-.87.22-1.31A4.68,4.68,0,0,1,42,36.37a3.21,3.21,0,0,0,.44-2L38.89,37l2.62-3.28h0a7.48,7.48,0,0,0-3.06,1.09,5.59,5.59,0,0,1-1.31,1.1.21.21,0,0,0-.22.21c.22-.21.44-.65.88-1.09a11.93,11.93,0,0,1,1.74-1.31,2.94,2.94,0,0,0,1.32-1.53L36.7,33.31l3.5-2.18h0a8.28,8.28,0,0,0-3.28-.22,5.07,5.07,0,0,1-1.74.44H35c.22-.22.65-.44,1.09-.88A6.58,6.58,0,0,1,38,30a7.7,7.7,0,0,0,2-.88l-4.15-.65L40,27.85a13.47,13.47,0,0,0-3.06-1.53,4.19,4.19,0,0,1-1.74-.22L35,25.89c.43,0,.87-.22,1.31-.22a3.27,3.27,0,0,1,2,.43,3.85,3.85,0,0,0,2.19-.21L36.7,23.7l4.16,1.09h0a7.74,7.74,0,0,0-2.19-2.4,3.66,3.66,0,0,1-1.53-.87H36.7a2.91,2.91,0,0,0,1.32.21,4.71,4.71,0,0,1,1.74,1.1,3.58,3.58,0,0,0,2,.65l-2.4-3.27,3.27,2.62h0a7.11,7.11,0,0,0-1.09-3.06,4,4,0,0,1-1.09-1.53V18c.22.22.65.44,1.09.87a4.68,4.68,0,0,1,1.09,1.75A3,3,0,0,0,44.13,22L43,17.8l2.19,3.5h0A8.47,8.47,0,0,0,45.44,18,5.34,5.34,0,0,1,45,16.27v-.22a3.81,3.81,0,0,0,.87,1.1,6.3,6.3,0,0,1,.44,2,3,3,0,0,0,1.09,1.75l.66-4.15.65,4.15a4.6,4.6,0,0,0,1.09-1.75,6.3,6.3,0,0,1,.44-2,5.07,5.07,0,0,1,.87-1.1v.22A2.58,2.58,0,0,0,50,17.8a5.59,5.59,0,0,0,.22,3.28h0l2.19-3.72-1.1,4.16a2.32,2.32,0,0,0,1.53-1.31A4.78,4.78,0,0,1,54,18.46c.44-.44.88-.66,1.1-.88v.22c-.44.44-.66.88-1.1,1.31a7.48,7.48,0,0,0-1.09,3.06h0l3.28-2.62-2.62,3.5a3.49,3.49,0,0,0,2-.66,4.81,4.81,0,0,1,1.75-1.09,3.83,3.83,0,0,1,1.31-.22l-.22.22c-.43.22-1.09.65-1.53.87a7.71,7.71,0,0,0-2.18,2.4h0l4.15-1.09-3.71,2.19a6.66,6.66,0,0,0,2.18.22,6.36,6.36,0,0,1,2-.44c.44,0,.87.22,1.31.22a.22.22,0,0,0-.22.22,5.62,5.62,0,0,1-1.75.21,8.24,8.24,0,0,0-3.06,1.53l4.16.66-4.16.65a2.72,2.72,0,0,0,1.75.88,6.36,6.36,0,0,1,2,.44,4.46,4.46,0,0,1,1.09.87h-.22c-.65-.22-1.09-.22-1.75-.44a5.56,5.56,0,0,0-3.27.22h0l3.49,2.19-3.93-.88a3,3,0,0,0,1.31,1.53,3.43,3.43,0,0,1,1.75,1.31,4.5,4.5,0,0,0,.87,1.09.21.21,0,0,1-.22-.21c-.43-.44-.87-.66-1.31-1.1A5.23,5.23,0,0,0,54,33.75h0L56.59,37l-3.72-2.41a3.49,3.49,0,0,0,.66,2,4.86,4.86,0,0,1,1.09,1.75,7.8,7.8,0,0,0,.22,1.31l-.22-.22c-.22-.44-.66-1.09-.87-1.53a7.51,7.51,0,0,0-2.41-2.18h0l1.1,4.15-2.19-3.72A3.77,3.77,0,0,0,50,38.34a6,6,0,0,1,.22,2A2.73,2.73,0,0,0,50,41.62a.22.22,0,0,0-.22-.22c0-.66-.21-1.31-.21-1.75a5.9,5.9,0,0,0-1.53-3.06Z"/><path class="cls-2" d="M39.33,33.75a3,3,0,0,0,1.31-1.53l-4.15,1.09L40,31.13h0a8.28,8.28,0,0,0-3.28-.22,5.07,5.07,0,0,1-1.74.44h0a2.21,2.21,0,0,0,1.09-.88A6.58,6.58,0,0,1,38,30a7.7,7.7,0,0,0,2-.88l-4.15-.65L40,27.85a7.69,7.69,0,0,0-3.06-1.31,4.19,4.19,0,0,1-1.74-.22L35,26.1c.43,0,.87-.21,1.31-.21a3.27,3.27,0,0,1,2,.43,3.77,3.77,0,0,0,2.19-.22L36.7,23.92,40.64,25h0a7.52,7.52,0,0,0-2.19-2.4,3.57,3.57,0,0,1-1.53-.88l-.22-.21a2.91,2.91,0,0,0,1.32.21,4.71,4.71,0,0,1,1.74,1.1,3.58,3.58,0,0,0,2,.65l-2.4-3.27,3.27,2.62h0a7.11,7.11,0,0,0-1.09-3.06,4,4,0,0,1-1.09-1.53L40.2,18c.22.22.66.44,1.09.87a4.83,4.83,0,0,1,1.1,1.75A2.9,2.9,0,0,0,43.91,22L42.82,17.8,45,21.52h0a8.49,8.49,0,0,0,.22-3.28,5.12,5.12,0,0,1-.44-1.75v-.44a2.23,2.23,0,0,0,.87,1.1,6.3,6.3,0,0,1,.44,2,3,3,0,0,0,1.09,1.75l.66-4.15.65,4.15a4.75,4.75,0,0,0,1.1-1.75,6.28,6.28,0,0,1,.43-2,4.8,4.8,0,0,1,.88-1.1v.44c-.22.66-.22,1.09-.44,1.75a5.6,5.6,0,0,0,.22,3.28h0l2.18-3.72L51.78,22a2.3,2.3,0,0,0,1.53-1.31,4.81,4.81,0,0,1,1.09-1.75c.44-.43.88-.65,1.09-.87v.22c-.43.44-.65.87-1.09,1.31a7.43,7.43,0,0,0-1.09,3.06h0L56.59,20,54,23.48a3.56,3.56,0,0,0,2-.65,4.75,4.75,0,0,1,1.75-1.1A4,4,0,0,1,59,21.52l-.22.21a5.47,5.47,0,0,1-1.53.88A7.48,7.48,0,0,0,55.06,25h0l4.15-1.09L55.49,26.1a3.77,3.77,0,0,0,2.19.22,6.28,6.28,0,0,1,2-.43c.43,0,.87.21,1.31.21l-.22.22a5.41,5.41,0,0,1-1.75.22,7.75,7.75,0,0,0-3.06,1.31l4.15.66-4.15.65a2.76,2.76,0,0,0,2,.88,6.58,6.58,0,0,1,2,.43,4.8,4.8,0,0,1,1.1.88h-.22c-.66-.22-1.09-.22-1.75-.44a5.59,5.59,0,0,0-3.28.22h0l3.5,2.18-4.59-1.09a2.32,2.32,0,0,0,1.31,1.53,4.86,4.86,0,0,1,1.75,1.09l.22-.22a5,5,0,0,0-1.75-1.09c-.22-.22-.66-.43-.87-.65L59.65,34l1.31.22h0l-1.1-.66-3.93-2.4a4.45,4.45,0,0,1,2.4,0,5.18,5.18,0,0,0,1.75.44,1.93,1.93,0,0,0,1.09-.22c.22,0,.66-.22.88-.22h-.88A4.82,4.82,0,0,1,59.43,30a6.36,6.36,0,0,0-2-.44c-.44,0-.66-.22-1.09-.44L61,28.51l1.31-.22L61,28.07l-4.59-.65a6.48,6.48,0,0,1,2.18-.88,4.24,4.24,0,0,0,1.75-.22c.22-.22.66-.22.87-.43a1.64,1.64,0,0,0,.66-.66.7.7,0,0,1-.66.66,6,6,0,0,1-2-.22,3.3,3.3,0,0,0-2,.43H56.15l3.93-2.18,1.09-.87-1.31.21-4.37,1.1a5.84,5.84,0,0,1,1.75-1.53A3.51,3.51,0,0,0,58.77,22a3,3,0,0,0,.66-.87l.43-.87a3,3,0,0,1-.87.65,6.36,6.36,0,0,1-2,.44,4.69,4.69,0,0,0-1.74,1.09,1.67,1.67,0,0,1-.88.44l2.84-3.5.88-1.09h0l-1.1.87-3.71,2.62a6.77,6.77,0,0,1,.87-2.18A3.91,3.91,0,0,0,55.28,18a1.7,1.7,0,0,0,.21-1.09v-.88c-.21.22-.21.66-.43.88-.44.43-1.1.87-1.53,1.31A4.6,4.6,0,0,0,52.44,20c-.22.22-.44.65-.66.87l1.09-4.37L53.31,15l-.66,1.09-2.4,4.16a4.48,4.48,0,0,1,0-2.41,5.07,5.07,0,0,0,.44-1.75V15c0-.22-.22-.65-.22-.87a1.3,1.3,0,0,1-.22.87,4.73,4.73,0,0,1-1.09,1.75,6.3,6.3,0,0,0-.44,2,1.14,1.14,0,0,1-.44.87h0L47.63,15l-.22-1.31h0L47.19,15l-.65,4.59c-.22-.22-.22-.66-.44-.87a6.3,6.3,0,0,0-.44-2A4.86,4.86,0,0,1,44.57,15c0-.22-.22-.65,0-.87a1.3,1.3,0,0,0-.22.87,9.74,9.74,0,0,0-.22,1.09c.22.66.22,1.1.44,1.75a4.48,4.48,0,0,1,0,2.41l-2.18-3.94L42.17,15l.22,1.31,1.09,4.37a3,3,0,0,1-.66-.87A4.73,4.73,0,0,0,41.73,18a4,4,0,0,1-1.53-1.09,1.67,1.67,0,0,1-.44-.88v.88c0,.43.22.65.22.87.44.44.66.88,1.09,1.31A3.88,3.88,0,0,1,42,21.3l-3.5-2.84-1.09-.88h0l.87,1.75,2.84,3.72a1.14,1.14,0,0,1-.87-.44,4.6,4.6,0,0,0-1.75-1.09,6.3,6.3,0,0,1-2-.44,3,3,0,0,0-.88-.66l.44.88c.22.22.44.65.65.87a5.61,5.61,0,0,0,1.53.88A11.87,11.87,0,0,1,40,24.57l-4.37-1.09-1.31-.22,1.09.66,3.94,2.18h-1.1a6.58,6.58,0,0,0-2-.43,6,6,0,0,1-2,.22c-.22,0-.65-.22-.87-.22l.65.65a1.67,1.67,0,0,0,.88.44c.65,0,1.31.22,1.74.22a6.74,6.74,0,0,1,2.19.87l-4.59.66L33,28.73l1.31.21,4.59.66c-.22.22-.66.22-1.09.44a6.64,6.64,0,0,0-2,.43,4.75,4.75,0,0,1-1.75,1.1h-.87a1.34,1.34,0,0,0,.87.21c.44,0,.66.22,1.1.22.65-.22,1.09-.22,1.74-.43a4.48,4.48,0,0,1,2.41,0L35.39,34l-1.09.65h0l1.31-.21L40,33.31c-.22.22-.44.66-.87.66Z"/><path class="cls-2" d="M48.72,26.1V25h2.62a3.43,3.43,0,0,1,1.75,1.31c0,.22-.65-.43-1.31-.65a11.83,11.83,0,0,0-3.06.43"/><path class="cls-2" d="M51.34,26.76h-2c-.44.22-.66.66-.88.87,0,.22.22.22.44.22l.22-.22c.22-.21.44-.21.65-.43v.22a1,1,0,0,0,.88.87c.43,0,.87-.22.87-.66v-.21a1.65,1.65,0,0,1,.88.43c.21.22.65.44.65.22a17.34,17.34,0,0,1-1.75-1.31"/><path class="cls-2" d="M46.54,26.1l-.22-.87H43.7A3.43,3.43,0,0,0,42,26.54c0,.22.65-.44,1.31-.65a7.91,7.91,0,0,1,3.28.21"/><path class="cls-2" d="M43.91,26.76h1.75c.44.22.66.66.88.87,0,.22-.22.22-.44,0h0c-.22-.21-.44-.21-.66-.43v.22c0,.43-.21.87-.65.87s-.88-.22-.88-.66V27.2c-.21,0-.43.22-.87.43-.22.22-.65.44-.65.22a3.85,3.85,0,0,0,1.52-1.09"/><path class="cls-1" d="M25.56,60c0,16.38,10.05,29.71,22.29,29.71S70.13,76.35,70.13,60v-.44H25.56V60"/><path class="cls-5" d="M47.85,30.26c-12.24,0-22.29,13.1-22.29,29.27H70.13c-.22-16.17-10-29.27-22.28-29.27"/><path class="cls-6" d="M54,52.32a32.38,32.38,0,0,0-.43-4.59,32,32,0,0,1,.22-4.8,5.82,5.82,0,0,0-5-4.81c-3.93-.22-4.59,2-4.59,2.62s2,1.53,2.62,1.53a10.42,10.42,0,0,0-6.55,8.09c-.22,1.52,5,2.84,6.12,2.84S54,54.29,54,52.32"/><path class="cls-7" d="M25.78,65.65s10.49-.87,12-1.31c.87-.22,3.49-1.31,4.37-1.53a23.88,23.88,0,0,1,3.93-.44c.22,0,.87.66.87.66L48.5,61.5h2.41c.65,0,3.93,2,4.8,2.18,0,0,4.81.88,5.68,1.1s7.65,2,8.09,2c-.66,2.62-1.31,5.25-2.19,7.87a97.31,97.31,0,0,1-11.8-5.47c-.21-.21-.21,1.32-1.74,1.32a2.83,2.83,0,0,1-2.19.87,2.75,2.75,0,0,1-2,.87s.21.88-2.63.22c-.22,0-2,2-3.06,0,0,0-1.74.88-2.18-.65,0,0-1.31.87-1.53-1.1a1.48,1.48,0,0,1-1.75-.87,88.69,88.69,0,0,0-10.7,3.93,61.44,61.44,0,0,1-2-8.08"/><path class="cls-8" d="M39.54,72.2c-1.09-.43-6.33.44-9.61,5.68a15.34,15.34,0,0,0,1.53,2.41,20.68,20.68,0,0,0,2.19-3.72c1.74-3.93,5.89-4.15,5.89-4.37"/><path class="cls-8" d="M37.58,84.88c-1.09-3.94,2.18-7,1.75-7a9.33,9.33,0,0,0-3.72,7A9.65,9.65,0,0,0,38,86.62a4.05,4.05,0,0,1-.44-1.74"/><path class="cls-8" d="M34.52,83.78c.22-.87.44-2,.66-2.84.21-4.15,4.36-5.68,3.93-5.9-1.09-.21-4.81,2-6.56,6.56a16.59,16.59,0,0,0,2,2.18"/><path class="cls-8" d="M56.37,75.7c-.22.22,3.71,1.75,3.93,5.9a7.78,7.78,0,0,0,.44,2.4,19.47,19.47,0,0,0,2-2.18c-1.74-4.15-5.46-6.34-6.33-6.12"/><path class="cls-8" d="M41.29,87.72c-2.4-3.28-.43-7.21-.65-7.21a9.33,9.33,0,0,0-1.31,6.77L42,88.59a3.11,3.11,0,0,1-.66-.87"/><path class="cls-8" d="M55.93,78.76c-.44,0,2.84,2.84,1.75,7,0,.44-.22.65-.22,1.09.66-.44,1.53-1.09,2.19-1.53a8.45,8.45,0,0,0-3.72-6.55"/><path class="cls-8" d="M54.62,81.38c-.44,0,1.75,3.71-.66,7.21h0a10.64,10.64,0,0,0,2.19-1.09,8.64,8.64,0,0,0-1.53-6.12"/><path class="cls-9" d="M56.37,67.18c-.66-.22-.44-.22-.88-.88-.21.66-.65.66-.65.66s-3.28-1.31-3.72-4.15c0,0-.65,2.18-1.74-.22,0,0-1.31,2.62-2.63,2.4s-1.52,0-1.52,0l.65.22h-.65a3.49,3.49,0,0,0,2.84,1.31c1.74-.22,1.74-.65,2-.87a12.65,12.65,0,0,1,3.28,2.4c0,.22-.44.22-.87.22-.88-.44-1.53-.87-2.41-1.31L53.75,70l1.53-.88v-.87A68.08,68.08,0,0,0,66.64,74a10.4,10.4,0,0,0,1.74-3.49,31.62,31.62,0,0,1-12-3.28"/><path class="cls-9" d="M48.5,68.05s2.19,1.75,2.84,1.75A.78.78,0,0,0,52,68.71c-.22-.22,1.31,1.53,1.31,1.53l-1.09.65-1.1-.22Z"/><path class="cls-9" d="M47.41,69.8l2,2s.43.65,1.31,0,.65-.88.43-.88-.43-.65-.43-.65-.88.87-1.31.65-2-1.31-2-1.09"/><path class="cls-9" d="M26.87,69.8s11.58-2,13.33-2.4a11.67,11.67,0,0,1,4.59,1.09,21.06,21.06,0,0,0,2.4,1.09l2.62,2-.43.87h-2c-.87,0-1.75.66-2.62.66a1.43,1.43,0,0,1-1.09-.88,1.39,1.39,0,0,1-2-.21c-.22-.22-.22-.22-.22-.44A1,1,0,0,1,40,70.46s-1.75.43-1.75-.88c0,0-9.61,3.06-10.7,3.93-.22-1.31-.44-2.62-.66-3.71"/><path class="cls-7" d="M45.88,70.24s-.65.65-1.09.65-1.31-.22-.66-.87,1.31-.66,1.53-.44.22,0,.22.66"/><path class="cls-7" d="M43.91,69.14a4.71,4.71,0,0,1-1.09.66c-.22,0-1.09-.22-.65-.87a1.44,1.44,0,0,1,1.53-.44c0,.44.21.22.21.65"/><path class="cls-10" d="M53.75,52.54c-.22.87-3.28,1.09-7,.66s-6.55-1.75-6.55-2.63,3.28-1.09,7-.65,6.56,1.75,6.56,2.62"/><polygon class="cls-8" points="48.5 50.36 46.76 50.14 46.76 62.37 48.5 61.5 48.5 50.36"/><polygon class="cls-11" points="47.19 61.94 47.85 61.94 47.85 51.88 47.19 51.67 47.19 61.94"/><polygon class="cls-8" points="52.22 77.45 49.16 77.45 49.16 74.39 46.1 74.39 46.1 77.45 43.04 77.45 43.04 80.51 46.1 80.51 46.1 88.81 49.16 88.81 49.16 80.51 52.22 80.51 52.22 77.45"/><rect class="cls-11" x="46.1" y="74.61" width="3.06" height="0.22"/><polygon class="cls-11" points="48.94 77.67 49.16 77.88 52 77.88 52 77.67 48.94 77.67"/><rect class="cls-11" x="43.26" y="77.67" width="3.28" height="0.22"/><rect class="cls-11" x="46.54" y="74.83" width="0.22" height="3.28"/><polygon class="cls-11" points="46.54 86.19 46.76 86.19 46.76 80.51 46.54 80.07 46.54 86.19"/><path class="cls-2" d="M48.5,53.63c3.06.22,5.46,0,5.68-.87.66-4.15-.22-5-.22-5a3.69,3.69,0,0,0,0-3A5.73,5.73,0,0,0,49.6,37.9h-.44c-3.72-.65-5.25,1.53-5.46,2.41-.22,1.74,1.31,2,2.18,2a9.86,9.86,0,0,0-6.12,8.3c-.22,1.1,3.06,2.41,7,3.06L47,53.2c-3.49-.66-6.33-1.75-6.11-2.41s3-.87,6.55-.43,6.34,1.74,6.12,2.4-2.19.87-4.81.65ZM40.64,49.7a9.57,9.57,0,0,1,7.64-7.43s-3.71-.22-3.93-1.53,2.19-2.62,4.59-2.18a4.53,4.53,0,0,1,3.93,4.8c-.22.88-2.18,1.32-3.06,1.32,1.75,0,3.06.21,2.84.65a3.28,3.28,0,0,1-3.27,1.09c2.18,1.31,2.4-.43,3.49,1.1.44.65,0,.87-2.4,0-3.93-1.1-5-.66-5-.66a16.76,16.76,0,0,1,7,2.4,1.81,1.81,0,0,1,.43,2,24.84,24.84,0,0,0-5.68-1.75A21.83,21.83,0,0,0,40.64,49.7Z"/><polygon class="cls-12" points="48.72 50.36 46.76 49.92 46.76 62.37 48.72 61.5 48.72 50.36"/><path class="cls-2" d="M67.29,74a112.67,112.67,0,0,1-11.58-5.24l-.87-.66a20.6,20.6,0,0,0-4.37-3.27,6.8,6.8,0,0,1-1.09-1.53c.43,1.53-.88,1.31-1.53,2.18s-1.75,0-2.19-.22,1.09-1.09,2.41-2.4c.21-.44.21-.87,1.74-.66s2,.22,2.41.66a14.66,14.66,0,0,0,4.15,2,12.3,12.3,0,0,1,4.8.87,52.16,52.16,0,0,0,8.31,2c-.66,2-1.31,4.15-2.19,6.33M54,69.8A46.45,46.45,0,0,1,49.81,67l.66.66A11.1,11.1,0,0,1,52.65,70c.22.44-.65.65-1.09.65a33.25,33.25,0,0,1-2.84-2c.44.65,2.19,2.18,2.19,2.62s-.66.44-1.1.44l-2-1.31c.65.87.87,1.31,1.09,1.53s-.66.21-1.09.21h-.22a.78.78,0,0,0,.22-.65c0-.44-.44-.88-1.75-.88,0,0,.44-1.74-2-1.31-.65-.87-1.09-1.09-2.84-.43a1.41,1.41,0,0,0-2-.44.22.22,0,0,0-.22.22c-.22.22-.66.43-.66.87-2.62.66-10.92,3.72-10.92,3.72a25.15,25.15,0,0,1-1.75-7,83,83,0,0,0,12.67-1.52c.88-.22,3.28-1.32,4.15-1.53A17.63,17.63,0,0,1,46.1,63l.44.22a9.38,9.38,0,0,0-1.75,2c0,.22.44.66,1.75.88,2,.21,2.18-1.1,3.06-1.1a.78.78,0,0,0,.65.22l.22.22.65.44c1.1.87,2.84,2.18,3.5,2.84S54.18,69.8,54,69.8Zm-8.73,3.28c-.22,0-1.1-.44-.66-.66a11.38,11.38,0,0,0,1.75-1.31c.43,0,1.75.44.87.88a4.51,4.51,0,0,1-2,1.09Zm-2.63-.66c-.65-.22,0-1.09.88-1.75s1.31-1.31,2.4-.65c.22.44-.65,1.09-1.09,1.53a4.59,4.59,0,0,1-2.19.87Zm-1.53-.87a1.68,1.68,0,0,1,.22-1.75c.22-.22,1.31-1.31,2.19-.66.43.22-.22.88-.88,1.53a3.65,3.65,0,0,1-1.53.88Zm-1.74-1.31c-.44-.22-.22-.88.21-1.31s1.1-.66,1.32-.22a1,1,0,0,1,0,1.09C40.42,69.8,39.76,70.46,39.33,70.24ZM69.48,66.3a39.12,39.12,0,0,1-8.74-2.18,32.23,32.23,0,0,0-4.59-.87c-2-.66-4.15-2.41-4.81-2.19s-3.06-.44-3.49.22c-.22.22-.44.66-.66.87-.44-.21-.65-.43-1.09-.43H42.82c-.65,0-3.71,1.74-4.59,2A76.58,76.58,0,0,1,26,64.78a39.73,39.73,0,0,0,2.18,8.73,87.9,87.9,0,0,1,10.49-3.93.22.22,0,0,0,.22.22,2,2,0,0,0,1.53.66c0,.43,0,1.53,1.53,1.31a1.48,1.48,0,0,0,2.18.65c.22.66,1.1,1.31,2.41.44.21-.22.43-.22.65-.44h0c.66.44,2.41.88,3.06-.43a1.25,1.25,0,0,0,1.53-.88s1.53.44,2-.87c0,0,1.74.22,2-1.31,3.72,2,7.43,3.71,11.36,5.46A73.24,73.24,0,0,0,69.26,67l.22-.66Z"/><path class="cls-2" d="M39.33,74.83c-.88-.44-5.25,1.31-7.21,6.33l.43.44C34.3,77,38,74.83,39.11,75c.22.22-3.72,1.75-3.93,5.9a10.92,10.92,0,0,1-.44,2.84l.44.44c.21-.87.21-1.75.43-2.62,0-5.46,4.37-6.56,3.72-6.77"/><path class="cls-2" d="M39.54,77.67c-.87,0-3.71,2.4-4.36,6.77l.43.44a8.53,8.53,0,0,1,3.93-6.78c.44,0-2.84,2.84-1.74,7,.22.66.22,1.1.43,1.75l.66.44a4,4,0,0,0-.44-1.53c-1.75-5.46,1.75-8.08,1.09-8.08"/><path class="cls-2" d="M40.86,80.29c-.66.22-2.41,3.06-2,7l.65.22a8.26,8.26,0,0,1,1.32-6.78c.21,0-1.75,3.72.65,7.21.22.22.44.66.66.88l.65.22-.65-.88c-3.28-4.37-.66-8.08-1.31-7.86"/><path class="cls-2" d="M60.3,81.6c-.22-4.15-4.37-5.68-3.93-5.9,1.09-.22,4.59,2,6.33,6.34l.44-.44c-2-4.81-6.34-6.34-7-5.9S59.86,77,60.3,82.47c0,.66.22,1.53.22,2.19l.44-.44a5.78,5.78,0,0,1-.66-2.62"/><path class="cls-2" d="M55.71,78.54c-.65,0,3.06,2.62,1.53,7.65l-.22.87.44-.44c0-.43.22-.65.22-1.09,1.09-3.93-2.19-7-1.75-7a8.41,8.41,0,0,1,3.72,6.34l.43-.44c-.87-3.72-3.71-6.12-4.37-5.9"/><path class="cls-2" d="M54.4,80.94c-.65-.22,2,3.5-1.09,7.65l.65-.22h0c2.41-3.28.44-7.21.66-7.21a7.58,7.58,0,0,1,1.31,6.12l.44-.22a7.48,7.48,0,0,0-2-6.12"/><path class="cls-2" d="M39.76,72.2c-.65-.65-6.55-.65-10.27,5.25a.73.73,0,0,0,.22.43c3.06-4.8,7.21-5.89,8.74-5.46a8.65,8.65,0,0,0-5,4.15,20.68,20.68,0,0,1-2.19,3.72c0,.22.22.22.22.43a11,11,0,0,0,2-3.49c2.62-5,7-4.37,6.33-5"/><path class="cls-2" d="M48.94,74.61v3.06H52v2.4H48.94v8.3h-2.4v-8.3H43.48v-2.4h3.06V74.61Zm-3.06-.44v3.06H42.82v3.71h3.06v8.31H49.6V80.94h3V77.23h-3V74.17Z"/><path class="cls-2" d="M49.38,82c.65.65,2,1.09,1.53,2.62.43-1.1.65-1.75,3.05-2.19-.87,2.41-1.31,1.75-1.31,3.93a2.93,2.93,0,0,1-1.74,2.85,13.38,13.38,0,0,1-6.56.21c-2.62-.87-3.49-4.58-1.75-6.11,1.1,3.05.22,1.09,1.53,2.18a4.46,4.46,0,0,1,1.31-5c0,2.84.66,2.62,1.53,5.46,0-1.31.88-1.09.66-4.37a5.47,5.47,0,0,1,1.75,3.93c.22-2.4.65-1.53,0-3.49"/><path class="cls-13" d="M49.81,82.69a3.41,3.41,0,0,1,.88,3.5c.43-1.1.65-2.84,2.62-3.28-.66,2-1.31,1.75-1.31,3.71A2.91,2.91,0,0,1,50.25,89a14.71,14.71,0,0,1-6.12.22A3.49,3.49,0,0,1,42,84.66c0-.22,0-.22.22-.44,1.09,3.06.22-.44,2.62,3.28a7,7,0,0,1,0-6.56c0,2.41,1.53,3.5,2,6.78,0-2.19.88-3.06.88-5.25,2,2,.87,3.5,1.09,4.37.66-2,1.53-2,1.09-4.15"/><path class="cls-3" d="M43.48,88.59a2.47,2.47,0,0,1-.66-1.75s1.09,1.53,2.19,1.31c.22,0-.22-1.09,0-2.18a4,4,0,0,0,1.53,2.62,2.63,2.63,0,0,0,1.31-2.84,3.14,3.14,0,0,1,.43,1.53v.87s.44.22.88-.87a10.53,10.53,0,0,0,.65-1.09A1.78,1.78,0,0,1,50,87.72s.66-1.53,1.31-1.75c-.43.65-.22,2.18-1.09,3.28a13.65,13.65,0,0,1-5.9,0c-.22-.66-.44-.66-.87-.66"/><path class="cls-2" d="M26,60c0-16.17,9.83-29.28,21.85-29.28S69.7,43.8,69.7,60,59.65,89.25,47.63,89.25,25.78,76.14,26,60m-1.09,0c0,16.6,10.27,30.15,22.72,30.15S70.35,76.57,70.35,60,60.08,29.82,47.63,29.82,24.91,43.36,24.91,60Z"/><path class="cls-14" d="M36.7,34a4.93,4.93,0,0,0-2.84.65,4,4,0,0,0-.21-3.49s-1.31,1.53-1.1,2.4.66,2,.22,2.41a6,6,0,0,1,2-.22,5,5,0,0,0,2-1.75"/><path class="cls-15" d="M33.43,31.35a4.19,4.19,0,0,1,.43,2.84c-.21,1.31-.65-1.09-.43-1.75V31.35"/><path class="cls-15" d="M36.7,33.75s-1.09,1.75-2.4,1.53,2.4-1.53,2.4-1.53"/><path class="cls-2" d="M34.52,35.5c-.66,0-1.31.22-2,.22.44-.44,0-1.53-.21-2.41s1.09-2.4,1.09-2.4a4.42,4.42,0,0,1,.22,3.71c1.09-.43,2.4-.87,2.84-.65a2.44,2.44,0,0,1-2,1.53m2.84-1.75a6,6,0,0,0-2-.22c-.43.22-.87.22-1.31.44.88-1.31-.65-3.71-.87-3.71a6.54,6.54,0,0,0-1.09,1.52,3.22,3.22,0,0,0,0,2.84c.43,1.1-.88,2.63-.88,2.63.88-.88,1.31-.88,2.84-.88a6.09,6.09,0,0,0,3.28-2.62Z"/><path class="cls-14" d="M33.65,36.15c-.44-.43-1.75.22-2.84.66a4,4,0,0,0-.22-3.5s-1.31,1.53-1.1,2.41.66,2,.22,2.4a6,6,0,0,1,2-.22,3.11,3.11,0,0,0,2-1.75"/><path class="cls-15" d="M30.59,33.53A4.2,4.2,0,0,1,31,36.37c-.21,1.31-.65-1.09-.43-1.75V33.53"/><path class="cls-15" d="M33.86,36.15s-1.09,1.75-2.4,1.53,2.4-1.53,2.4-1.53"/><path class="cls-2" d="M31.46,37.9c-.65,0-1.31.22-2,.22.44-.44,0-1.53-.21-2.4s1.09-2.41,1.09-2.41a4,4,0,0,1,.22,3.5c1.09-.44,2.4-.87,2.84-.66a2.35,2.35,0,0,1-2,1.75m3.06-2a6,6,0,0,0-2-.22l-1.31.65c.88-1.53-.65-3.93-.87-3.71a3.79,3.79,0,0,0-1.09,1.53,3.22,3.22,0,0,0,0,2.84c.43,1.09-.88,2.62-.88,2.62.88-.87,1.31-.87,2.84-1.09s3.28-2.62,3.28-2.62Z"/><path class="cls-14" d="M31.68,38.78c-.66-.22-1.75.21-2.84.87a3.92,3.92,0,0,0-.44-3.5s-1.31,1.53-.87,2.41.87,2,.44,2.4a6.68,6.68,0,0,1,1.74-.44c.88-.43,1.75-.87,2-1.74"/><path class="cls-15" d="M28.4,36.37a6,6,0,0,1,.66,2.84c-.22,1.31-.66-1.09-.66-1.74v-1.1"/><path class="cls-15" d="M31.9,38.56s-.88,2-2.19,1.75,2.19-1.75,2.19-1.75"/><path class="cls-2" d="M29.71,40.31a4.05,4.05,0,0,0-1.74.43c.43-.43,0-1.53-.44-2.4s.87-2.4.87-2.4a5,5,0,0,1,.66,3.49c.87-.44,2.18-1.09,2.84-.87a3.33,3.33,0,0,1-2.19,1.75m2.84-2a3,3,0,0,0-2,0,5.22,5.22,0,0,0-1.1.65c.66-1.52-1.09-3.71-1.31-3.71-.43.44-.65,1.09-1.09,1.53a2.67,2.67,0,0,0,.22,2.84c.66,1.09-.66,2.62-.66,2.62.88-.87,1.1-.87,2.84-1.09S32.55,38.34,32.55,38.34Z"/><path class="cls-14" d="M30.15,41.18c-.66-.22-1.75.65-2.62,1.09A3.62,3.62,0,0,0,26.44,39s-1.1,1.75-.66,2.63,1.09,1.74.66,2.4c.65-.22,1.09-.66,1.74-.66a4.75,4.75,0,0,0,2-2.18"/><path class="cls-15" d="M26.44,39.21a4.07,4.07,0,0,1,1.09,2.62c0,1.32-.88-1.09-.88-1.52a9.93,9.93,0,0,1-.21-1.1"/><path class="cls-15" d="M30.15,41.18s-.66,2-2,2,2-2,2-2"/><path class="cls-2" d="M28.18,43.15a13.24,13.24,0,0,0-1.74.65,3.69,3.69,0,0,0-.66-2.4c-.44-.88.66-2.62.66-2.62a3.39,3.39,0,0,1,.87,3.49c.87-.65,2.18-1.31,2.62-1.09a2.67,2.67,0,0,1-1.75,2m2.63-2.41a6,6,0,0,0-2,.22c-.44.22-.66.44-1.09.66.65-1.53-1.53-3.5-1.75-3.5-.22.66-.66,1.09-.87,1.75a2.33,2.33,0,0,0,.43,2.62c.66.87-.22,2.62-.22,2.62C26,44,26.22,44,28,43.58S30.81,40.74,30.81,40.74Z"/><path class="cls-14" d="M28.62,44c-.65-.22-1.75.87-2.62,1.53a4.15,4.15,0,0,0-1.31-3.28s-.88,2-.22,2.62,1.31,1.75,1.09,2.19a4.38,4.38,0,0,1,1.75-.88A5.24,5.24,0,0,0,28.62,44"/><path class="cls-15" d="M24.69,42.49A3.84,3.84,0,0,1,26,45.11c.22,1.53-.87-.87-1.09-1.53a1.63,1.63,0,0,0-.22-1.09"/><path class="cls-15" d="M28.62,43.8S28.18,46,26.87,46s1.75-2.19,1.75-2.19"/><path class="cls-2" d="M27.09,46.2a6.68,6.68,0,0,0-1.75.88c.22-.66-.43-1.53-1.09-2.19s.22-2.62.22-2.62A4.68,4.68,0,0,1,26,45.55c.87-.87,2-1.75,2.62-1.53a4,4,0,0,1-1.53,2.18m2.19-2.84a6.36,6.36,0,0,0-2,.44c-.44.22-.66.66-1.09.88.43-1.75-2-3.5-2.19-3.28l-.65,2A3,3,0,0,0,24.25,46c.88.87.22,2.84.22,2.84a3.74,3.74,0,0,1,2.4-2c1.53-.66,2.41-3.5,2.41-3.5Z"/><path class="cls-14" d="M27.31,47.08c-.66,0-1.53,1.09-2.4,2a3.84,3.84,0,0,0-2-3.27s-.65,2,0,2.84,1.53,1.53,1.31,2.18a6.89,6.89,0,0,1,1.53-1.09,3.35,3.35,0,0,0,1.53-2.62"/><path class="cls-15" d="M23.16,46a5,5,0,0,1,1.75,2.4c.43,1.31-1.1-.87-1.31-1.31,0-.44-.22-.66-.44-1.09"/><path class="cls-15" d="M27.31,46.86s0,2.18-1.53,2.4,1.53-2.4,1.53-2.4"/><path class="cls-2" d="M26,49.48a4,4,0,0,0-1.53,1.09c.22-.65-.66-1.31-1.31-2.18s0-2.84,0-2.84a4.7,4.7,0,0,1,2,3.28c.87-.88,1.74-2,2.4-2A4.06,4.06,0,0,1,26,49.48m2-3.06a3.49,3.49,0,0,0-2,.66c-.22.44-.66.65-.87,1.09.21-1.75-2.41-3.28-2.63-3.06-.21.66-.21,1.31-.43,2a3.1,3.1,0,0,0,1.31,2.62c.87.87.43,2.62.43,2.62C24.25,51,24.47,51,26,50.14s2-3.72,2-3.72Z"/><path class="cls-14" d="M26.22,50.14c-.66,0-1.53,1.31-2.19,2.18a3.73,3.73,0,0,0-2.18-2.84s-.44,2.19.44,2.84,1.74,1.31,1.52,2A4.51,4.51,0,0,1,25.34,53a3.43,3.43,0,0,0,.88-2.84"/><path class="cls-15" d="M22.07,49.7a4.78,4.78,0,0,1,2,2.18c.66,1.32-1.31-.65-1.31-1.09-.22-.43-.43-.65-.65-1.09"/><path class="cls-15" d="M26.22,49.92s.22,2.18-1.09,2.62,1.09-2.62,1.09-2.62"/><path class="cls-2" d="M25.34,52.76a9.89,9.89,0,0,0-1.53,1.31c0-.66-.87-1.31-1.52-2s-.44-2.62-.44-2.62a5.69,5.69,0,0,1,2.4,3.06c.66-1.09,1.53-2.18,2.19-2.18a3.51,3.51,0,0,1-1.1,2.4m1.53-3.28a3,3,0,0,0-1.74,1.09c-.66.88-.66,1.1-.66,1.1,0-1.75-2.84-2.84-3.06-2.84v2a2.71,2.71,0,0,0,1.53,2.41c1.09.65.87,2.62.87,2.62.22-1.31.44-1.53,2-2.62s1.09-3.72,1.09-3.72Z"/><path class="cls-14" d="M25.56,53.63c-.65,0-1.31,1.31-2,2.41A4,4,0,0,0,21,53.41s-.21,2.19.66,2.63,1.75,1.09,1.75,1.74a9.38,9.38,0,0,1,1.31-1.53,2.5,2.5,0,0,0,.87-2.62"/><path class="cls-15" d="M21.41,53.63a6.81,6.81,0,0,1,2.4,2c.66,1.31-1.31-.44-1.52-1.09-.44-.22-.66-.66-.88-.88"/><path class="cls-15" d="M25.56,53.41s.44,2.19-.87,2.84.87-2.84.87-2.84"/><path class="cls-2" d="M24.91,56.25a9.38,9.38,0,0,0-1.31,1.53c0-.65-.88-1.31-1.75-1.74s-.66-2.63-.66-2.63A4.42,4.42,0,0,1,23.81,56c.66-1.1,1.32-2.41,2-2.41a3.81,3.81,0,0,1-.87,2.62M26,53a4.73,4.73,0,0,0-1.75,1.09l-.65,1.31c-.22-1.75-3.06-2.62-3.28-2.4a6,6,0,0,0,.22,2c0,.88.65,1.53,1.75,2.19s1.09,2.62,1.09,2.62c.22-1.31.43-1.53,1.53-2.84S26,53,26,53Z"/><path class="cls-14" d="M25.34,56.91c-.65.22-1.31,1.53-1.74,2.62a3.57,3.57,0,0,0-2.84-2.4s0,2.18.87,2.62,2,1.09,2,1.75A3.79,3.79,0,0,1,24.69,60a4.17,4.17,0,0,0,.65-3.06"/><path class="cls-15" d="M21,57.13a6.18,6.18,0,0,1,2.41,1.75c.87,1.31-1.31-.44-1.53-.88s-.66-.65-.88-.87"/><path class="cls-15" d="M25.34,56.69s.66,2.19-.65,2.84.65-2.84.65-2.84"/><path class="cls-2" d="M24.69,59.53a6.3,6.3,0,0,0-1.09,1.53c0-.65-1.1-1.09-2-1.75s-.87-2.62-.87-2.62a5.2,5.2,0,0,1,2.84,2.4c.43-1.09,1.09-2.4,1.74-2.62a3.45,3.45,0,0,1-.65,3.06M25.56,56A2.29,2.29,0,0,0,24,57.35a3,3,0,0,0-.43,1.31c-.44-1.75-3.28-2.41-3.5-2.19,0,.66.22,1.31.22,2a2.55,2.55,0,0,0,2,2.18C23.38,61.06,23.6,63,23.6,63c0-1.31.21-1.53,1.53-2.84A5.34,5.34,0,0,0,25.56,56Z"/><path class="cls-14" d="M25.13,60c-.66.22-1.32,1.53-1.75,2.62A4.28,4.28,0,0,0,20.54,60s0,2.18.87,2.62,2,1.09,2,1.75a3.89,3.89,0,0,1,1.09-1.53A3.33,3.33,0,0,0,25.13,60"/><path class="cls-15" d="M20.76,60.41a6.2,6.2,0,0,1,2.4,1.74c.87,1.31-1.31-.43-1.53-.87a1.68,1.68,0,0,0-.87-.87"/><path class="cls-15" d="M25.13,59.75s.65,2.19-.66,2.84.66-2.84.66-2.84"/><path class="cls-2" d="M24.69,62.81a6.3,6.3,0,0,0-1.09,1.53c0-.66-1.1-1.09-2-1.75S20.76,60,20.76,60a4.81,4.81,0,0,1,2.84,2.62c.43-1.09,1.09-2.4,1.74-2.62a6,6,0,0,1-.65,2.84m.87-3.5S24.25,60,24,60.62l-.65,1.32c-.44-1.75-3.28-2.41-3.5-2.19a6,6,0,0,0,.22,2,2.85,2.85,0,0,0,2,2.18c1.09.44,1.31,2.4,1.31,2.4,0-1.31.22-1.52,1.53-2.84A7,7,0,0,0,25.56,59.31Z"/><path class="cls-14" d="M25.13,63c-.66.22-1.1,1.53-1.53,2.84a5.71,5.71,0,0,0-3.06-2.41s.22,2.19,1.09,2.63,2,.87,2,1.53a7.09,7.09,0,0,1,1.09-1.75A2.78,2.78,0,0,0,25.13,63"/><path class="cls-15" d="M21,63.68a5.31,5.31,0,0,1,2.63,1.53c.87,1.09-1.31-.22-1.75-.87-.44,0-.66-.44-.88-.66"/><path class="cls-15" d="M25.13,63s.65,2.18-.44,3.06.44-3.06.44-3.06"/><path class="cls-2" d="M24.91,65.87a4.67,4.67,0,0,0-1.1,1.75c0-.66-1.09-1.1-2-1.53s-1.09-2.63-1.09-2.63a4.22,4.22,0,0,1,3,2.41c.44-1.09.88-2.62,1.53-2.84a4,4,0,0,1-.43,2.84m.65-3.5S24.25,63,24,63.9c-.22.44-.22.88-.43,1.31-.44-1.75-3.5-2.18-3.72-2a6.3,6.3,0,0,0,.44,2,2.88,2.88,0,0,0,2.18,2c1.31.44,1.53,2.4,1.53,2.4,0-1.31.22-1.53,1.31-3.06A5.45,5.45,0,0,0,25.56,62.37Z"/><path class="cls-14" d="M25.78,66.52c-.65.22-1.09,1.75-1.31,2.84a4.54,4.54,0,0,0-3.06-2.18s.22,2.18,1.31,2.62,2,.66,2.19,1.31a13.57,13.57,0,0,1,.87-1.75,6.19,6.19,0,0,0,0-2.84"/><path class="cls-15" d="M21.41,67.4A4,4,0,0,1,24,68.93c.88,1.09-1.31-.22-1.74-.66-.22-.44-.66-.65-.88-.87"/><path class="cls-15" d="M25.56,66.3s.88,2-.22,3.06.22-3.06.22-3.06"/><path class="cls-2" d="M25.56,69.36a7,7,0,0,0-.87,1.75c-.22-.65-1.31-1.09-2.19-1.31s-1.31-2.62-1.31-2.62a4.52,4.52,0,0,1,3.06,2.18c.22-1.09.66-2.62,1.31-2.84a3.22,3.22,0,0,1,0,2.84M26,65.65s-1.31.87-1.53,1.53a2.75,2.75,0,0,0-.22,1.31c-.65-1.75-3.71-2-3.71-1.75a7.23,7.23,0,0,0,.65,2,2.57,2.57,0,0,0,2.41,1.75c1.31.21,1.74,2.4,1.74,2.4-.21-1.31,0-1.53,1.1-3.06A13.35,13.35,0,0,0,26,65.65Z"/><path class="cls-14" d="M26.44,69.58c-.66.22-.88,1.75-1.1,3.06a4.68,4.68,0,0,0-3.27-2s.43,2.19,1.53,2.41,2.18.65,2.18,1.31a8.08,8.08,0,0,1,.87-2,4.44,4.44,0,0,0-.21-2.84"/><path class="cls-15" d="M22.07,70.89a3.87,3.87,0,0,1,2.84,1.31c1.09,1.1-1.31,0-1.75-.43a4,4,0,0,0-1.09-.88"/><path class="cls-15" d="M26.22,69.58s1.09,2,0,3.06,0-3.06,0-3.06"/><path class="cls-2" d="M26.44,72.64a7.76,7.76,0,0,0-.88,2c-.22-.66-1.31-.88-2.18-1.31s-1.53-2.63-1.53-2.63a4.08,4.08,0,0,1,3.28,2c.21-1.09.43-2.62,1.09-3.06a3.14,3.14,0,0,1,.22,3.06m0-3.71a3.3,3.3,0,0,0-1.31,1.74A2.79,2.79,0,0,0,24.91,72C24,70.46,21,70.24,21,70.46l.66,2A3.38,3.38,0,0,0,24,74.17c1.31.22,1.75,2.18,1.75,2.18-.22-1.31,0-1.52.87-3a6,6,0,0,0-.21-4.37Z"/><path class="cls-14" d="M27.09,72.42c-.65.44-.87,2-.87,3.06A4.37,4.37,0,0,0,22.72,74s.66,2.19,1.75,2.4,2.18.44,2.4,1.1l.66-2a4.79,4.79,0,0,0-.44-3.06"/><path class="cls-15" d="M22.94,74a5,5,0,0,1,3.06.88c1.09,1.09-1.31,0-2-.44-.43,0-.65-.22-1.09-.44"/><path class="cls-15" d="M27.09,72.2s1.31,2,.22,3.06-.22-3.06-.22-3.06"/><path class="cls-2" d="M27.53,75.26l-.66,2c-.22-.66-1.31-.88-2.4-1.09S22.72,74,22.72,74a4.37,4.37,0,0,1,3.5,1.53c.22-1.31.22-2.84.87-3.06a3.94,3.94,0,0,1,.44,2.84m-.44-3.71A4.73,4.73,0,0,0,26,73.3a4.27,4.27,0,0,1-.22,1.53c-.87-1.53-3.93-1.32-4.15-1.1a8.08,8.08,0,0,0,.87,2,3.35,3.35,0,0,0,2.63,1.53c1.31,0,2,2,2,2-.44-1.32-.22-1.53.44-3.28A4.32,4.32,0,0,0,27.09,71.55Z"/><path class="cls-14" d="M28.4,75.26c-.65.44-.43,2-.43,3.28a4.74,4.74,0,0,0-3.72-1.09s.88,2,2,2.18,2.18,0,2.62.66a6.36,6.36,0,0,1,.44-2,5,5,0,0,0-.88-3.06"/><path class="cls-15" d="M24.25,77.45a3.81,3.81,0,0,1,3.06.65c1.31.88-1.53.22-2-.22a3.69,3.69,0,0,1-1.09-.43"/><path class="cls-15" d="M28.18,75s1.53,1.75.66,3.06S28.18,75,28.18,75"/><path class="cls-2" d="M29.06,78.1a6.36,6.36,0,0,0-.44,2c-.22-.66-1.53-.66-2.62-.66s-2-2.18-2-2.18a4.74,4.74,0,0,1,3.72,1.09c0-1.31,0-2.84.43-3.28a3.24,3.24,0,0,1,.88,3.06m-.66-3.71a3.29,3.29,0,0,0-.87,2v1.53c-1.09-1.53-4.15-.65-4.15-.65A4.81,4.81,0,0,0,24.47,79a2.85,2.85,0,0,0,2.84,1.09c1.31,0,2.4,1.75,2.4,1.75-.43-1.31-.43-1.53.22-3.28A10.63,10.63,0,0,0,28.4,74.39Z"/><path class="cls-14" d="M29.71,78.1c-.43.44-.22,2,0,3.28a5,5,0,0,0-3.93-.66s1.31,1.75,2.4,1.75,2.19-.22,2.63.44V80.72a3.27,3.27,0,0,0-1.1-2.62"/><path class="cls-15" d="M26.22,80.72a3.78,3.78,0,0,1,3.06,0c1.31.66-1.31.44-2,.22a1.63,1.63,0,0,0-1.09-.22"/><path class="cls-15" d="M29.49,77.88s1.75,1.53,1.1,2.84-1.1-2.84-1.1-2.84"/><path class="cls-2" d="M30.81,80.72v2.19c-.44-.66-1.53-.44-2.63-.44s-2.4-1.75-2.4-1.75a4.26,4.26,0,0,1,3.93.66c-.22-1.31-.43-2.84,0-3.28a2.67,2.67,0,0,1,1.1,2.62m-1.1-3.49a3.72,3.72,0,0,0-.65,2.18c0,.44.22.88.22,1.53-1.31-1.31-4.15,0-4.37,0a8.6,8.6,0,0,0,1.31,1.53,2.85,2.85,0,0,0,2.84.66c1.31-.22,2.62,1.31,2.62,1.31-.66-1.31-.66-1.53-.44-3.28s-1.53-3.93-1.53-3.93Z"/><path class="cls-14" d="M31.46,80.94c-.44.66,0,2,.22,3.28A4.19,4.19,0,0,0,27.75,84s1.53,1.75,2.4,1.53,2.19-.44,2.62,0a7.35,7.35,0,0,1-.22-2.18,1.86,1.86,0,0,0-1.09-2.41"/><path class="cls-15" d="M28.18,84a5,5,0,0,1,3.06-.22c1.53.44-1.31.44-2,.44a1.65,1.65,0,0,0-1.1-.22"/><path class="cls-15" d="M31.46,80.72s2,1.32,1.31,2.84-1.31-2.84-1.31-2.84"/><path class="cls-2" d="M33,83.56a7.42,7.42,0,0,0,.22,2.19c-.44-.44-1.75-.22-2.62,0s-2.41-1.53-2.41-1.53a4.18,4.18,0,0,1,3.94.22c-.44-1.09-.66-2.62-.22-3.28A4.1,4.1,0,0,1,33,83.56m-1.53-3.27A3.9,3.9,0,0,0,31,82.47a3,3,0,0,0,.44,1.31c-1.53-1.09-4.15.22-4.37.44a10.51,10.51,0,0,0,1.53,1.53,3.1,3.1,0,0,0,3.06.44c1.31-.44,2.62,1.09,2.62,1.09-.87-1.09-.87-1.53-.65-3.28s-2.19-3.93-2.19-3.71Z"/><path class="cls-14" d="M33.86,83.56c-.43.66.22,2,.66,3.28a4.16,4.16,0,0,0-3.93.22s1.53,1.53,2.62,1.31,2.18-.65,2.62-.22A6.66,6.66,0,0,1,35.61,86a4.57,4.57,0,0,0-1.75-2.41"/><path class="cls-15" d="M30.81,87.06a4.75,4.75,0,0,1,3.05-.44c1.53.44-1.31.66-2,.66a1.63,1.63,0,0,0-1.09-.22"/><path class="cls-15" d="M33.65,83.56s2,1.1,1.53,2.63-1.32-2.63-1.53-2.63"/><path class="cls-2" d="M35.61,86.19c0,.65.22,1.31.22,2.18-.44-.44-1.75,0-2.62.22s-2.62-1.53-2.62-1.53a4.19,4.19,0,0,1,3.93-.22c-.44-1.09-1.09-2.62-.66-3.28a4.34,4.34,0,0,1,1.75,2.63m-2-3.28a3.74,3.74,0,0,0-.22,2.18l.65,1.31c-1.53-1.09-4.15.66-4.15.88a12.06,12.06,0,0,0,1.75,1.31,2.61,2.61,0,0,0,3.06,0c1.31-.44,2.84.87,2.84.87-.88-1.09-.88-1.31-1.09-3.27a4.76,4.76,0,0,0-2.84-3.28Z"/><path class="cls-14" d="M36.49,86c-.22.65.65,2,1.31,3.06a4.47,4.47,0,0,0-3.94,1.09s2,1.31,2.84.65,2-1.09,2.63-.65a3.52,3.52,0,0,1-.66-2A3.12,3.12,0,0,0,36.49,86"/><path class="cls-15" d="M34.08,89.9a5.28,5.28,0,0,1,3.06-1.09c1.53,0-1.09.87-1.75.87a2.77,2.77,0,0,0-1.31.22"/><path class="cls-15" d="M36.27,85.75s2.18.65,2.18,2.4-2.18-2.4-2.18-2.4"/><path class="cls-2" d="M38.45,87.93l.66,2c-.66-.44-1.75.22-2.62.66s-2.84-.88-2.84-.88a4.19,4.19,0,0,1,3.93-.87c-.66-1.09-1.53-2.41-1.31-3.06a3.12,3.12,0,0,1,2.18,2.18m-2.4-2.84a3.77,3.77,0,0,0,.22,2.19,4.52,4.52,0,0,0,.87,1.31c-1.75-.66-4.15,1.53-3.93,1.75a7.91,7.91,0,0,0,2,.87,3,3,0,0,0,3-.44c1.1-.65,3.06.22,3.06.22-1.09-.87-1.09-1.09-1.75-2.84S36.05,85.09,36.05,85.09Z"/><path class="cls-14" d="M39.54,87.93c-.21.66.88,2,1.75,2.84a4.66,4.66,0,0,0-3.71,1.75s2.18.88,3.06.22,1.75-1.53,2.4-1.31A7.61,7.61,0,0,1,42,89.68a3.4,3.4,0,0,0-2.41-1.75"/><path class="cls-15" d="M38,92.3a6.17,6.17,0,0,1,2.84-1.74c1.53-.22-.88,1.09-1.53,1.31-.44.22-.88.22-1.31.43"/><path class="cls-15" d="M39.33,87.93s2.4.44,2.62,2-2.62-2-2.62-2"/><path class="cls-2" d="M42.17,89.68a4.73,4.73,0,0,0,1.09,1.75c-.66-.22-1.53.44-2.4,1.09s-3.06-.22-3.06-.22a4.65,4.65,0,0,1,3.71-1.74c-.87-.88-2-2.19-1.75-2.84a6.78,6.78,0,0,1,2.41,2m-3.28-2.4a3.72,3.72,0,0,0,.65,2.18c.22.44.66.66,1.1,1.1-2-.44-3.72,2.18-3.72,2.4.66.22,1.53.44,2.19.65A2.83,2.83,0,0,0,42,92.52c.87-.87,3.06-.22,3.06-.22-1.31-.65-1.31-.87-2.19-2.62S38.89,87.28,38.89,87.28Z"/><path class="cls-14" d="M58.77,34a4.89,4.89,0,0,1,2.84.65,3.92,3.92,0,0,1,.22-3.49s1.31,1.53,1.09,2.4-.65,2-.22,2.41a6,6,0,0,0-2-.22,5,5,0,0,1-2-1.75"/><path class="cls-15" d="M62.05,31.35a4.14,4.14,0,0,0-.44,2.84c.22,1.31.66-1.09.44-1.75V31.35"/><path class="cls-15" d="M58.77,33.75s1.09,1.75,2.4,1.53-2.4-1.53-2.4-1.53"/><path class="cls-2" d="M58.77,34a4.89,4.89,0,0,1,2.84.65,3.92,3.92,0,0,1,.22-3.49s1.31,1.53,1.09,2.4-.65,2-.22,2.41a6,6,0,0,0-2-.22,5,5,0,0,1-2-1.75m2.4,2.18c1.75.22,2,0,2.84,1.1,0,0-1.31-1.53-.65-2.63a3.22,3.22,0,0,0,0-2.84,9.68,9.68,0,0,0-1.09-1.52c-.22,0-1.75,2.4-.88,3.71a3.88,3.88,0,0,0-3.27-.22s1.31,2.19,3.05,2.4Z"/><path class="cls-14" d="M61.61,36.15c.66-.43,2,.22,2.84.66a3.94,3.94,0,0,1,.22-3.5s1.31,1.53,1.09,2.41-.65,2-.22,2.4a6,6,0,0,0-2-.22,3.72,3.72,0,0,1-2-1.75"/><path class="cls-15" d="M64.89,33.53a4.15,4.15,0,0,0-.44,2.84c.22,1.31.66-1.09.44-1.75V33.53"/><path class="cls-15" d="M61.61,36.15S62.7,37.9,64,37.68s-2.4-1.53-2.4-1.53"/><path class="cls-2" d="M61.61,36.15c.66-.43,2,.22,2.84.66a3.94,3.94,0,0,1,.22-3.5s1.31,1.53,1.09,2.41-.65,2-.22,2.4a6,6,0,0,0-2-.22,3.72,3.72,0,0,1-2-1.75M64,38.34c1.75.22,2,0,2.85,1.09,0,0-1.1-1.53-.66-2.62a3.22,3.22,0,0,0,0-2.84,9.81,9.81,0,0,0-1.09-1.53c-.22,0-1.75,2.4-.88,3.71a3.78,3.78,0,0,0-1.09-.43,3.08,3.08,0,0,0-2,.22A4,4,0,0,0,64,38.34Z"/><path class="cls-14" d="M63.8,38.78c.65-.22,1.74.21,2.84.87a3.34,3.34,0,0,1,.65-3.5s1.31,1.53.88,2.41-.88,2-.44,2.4A6.74,6.74,0,0,0,66,40.52a3.66,3.66,0,0,1-2.18-1.74"/><path class="cls-15" d="M67.07,36.15A4.28,4.28,0,0,0,66.42,39c.22,1.32.65-1.09.65-1.52a1.46,1.46,0,0,1,0-1.32"/><path class="cls-15" d="M63.58,38.56s.87,2,2.18,1.75-2.18-1.75-2.18-1.75"/><path class="cls-2" d="M63.8,38.78c.65-.22,1.74.21,2.84.87a3.34,3.34,0,0,1,.65-3.5s1.31,1.53.88,2.41-.88,2-.44,2.4A6.74,6.74,0,0,0,66,40.52a3.66,3.66,0,0,1-2.18-1.74M66,41c1.75.22,2,.22,2.84,1.09,0,0-1.09-1.53-.65-2.62a2.69,2.69,0,0,0,.21-2.84,7.48,7.48,0,0,0-1.09-1.75c-.22,0-2,2.19-1.09,3.72-.44-.22-.66-.44-1.09-.66a3,3,0,0,0-2,0c-.22.44,1.09,2.84,2.84,3.06Z"/><path class="cls-14" d="M65.33,41.18c.65-.22,1.74.65,2.62,1.09A3.62,3.62,0,0,1,69,39s1.09,1.75.66,2.63S68.6,43.36,69,44c-.66-.22-1.09-.66-1.75-.66a3.19,3.19,0,0,1-2-2.18"/><path class="cls-15" d="M69,39.21A5.6,5.6,0,0,0,68,41.83c0,1.32.87-1.09.87-1.52a2.39,2.39,0,0,1,.22-1.1"/><path class="cls-15" d="M65.33,41s.65,2,2,2-2-2-2-2"/><path class="cls-2" d="M65.33,41.18c.65-.22,1.74.65,2.62,1.09A3.62,3.62,0,0,1,69,39s1.09,1.75.66,2.63S68.6,43.36,69,44c-.66-.22-1.09-.66-1.75-.66a3.19,3.19,0,0,1-2-2.18m2,2.62c1.53.44,2,.44,2.62,1.53,0,0-.87-1.75-.21-2.62a2.33,2.33,0,0,0,.43-2.62,6.35,6.35,0,0,0-.87-1.75c-.22,0-2.19,2-1.75,3.49,0,0-.22-.21-1.09-.87a3.08,3.08,0,0,0-2-.22c.22,0,1.31,2.62,2.84,3.06Z"/><path class="cls-14" d="M66.86,44c.65-.22,1.74.87,2.62,1.53A3.67,3.67,0,0,1,71,42.27s.87,2,.21,2.62-1.31,1.75-1.09,2.19a4.31,4.31,0,0,0-1.75-.88A3.12,3.12,0,0,1,66.86,44"/><path class="cls-15" d="M70.79,42.49a3.8,3.8,0,0,0-1.31,2.62c-.22,1.53,1.09-.87,1.09-1.53a1.63,1.63,0,0,1,.22-1.09"/><path class="cls-15" d="M66.64,43.8S67.07,46,68.38,46s-1.74-2.19-1.74-2.19"/><path class="cls-2" d="M66.86,44c.65-.22,1.74.87,2.62,1.53A3.67,3.67,0,0,1,71,42.27s.87,2,.21,2.62-1.31,1.75-1.09,2.19a4.31,4.31,0,0,0-1.75-.88A3.12,3.12,0,0,1,66.86,44m1.52,2.84c1.53.66,1.75.66,2.41,2a3.88,3.88,0,0,1,0-2.84,3,3,0,0,0,.87-2.63l-.65-2c-.22,0-2.41,1.75-2.19,3.28a2.17,2.17,0,0,0-1.09-.88,3.24,3.24,0,0,0-2-.44c.44,0,1.1,2.84,2.62,3.5Z"/><path class="cls-14" d="M68.17,47.08c.65,0,1.53,1.09,2.4,2a4.85,4.85,0,0,1,1.75-3.27s.65,2,0,2.84S70.79,50.14,71,50.79a7.13,7.13,0,0,0-1.53-1.09,3.1,3.1,0,0,1-1.31-2.62"/><path class="cls-15" d="M72.1,46a3.86,3.86,0,0,0-1.75,2.4c-.44,1.31,1.09-.87,1.31-1.31s.44-.66.44-1.09"/><path class="cls-15" d="M68,46.86s0,2.18,1.53,2.4S68,46.86,68,46.86"/><path class="cls-2" d="M68.17,47.08c.65,0,1.53,1.09,2.4,2a4.85,4.85,0,0,1,1.75-3.27s.65,2,0,2.84S70.79,50.14,71,50.79a7.13,7.13,0,0,0-1.53-1.09,3.1,3.1,0,0,1-1.31-2.62m1.09,3.06c1.53.87,1.75.87,2.18,2.18,0,0-.43-2,.44-2.62A2.51,2.51,0,0,0,73,47.08a6.64,6.64,0,0,0-.43-2c-.22,0-2.63,1.31-2.63,3.06-.21-.44-.65-.65-.87-1.09a2.66,2.66,0,0,0-2-.66c.44,0,.66,2.84,2.19,3.72Z"/><path class="cls-14" d="M69,50.14c.66,0,1.53,1.31,2.18,2.18a4.25,4.25,0,0,1,2.41-3.06s.43,2.19-.44,2.84-1.75,1.31-1.53,2c-.44-.44-.87-1.09-1.53-1.31A4.07,4.07,0,0,1,69,50.14"/><path class="cls-15" d="M73.41,49.7a5.35,5.35,0,0,0-2.19,2.18c-.65,1.32,1.32-.65,1.53-1.09,0-.43.22-.65.66-1.09"/><path class="cls-15" d="M69,49.92s-.22,2.18,1.09,2.62c1.53.66-1.09-2.62-1.09-2.62"/><path class="cls-2" d="M69,50.14c.66,0,1.53,1.31,2.18,2.18a4.25,4.25,0,0,1,2.41-3.06s.43,2.19-.44,2.84-1.75,1.31-1.53,2c-.44-.44-.87-1.09-1.53-1.31A4.07,4.07,0,0,1,69,50.14m.87,3.27c1.31,1.1,1.53,1.1,2,2.63,0,0-.22-2,.87-2.63A2.67,2.67,0,0,0,74.28,51V49c-.22-.21-2.84,1.1-3.06,2.84a4.6,4.6,0,0,0-.65-1.09,4.86,4.86,0,0,0-1.75-1.09c0-.22-.22,2.62,1.09,3.71Z"/><path class="cls-14" d="M69.7,53.63c.65,0,1.31,1.31,2,2.41a4,4,0,0,1,2.62-2.63s.22,2.19-.65,2.63-1.75,1.09-1.75,1.74a9.89,9.89,0,0,0-1.31-1.53,3.77,3.77,0,0,1-.87-2.62"/><path class="cls-15" d="M74.06,53.63a4.85,4.85,0,0,0-2.18,2c-.66,1.31,1.31-.44,1.53-1.09.22-.22.44-.66.65-.88"/><path class="cls-15" d="M69.7,53.41s-.44,2.19.87,2.84-.87-2.84-.87-2.84"/><path class="cls-2" d="M69.7,53.63c.65,0,1.31,1.31,2,2.41a4,4,0,0,1,2.62-2.63s.22,2.19-.65,2.63-1.75,1.09-1.75,1.74a9.89,9.89,0,0,0-1.31-1.53,3.77,3.77,0,0,1-.87-2.62m.43,3.28c1.31,1.31,1.53,1.31,1.53,2.84,0,0,0-2,1.09-2.62a2.59,2.59,0,0,0,1.75-2.19c0-.65.22-1.31.22-2-.22-.22-3.06.65-3.28,2.4l-.65-1.31A5.23,5.23,0,0,0,69,52.76c.44.22,0,2.84,1.09,4.15Z"/><path class="cls-14" d="M70.13,56.69c.66.22,1.31,1.53,1.75,2.62a3.57,3.57,0,0,1,2.84-2.4s0,2.18-.87,2.62a3.92,3.92,0,0,0-2,1.75,4,4,0,0,0-1.09-1.53,3.77,3.77,0,0,1-.66-3.06"/><path class="cls-15" d="M74.5,57.13a4.55,4.55,0,0,0-2.4,1.75c-.66,1.31,1.31-.44,1.53-.88a1.72,1.72,0,0,1,.87-.87"/><path class="cls-15" d="M70.13,56.69s-.65,2.19.66,2.84-.66-2.84-.66-2.84"/><path class="cls-2" d="M70.13,56.69c.66.22,1.31,1.53,1.75,2.62a3.57,3.57,0,0,1,2.84-2.4s0,2.18-.87,2.62a3.92,3.92,0,0,0-2,1.75,4,4,0,0,0-1.09-1.53,3.77,3.77,0,0,1-.66-3.06m.22,3.5c1.09,1.31,1.31,1.53,1.53,2.84,0,0,.22-2,1.31-2.41a2.56,2.56,0,0,0,2-2.18,6,6,0,0,0,.22-2c-.22-.22-3.06.44-3.5,2.19-.22-.44-.22-.88-.44-1.31A2.84,2.84,0,0,0,69.91,56,4.94,4.94,0,0,0,70.35,60.19Z"/><path class="cls-14" d="M70.35,60c.66.22,1.31,1.53,1.75,2.62a3.57,3.57,0,0,1,2.84-2.4s0,2.18-.88,2.62a3.93,3.93,0,0,0-2,1.75A3.92,3.92,0,0,0,71,63,3.34,3.34,0,0,1,70.35,60"/><path class="cls-15" d="M74.5,60.19a6.05,6.05,0,0,0-2.4,1.75c-.88,1.31,1.31-.44,1.53-.88a1.75,1.75,0,0,0,.87-.87"/><path class="cls-15" d="M70.35,59.75s-.65,2.19.66,2.84-.66-2.84-.66-2.84"/><path class="cls-2" d="M70.35,60c.66.22,1.31,1.53,1.75,2.62a3.57,3.57,0,0,1,2.84-2.4s0,2.18-.88,2.62-2,.87-2,1.53A4,4,0,0,0,71,62.81,2.84,2.84,0,0,1,70.35,60m.22,3.28c1.09,1.31,1.31,1.53,1.53,2.84,0,0,.22-2,1.31-2.41a2.57,2.57,0,0,0,2-2.18,6.3,6.3,0,0,0,.21-2c-.21-.22-3,.44-3.49,2.19l-.66-1.31a5.78,5.78,0,0,0-1.53-1.32A6.54,6.54,0,0,0,70.57,63.25Z"/><path class="cls-14" d="M70.13,63c.66.22,1.09,1.53,1.53,2.84a5.71,5.71,0,0,1,3.06-2.41s-.22,2.19-1.09,2.63-2,.87-2,1.53a7.4,7.4,0,0,0-1.09-1.75A3.33,3.33,0,0,1,70.13,63"/><path class="cls-15" d="M74.5,63.68a5.32,5.32,0,0,0-2.62,1.53c-.87,1.09,1.31-.22,1.75-.87.22,0,.65-.44.87-.66"/><path class="cls-15" d="M70.13,62.81s-.65,2.18.44,3.06c1.31.87-.44-3.06-.44-3.06"/><path class="cls-2" d="M70.13,63c.66.22,1.09,1.53,1.53,2.84a5.71,5.71,0,0,1,3.06-2.41s-.22,2.19-1.09,2.63-2,.87-2,1.53a7.4,7.4,0,0,0-1.09-1.75A3.33,3.33,0,0,1,70.13,63m0,3.49c1.09,1.31,1.31,1.53,1.31,3.06,0,0,.22-2,1.53-2.4a2.88,2.88,0,0,0,2.19-2c.22-.65.22-1.31.43-2-.21-.22-3,.21-3.71,2-.22-.43-.22-.87-.44-1.31-.22-.87-1.53-1.31-1.53-1.31s-.87,2.4.22,3.93Z"/><path class="cls-14" d="M69.7,66.52c.65.22,1.09,1.75,1.31,2.84a4.47,4.47,0,0,1,3.27-2.18S73.85,69.36,73,69.8s-2,.66-2.18,1.31a4.45,4.45,0,0,0-.88-1.75,3.28,3.28,0,0,1-.21-2.84"/><path class="cls-15" d="M74.06,67.4a4,4,0,0,0-2.62,1.53c-.87,1.09,1.31-.22,1.75-.66a1.72,1.72,0,0,1,.87-.87"/><path class="cls-15" d="M69.7,66.3s-.88,2,.21,3.06-.21-3.06-.21-3.06"/><path class="cls-2" d="M69.7,66.52c.65.22,1.09,1.75,1.31,2.84a4.47,4.47,0,0,1,3.27-2.18S73.85,69.36,73,69.8s-2,.66-2.18,1.31a4.45,4.45,0,0,0-.88-1.75,3.28,3.28,0,0,1-.21-2.84m-.22,3.28c.87,1.53,1.09,1.75,1.09,3.06,0,0,.44-2,1.75-2.4a3,3,0,0,0,2.18-1.75l.66-2c0-.22-3.06,0-3.72,1.75A3.21,3.21,0,0,0,71,67.18c-.22-.88-1.53-1.53-1.53-1.53a4.6,4.6,0,0,0,0,4.15Z"/><path class="cls-14" d="M69,69.58c.66.22.87,1.75,1.09,3.06a4.72,4.72,0,0,1,3.28-2s-.44,2.19-1.53,2.41-2.18.65-2.18,1.31a7.76,7.76,0,0,0-.88-2A4.24,4.24,0,0,1,69,69.58"/><path class="cls-15" d="M73.41,70.89a3.86,3.86,0,0,0-2.84,1.31c-1.09,1.1,1.31-.21,1.75-.43a2.17,2.17,0,0,1,1.09-.88"/><path class="cls-15" d="M69,69.58s-1.09,2,0,3.06,0-3.06,0-3.06"/><path class="cls-2" d="M69,69.58c.66.22.87,1.75,1.09,3.06a4.72,4.72,0,0,1,3.28-2s-.44,2.19-1.53,2.41-2.18.65-2.18,1.31a7.76,7.76,0,0,0-.88-2A4.24,4.24,0,0,1,69,69.58m-.44,3.5c.88,1.53,1.1,1.75.88,3.27,0,0,.65-2,1.74-2.18a2.57,2.57,0,0,0,2.41-1.75l.65-2c0-.22-3.27-.22-3.93,1.53,0-.44-.22-.88-.22-1.32a4.26,4.26,0,0,0-1.31-1.74,5.41,5.41,0,0,0-.22,4.15Z"/><path class="cls-14" d="M68.38,72.2c.66.44.66,2,.88,3.06a4.34,4.34,0,0,1,3.49-1.53S72.1,75.92,71,76.14s-2.19.43-2.41,1.09l-.65-2a3.74,3.74,0,0,1,.43-3.06"/><path class="cls-15" d="M72.54,74a7,7,0,0,0-3.06.88c-1.1.87,1.31,0,2-.44a3.72,3.72,0,0,0,1.1-.44"/><path class="cls-15" d="M68.38,72.2s-1.31,2-.21,3.06.21-3.06.21-3.06"/><path class="cls-2" d="M68.38,72.2c.66.44.66,2,.88,3.06a4.34,4.34,0,0,1,3.49-1.53S72.1,75.92,71,76.14s-2.19.43-2.41,1.09l-.65-2a3.74,3.74,0,0,1,.43-3.06m-.87,3.5c.66,1.75.87,2,.44,3.28,0,0,.87-2,2-2a3.13,3.13,0,0,0,2.63-1.31,8.08,8.08,0,0,0,.87-2c0-.22-3.06-.43-4.15,1.1V73.3a4.86,4.86,0,0,0-1.09-1.75A6.43,6.43,0,0,0,67.51,75.7Z"/><path class="cls-14" d="M67.07,75.26c.66.44.44,2,.44,3.28a4.71,4.71,0,0,1,3.71-1.09s-.87,2-2,2.18-2.19,0-2.62.66a6.36,6.36,0,0,0-.44-2,5.07,5.07,0,0,1,.87-3.06"/><path class="cls-15" d="M71,77.45A3.8,3.8,0,0,0,68,78.1c-1.31.88,1.31.22,2-.22.44-.21.66-.21,1.1-.43"/><path class="cls-15" d="M67.29,75s-1.53,1.75-.65,3.06.65-3.06.65-3.06"/><path class="cls-2" d="M67.07,75.26c.66.44.44,2,.44,3.28a4.71,4.71,0,0,1,3.71-1.09s-.87,2-2,2.18-2.19,0-2.62.66a6.36,6.36,0,0,0-.44-2,5.07,5.07,0,0,1,.87-3.06m-1.31,3.5c.44,1.75.66,2,.22,3.28,0,0,1.09-1.75,2.19-1.75A2.85,2.85,0,0,0,71,79.2a8.21,8.21,0,0,0,1.09-1.75c0-.22-3.06-.88-4.15.65V76.57a7.7,7.7,0,0,0-.88-2,6.74,6.74,0,0,0-1.31,4.15Z"/><path class="cls-14" d="M65.76,77.88c.44.44.22,2,0,3.28a5,5,0,0,1,3.94-.65s-1.32,1.74-2.41,1.74-2.18-.21-2.62.44V80.51a4.07,4.07,0,0,1,1.09-2.63"/><path class="cls-15" d="M69.26,80.72a7.49,7.49,0,0,0-3.06,0c-1.31.66,1.31.44,2,.22a8.86,8.86,0,0,1,1.09-.22"/><path class="cls-15" d="M65.76,77.88S64,79.41,64.67,80.72s1.09-2.84,1.09-2.84"/><path class="cls-2" d="M65.76,77.88c.44.44.22,2,0,3.28a5,5,0,0,1,3.94-.65s-1.32,1.74-2.41,1.74-2.18-.21-2.62.44V80.51a4.07,4.07,0,0,1,1.09-2.63M64,80.94c.22,1.75.44,2.19-.43,3.28,0,0,1.31-1.75,2.62-1.31A2.31,2.31,0,0,0,69,82.25c.44-.43.87-1.09,1.31-1.53,0-.21-2.84-1.31-4.37,0a3.18,3.18,0,0,0,.22-1.52A3.69,3.69,0,0,0,65.54,77C66,76.79,63.8,79.2,64,80.94Z"/><path class="cls-14" d="M63.8,80.94c.43.66,0,2-.22,3.28A4.19,4.19,0,0,1,67.51,84s-1.53,1.75-2.4,1.53-2.19-.44-2.62,0V83.35a2.5,2.5,0,0,1,1.31-2.41"/><path class="cls-15" d="M67.29,84a5,5,0,0,0-3.06-.22c-1.53.44,1.31.44,2,.44A1.63,1.63,0,0,1,67.29,84"/><path class="cls-15" d="M64,80.72S62.27,82,62.7,83.56,64,80.72,64,80.72"/><path class="cls-2" d="M63.8,80.94c.43.66,0,2-.22,3.28A4.19,4.19,0,0,1,67.51,84s-1.53,1.75-2.4,1.53-2.19-.44-2.62,0V83.35a2.5,2.5,0,0,1,1.31-2.41m-2,2.62c0,1.75.22,2.19-.66,3.28,0,0,1.53-1.53,2.63-1.09a3.06,3.06,0,0,0,3.06-.44,4.93,4.93,0,0,0,1.52-1.53c0-.22-2.84-1.53-4.37-.43A5.43,5.43,0,0,1,64.45,82,3.93,3.93,0,0,0,64,79.85S61.83,82,61.83,83.56Z"/><path class="cls-14" d="M61.39,83.56c.44.66-.22,2-.65,3.28a4.16,4.16,0,0,1,3.93.22s-1.53,1.53-2.62,1.31-2.19-.65-2.62-.22A7.35,7.35,0,0,0,59.65,86a4.12,4.12,0,0,1,1.74-2.41"/><path class="cls-15" d="M64.45,87.06a4.77,4.77,0,0,0-3.06-.44c-1.53.44,1.31.66,1.75.66a2.75,2.75,0,0,1,1.31-.22"/><path class="cls-15" d="M61.61,83.56s-2,1.1-1.53,2.63,1.53-2.63,1.53-2.63"/><path class="cls-2" d="M61.39,83.56c.44.66-.22,2-.65,3.28a4.85,4.85,0,0,1,3.93.22s-1.75,1.53-2.62,1.31-2.19-.65-2.62-.22A7.35,7.35,0,0,0,59.65,86a4.12,4.12,0,0,1,1.74-2.41m-2.18,2.63c0,1.74,0,2.18-1.09,3.27,0,0,1.53-1.31,2.84-.87a2.6,2.6,0,0,0,3.05,0c.66-.44,1.1-.87,1.75-1.31,0-.22-2.62-2-4.15-.88l.66-1.31a3.74,3.74,0,0,0-.22-2.18c-.22-.22-2.62,1.53-2.84,3.28Z"/><path class="cls-14" d="M59,86c.22.65-.66,2-1.31,3.06a4.44,4.44,0,0,1,3.93,1.09s-2,1.31-2.84.65-2-1.09-2.62-.65a3.5,3.5,0,0,0,.65-2A2.8,2.8,0,0,1,59,86"/><path class="cls-15" d="M61.17,89.9a5.23,5.23,0,0,0-3.05-1.09c-1.53,0,1.09.87,1.74.87s1.1,0,1.31.22"/><path class="cls-15" d="M59.21,85.75S57,86.4,57,88.15s2.19-2.4,2.19-2.4"/><path class="cls-2" d="M59,86c.22.65-.66,2-1.31,3.06a4.44,4.44,0,0,1,3.93,1.09s-2,1.31-2.84.65-2-1.09-2.62-.65a3.5,3.5,0,0,0,.65-2A2.8,2.8,0,0,1,59,86m-2.84,2c-.44,1.75-.44,2.19-1.75,2.84,0,0,1.75-1.09,3.06-.43a3.07,3.07,0,0,0,3.06.43c.65-.21,1.31-.65,2-.87,0-.22-2.19-2.4-3.94-1.75.22-.43.66-.87.88-1.31a3.82,3.82,0,0,0,.22-2.18c-.22.22-3.06,1.53-3.5,3.27Z"/><path class="cls-14" d="M55.93,87.93c.22.66-.87,2-1.75,2.84a4.7,4.7,0,0,1,3.72,1.75s-2.19.88-3.06.22-1.75-1.53-2.4-1.09a8,8,0,0,0,1.09-1.75,2.78,2.78,0,0,1,2.4-2"/><path class="cls-15" d="M57.46,92.3a6.27,6.27,0,0,0-2.84-1.74c-1.53-.22.87,1.09,1.53,1.31.44.22.87.22,1.31.43"/><path class="cls-15" d="M56.15,87.93s-2.4.44-2.62,2,2.62-2,2.62-2"/><path class="cls-2" d="M55.93,87.93c.22.66-.87,2-1.75,2.84a4.7,4.7,0,0,1,3.72,1.75s-2.19.88-3.06.22-1.75-1.53-2.4-1.09a8,8,0,0,0,1.09-1.75,2.78,2.78,0,0,1,2.4-2m-3.28,1.53c-.87,1.75-.87,2-2.18,2.63,0,0,2-.66,3.06.21a2.85,2.85,0,0,0,2.84,1.1,8.25,8.25,0,0,0,2.18-.66c0-.22-1.75-2.84-3.71-2.4l1.09-1.09a3.71,3.71,0,0,0,.66-2.19S53.53,87.93,52.65,89.46Z"/><path class="cls-2" d="M44.35,91.87a50.72,50.72,0,0,0,8.3,2l.22,1.1s-9-2.19-10.27-2.84c-.43-.22-.65-.66,1.75-.22"/><path class="cls-2" d="M51.34,91.65a39.12,39.12,0,0,1-8.74,2.18v1.1l10-2.84c.44,0,1.31-.88-1.31-.44"/><path class="cls-5" d="M48.72,93s2,2.84,3.93,2.18c-.43,1.31-1.74,2.19-2.4,2s-2.18-1.75-2.18-2.84.65-1.53.65-1.31"/><path class="cls-1" d="M52.44,96A9.72,9.72,0,0,1,48.5,93.4c0,.21-.22.43-.22.65a10.33,10.33,0,0,0,3.28,2.84,1.74,1.74,0,0,0,.88-.87"/><path class="cls-5" d="M46.54,93s-2,2.84-3.94,2.18c.44,1.31,1.75,2.19,2.41,2s2.18-1.75,2.18-2.84-.44-1.53-.65-1.31"/><path class="cls-1" d="M43,96.24A9.55,9.55,0,0,0,47,93.61c0,.22.22.44.22.66a11.15,11.15,0,0,1-3.49,2.84,2.84,2.84,0,0,0-.66-.87"/><path class="cls-5" d="M47.63,90.12c-1.31,0-4.81,0-3.28,2a6.07,6.07,0,0,0,3.28,1.74,6.3,6.3,0,0,0,3.06-1.74c1.75-2-1.53-2-3.06-2"/><path class="cls-1" d="M47.63,90.56c-.66,0-2,.43-1.09,1.74a3.52,3.52,0,0,0,1.31,1.31h0a2.6,2.6,0,0,0,1.09-1.09c.66-1.53-.66-2-1.31-2"/><path class="cls-5" d="M47.63,92.09h0c-1.09,0-2,.65-1.53,1.09.22.65.87.87,1.53,1.09h0c.44,0,.87-.44,1.53-1.09s-.44-1.09-1.53-1.09"/><path class="cls-1" d="M47.63,92.74h0q-1,0-.66.66l.66.65c.22,0,.44-.22.65-.65s0-.66-.65-.66"/><path class="cls-1" d="M45.88,90.56a1.67,1.67,0,0,0,.22,2.18c-.66-.44-2.62-1.75-.22-2.18"/><path class="cls-1" d="M49.38,90.56a1.69,1.69,0,0,1-.22,2.18c.65-.44,2.62-1.75.22-2.18"/><path class="cls-2" d="M7,64.12a5.12,5.12,0,0,1-.44-1.75A3.26,3.26,0,0,1,7.43,60a5.88,5.88,0,0,1,3.71-1.31c3.5,0,4.81,1.75,4.81,3.49a3.67,3.67,0,0,1-.22,1.53l-1.31-.22a1.93,1.93,0,0,0,.22-1.09c0-1.09-.88-2.18-3.5-2.18s-3.27,1.09-3.27,2v.44h2.62V61.5H11.8v2.4Z"/><path class="cls-2" d="M12,68.05c-2,.44-3.28.88-3.06,2,.22.87,1.75.87,3.71.65s3.28-.87,3.06-1.74-2-1.1-3.71-.88M12.67,72c-3.49.65-5-.44-5.24-2S9,67,11.58,66.52s4.81.22,5,2.19S15.29,71.77,12.67,72Z"/><path class="cls-2" d="M14.42,75.92l.22.43a1.48,1.48,0,0,0,1.75.88h0a1,1,0,0,0,.87-1.31V75.7a.77.77,0,0,0-.22-.44Zm-3.93,1.31v.44a1.35,1.35,0,0,0,1.74,1.09h.22A1.44,1.44,0,0,0,13.55,77v-.22l-.22-.44Zm7.21-3.72a4.2,4.2,0,0,1,.65,1.75,3.72,3.72,0,0,1,0,2.19,2.16,2.16,0,0,1-2.84,1.09c-.22-.22-.65-.44-.87-.66h0a2.13,2.13,0,0,1-1.75,2.19,3,3,0,0,1-2,0,3.37,3.37,0,0,1-1.74-2.4c-.22-.44-.22-1.1-.44-1.53Z"/><polygon class="cls-2" points="20.76 81.38 12.45 85.31 11.8 84 20.32 80.07 20.76 81.38"/><polygon class="cls-2" points="19.66 89.46 18.57 87.72 16.17 89.25 17.48 91.43 16.39 92.08 14.2 88.81 22.07 83.78 24.03 87.06 22.94 87.72 21.85 85.75 19.66 87.06 20.76 88.81 19.66 89.46"/><path class="cls-2" d="M23.16,92.74l.22.22a1.41,1.41,0,0,0,2,.22l.22-.22A1.18,1.18,0,0,0,26,91.21L25.78,91l-.44-.43Zm2.18-3.93c.44.44.88.65,1.31,1.09a4.16,4.16,0,0,1,1.1,2.19,2.72,2.72,0,0,1-3.06,2.4.81.81,0,0,1-.66-.22h0a2.33,2.33,0,0,1-.65,2.18c-.44.66-1.09,1.32-1.53,2l-1.09-1.09a11.38,11.38,0,0,1,1.31-1.75c.87-.87.87-1.53.43-2l-.21-.21-2.85,2.4-.87-1.09Z"/><path class="cls-2" d="M24.69,101.26l5.46-7.65,1.09.88-1.09,4.15c-.22.87-.66,2.18-.87,3.06h0a25.07,25.07,0,0,1,2.4-3.5L33.21,96l1.09.65-5.46,7.43-1.09-.87,1.09-4.15c.22-1.1.65-2,.87-3.06h0c-.65.87-1.31,2-2.4,3.49l-1.53,2.19Z"/><path class="cls-2" d="M35.39,102.57c-.87,2-.87,3.28,0,3.72s1.75-1.1,2.41-2.84,1.09-3.28,0-3.72-1.75.88-2.41,2.84m3.94,1.31C38,107.16,36.49,108,35,107.38s-1.75-2.84-.88-5.46,2.84-3.94,4.37-3.28S40.2,101.7,39.33,103.88Z"/><path class="cls-2" d="M47.41,105h.44a1.56,1.56,0,0,0,1.53-1.75c0-1.09-.44-1.53-1.31-1.53h-.44Zm-1.53-4.37a4.79,4.79,0,0,1,1.75-.22A4.45,4.45,0,0,1,50,101a3.25,3.25,0,0,1,.88,2,4.18,4.18,0,0,1-.66,2.18,3,3,0,0,1-2.18,1.1h-.44V110H45.88Z"/><path class="cls-2" d="M54.84,103.88h.44a1.18,1.18,0,0,0,.87-1.74v-.22a1.36,1.36,0,0,0-1.75-1.1c-.22,0-.22,0-.44.22Zm-2.62-3.49A14.71,14.71,0,0,1,54,99.73a4.46,4.46,0,0,1,2.41,0c.65.44,1.09.88,1.09,1.53a2.5,2.5,0,0,1-.87,2.62h0c.65,0,1.09.66,1.74,1.53a6.83,6.83,0,0,0,1.1,2.19L57.9,108c-.44-.65-.66-1.31-1.1-2-.43-1.09-.87-1.31-1.74-1.09h-.22l1.09,3.71-1.31.22Z"/><path class="cls-2" d="M61.83,101.7c1.09,1.75,2,2.84,2.84,2.4s.22-2-.66-3.71-2-2.84-2.84-2.41-.43,2,.66,3.72m3.5-2.19c1.74,3.06,1.31,4.81,0,5.68s-3.28-.21-4.81-2.84-1.53-4.58.22-5.46,3.27.44,4.59,2.62Z"/><path class="cls-2" d="M71.88,100.39,64,94.93l1.1-1.1,3.27,2.62A24.2,24.2,0,0,1,71,98.64h0c-.66-.87-1.31-2-2-2.84l-2.18-3.5L68,91.21l4.59,8.3Z"/><rect class="cls-2" x="73.03" y="87.51" width="1.53" height="9.18" transform="translate(-44.22 91.64) rotate(-51.07)"/><path class="cls-2" d="M79.75,91l-7.87-4.8.66-1.1,4.15.66c.87.22,2.18.44,3.06.65h0a20.18,20.18,0,0,1-3.72-2l-2.18-1.31L74.5,82l7.87,4.58-.66,1.1-4.15-.66c-1.09-.22-2-.44-3.06-.66h0a26.36,26.36,0,0,1,3.72,2.19L80.4,89.9Z"/><path class="cls-2" d="M85.64,79a2.12,2.12,0,0,1-.43,1.53c-.88,2-2.84,2.4-5.46,1.53-3.28-1.53-3.72-3.72-3.06-5.25.22-.44.43-.65.65-1.09l1.09.65c-.21.22-.43.44-.43.66-.44.87,0,2.19,2.4,3.06s3.5.44,3.93-.66a1.28,1.28,0,0,0,.22-.87Z"/><polygon class="cls-2" points="78 72.42 86.95 74.83 86.52 76.14 77.56 73.73 78 72.42"/><path class="cls-2" d="M84.77,67.62H80.4l2,.65,2,.66Zm.87,2,2.19.88-.22,1.31-8.74-3.5.22-1.75,9.39-.43-.21,1.31-2.41.22Z"/><polygon class="cls-2" points="79.53 62.59 79.53 61.28 87.61 61.5 87.61 58.88 88.92 58.88 88.7 62.81 79.53 62.59"/></g></g></svg>