<svg xmlns="http://www.w3.org/2000/svg" viewBox="0 0 875.09996 710.99992"><defs><style>.cls-1{fill:#fff;}</style></defs><title>Recurso 1</title><g id="Capa_2" data-name="Capa 2"><g id="Capa_1-2" data-name="Capa 1"><path class="cls-1" d="M875.1,84.1A360.32526,360.32526,0,0,1,772,112.4a179.80021,179.80021,0,0,0,78.9-99.3,360.99725,360.99725,0,0,1-114,43.6A179.15227,179.15227,0,0,0,605.9,0C506.7,0,426.3,80.3,426.3,179.5a183.1152,183.1152,0,0,0,4.6,40.9c-149.2-7.5-281.5-78.9-370-187.6a179.81138,179.81138,0,0,0,55.5,239.7A177.80628,177.80628,0,0,1,35.1,250v2.3c0,87,61.9,159.5,144,176a179.39706,179.39706,0,0,1-47.3,6.3,177.48648,177.48648,0,0,1-33.7-3.2A179.70759,179.70759,0,0,0,265.7,556.1,360.017,360.017,0,0,1,42.8,632.9,356.44025,356.44025,0,0,1,0,630.4a508.5059,508.5059,0,0,0,275.2,80.6c330.2,0,510.8-273.5,510.8-510.7,0-7.8-.2-15.5-.5-23.2a365.075,365.075,0,0,0,89.6-93Z"/></g></g></svg>