<svg id="Layer_1" data-name="Layer 1" xmlns="http://www.w3.org/2000/svg" viewBox="0 0 512.00299 512.00299"><defs><style>.cls-1{fill:#c7cfe2;}.cls-2{fill:#afb9d2;}.cls-3{fill:#959cb3;}.cls-4{fill:#e4eaf6;}.cls-5{fill:#e6af78;}.cls-6{fill:#eff2fa;}.cls-7{fill:#d29b6e;}.cls-8{fill:#f0c087;}.cls-9{fill:#5b5d6e;}.cls-10{fill:#515262;}.cls-11{fill:#785550;}.cls-12{fill:#694b4b;}.cls-13{fill:#5a4146;}.cls-14{fill:#b4e1fa;}.cls-15{fill:#a0d2f0;}</style></defs><title>Iconos</title><path class="cls-1" d="M261.79936,28.9138H408.66454a24.54927,24.54927,0,0,1,24.4773,24.4773v85.67124a24.54926,24.54926,0,0,1-24.4773,24.47729H329.11228v23.21011a3.05936,3.05936,0,0,1-5.22266,2.16351L298.5153,163.54032H261.79866a24.54926,24.54926,0,0,1-24.4773-24.4773V53.39179A24.55045,24.55045,0,0,1,261.79936,28.9138Z"/><path class="cls-2" d="M402.33621,77.86909H310.75465V65.63044H359.502a6.25822,6.25822,0,0,0,6.31447-5.71067,6.11921,6.11921,0,0,0-6.10649-6.528h-48.9553V28.9138H298.516V114.585a24.54927,24.54927,0,0,1-24.47729,24.4773H237.32206a24.13714,24.13714,0,0,0,3.421,12.23864h33.29565a36.75872,36.75872,0,0,0,36.71664-36.71664h24.288a6.24254,6.24254,0,0,0,6.24375-5.21157,6.1212,6.1212,0,0,0-6.05451-7.02708h-24.4773V90.107h91.79091a6.11881,6.11881,0,0,0,6.1065-6.528A6.26009,6.26009,0,0,0,402.33621,77.86909Z"/><path class="cls-3" d="M402.54487,65.63044H384.18654a6.11967,6.11967,0,1,1,0-12.23934h18.35833a6.11967,6.11967,0,0,1,0,12.23934Z"/><path class="cls-3" d="M402.54487,114.58574H359.70925a6.11968,6.11968,0,1,1,0-12.23935h42.83562a6.11968,6.11968,0,0,1,0,12.23935Z"/><path class="cls-2" d="M402.54487,139.063H316.87363a6.11967,6.11967,0,1,1,0-12.23934h85.67124a6.11967,6.11967,0,0,1,0,12.23934Z"/><path class="cls-4" d="M274.038,4.4365H127.17282a24.54926,24.54926,0,0,0-24.4773,24.4773V114.585a24.54926,24.54926,0,0,0,24.4773,24.4773h79.55227v23.2101a3.05936,3.05936,0,0,0,5.22265,2.16352L237.32206,139.063h36.71665A24.54926,24.54926,0,0,0,298.516,114.58573V28.9138A24.55031,24.55031,0,0,0,274.038,4.4365Z"/><path class="cls-2" d="M151.65012,41.15314H133.29249a6.11967,6.11967,0,1,1,0-12.23934h18.35833a6.11967,6.11967,0,1,1-.0007,12.23934Z"/><path class="cls-1" d="M267.919,41.15314H176.12811a6.11967,6.11967,0,1,1,0-12.23934H267.919a6.11967,6.11967,0,1,1,0,12.23934Z"/><path class="cls-1" d="M267.919,65.63044H133.29249a6.11967,6.11967,0,1,1,0-12.23934H267.919a6.11967,6.11967,0,1,1,0,12.23934Z"/><path class="cls-2" d="M267.919,90.10774H249.56071a6.11968,6.11968,0,0,1,0-12.23935H267.919a6.11968,6.11968,0,1,1,0,12.23935Z"/><path class="cls-1" d="M225.08271,90.10774H133.29249a6.11968,6.11968,0,0,1,0-12.23935h91.79092a6.11968,6.11968,0,1,1-.0007,12.23935Z"/><path class="cls-1" d="M267.919,114.58574H133.29249a6.11968,6.11968,0,0,1,0-12.23935H267.919a6.11968,6.11968,0,1,1,0,12.23935Z"/><polygon class="cls-5" points="205.329 412.219 205.329 372.119 102.216 372.119 102.216 412.219 153.772 458.045 205.329 412.219"/><path class="cls-6" d="M285.04687,430.97516l-70.88481-16.67828a11.33463,11.33463,0,0,1-2.97515-1.19792l-57.41366,33.48872-55.17667-35.1113a11.39465,11.39465,0,0,1-5.215,2.81767l-70.8848,16.67828A22.91917,22.91917,0,0,0,4.83011,453.27892v44.86629A11.45782,11.45782,0,0,0,16.28782,509.6029H291.25727A11.45784,11.45784,0,0,0,302.715,498.14521V453.27892A22.916,22.916,0,0,0,285.04687,430.97516Z"/><path class="cls-7" d="M102.21569,372.11889v42.30873c64.94855,23.39909,103.11374-35.16472,103.11374-35.16472v-7.144Z"/><path class="cls-8" d="M79.30168,240.36163l4.99281,109.82329a34.37548,34.37548,0,0,0,13.713,25.93558l23.68592,17.76373a34.36818,34.36818,0,0,0,20.62218,6.87407h22.914a34.37441,34.37441,0,0,0,20.62219-6.87407l23.68593-17.76373a34.37093,34.37093,0,0,0,13.713-25.93553l4.99139-109.82467H79.30168Z"/><path class="cls-5" d="M136.586,263.277c22.914,0,57.28572-5.72816,65.43784-22.914H79.30168l4.9914,109.82466a34.37531,34.37531,0,0,0,13.713,25.93553L121.692,393.88839a34.36815,34.36815,0,0,0,20.62218,6.87408h11.45771c-11.45771,0-34.37171-22.914-34.37171-51.55758V280.46147C119.40155,274.73194,125.12829,263.277,136.586,263.277Z"/><path class="cls-4" d="M260.65934,472.42482l37.1205-33.34531a22.87885,22.87885,0,0,1,4.93514,14.20087v44.86629a11.45785,11.45785,0,0,1-11.45771,11.45773H251.15741V493.7346A28.6428,28.6428,0,0,1,260.65934,472.42482Z"/><path class="cls-4" d="M46.88436,472.42482,9.76387,439.07951a22.87887,22.87887,0,0,0-4.93516,14.20087v44.86629A11.45785,11.45785,0,0,0,16.28642,509.6044H56.38628V493.7346A28.63258,28.63258,0,0,0,46.88436,472.42482Z"/><polygon class="cls-9" points="168.094 509.603 139.45 509.603 143.031 458.045 164.514 458.045 168.094 509.603"/><path class="cls-10" d="M168.09364,446.58768H139.45008v3.30979a13.87516,13.87516,0,0,0,13.87606,13.87605h.88861a13.87516,13.87516,0,0,0,13.87608-13.87605v-3.30979Z"/><path class="cls-4" d="M101.41145,399.46328l52.3604,47.12436s-14.66485,7.40274-32.76041,22.32207a7.35005,7.35005,0,0,1-11.38178-2.57442L85.02983,412.21453l7.78236-11.67283A5.72973,5.72973,0,0,1,101.41145,399.46328Z"/><path class="cls-4" d="M206.13366,399.46328l-52.36041,47.12436s14.66486,7.40274,32.76041,22.32207a7.35005,7.35005,0,0,0,11.38178-2.57442l24.59983-54.12076-7.78236-11.67283A5.72972,5.72972,0,0,0,206.13366,399.46328Z"/><path class="cls-11" d="M188.5021,202.41017l5.371,37.95288c24.51548,4.90281,28.04741,43.37449,28.55639,54.364a11.31075,11.31075,0,0,0,1.81095,5.59737l9.35429,14.50879s-3.20293-23.98964,11.45771-40.09985C245.05105,274.73194,250.08321,179.49617,188.5021,202.41017Z"/><path class="cls-8" d="M239.34118,312.38107l-6.46913,25.87649a6.8886,6.8886,0,0,1-6.68285,5.21634h0a6.88718,6.88718,0,0,1-6.8347-6.03186l-3.30837-26.467a11.85856,11.85856,0,0,1,11.767-13.32914h.0239A11.85989,11.85989,0,0,1,239.34118,312.38107Z"/><path class="cls-12" d="M84.79081,192.14757l8.47412,5.7872c-38.30859,28.285-31.1491,76.79855-31.1491,76.79855,11.45771,11.45768,11.45771,40.09984,11.45771,40.09984l11.45771-11.45768s-4.42195-33.09645,17.18585-45.828c20.04993-11.81485,37.59432-5.72815,55.49444-5.72815,47.97643,0,61.40257-18.08148,59.07557-40.09985-1.20356-11.39444-18.62422-35.12533-63.01386-34.37168C135.85767,177.65145,102.21569,183.0759,84.79081,192.14757Z"/><path class="cls-13" d="M81.45009,246.80546S75.3634,222.81583,93.26493,197.9334c-38.30859,28.285-31.1491,76.79854-31.1491,76.79854,11.45771,11.45769,11.45771,40.09985,11.45771,40.09985L85.03125,303.3741s-4.42195-33.09644,17.18585-45.828c20.04993-11.81486,37.59432-5.72816,55.49444-5.72816a140.70891,140.70891,0,0,0,20.65733-1.41868C141.41991,251.64078,119.63917,223.65383,81.45009,246.80546Z"/><path class="cls-5" d="M68.20392,312.38107l6.46913,25.87649a6.88859,6.88859,0,0,0,6.68284,5.21634h0a6.88715,6.88715,0,0,0,6.83469-6.03186l3.30837-26.467a11.85855,11.85855,0,0,0-11.767-13.32914H79.708A11.85989,11.85989,0,0,0,68.20392,312.38107Z"/><path class="cls-4" d="M222.51527,498.14525H193.87172A11.45784,11.45784,0,0,0,182.414,509.60294h51.55757A11.45663,11.45663,0,0,0,222.51527,498.14525Z"/><path class="cls-12" d="M390.1178,188.6758c-112.986,0-100.45859,137.39891-99.94309,236.96947a10.63144,10.63144,0,0,0,5.21,9.09213c12.52055,7.54834,46.90533,25.19369,94.733,25.19369s82.21251-17.64535,94.73306-25.19369a10.63141,10.63141,0,0,0,5.21-9.09213C490.5764,326.07744,503.10379,188.6758,390.1178,188.6758Z"/><path class="cls-13" d="M382.83749,188.96036C277.75585,194.85224,289.6702,328.292,290.17471,425.64527a10.63144,10.63144,0,0,0,5.21,9.09213c12.52055,7.54834,46.90533,25.19369,94.733,25.19369l28.5534-199.87243"/><path class="cls-12" d="M390.1178,188.6758c-64.24413,0-68.70633,77.628-68.70633,77.628,37.02967-6.24653,59.78327,9.36843,97.25973-6.24653L390.1178,459.931c47.82911,0,82.21251-17.64534,94.73306-25.19368a10.63142,10.63142,0,0,0,5.21-9.09213C490.5764,326.07744,503.10379,188.6758,390.1178,188.6758Z"/><path class="cls-11" d="M490.05951,425.64523c.44264-85.55845,9.67908-198.9679-59.39841-229.21355-1.20422,6.25892-3.38718,23.731,2.2847,35.0735,14.27737,28.5534,28.55339,28.5534,42.82942,49.96811,14.27737,78.5215-27.27768,161.86263-41.08083,173.20782h0a179.56527,179.56527,0,0,0,50.1537-19.94379A10.62779,10.62779,0,0,0,490.05951,425.64523Z"/><path class="cls-5" d="M498.2897,447.30188l-63.69561-26.5395a14.27631,14.27631,0,0,1-8.78555-13.179V390.33391H354.42572v17.24944a14.27631,14.27631,0,0,1-8.78554,13.179l-63.69561,26.5395a21.41485,21.41485,0,0,0-13.179,19.76785v28.55339a14.27741,14.27741,0,0,0,14.27737,14.27737H497.19a14.27741,14.27741,0,0,0,14.27737-14.27737V467.06973A21.4136,21.4136,0,0,0,498.2897,447.30188Z"/><path class="cls-14" d="M498.2897,447.30188l-61.58548-25.66107-46.58642,20.106-46.58641-20.106-61.58548,25.66107a21.41485,21.41485,0,0,0-13.179,19.76785v28.55339a14.27742,14.27742,0,0,0,14.27737,14.27737H497.19132a14.27741,14.27741,0,0,0,14.27736-14.27737V467.06973A21.41689,21.41689,0,0,0,498.2897,447.30188Z"/><path class="cls-7" d="M425.8085,390.33256H354.42568V407.582a14.27632,14.27632,0,0,1-8.78554,13.179l-9.94715,4.146C411.82119,444.31885,425.8085,390.33256,425.8085,390.33256Z"/><path class="cls-15" d="M303.55993,474.91639l-28.65236-22.79077a21.36637,21.36637,0,0,0-6.14069,14.94411v28.55339a14.27742,14.27742,0,0,0,14.27737,14.27737h28.5534V491.64068A21.42142,21.42142,0,0,0,303.55993,474.91639Z"/><path class="cls-15" d="M511.46734,495.62178V467.06839a21.36876,21.36876,0,0,0-6.04718-14.85475l-28.74449,22.70141a21.41461,21.41461,0,0,0-8.03636,16.72156v18.26254H497.1927A14.276,14.276,0,0,0,511.46734,495.62178Z"/><path class="cls-15" d="M391.18867,495.62178H389.0469a6.06747,6.06747,0,0,1-6.06782-6.06782V441.76332h14.27737V489.554A6.06916,6.06916,0,0,1,391.18867,495.62178Z"/><path class="cls-15" d="M390.1178,441.74683l-40.85538-30.64154a5.71063,5.71063,0,0,0-8.178,1.39942L333.011,424.61422l25.048,35.068a5.71134,5.71134,0,0,0,8.2137,1.141Z"/><path class="cls-15" d="M390.1178,441.74683l40.85538-30.64154a5.71064,5.71064,0,0,1,8.178,1.39942l8.07345,12.10951-25.048,35.068a5.71134,5.71134,0,0,1-8.2137,1.141Z"/><path class="cls-8" d="M425.8085,252.92128c-35.69074,35.69074-105.736,7.13868-105.736,64.24413l4.43195,42.0651a28.55349,28.55349,0,0,0,14.56881,22.37562l40.64369,22.579a21.41164,21.41164,0,0,0,20.79886,0l40.64369-22.579a28.5534,28.5534,0,0,0,14.56881-22.37562l5.11652-49.9585a78.80608,78.80608,0,0,0,.32169-10.68671C458.497,280.4148,432.94584,267.19731,425.8085,252.92128Z"/><path class="cls-5" d="M320.07254,317.16541l4.43195,42.0651a28.55349,28.55349,0,0,0,14.56881,22.37562l40.64369,22.579a21.32237,21.32237,0,0,0,14.53445,2.172h0s-20.49093-6.21079-32.687-39.22362c-3.73635-10.11349-8.92164-63.65027-4.46082-70.19374,8.81856-12.93294,57.9976-14.27737,72.52928-38.2696q-1.07639-1.3362-1.985-2.67648c-.04812-.07148-.10723-.14435-.15673-.21718a27.54377,27.54377,0,0,1-1.6826-2.85658C390.1178,288.6134,320.07254,260.05862,320.07254,317.16541Z"/><path class="cls-15" d="M442.22629,495.62178H423.66678a12.13665,12.13665,0,0,0-12.13565,12.13565v2.14172h42.82942v-2.14176A12.13458,12.13458,0,0,0,442.22629,495.62178Z"/></svg>