<svg id="Layer_1" data-name="Layer 1" xmlns="http://www.w3.org/2000/svg" viewBox="0 0 512.00299 512.00299"><defs><style>.cls-1{fill:#5b5d6e;}.cls-2{fill:#e6af78;}.cls-3{fill:#707487;}.cls-4{fill:#d29b6e;}.cls-5{fill:#f0c087;}.cls-6{fill:#515262;}.cls-7{fill:#785550;}.cls-8{fill:#694b4b;}.cls-9{fill:#5a4146;}.cls-10{fill:#e6646e;}.cls-11{fill:#fff;}</style></defs><title>Iconos</title><path class="cls-1" d="M366.76081,494.04956H314.95692a13.77968,13.77968,0,0,0-13.77952,13.77952v3.85707h79.36128v-3.85707A13.77827,13.77827,0,0,0,366.76081,494.04956Z"/><polygon class="cls-2" points="336.449 362.78 336.449 301.055 177.726 301.055 177.726 362.78 257.088 433.323 336.449 362.78"/><path class="cls-3" d="M459.161,391.6531,350.04576,365.97942a17.60364,17.60364,0,0,1-4.58246-1.84313l-88.37577,51.55194-84.9313-54.04612a17.5715,17.5715,0,0,1-8.02693,4.339L55.01407,391.65475a35.27331,35.27331,0,0,0-27.19384,34.33471v69.06175A17.63729,17.63729,0,0,0,45.45681,512.6878H468.71825a17.6373,17.6373,0,0,0,17.63659-17.63659V425.98948A35.27555,35.27555,0,0,0,459.161,391.6531Z"/><path class="cls-4" d="M177.72623,301.05543v65.12522c99.974,36.0189,158.72258-54.129,158.72258-54.129V301.05375H177.7262v.00168Z"/><path class="cls-5" d="M142.45471,98.243l7.68368,169.05263a52.90982,52.90982,0,0,0,21.10812,39.9233l36.45856,27.34435a52.90654,52.90654,0,0,0,31.74417,10.582h35.27323a52.9067,52.9067,0,0,0,31.7442-10.582l36.45856-27.34435a52.91258,52.91258,0,0,0,21.10812-39.9233L371.717,98.243Z"/><path class="cls-2" d="M230.63433,133.51451c35.2732,0,88.1796-8.81831,100.72812-35.2732H142.45471l7.68368,169.05263a52.90984,52.90984,0,0,0,21.10812,39.9233l36.45856,27.34435a52.90654,52.90654,0,0,0,31.74417,10.58195h17.63829c-17.63658,0-52.9064-35.2732-52.9064-79.36131V159.966C204.18113,151.15111,212.99942,133.51451,230.63433,133.51451Z"/><path class="cls-1" d="M421.61855,455.456l57.13884-51.32875a35.21425,35.21425,0,0,1,7.59575,21.8589v69.06173a17.63731,17.63731,0,0,1-17.63659,17.63659h-61.7247V488.257A44.09451,44.09451,0,0,1,421.61855,455.456Z"/><path class="cls-1" d="M92.55651,455.456,35.41765,404.12723a35.21417,35.21417,0,0,0-7.59573,21.8589v69.06173a17.6373,17.6373,0,0,0,17.6366,17.63659h61.72469V488.257A44.09459,44.09459,0,0,0,92.55651,455.456Z"/><polygon class="cls-1" points="279.134 512.684 235.043 512.684 240.555 433.323 273.622 433.323 279.134 512.684"/><path class="cls-6" d="M279.13412,415.68823H235.046v9.76354a16.68689,16.68689,0,0,0,16.688,16.688h10.71217a16.68688,16.68688,0,0,0,16.688-16.688Z"/><path class="cls-1" d="M176.48846,343.14823l80.59907,72.54S234.51676,427.08353,206.66,450.05a11.31437,11.31437,0,0,1-17.51993-3.96187l-37.86711-83.308,11.97868-17.968A8.81732,8.81732,0,0,1,176.48846,343.14823Z"/><path class="cls-1" d="M337.68828,343.14823l-80.60075,72.54s22.57078,11.3953,50.42747,34.3618a11.31435,11.31435,0,0,0,17.51991-3.96187l37.86878-83.308-11.9787-17.968A8.81768,8.81768,0,0,0,337.68828,343.14823Z"/><path class="cls-7" d="M310.54687,39.8241l8.26706,58.4189c37.73524,7.54671,43.175,66.76712,43.95792,83.68337a17.39531,17.39531,0,0,0,2.78835,8.61708L379.957,212.87751s-4.92743-36.92525,17.63659-61.72471C397.59189,151.15111,405.33981,4.55259,310.54687,39.8241Z"/><path class="cls-5" d="M388.80234,208.1056l-9.958,39.832a10.601,10.601,0,0,1-10.28435,8.0303h0a10.60419,10.60419,0,0,1-10.51941-9.2867l-5.09142-40.74a18.25265,18.25265,0,0,1,18.11175-20.518h.0355A18.25557,18.25557,0,0,1,388.80234,208.1056Z"/><path class="cls-8" d="M150.90439,24.02556l13.04229,8.90961c-58.96847,43.53855-47.94685,118.21426-47.94685,118.21426,17.63661,17.6366,17.63661,61.72471,17.63661,61.72471l17.63658-17.6366s-6.806-50.94322,26.45491-70.543c30.8632-18.18616,57.86766-8.8183,85.42334-8.8183,73.84883,0,94.51728-27.83133,90.93588-61.72471C352.23045,36.61468,325.41879.08511,257.08753,1.2451,229.51154,1.71518,177.72623,10.0634,150.90439,24.02556Z"/><path class="cls-9" d="M145.76222,108.1638s-9.36785-36.92526,18.18616-75.22863c-58.96846,43.53855-47.94685,118.21426-47.94685,118.21426,17.63661,17.6366,17.63661,61.72471,17.63661,61.72471l17.63659-17.6366s-6.80606-50.94322,26.4549-70.543c30.8632-18.18616,57.86766-8.8183,85.42335-8.8183a216.69624,216.69624,0,0,0,31.79828-2.183C238.0745,115.60228,204.54806,72.52367,145.76222,108.1638Z"/><path class="cls-2" d="M125.37443,208.1056l9.958,39.832a10.601,10.601,0,0,0,10.28435,8.0303h0a10.60416,10.60416,0,0,0,10.51938-9.2867l5.09145-40.74a18.25268,18.25268,0,0,0-18.11175-20.518h-.03551A18.25475,18.25475,0,0,0,125.37443,208.1056Z"/><path class="cls-10" d="M358.06874,314.19981A69.67616,69.67616,0,0,0,495.33566,296.584c-.1796-32.24353-21.47148-59.31507-52.79488-66.96823a69.66955,69.66955,0,0,0-84.70747,51.72352c-.17568.74962-13.71654,4.44284-26.0246,7.654a7.03173,7.03173,0,0,0-1.03522,13.2455Z"/><path class="cls-11" d="M418.54282,308.40649v-41.29a8.258,8.258,0,1,1,16.516,0v41.29a8.258,8.258,0,1,1-16.516,0Z"/><path class="cls-11" d="M418.5038,333.18149a8.278,8.278,0,1,1,8.298,8.258h-.081A8.22026,8.22026,0,0,1,418.5038,333.18149Z"/></svg>