<svg id="Layer_1" data-name="Layer 1" xmlns="http://www.w3.org/2000/svg" viewBox="0 0 512.00299 512.00299"><defs><style>.cls-1{fill:#694b4b;}.cls-2{fill:#5a4146;}.cls-3{fill:#785550;}.cls-4{fill:#e6af78;}.cls-5{fill:#ddf2fa;}.cls-6{fill:#d29b6e;}.cls-7{fill:#ceeaf6;}.cls-8{fill:#f0c087;}.cls-9{fill:#adadad;}.cls-10{fill:gray;}</style></defs><title>Iconos</title><path class="cls-1" d="M233.25531,1.00091c-179.67376,0-159.7513,218.49642-158.9309,376.83064a16.90756,16.90756,0,0,0,8.28506,14.45865c19.91089,12.00261,74.58867,40.06353,150.64584,40.06353s130.735-28.06092,150.64585-40.06353a16.9103,16.9103,0,0,0,8.28505-14.45865C393.00662,219.496,412.92909,1.00091,233.25531,1.00091Z"/><path class="cls-2" d="M221.67834,1.44969C54.57555,10.81747,73.522,223.01809,74.32441,377.83155a16.90756,16.90756,0,0,0,8.28506,14.45865c19.91089,12.00261,74.58867,40.06353,150.64584,40.06353l45.40515-317.83865"/><path class="cls-1" d="M233.25531,1.00091c-102.16223,0-109.25784,123.44647-109.25784,123.44647,58.88525-9.9323,95.06792,14.89844,154.663-9.9323L233.25531,432.35373c76.05718,0,130.735-28.06092,150.64585-40.06353a16.9103,16.9103,0,0,0,8.28505-14.45865C393.00662,219.496,412.92909,1.00091,233.25531,1.00091Z"/><path class="cls-3" d="M392.18621,377.83155c.70468-136.056,15.39094-316.4023-94.45456-364.49756-1.916,9.95415-5.38536,37.7386,3.63266,55.77464,22.7026,45.40516,45.40517,45.40516,68.109,79.45967,22.70257,124.86481-43.37985,257.39617-65.32633,275.43735h0c38.88562-9.24818,66.76139-23.883,79.75543-31.71545A16.91186,16.91186,0,0,0,392.18621,377.83155Z"/><path class="cls-4" d="M405.27283,412.27052,303.98244,370.066a22.70389,22.70389,0,0,1-13.97132-20.95762V321.67754H176.497v27.43213a22.70646,22.70646,0,0,1-13.97132,20.95761L61.23524,412.27185A34.05062,34.05062,0,0,0,40.27891,443.7057v45.40515a22.70358,22.70358,0,0,0,22.70258,22.70262H403.524a22.70355,22.70355,0,0,0,22.70258-22.70258V443.70574A34.04755,34.04755,0,0,0,405.27283,412.27052Z"/><path class="cls-5" d="M405.27283,412.27052,307.33862,371.465l-74.08331,31.97265L159.172,371.465,61.2378,412.27052a34.0537,34.0537,0,0,0-20.95633,31.4351v45.40515a22.70355,22.70355,0,0,0,22.70258,22.70258H403.52657a22.70355,22.70355,0,0,0,22.70258-22.70258V443.70562A34.05378,34.05378,0,0,0,405.27283,412.27052Z"/><path class="cls-6" d="M290.0124,321.67754H176.49823v27.43213a22.70647,22.70647,0,0,1-13.97132,20.95761l-15.81916,6.59284C267.76761,407.52683,290.0124,321.67754,290.0124,321.67754Z"/><path class="cls-7" d="M95.60993,456.18276,50.04661,419.941a33.97627,33.97627,0,0,0-9.76513,23.76471v45.40515a22.70354,22.70354,0,0,0,22.70257,22.70258H108.3892V482.77518A34.055,34.055,0,0,0,95.60993,456.18276Z"/><path class="cls-7" d="M426.22915,489.11081V443.70566a33.97693,33.97693,0,0,0-9.61726-23.622l-45.7112,36.10039a34.05428,34.05428,0,0,0-12.78056,26.59241v29.03692h45.40515A22.70382,22.70382,0,0,0,426.22915,489.11081Z"/><path class="cls-7" d="M233.25531,489.11081h0a11.35287,11.35287,0,0,1-11.35193-11.35193v-74.2955H244.606v74.29679A11.35149,11.35149,0,0,1,233.25531,489.11081Z"/><path class="cls-7" d="M233.25531,403.43768l-64.97012-48.72794a9.0817,9.0817,0,0,0-13.00433,2.22717l-12.83714,19.25638,39.832,55.76436a9.08159,9.08159,0,0,0,13.06219,1.81313Z"/><path class="cls-7" d="M233.25531,403.43768l64.97013-48.72794a9.08169,9.08169,0,0,1,13.00432,2.22717l12.83715,19.25638-39.83206,55.76436a9.08158,9.08158,0,0,1-13.06218,1.81313Z"/><path class="cls-8" d="M290.0124,103.16315c-56.75709,56.75708-168.1431,11.35193-168.1431,102.16223l7.04931,66.89384a45.40518,45.40518,0,0,0,23.16809,35.58089l64.63065,35.90621a34.05039,34.05039,0,0,0,33.07594,0L314.424,307.80011A45.407,45.407,0,0,0,337.592,272.21922l8.13718-79.44554a125.19939,125.19939,0,0,0,.51051-16.99446C341.99366,146.8812,301.363,125.86572,290.0124,103.16315Z"/><path class="cls-4" d="M121.8693,205.32538l7.04931,66.89384a45.40518,45.40518,0,0,0,23.16809,35.58089l64.63065,35.90621a33.91333,33.91333,0,0,0,23.11278,3.45523h0s-32.58729-9.87441-51.98-62.37517c-5.94085-16.084-14.18862-101.21583-7.09431-111.6226,14.02275-20.5667,92.22994-22.70258,115.33887-60.85782q-1.71282-2.12365-3.15816-4.25633c-.07845-.11445-.17231-.23018-.24817-.34463a42.91633,42.91633,0,0,1-2.67468-4.5418C233.25531,159.92023,121.8693,114.51379,121.8693,205.32538Z"/><path class="cls-7" d="M324.06691,489.11081H278.66176a11.35288,11.35288,0,0,0-11.35194,11.35194v11.35064h68.109V500.46145A11.35259,11.35259,0,0,0,324.06691,489.11081Z"/><path class="cls-9" d="M480.33143,235.12542H155.663a9.60431,9.60431,0,0,0-9.603,9.603V420.692l168.90345,24.21292,174.971-24.21292V244.72839A9.60518,9.60518,0,0,0,480.33143,235.12542Z"/><path class="cls-9" d="M480.33143,235.12542H356.95171L224.99528,453.24388H480.33145a9.60574,9.60574,0,0,0,9.60229-9.61034V244.72839A9.6042,9.6042,0,0,0,480.33143,235.12542Z"/><polygon class="cls-10" points="348.597 448.474 355.799 508.006 280.203 508.006 287.404 448.474 348.597 448.474"/><polygon class="cls-10" points="353.376 487.975 348.597 448.474 287.404 448.474 282.626 487.975 353.376 487.975"/><path class="cls-9" d="M244.68545,420.692H146.06v22.94152a9.60587,9.60587,0,0,0,9.603,9.61034H480.3321a9.60572,9.60572,0,0,0,9.60229-9.61034V420.692Z"/><path class="cls-9" d="M244.68881,420.692l-19.69352,32.55188H480.33145a9.60574,9.60574,0,0,0,9.60229-9.61034V420.69268L244.68881,420.692Z"/><path class="cls-9" d="M382.68051,511.7341h-129.364a5.03722,5.03722,0,0,1,0-10.07444H382.67983a5.03722,5.03722,0,0,1,.00068,10.07444Z"/><circle class="cls-10" cx="315.12897" cy="340.01517" r="28.00294"/></svg>