<svg id="Layer_1" data-name="Layer 1" xmlns="http://www.w3.org/2000/svg" viewBox="0 0 512.00299 512.00299"><defs><style>.cls-1{fill:#e1c3a0;}.cls-2{fill:#f6f9f9;}.cls-3{fill:#c7cfe2;}.cls-4{fill:#afb9d2;}.cls-5{fill:#959cb3;}.cls-6{fill:#a0d2f0;}.cls-7{fill:#d7deed;}.cls-8{fill:#ffece3;}.cls-9{fill:#ffddce;}.cls-10{fill:#fcd0a3;}.cls-11{fill:#ffb983;}.cls-12{fill:#7c8b96;}</style></defs><title>Iconos</title><path class="cls-1" d="M384.4649,509.91994H86.26031A35.08276,35.08276,0,0,1,51.17777,474.8374V71.38419A35.08276,35.08276,0,0,1,86.26031,36.30165H384.4649a35.08276,35.08276,0,0,1,35.08254,35.08254V474.8374A35.08276,35.08276,0,0,1,384.4649,509.91994Z"/><path class="cls-2" d="M384.4649,62.61306H86.26031a8.77186,8.77186,0,0,0-8.77114,8.77113V474.8374a8.77186,8.77186,0,0,0,8.77114,8.77113H323.07L393.236,413.44245V71.38419A8.77186,8.77186,0,0,0,384.4649,62.61306Z"/><path class="cls-3" d="M287.98741,36.30065H261.675V27.52952a26.31241,26.31241,0,0,0-52.62481.001v8.77114H182.73779a17.54138,17.54138,0,0,0-17.54127,17.54127V71.38419H305.52768V53.84292A17.5401,17.5401,0,0,0,287.98741,36.30065Zm-52.62481,0a8.77113,8.77113,0,1,1,8.77114-8.77113A8.77186,8.77186,0,0,1,235.3626,36.30065Z"/><path class="cls-4" d="M305.52868,80.15433H165.19652a8.77186,8.77186,0,0,1-8.77113-8.77114h0a8.77186,8.77186,0,0,1,8.77113-8.77113H305.52768a8.77186,8.77186,0,0,1,8.77114,8.77113h0A8.77037,8.77037,0,0,1,305.52868,80.15433Z"/><path class="cls-3" d="M173.96766,352.04651H121.34285a8.77187,8.77187,0,0,1-8.77114-8.77114h0a8.77186,8.77186,0,0,1,8.77114-8.77113h52.62481a8.77186,8.77186,0,0,1,8.77113,8.77113h0A8.77186,8.77186,0,0,1,173.96766,352.04651Z"/><path class="cls-5" d="M349.38236,352.04651H209.0502a8.77187,8.77187,0,0,1-8.77114-8.77114h0a8.77186,8.77186,0,0,1,8.77114-8.77113H349.38136a8.77186,8.77186,0,0,1,8.77113,8.77113h0A8.77037,8.77037,0,0,1,349.38236,352.04651Z"/><path class="cls-5" d="M261.675,404.67132H209.0502a8.77187,8.77187,0,0,1-8.77114-8.77114h0a8.77186,8.77186,0,0,1,8.77114-8.77113H261.675a8.77186,8.77186,0,0,1,8.77113,8.77113h0A8.7725,8.7725,0,0,1,261.675,404.67132Z"/><path class="cls-5" d="M279.21628,439.75386H209.0502a8.77187,8.77187,0,0,1-8.77114-8.77114h0a8.77186,8.77186,0,0,1,8.77114-8.77113h70.16608a8.77186,8.77186,0,0,1,8.77113,8.77113h0A8.77122,8.77122,0,0,1,279.21628,439.75386Z"/><path class="cls-5" d="M173.96766,211.71535H121.34285a8.77187,8.77187,0,0,1-8.77114-8.77114h0a8.77186,8.77186,0,0,1,8.77114-8.77113h52.62481a8.77186,8.77186,0,0,1,8.77113,8.77113h0A8.77186,8.77186,0,0,1,173.96766,211.71535Z"/><path class="cls-5" d="M279.21628,246.79789H252.90387a8.77186,8.77186,0,0,1-8.77113-8.77114h0a8.77186,8.77186,0,0,1,8.77113-8.77113h26.31241a8.77186,8.77186,0,0,1,8.77113,8.77113h0A8.77122,8.77122,0,0,1,279.21628,246.79789Z"/><path class="cls-4" d="M349.38236,246.79789H314.29982a8.77187,8.77187,0,0,1-8.77114-8.77114h0a8.77186,8.77186,0,0,1,8.77114-8.77113h35.08254a8.77186,8.77186,0,0,1,8.77113,8.77113h0A8.77186,8.77186,0,0,1,349.38236,246.79789Z"/><path class="cls-4" d="M349.38236,211.71535H209.0502a8.77187,8.77187,0,0,1-8.77114-8.77114h0a8.77186,8.77186,0,0,1,8.77114-8.77113H349.38136a8.77186,8.77186,0,0,1,8.77113,8.77113h0A8.77037,8.77037,0,0,1,349.38236,211.71535Z"/><path class="cls-3" d="M349.38236,159.09154H279.21628a8.77187,8.77187,0,0,1-8.77114-8.77114h0a8.77186,8.77186,0,0,1,8.77114-8.77113h70.16608a8.77186,8.77186,0,0,1,8.77113,8.77113h0A8.7725,8.7725,0,0,1,349.38236,159.09154Z"/><path class="cls-4" d="M244.13374,159.09154H226.59247a8.77187,8.77187,0,0,1-8.77114-8.77114h0a8.77186,8.77186,0,0,1,8.77114-8.77113h17.54127a8.77186,8.77186,0,0,1,8.77113,8.77113h0A8.7725,8.7725,0,0,1,244.13374,159.09154Z"/><path class="cls-5" d="M349.38236,124.008H296.75755a8.77187,8.77187,0,0,1-8.77114-8.77114h0a8.77186,8.77186,0,0,1,8.77114-8.77113h52.62481a8.77186,8.77186,0,0,1,8.77113,8.77113h0A8.77186,8.77186,0,0,1,349.38236,124.008Z"/><path class="cls-5" d="M209.0502,281.88143H121.34285a8.77187,8.77187,0,0,1-8.77114-8.77114h0a8.77186,8.77186,0,0,1,8.77114-8.77113H209.0502a8.77186,8.77186,0,0,1,8.77113,8.77113h0A8.77186,8.77186,0,0,1,209.0502,281.88143Z"/><path class="cls-4" d="M349.38236,281.88143H244.13374a8.77187,8.77187,0,0,1-8.77114-8.77114h0a8.77186,8.77186,0,0,1,8.77114-8.77113H349.38236a8.77186,8.77186,0,0,1,8.77113,8.77113h0A8.7725,8.7725,0,0,1,349.38236,281.88143Z"/><path class="cls-4" d="M217.82133,246.79789H121.34385a8.77187,8.77187,0,0,1-8.77114-8.77114h0a8.77186,8.77186,0,0,1,8.77114-8.77113h96.47748a8.77186,8.77186,0,0,1,8.77114,8.77113h0A8.77187,8.77187,0,0,1,217.82133,246.79789Z"/><path class="cls-3" d="M261.675,316.964H191.50893a8.77187,8.77187,0,0,1-8.77114-8.77114h0a8.77186,8.77186,0,0,1,8.77114-8.77113H261.675a8.77186,8.77186,0,0,1,8.77113,8.77113h0A8.77186,8.77186,0,0,1,261.675,316.964Z"/><path class="cls-3" d="M349.38236,316.964H296.75755a8.77187,8.77187,0,0,1-8.77114-8.77114h0a8.77186,8.77186,0,0,1,8.77114-8.77113h52.62481a8.77186,8.77186,0,0,1,8.77113,8.77113h0A8.77186,8.77186,0,0,1,349.38236,316.964Z"/><path class="cls-3" d="M156.42639,316.964H121.34385a8.77187,8.77187,0,0,1-8.77114-8.77114h0a8.77186,8.77186,0,0,1,8.77114-8.77113h35.08254a8.77186,8.77186,0,0,1,8.77113,8.77113h0A8.77186,8.77186,0,0,1,156.42639,316.964Z"/><path class="cls-6" d="M147.65525,448.525a35.08254,35.08254,0,1,1,35.08254-35.08254A35.12227,35.12227,0,0,1,147.65525,448.525Zm0-52.62481a17.54127,17.54127,0,1,0,17.54127,17.54127A17.55859,17.55859,0,0,0,147.65525,395.90018Z"/><path class="cls-7" d="M323.07,483.60753V422.21259a8.77187,8.77187,0,0,1,8.77114-8.77114H393.236Z"/><path class="cls-8" d="M319.2757,251.7886s2.81-4.743,5.817-9.82l-23.006-13.61c-15.176-8.709-22.273-10.32-35.965-5.027l-14.922,5.769a31.766,31.766,0,0,1-27.646-2.299l-39.94-23.549-56.727,95.752,51.142,30.186a31.76387,31.76387,0,0,1,8.965,7.933l17.233,22.35c9.519,11.133,29.164,25.574,41.766,33.04l17.901,10.605a21.19,21.19,0,0,0,11.768-23.466,4.20184,4.20184,0,0,1,6.266-4.435l7.192,4.261c10.06,5.96,23.29,3.111,29.431-6.84a21.25866,21.25866,0,0,0-1.164-24.025.84282.84282,0,0,1,1.101-1.239l8.758,5.227a21.27238,21.27238,0,0,0,28.242-30.544.98111.98111,0,0,1,1.297-1.419l11.147,6.604a21.7722,21.7722,0,0,0,26.73-3.284,25.80092,25.80092,0,0,0,5.56-9.963l-76.648-45.39a12.27753,12.27753,0,0,1-4.298-16.817Z"/><path class="cls-9" d="M437.28971,335.94461l-39.188-23.207a20.948,20.948,0,0,1-5.24,9.417,21.67287,21.67287,0,0,1-24.487,4.447l-15.516-9.192a7.7287,7.7287,0,0,0-7.88,13.298l11.927,7.066a21.29231,21.29231,0,0,1-28.932,14.305l-12.661-7.501a7.7287,7.7287,0,0,0-7.88,13.298l11.839,7.014a21.235,21.235,0,0,1-2.523,5.945c-6.141,9.951-19.371,12.8-29.431,6.84l-7.192-4.261a4.20185,4.20185,0,0,0-6.266,4.435,21.19423,21.19423,0,0,1-12.474,23.783l49.972,29.605c8.812,5.22,20.567,2.442,25.621-6.465a18.27383,18.27383,0,0,0-6.582-24.732l20.138,11.93c8.812,5.22,20.567,2.443,25.621-6.465a18.27238,18.27238,0,0,0-6.582-24.731l13.287,7.872c8.811,5.22,20.566,2.443,25.621-6.465a18.27178,18.27178,0,0,0-6.582-24.732l16.354,9.689c8.811,5.22,20.565,2.443,25.619-6.464a18.271,18.271,0,0,0-6.583-24.729Z"/><path class="cls-10" d="M453.6727,253.2496l-26.232-44.278-30.675,17.83a31.76624,31.76624,0,0,1-27.646,2.299l-16.829-6.611a27.04025,27.04025,0,0,0-16.525-1.046l-25.784,6.525a27.04689,27.04689,0,0,0-20.411,26.22v34.419a8.82618,8.82618,0,0,0,8.81,8.828,26.557,26.557,0,0,0,26.575-26.557v-1.457l50.293,29.783Z"/><path class="cls-11" d="M451.90171,250.25961l-80.072,46.92,63.492,37.599a31.77063,31.77063,0,0,1,6.967-5.589l41.878-24.467Z"/><path class="cls-10" d="M200.4437,349.46859l-10.347,14.413a18.26628,18.26628,0,0,1-29.677-21.305l10.347-14.413a18.26627,18.26627,0,0,1,29.677,21.305Z"/><path class="cls-10" d="M241.53971,354.86761l-21.766,30.319a18.26627,18.26627,0,0,1-29.677-21.305l21.766-30.319a18.26628,18.26628,0,1,1,29.677,21.305Z"/><path class="cls-10" d="M271.2177,376.17361l-21.766,30.319a18.26627,18.26627,0,0,1-29.677-21.305l21.766-30.319a18.26627,18.26627,0,1,1,29.677,21.305Z"/><path class="cls-11" d="M291.22269,410.95059l-7.238,10.082a18.26627,18.26627,0,0,1-29.677-21.305l7.238-10.082a18.26628,18.26628,0,0,1,29.677,21.305Z"/><path class="cls-12" d="M204.9937,193.2976l-15.999-9.478a9.26283,9.26283,0,0,0-12.69,3.248l-65.776,111.027a9.26282,9.26282,0,0,0,3.248,12.69l15.999,9.478a22.58417,22.58417,0,0,0,30.942-7.919l52.196-88.104A22.58473,22.58473,0,0,0,204.9937,193.2976Z"/><path class="cls-12" d="M422.0597,183.81961l-15.999,9.478a22.58442,22.58442,0,0,0-7.919,30.942l52.196,88.104a22.58443,22.58443,0,0,0,30.942,7.919l15.999-9.478a9.2628,9.2628,0,0,0,3.248-12.69l-65.776-111.027a9.2642,9.2642,0,0,0-12.691-3.248Z"/></svg>