<svg id="Layer_1" data-name="Layer 1" xmlns="http://www.w3.org/2000/svg" viewBox="0 0 512.00299 512.00299"><defs><style>.cls-1{fill:#694b4b;}.cls-2{fill:#5a4146;}.cls-3{fill:#785550;}.cls-4{fill:#e6af78;}.cls-5{fill:#f6eab3;}.cls-6{fill:#d29b6e;}.cls-7{fill:#f1dea6;}.cls-8{fill:#f0c087;}.cls-9{fill:#707487;}.cls-10{fill:#65687a;}.cls-11{fill:#464655;}.cls-12{fill:#5b5d6e;}</style></defs><title>Iconos</title><path class="cls-1" d="M265.24537,2.26229c-179.76921,0-159.83617,218.6125-159.01533,377.03084a16.91652,16.91652,0,0,0,8.28946,14.46633c19.92147,12.009,74.62829,40.08481,150.72587,40.08481s130.80441-28.07582,150.72589-40.08481a16.9193,16.9193,0,0,0,8.28945-14.46633C425.08155,220.87346,445.01461,2.26229,265.24537,2.26229Z"/><path class="cls-2" d="M253.66225,2.71131C86.47069,12.08407,105.42721,224.39743,106.23,379.29313a16.91652,16.91652,0,0,0,8.28946,14.46633c19.92147,12.009,74.62829,40.08481,150.72587,40.08481l45.42928-318.0075"/><path class="cls-1" d="M265.24537,2.26229c-102.21651,0-109.31588,123.512-109.31588,123.512,58.91653-9.93757,95.11843,14.90636,154.74516-9.93757l-45.42928,318.0075c76.09759,0,130.80441-28.07582,150.72589-40.08481a16.9193,16.9193,0,0,0,8.28945-14.46633C425.08155,220.87346,445.01461,2.26229,265.24537,2.26229Z"/><path class="cls-3" d="M424.26071,379.29313c.705-136.1283,15.39911-316.57039-94.50474-364.69121-1.917,9.95944-5.38822,37.75865,3.63459,55.80428,22.71466,45.42927,45.42929,45.42927,68.14519,79.50188,22.71463,124.93115-43.40289,257.53292-65.361,275.58369h0c38.90628-9.2531,66.79686-23.89572,79.79781-31.73231A16.92086,16.92086,0,0,0,424.26071,379.29313Z"/><path class="cls-4" d="M437.35428,413.75039l-101.3442-42.22695a22.71593,22.71593,0,0,1-13.97874-20.96875v-27.4454H208.45686V350.556a22.71854,22.71854,0,0,1-13.97874,20.96875l-101.34421,42.227a34.0687,34.0687,0,0,0-20.96746,31.45055v45.42927a22.71564,22.71564,0,0,0,22.71464,22.71468H435.60454a22.71561,22.71561,0,0,0,22.71464-22.71464V445.20232A34.06566,34.06566,0,0,0,437.35428,413.75039Z"/><path class="cls-5" d="M437.35428,413.75039,339.368,372.92322l-74.12267,31.98964-74.12266-31.98964L93.13647,413.75039A34.07181,34.07181,0,0,0,72.169,445.2022v45.42927a22.71561,22.71561,0,0,0,22.71465,22.71464H435.60709a22.7156,22.7156,0,0,0,22.71464-22.71464V445.2022A34.07189,34.07189,0,0,0,437.35428,413.75039Z"/><path class="cls-6" d="M322.03261,323.10929H208.45814V350.556a22.71855,22.71855,0,0,1-13.97875,20.96875l-15.82755,6.59633C299.776,409.00419,322.03261,323.10929,322.03261,323.10929Z"/><path class="cls-7" d="M127.52686,457.686,81.93934,421.4249A33.99434,33.99434,0,0,0,72.169,445.20224v45.42927a22.7156,22.7156,0,0,0,22.71464,22.71464h45.42927V484.29251A34.0731,34.0731,0,0,0,127.52686,457.686Z"/><path class="cls-7" d="M458.32173,490.63151V445.20224a33.995,33.995,0,0,0-9.62237-23.63454l-45.73548,36.11956a34.07242,34.07242,0,0,0-12.78736,26.60655v29.05234H435.6058A22.71587,22.71587,0,0,0,458.32173,490.63151Z"/><path class="cls-7" d="M265.24537,490.63151h0a11.35891,11.35891,0,0,1-11.358-11.358v-74.335h22.71464v74.33626A11.35753,11.35753,0,0,1,265.24537,490.63151Z"/><path class="cls-7" d="M265.24537,404.91286,200.24073,356.159a9.08652,9.08652,0,0,0-13.01123,2.22835l-12.844,19.26661,39.85322,55.794a9.08642,9.08642,0,0,0,13.06913,1.81409Z"/><path class="cls-7" d="M265.24537,404.91286,330.25,356.159a9.08652,9.08652,0,0,1,13.01123,2.22835l12.844,19.26661L316.252,433.448a9.08642,9.08642,0,0,1-13.06913,1.81409Z"/><path class="cls-8" d="M322.03261,104.4788c-56.78724,56.78724-168.23242,11.358-168.23242,102.21652l7.05306,66.92937a45.42926,45.42926,0,0,0,23.18039,35.59979l64.665,35.92529a34.06845,34.06845,0,0,0,33.09351,0l64.665-35.92529a45.43114,45.43114,0,0,0,23.18038-35.59979L377.779,194.137a125.266,125.266,0,0,0,.51078-17.0035C374.0415,148.22008,333.38928,127.19344,322.03261,104.4788Z"/><path class="cls-4" d="M153.80019,206.69532l7.05306,66.92937a45.42926,45.42926,0,0,0,23.18039,35.59979l64.665,35.92529a33.93136,33.93136,0,0,0,23.12506,3.45707h0s-32.60461-9.87966-52.00759-62.40831c-5.944-16.09259-14.19616-101.2696-7.09808-111.68191C226.74822,153.939,304.997,151.802,328.11817,113.62647q-1.71373-2.12478-3.15984-4.25859c-.07849-.11451-.17241-.2303-.2483-.34481a42.93791,42.93791,0,0,1-2.6761-4.54421C265.24537,161.266,153.80019,115.83547,153.80019,206.69532Z"/><path class="cls-7" d="M356.10522,490.63151H310.67594a11.35891,11.35891,0,0,0-11.358,11.358v11.35667h68.1452v-11.358A11.35863,11.35863,0,0,0,356.10522,490.63151Z"/><path class="cls-9" d="M154.19174,215.522l-10.36545.21351a17.85643,17.85643,0,0,0-17.48214,18.27729l.84052,35.28591a17.8568,17.8568,0,0,0,18.63177,17.414l15.37638-.6728Z"/><path class="cls-10" d="M143.82731,215.73553c-.02023.00048-.03625.00693-.05648.00741l1.69005,70.94995c.12032-.00286.23531.02576.35661.02085l15.37637-.67279-7.001-70.51692Z"/><path class="cls-9" d="M375.21862,213.484l10.36449.25552a17.85643,17.85643,0,0,1,17.40794,18.348l-.98351,35.28221a17.8568,17.8568,0,0,1-18.70217,17.33838l-15.37353-.7351Z"/><path class="cls-10" d="M385.5821,213.7395c.0202.00056.03623.00708.05644.00764L383.661,284.68966c-.1203-.00335-.23542.02481-.35668.01941l-15.37352-.7351,7.28677-70.488Z"/><path class="cls-11" d="M383.28163,284.76019l-15.31927-.30442c-6.81665,12.38427-27.23526,32.6623-88.11389,32.6623v17.85579c81.35385,0,102.22963-34.66784,107.53326-50.64249A17.85709,17.85709,0,0,1,383.28163,284.76019Z"/><path class="cls-12" d="M272.03764,338.69166h-8.9284a13.392,13.392,0,0,1-13.39159-13.39159h0a13.392,13.392,0,0,1,13.39159-13.39159h8.9284a13.392,13.392,0,0,1,13.39159,13.39159h0A13.39135,13.39135,0,0,1,272.03764,338.69166Z"/></svg>