<svg id="Capa_1" data-name="Capa 1" xmlns="http://www.w3.org/2000/svg" viewBox="0 0 726.11 119"><defs><style>.cls-1{fill:#fff;}.cls-2{fill:#1d1d1b;}.cls-3{fill:#fdd70b;}.cls-12,.cls-4{fill:none;}.cls-4{stroke:#fdd70b;stroke-width:0.22px;}.cls-5{fill:#21bcef;}.cls-6{fill:#db2625;}.cls-7{fill:#fac48b;}.cls-8{fill:#8c733c;}.cls-9{fill:#c99e72;}.cls-10{fill:#77160f;}.cls-11{fill:#c0a675;}.cls-12{stroke:#1d1d1b;stroke-width:0.4px;}.cls-13{fill:#e52825;}.cls-14{fill:#287935;}.cls-15{fill:#8cc047;}</style></defs><title>logo</title><g id="Capa_2" data-name="Capa 2"><g id="Capa_1-2" data-name="Capa 1-2"><path class="cls-1" d="M0,59.5C0,26.62,21.92,0,49,0S98,26.62,98,59.5,76.05,119,49,119,0,92.16,0,59.5"/><path class="cls-2" d="M49,115.2c-25.5,0-45.86-25.06-45.86-55.92S23.71,3.36,49,3.36,94.84,28.41,94.84,59.28,74.26,115.2,49,115.2M49,2.46C23,2.46,2,28,2,59.5s21,56.82,47,56.82S95.74,90.82,95.74,59.5,74.71,2.46,49,2.46Z"/><path class="cls-3" d="M48.09,35.34a13.46,13.46,0,0,0-1.56,3.13,4.34,4.34,0,0,1-.23,1.79v.23c0-.45-.22-.9-.22-1.35a3.26,3.26,0,0,1,.45-2,3.83,3.83,0,0,0-.23-2.24l-2.23,3.8,1.11-4.25h0a7.84,7.84,0,0,0-2.46,2.23,9.33,9.33,0,0,1-.89,1.57l-.22.22c0-.44.22-.89.22-1.34A4.76,4.76,0,0,1,43,35.34a3.32,3.32,0,0,0,.44-2L39.82,36l2.68-3.35h0a7.51,7.51,0,0,0-3.13,1.12A6.16,6.16,0,0,1,38,34.89a.23.23,0,0,0-.23.23c.23-.23.45-.67.9-1.12a11.76,11.76,0,0,1,1.79-1.34,3,3,0,0,0,1.34-1.57l-4.25,1.12L41.16,30h0a8.65,8.65,0,0,0-3.36-.22,5.32,5.32,0,0,1-1.8.42h-.22c.22-.23.67-.45,1.12-.9a6.52,6.52,0,0,1,2-.44,8.18,8.18,0,0,0,2-.9l-4.25-.67,4.25-.67a13.5,13.5,0,0,0-3.13-1.57A4.43,4.43,0,0,1,36,24.83l-.22-.22c.45,0,.89-.23,1.34-.23a3.26,3.26,0,0,1,2,.45,3.91,3.91,0,0,0,2.24-.22l-3.8-2.24,4.25,1.12h0A7.79,7.79,0,0,0,39.59,21,3.56,3.56,0,0,1,38,20.1h-.45a2.68,2.68,0,0,0,1.34.23,5,5,0,0,1,1.79,1.11,3.58,3.58,0,0,0,2,.67l-2.46-3.35,3.36,2.68h0a7.66,7.66,0,0,0-1.12-3.13,4,4,0,0,1-1.12-1.56v-.23c.23.23.67.45,1.12.9a4.93,4.93,0,0,1,1.12,1.79,3,3,0,0,0,1.56,1.34L44.06,16.3l2.23,3.58h0a8.47,8.47,0,0,0,.23-3.36,5,5,0,0,1-.45-1.79v-.22A4,4,0,0,0,47,15.66a6.25,6.25,0,0,1,.45,2,3.1,3.1,0,0,0,1.12,1.79l.67-4.25.67,4.25A4.81,4.81,0,0,0,51,17.67a6.25,6.25,0,0,1,.45-2,4.83,4.83,0,0,1,.89-1.12v.22a2.6,2.6,0,0,0-1.12,1.57,5.73,5.73,0,0,0,.23,3.35h0l2.23-3.8-1.11,4.25a2.35,2.35,0,0,0,1.56-1.34A5,5,0,0,1,55.25,17c.45-.45.89-.67,1.12-.89v.22c-.45.45-.67.89-1.12,1.34a7.66,7.66,0,0,0-1.12,3.13h0l3.36-2.68L54.8,21.7a3.77,3.77,0,0,0,2-.67,4.6,4.6,0,0,1,1.79-1.12A3.76,3.76,0,0,1,60,19.68l-.23.23c-.44.22-1.11.67-1.56.89A7.75,7.75,0,0,0,56,23.26h0l4.25-1.12-3.8,2.24a6.79,6.79,0,0,0,2.24.23,6.25,6.25,0,0,1,2-.45c.45,0,.89.22,1.34.22a.22.22,0,0,0-.22.22h0a5.71,5.71,0,0,1-1.79.22,8.23,8.23,0,0,0-3.13,1.56l4.25.68-4.25.67a2.73,2.73,0,0,0,1.79.89,6.84,6.84,0,0,1,2,.45,5,5,0,0,1,1.12.89h-.23c-.67-.22-1.12-.22-1.79-.44a5.64,5.64,0,0,0-3.35.22h0L60,32l-4-.9a3,3,0,0,0,1.34,1.57A3.42,3.42,0,0,1,59.05,34a5.09,5.09,0,0,0,.9,1.12.23.23,0,0,1-.23-.23c-.44-.44-.89-.67-1.34-1.11a5.31,5.31,0,0,0-3.13-1.12h0L57.93,36l-3.8-2.46a3.77,3.77,0,0,0,.67,2,4.6,4.6,0,0,1,1.12,1.79,8.71,8.71,0,0,0,.22,1.34l-.22-.23c-.22-.44-.67-1.11-.89-1.56a7.75,7.75,0,0,0-2.46-2.24h0l1.11,4.25-2.23-3.8a3.83,3.83,0,0,0-.23,2.24,5.9,5.9,0,0,1,.23,2,2.68,2.68,0,0,0-.23,1.34.22.22,0,0,0-.22-.22h0c0-.67-.22-1.35-.22-1.79a6,6,0,0,0-1.57-3.13Z"/><path class="cls-4" d="M48.09,35.34a13.46,13.46,0,0,0-1.56,3.13,4.34,4.34,0,0,1-.23,1.79v.23c0-.45-.22-.9-.22-1.35a3.26,3.26,0,0,1,.45-2,3.83,3.83,0,0,0-.23-2.24l-2.23,3.8,1.11-4.25h0a7.84,7.84,0,0,0-2.46,2.23,9.33,9.33,0,0,1-.89,1.57l-.22.22c0-.44.22-.89.22-1.34A4.76,4.76,0,0,1,43,35.34a3.32,3.32,0,0,0,.44-2L39.82,36l2.68-3.35h0a7.51,7.51,0,0,0-3.13,1.12A6.16,6.16,0,0,1,38,34.89a.23.23,0,0,0-.23.23c.23-.23.45-.67.9-1.12a11.76,11.76,0,0,1,1.79-1.34,3,3,0,0,0,1.34-1.57l-4.25,1.12L41.16,30h0a8.65,8.65,0,0,0-3.36-.22,5.32,5.32,0,0,1-1.8.42h-.22c.22-.23.67-.45,1.12-.9a6.52,6.52,0,0,1,2-.44,8.18,8.18,0,0,0,2-.9l-4.25-.67,4.25-.67a13.5,13.5,0,0,0-3.13-1.57A4.43,4.43,0,0,1,36,24.83l-.22-.22c.45,0,.89-.23,1.34-.23a3.26,3.26,0,0,1,2,.45,3.91,3.91,0,0,0,2.24-.22l-3.8-2.24,4.25,1.12h0A7.79,7.79,0,0,0,39.59,21,3.56,3.56,0,0,1,38,20.1h-.45a2.68,2.68,0,0,0,1.34.23,5,5,0,0,1,1.79,1.11,3.58,3.58,0,0,0,2,.67l-2.46-3.35,3.36,2.68h0a7.66,7.66,0,0,0-1.12-3.13,4,4,0,0,1-1.12-1.56v-.23c.23.23.67.45,1.12.9a4.93,4.93,0,0,1,1.12,1.79,3,3,0,0,0,1.56,1.34L44.06,16.3l2.23,3.58h0a8.47,8.47,0,0,0,.23-3.36,5,5,0,0,1-.45-1.79v-.22A4,4,0,0,0,47,15.66a6.25,6.25,0,0,1,.45,2,3.1,3.1,0,0,0,1.12,1.79l.67-4.25.67,4.25A4.81,4.81,0,0,0,51,17.67a6.25,6.25,0,0,1,.45-2,4.83,4.83,0,0,1,.89-1.12v.22a2.6,2.6,0,0,0-1.12,1.57,5.73,5.73,0,0,0,.23,3.35h0l2.23-3.8-1.11,4.25a2.35,2.35,0,0,0,1.56-1.34A5,5,0,0,1,55.25,17c.45-.45.89-.67,1.12-.89v.22c-.45.45-.67.89-1.12,1.34a7.66,7.66,0,0,0-1.12,3.13h0l3.36-2.68L54.8,21.7a3.77,3.77,0,0,0,2-.67,4.6,4.6,0,0,1,1.79-1.12A3.76,3.76,0,0,1,60,19.68l-.23.23c-.44.22-1.11.67-1.56.89A7.75,7.75,0,0,0,56,23.26h0l4.25-1.12-3.8,2.24a6.79,6.79,0,0,0,2.24.23,6.25,6.25,0,0,1,2-.45c.45,0,.89.22,1.34.22a.22.22,0,0,0-.22.22h0a5.71,5.71,0,0,1-1.79.22,8.23,8.23,0,0,0-3.13,1.56l4.25.68-4.25.67a2.73,2.73,0,0,0,1.79.89,6.84,6.84,0,0,1,2,.45,5,5,0,0,1,1.12.89h-.23c-.67-.22-1.12-.22-1.79-.44a5.64,5.64,0,0,0-3.35.22h0L60,32l-4-.9a3,3,0,0,0,1.34,1.57A3.42,3.42,0,0,1,59.05,34a5.09,5.09,0,0,0,.9,1.12.23.23,0,0,1-.23-.23c-.44-.44-.89-.67-1.34-1.11a5.31,5.31,0,0,0-3.13-1.12h0L57.93,36l-3.8-2.46a3.77,3.77,0,0,0,.67,2,4.6,4.6,0,0,1,1.12,1.79,8.71,8.71,0,0,0,.22,1.34l-.22-.23c-.22-.44-.67-1.11-.89-1.56a7.75,7.75,0,0,0-2.46-2.24h0l1.11,4.25-2.23-3.8a3.83,3.83,0,0,0-.23,2.24,5.9,5.9,0,0,1,.23,2,2.68,2.68,0,0,0-.23,1.34.22.22,0,0,0-.22-.22h0c0-.67-.22-1.35-.22-1.79a6,6,0,0,0-1.57-3.13Z"/><path class="cls-2" d="M40.26,32.66a3.1,3.1,0,0,0,1.35-1.57l-4.25,1.12L40.93,30h0a8.6,8.6,0,0,0-3.35-.22,5.55,5.55,0,0,1-1.79.45h0a2.31,2.31,0,0,0,1.12-.9,6.52,6.52,0,0,1,2-.44,8.18,8.18,0,0,0,2-.9l-4.25-.67,4.25-.67a7.8,7.8,0,0,0-3.13-1.34A4.31,4.31,0,0,1,36,25.05l-.22-.22c.45,0,.89-.22,1.34-.22a3.32,3.32,0,0,1,2,.44,3.91,3.91,0,0,0,2.24-.22l-3.8-2.24,4,1.12h0a7.87,7.87,0,0,0-2.24-2.46,3.67,3.67,0,0,1-1.57-.89l-.22-.23a2.68,2.68,0,0,0,1.34.23,5,5,0,0,1,1.79,1.11,3.58,3.58,0,0,0,2,.67L40.2,18.79l3.36,2.68h0a7.66,7.66,0,0,0-1.12-3.13,4,4,0,0,1-1.12-1.56l-.22-.23c.22.23.67.45,1.12.9a4.77,4.77,0,0,1,1.11,1.79A3,3,0,0,0,45,20.58l-1.12-4.25,2.24,3.8h0a8.41,8.41,0,0,0,.22-3.35A5.47,5.47,0,0,1,45.86,15v-.45a2.19,2.19,0,0,0,.89,1.12,6.84,6.84,0,0,1,.45,2,3,3,0,0,0,1.12,1.79L49,15.21l.67,4.25a4.93,4.93,0,0,0,1.12-1.79,6.52,6.52,0,0,1,.44-2,4.87,4.87,0,0,1,.9-1.12V15c-.23.67-.23,1.12-.45,1.79a5.81,5.81,0,0,0,.22,3.35h0l2.24-3.8L53,20.58a2.37,2.37,0,0,0,1.57-1.34,4.72,4.72,0,0,1,1.12-1.79c.44-.45.89-.67,1.12-.9v.23c-.45.44-.68.89-1.12,1.34a7.51,7.51,0,0,0-1.12,3.13h0l3.35-2.68-2.68,3.57a3.58,3.58,0,0,0,2-.67A5,5,0,0,1,59,20.36a3.82,3.82,0,0,1,1.34-.23l-.22.23a5.63,5.63,0,0,1-1.56.89,7.75,7.75,0,0,0-2.24,2.46h0l4.25-1.12-3.8,2.24a3.86,3.86,0,0,0,2.23.22,6.52,6.52,0,0,1,2-.44c.44,0,.89.22,1.34.22l-.23.22a5.41,5.41,0,0,1-1.79.23,7.8,7.8,0,0,0-3.13,1.34l4.25.67L57.26,28a2.82,2.82,0,0,0,2,.9,6.52,6.52,0,0,1,2,.44,5.09,5.09,0,0,1,1.12.9h-.23C61.48,30,61,30,60.36,29.79A5.83,5.83,0,0,0,57,30h0l3.58,2.24-4.7-1.12a2.37,2.37,0,0,0,1.34,1.57A4.72,4.72,0,0,1,59,33.81l.23-.23a5.06,5.06,0,0,0-1.79-1.12c-.23-.22-.67-.44-.9-.67L61,32.91l1.34.23h0l-1.12-.68-4-2.46a4.67,4.67,0,0,1,2.46,0,5,5,0,0,0,1.79.45,2.05,2.05,0,0,0,1.12-.22c.23,0,.67-.23.9-.23h-.9a5,5,0,0,1-1.79-1.11,6.25,6.25,0,0,0-2-.45c-.45,0-.67-.23-1.12-.45l4.7-.67,1.34-.22-1.34-.23-4.7-.67A6.6,6.6,0,0,1,60,25.28a4.34,4.34,0,0,0,1.79-.23c.22-.22.67-.22.89-.44a1.69,1.69,0,0,0,.67-.68.72.72,0,0,1-.67.68,5.9,5.9,0,0,1-2-.23,3.26,3.26,0,0,0-2,.45H57.49l4-2.24,1.12-.89-1.34.22L56.82,23a5.87,5.87,0,0,1,1.79-1.57,3.49,3.49,0,0,0,1.56-.89,2.94,2.94,0,0,0,.67-.9l.45-.89a2.94,2.94,0,0,1-.9.67,6.84,6.84,0,0,1-2,.45A4.78,4.78,0,0,0,56.59,21a1.71,1.71,0,0,1-.89.44l2.91-3.58.89-1.11h0l-1.12.89-3.8,2.69a6.78,6.78,0,0,1,.89-2.24,3.91,3.91,0,0,0,1.12-1.57c.23-.22.23-.67.23-1.12v-.89c-.23.22-.23.67-.45.89-.45.45-1.12.9-1.57,1.35a4.93,4.93,0,0,0-1.12,1.79c-.22.22-.44.67-.67.89L54.13,15l.45-1.57-.67,1.12L51.45,18.8a4.47,4.47,0,0,1,0-2.46,5.29,5.29,0,0,0,.44-1.79V13.42c0-.22-.22-.67-.22-.89a1.4,1.4,0,0,1-.22.89,4.93,4.93,0,0,1-1.12,1.79,6.84,6.84,0,0,0-.45,2,1.18,1.18,0,0,1-.45.9h0l-.67-4.7-.22-1.34h0l-.22,1.34-.68,4.7c-.22-.23-.22-.67-.44-.9a6.84,6.84,0,0,0-.45-2,4.93,4.93,0,0,1-1.12-1.79c0-.22-.22-.67,0-.89a1.4,1.4,0,0,0-.22.89,8.56,8.56,0,0,0-.23,1.12c.23.67.23,1.12.45,1.79a4.47,4.47,0,0,1,0,2.46l-2.24-4-.22-1.34.22,1.34,1.12,4.48a3.3,3.3,0,0,1-.67-.9,4.93,4.93,0,0,0-1.12-1.79,4,4,0,0,1-1.56-1.12,1.58,1.58,0,0,1-.45-.89v.89c0,.45.22.68.22.9.45.45.68.89,1.12,1.34a4,4,0,0,1,.9,2.24L39.37,17l-1.12-.89h0l.89,1.78,2.91,3.81a1.15,1.15,0,0,1-.89-.45,4.93,4.93,0,0,0-1.79-1.12,6.25,6.25,0,0,1-2-.45,3.3,3.3,0,0,0-.9-.67l.45.9c.22.22.45.67.67.89a5.92,5.92,0,0,0,1.56.9,11.58,11.58,0,0,1,1.79,1.56l-4.47-1.12-1.34-.22,1.12.67,4,2.24H39.14a6.84,6.84,0,0,0-2-.45,5.9,5.9,0,0,1-2,.23c-.23,0-.67-.23-.9-.23l.67.67a1.71,1.71,0,0,0,.9.45c.67,0,1.34.22,1.79.22a7,7,0,0,1,2.24.9l-4.7.67-1.34.22,1.34.23,4.7.67c-.23.22-.68.22-1.12.45a6.52,6.52,0,0,0-2,.44,4.6,4.6,0,0,1-1.79,1.12H34a1.4,1.4,0,0,0,.89.22c.45,0,.68.23,1.12.23.67-.23,1.12-.23,1.79-.45a4.67,4.67,0,0,1,2.46,0l-4,2.46-1.12.67h0l1.34-.22L41,32.21c-.22.22-.44.67-.89.67Z"/><path class="cls-2" d="M49.88,24.83V23.71h2.69a3.48,3.48,0,0,1,1.79,1.34c0,.23-.68-.44-1.35-.67a11.84,11.84,0,0,0-3.13.45"/><path class="cls-2" d="M52.57,25.5h-2c-.44.22-.67.67-.89.89,0,.23.22.23.45.23l.22-.23c.22-.22.45-.22.67-.44v.22a1,1,0,0,0,.89.9c.45,0,.9-.23.9-.68v-.22a1.58,1.58,0,0,1,.89.45c.23.22.68.45.68.22a16.68,16.68,0,0,1-1.79-1.34"/><path class="cls-2" d="M47.64,24.83l-.22-.9H44.74A3.47,3.47,0,0,0,43,25.28c0,.22.67-.45,1.34-.67a7.9,7.9,0,0,1,3.35.22"/><path class="cls-2" d="M45,25.5h1.79c.45.22.67.67.89.89,0,.23-.22.23-.44,0h0c-.23-.22-.45-.22-.67-.44v.22c0,.45-.23.9-.67.9s-.9-.23-.9-.68V26c-.22,0-.45.22-.89.44-.23.23-.68.45-.68.23A4,4,0,0,0,45,25.5"/><path class="cls-1" d="M26.17,59.5c0,16.78,10.29,30.42,22.82,30.42S71.8,76.28,71.8,59.5v-.45H26.17v.45"/><path class="cls-5" d="M49,29.08c-12.53,0-22.82,13.42-22.82,30H71.8c-.22-16.55-10.29-30-22.81-30"/><path class="cls-6" d="M55.25,51.67A33.11,33.11,0,0,0,54.8,47a32.74,32.74,0,0,1,.2-5,5.93,5.93,0,0,0-5.15-4.92c-4-.22-4.7,2-4.7,2.69s2,1.56,2.69,1.56a10.65,10.65,0,0,0-6.71,8.28c-.23,1.56,5.14,2.91,6.26,2.91s7.83,1.11,7.83-.9"/><path class="cls-7" d="M26.39,65.32S37.13,64.42,38.7,64c.89-.22,3.58-1.34,4.47-1.56a24.5,24.5,0,0,1,4-.45c.22,0,.89.67.89.67l1.57-1.56h2.46c.67,0,4,2,4.92,2.23,0,0,4.92.9,5.82,1.12s7.82,2,8.27,2c-.67,2.69-1.34,5.37-2.24,8.06a97.8,97.8,0,0,1-12.07-5.6c-.23-.22-.23,1.35-1.79,1.35a2.86,2.86,0,0,1-2.24.89,2.82,2.82,0,0,1-2,.9s.22.89-2.69.22c-.22,0-2,2-3.13,0,0,0-1.79.89-2.24-.67,0,0-1.34.89-1.56-1.12a1.52,1.52,0,0,1-1.79-.89,91.46,91.46,0,0,0-11,4,63.44,63.44,0,0,1-2-8.27"/><path class="cls-8" d="M40.49,72c-1.12-.45-6.49.44-9.85,5.81a15.08,15.08,0,0,0,1.57,2.46,20.72,20.72,0,0,0,2.24-3.8c1.79-4,6-4.25,6-4.47"/><path class="cls-8" d="M38.47,85c-1.11-4,2.24-7.16,1.79-7.16A9.54,9.54,0,0,0,36.46,85a9.89,9.89,0,0,0,2.46,1.79A4.31,4.31,0,0,1,38.47,85"/><path class="cls-8" d="M35.34,83.88c.23-.89.45-2,.67-2.91.23-4.25,4.48-5.81,4-6-1.12-.22-4.92,2-6.71,6.71a15.18,15.18,0,0,0,2,2.24"/><path class="cls-8" d="M57.71,75.61c-.22.22,3.8,1.78,4,6a8.34,8.34,0,0,0,.44,2.47,21.2,21.2,0,0,0,2-2.24c-1.79-4.25-5.59-6.49-6.49-6.26"/><path class="cls-8" d="M42.28,87.91c-2.46-3.36-.45-7.38-.67-7.38a9.55,9.55,0,0,0-1.35,6.93L43,88.8a2.79,2.79,0,0,1-.67-.89"/><path class="cls-8" d="M57.26,78.74c-.44,0,2.91,2.9,1.79,7.15,0,.45-.22.68-.22,1.12.67-.44,1.56-1.12,2.24-1.56a8.68,8.68,0,0,0-3.81-6.71"/><path class="cls-8" d="M55.92,81.42c-.45,0,1.79,3.8-.67,7.38h0a10.43,10.43,0,0,0,2.24-1.12,8.89,8.89,0,0,0-1.57-6.26"/><path class="cls-9" d="M57.71,66.88c-.67-.22-.45-.22-.89-.89-.23.67-.68.67-.68.67s-3.35-1.34-3.8-4.25c0,0-.67,2.23-1.79-.23,0,0-1.34,2.69-2.68,2.46s-1.57,0-1.57,0l.67.23H46.3a3.63,3.63,0,0,0,2.91,1.34c1.79-.22,1.79-.67,2-.89a12.71,12.71,0,0,1,3.36,2.46c0,.22-.45.22-.9.22-.89-.45-1.56-.89-2.46-1.34L55,69.79l1.56-.9V68a71,71,0,0,0,11.63,5.82A10.53,10.53,0,0,0,70,70.24a32.6,32.6,0,0,1-12.3-3.36"/><path class="cls-9" d="M49.66,67.78s2.23,1.79,2.91,1.79a.8.8,0,0,0,.74-.86.77.77,0,0,0-.07-.26C53,68.22,54.58,70,54.58,70l-1.12.67-1.12-.22Z"/><path class="cls-9" d="M48.54,69.57l2,2s.45.67,1.34,0,.68-.9.45-.9-.45-.67-.45-.67-.89.9-1.34.67-2-1.34-2-1.11"/><path class="cls-9" d="M27.51,69.57s11.86-2,13.65-2.46a12.13,12.13,0,0,1,4.7,1.11,20.18,20.18,0,0,0,2.46,1.12l2.68,2-.45.89h-2c-.9,0-1.79.67-2.68.67a1.51,1.51,0,0,1-1.13-.9,1.43,1.43,0,0,1-2-.23c-.22-.22-.22-.22-.22-.44a1.06,1.06,0,0,1-1.45-.39,1,1,0,0,1-.12-.73s-1.79.44-1.79-.9c0,0-9.84,3.13-11,4-.22-1.34-.44-2.69-.67-3.8"/><path class="cls-7" d="M47,70s-.67.67-1.11.67-1.35-.22-.68-.89,1.35-.67,1.57-.45.22,0,.22.67"/><path class="cls-7" d="M45,68.89a4.6,4.6,0,0,1-1.12.68c-.22,0-1.12-.23-.67-.9a1.48,1.48,0,0,1,1.57-.45c0,.45.22.23.22.67"/><path class="cls-10" d="M55,51.89c-.23.9-3.36,1.12-7.16.68s-6.71-1.79-6.71-2.69,3.35-1.12,7.16-.67S55,51,55,51.89"/><polygon class="cls-8" points="49.66 49.66 47.87 49.43 47.87 61.96 49.66 61.07 49.66 49.66"/><polygon class="cls-11" points="48.32 61.51 48.99 61.51 48.99 51.22 48.32 51 48.32 61.51"/><polygon class="cls-8" points="53.46 77.39 50.33 77.39 50.33 74.26 47.2 74.26 47.2 77.39 44.07 77.39 44.07 80.53 47.2 80.53 47.2 89.03 50.33 89.03 50.33 80.53 53.46 80.53 53.46 77.39"/><rect class="cls-11" x="47.2" y="74.49" width="3.13" height="0.22"/><polygon class="cls-11" points="50.1 77.62 50.33 77.84 53.24 77.84 53.24 77.62 50.1 77.62"/><rect class="cls-11" x="44.29" y="77.62" width="3.36" height="0.22"/><rect class="cls-11" x="47.64" y="74.71" width="0.22" height="3.36"/><polygon class="cls-11" points="47.65 86.34 47.87 86.34 47.87 80.53 47.65 80.08 47.65 86.34"/><path class="cls-2" d="M49.66,53c3.13.23,5.59,0,5.81-.89.67-4.25-.22-5.15-.22-5.15a3.8,3.8,0,0,0,0-3.13,5.86,5.86,0,0,0-4.47-6.93h-.45c-3.8-.67-5.37,1.56-5.59,2.46-.23,1.79,1.34,2,2.23,2a10.09,10.09,0,0,0-6.26,8.5C40.49,51,43.84,52.34,47.87,53l.22-.44c-3.58-.68-6.48-1.79-6.26-2.46s3.13-.9,6.71-.45,6.46,1.8,6.26,2.47-2.23.89-4.92.67Zm-8-4a9.78,9.78,0,0,1,7.82-7.61s-3.8-.22-4-1.56,2.23-2.69,4.7-2.24a4.64,4.64,0,0,1,4,4.92c-.22.89-2.24,1.34-3.13,1.34,1.79,0,3.13.23,2.91.67a3.38,3.38,0,0,1-3.36,1.12c2.24,1.34,2.46-.45,3.58,1.12.45.67,0,.89-2.46,0-4-1.12-5.14-.67-5.14-.67a16.91,16.91,0,0,1,7.15,2.46,1.8,1.8,0,0,1,.45,2,25.22,25.22,0,0,0-5.81-1.79,22.55,22.55,0,0,0-6.76.24Z"/><polygon class="cls-12" points="49.88 49.66 47.87 49.21 47.87 61.96 49.88 61.07 49.88 49.66"/><path class="cls-2" d="M68.89,73.82A115.31,115.31,0,0,1,57,68.45l-.9-.67a21.28,21.28,0,0,0-4.47-3.36,7.18,7.18,0,0,1-1.12-1.56c.45,1.56-.89,1.34-1.56,2.23s-1.79,0-2.24-.22,1.12-1.12,2.46-2.46c.22-.45.22-.9,1.79-.67s2,.22,2.46.67a14.9,14.9,0,0,0,4.25,2,12.56,12.56,0,0,1,4.92.9,52.75,52.75,0,0,0,8.5,2c-.67,2-1.34,4.25-2.24,6.49m-13.6-4.23A47.6,47.6,0,0,1,51,66.66l.67.67a11.63,11.63,0,0,1,2.24,2.46c.22.45-.67.67-1.12.67a31.92,31.92,0,0,1-2.91-2c.45.67,2.24,2.23,2.24,2.68s-.67.45-1.12.45l-2-1.34c.67.89.89,1.34,1.12,1.56S49.43,72,49,72h-.23a.83.83,0,0,0,.23-.67c0-.45-.45-.9-1.79-.9,0,0,.44-1.79-2-1.34-.67-.9-1.11-1.12-2.9-.45a1.46,1.46,0,0,0-2-.45.22.22,0,0,0-.22.22h0c-.22.22-.67.44-.67.89-2.69.67-11.19,3.8-11.19,3.8A26.51,26.51,0,0,1,26.39,66a86.09,86.09,0,0,0,13-1.57c.89-.22,3.35-1.34,4.25-1.56a17.15,17.15,0,0,1,3.58-.23l.44.23a9.7,9.7,0,0,0-1.78,2c0,.22.44.67,1.78.89,2,.23,2.24-1.12,3.14-1.12a.8.8,0,0,0,.67.23l.22.22.67.45c1.12.89,2.91,2.24,3.58,2.91s-.45,1.12-.67,1.12Zm-9,3.35c-.22,0-1.12-.45-.67-.67a12.28,12.28,0,0,0,1.79-1.34c.45,0,1.79.45.9.89a4.57,4.57,0,0,1-2,1.12Zm-2.68-.67c-.67-.22,0-1.12.89-1.79s1.35-1.34,2.46-.67c.23.45-.67,1.12-1.11,1.57A4.82,4.82,0,0,1,43.57,72.25ZM42,71.36a1.67,1.67,0,0,1,.23-1.79c.22-.23,1.34-1.35,2.23-.68.45.23-.22.9-.89,1.57A3.8,3.8,0,0,1,42,71.36ZM40.26,70c-.44-.22-.22-.89.23-1.34s1.12-.67,1.34-.22a1,1,0,0,1,0,1.12C41.38,69.57,40.71,70.24,40.26,70Zm30.87-4a40.06,40.06,0,0,1-8.95-2.24,34,34,0,0,0-4.69-.89c-2-.68-4.25-2.47-4.92-2.24s-3.14-.45-3.58.22c-.23.23-.45.67-.67.9-.45-.23-.68-.45-1.12-.45H43.84c-.67,0-3.8,1.79-4.7,2a78.42,78.42,0,0,1-12.52,1.12,40.34,40.34,0,0,0,2.24,9,87.55,87.55,0,0,1,10.73-4,.23.23,0,0,0,.23.23h0a2,2,0,0,0,1.56.67c0,.44,0,1.56,1.57,1.34a1.51,1.51,0,0,0,2,.81,2,2,0,0,0,.25-.14c.23.67,1.12,1.34,2.46.45.23-.23.45-.23.68-.45h0c.67.45,2.46.89,3.13-.45A1.27,1.27,0,0,0,53,71s0,0,0-.07,1.57.45,2-.9c0,0,1.79.23,2-1.34,3.8,2,7.6,3.8,11.63,5.59a77,77,0,0,0,2.24-7.6l.22-.67Z"/><path class="cls-2" d="M40.26,74.71c-.89-.45-5.37,1.34-7.38,6.49l.45.44C35.12,77,38.92,74.71,40,74.93c.22.23-3.8,1.79-4,6a11.52,11.52,0,0,1-.44,2.91l.44.45c.23-.9.23-1.79.45-2.69,0-5.59,4.47-6.71,3.8-6.93"/><path class="cls-2" d="M40.49,77.62c-.9,0-3.81,2.46-4.48,6.93l.45.45a8.7,8.7,0,0,1,4-6.93c.44,0-2.91,2.9-1.79,7.15.22.67.22,1.12.44,1.79l.68.45a4.3,4.3,0,0,0-.45-1.57c-1.79-5.59,1.79-8.27,1.12-8.27"/><path class="cls-2" d="M41.83,80.3c-.67.23-2.46,3.13-2,7.16l.67.22a8.42,8.42,0,0,1,1.34-6.93c.22,0-1.79,3.8.67,7.38.22.23.45.67.67.9l.67.22-.67-.89c-3.35-4.48-.67-8.28-1.34-8.06"/><path class="cls-2" d="M61.74,81.64c-.23-4.25-4.48-5.81-4-6,1.12-.23,4.7,2,6.49,6.48l.44-.45c-2-4.92-6.48-6.48-7.15-6s3.8,1.34,4.25,6.93c0,.67.22,1.57.22,2.24l.45-.45a6,6,0,0,1-.67-2.69"/><path class="cls-2" d="M57,78.51c-.67,0,3.13,2.69,1.57,7.83l-.23.9.45-.45c0-.45.22-.67.22-1.12,1.12-4-2.23-7.16-1.79-7.16A8.64,8.64,0,0,1,61.07,85l.44-.45c-.89-3.8-3.8-6.26-4.47-6"/><path class="cls-2" d="M55.7,81c-.67-.22,2,3.58-1.12,7.83l.67-.22h0c2.46-3.36.45-7.38.67-7.38a7.73,7.73,0,0,1,1.34,6.26l.45-.22a7.65,7.65,0,0,0-2-6.27"/><path class="cls-2" d="M40.71,72C40,71.36,34,71.36,30.2,77.39a.77.77,0,0,0,.22.45c3.13-4.92,7.38-6,8.95-5.59a8.83,8.83,0,0,0-5.15,4.25A21.57,21.57,0,0,1,32,80.3c0,.23.22.23.22.45a11.17,11.17,0,0,0,2-3.58C36.91,72,41.38,72.7,40.71,72"/><path class="cls-2" d="M50.11,74.49v3.13h3.13v2.46H50.11v8.5H47.64v-8.5H44.51V77.62h3.13V74.49ZM47,74v3.13H43.84V81H47v8.5h3.81V81h3.13V77.2H50.78V74Z"/><path class="cls-2" d="M50.55,82.09c.67.67,2,1.12,1.57,2.69.45-1.12.67-1.79,3.13-2.24-.89,2.46-1.34,1.79-1.34,4a3,3,0,0,1-1.79,2.9,13.74,13.74,0,0,1-6.71.23c-2.69-.9-3.58-4.7-1.79-6.27,1.12,3.14.22,1.12,1.56,2.24a4.55,4.55,0,0,1,1.35-5.14c0,2.9.67,2.68,1.56,5.59,0-1.34.9-1.12.67-4.48a5.64,5.64,0,0,1,1.79,4c.23-2.46.67-1.56,0-3.58"/><path class="cls-13" d="M51,82.76a3.5,3.5,0,0,1,.89,3.58c.45-1.12.68-2.91,2.69-3.35-.67,2-1.34,1.79-1.34,3.8a3,3,0,0,1-1.79,2.46,14.74,14.74,0,0,1-6.27.22A3.57,3.57,0,0,1,42.93,85l.07-.18c0-.23,0-.23.22-.45,1.12,3.13.22-.45,2.69,3.35a7.12,7.12,0,0,1,0-6.71c0,2.46,1.56,3.58,2,6.94,0-2.24.89-3.13.89-5.37,2,2,.9,3.58,1.12,4.47.67-2,1.57-2,1.12-4.25"/><path class="cls-3" d="M44.51,88.8a2.55,2.55,0,0,1-.67-1.8s1.12,1.57,2.24,1.35c.22,0-.22-1.12,0-2.24a4.13,4.13,0,0,0,1.56,2.68A2.7,2.7,0,0,0,49,85.89a3.23,3.23,0,0,1,.44,1.57v.9s.45.22.9-.9A11.35,11.35,0,0,0,51,86.34a1.82,1.82,0,0,1,.22,1.57s.67-1.57,1.35-1.79c-.45.67-.23,2.24-1.12,3.35a13.8,13.8,0,0,1-6,0c-.23-.67-.45-.67-.9-.67"/><path class="cls-2" d="M26.62,59.5c0-16.55,10.06-30,22.37-30S71.36,43,71.36,59.5s-10.29,30-22.6,30-22.37-13.42-22.14-30m-1.12,0c0,17,10.51,30.87,23.26,30.87S72,76.5,72,59.5,61.51,28.63,48.76,28.63,25.5,42.5,25.5,59.5Z"/><path class="cls-14" d="M37.58,32.88a5.09,5.09,0,0,0-2.91.67A4,4,0,0,0,34.45,30s-1.34,1.57-1.12,2.46.67,2,.22,2.46a6.44,6.44,0,0,1,2-.22,5.15,5.15,0,0,0,2-1.79"/><path class="cls-15" d="M34.22,30.2a4.28,4.28,0,0,1,.45,2.91c-.22,1.34-.67-1.12-.45-1.79V30.2"/><path class="cls-15" d="M37.58,32.66s-1.12,1.79-2.46,1.56,2.46-1.56,2.46-1.56"/><path class="cls-2" d="M35.34,34.45c-.67,0-1.34.22-2,.22.45-.45,0-1.56-.22-2.46s1.11-2.46,1.11-2.46a4.52,4.52,0,0,1,.23,3.8c1.12-.44,2.46-.89,2.91-.67a2.5,2.5,0,0,1-2,1.57m2.91-1.79a5.9,5.9,0,0,0-2-.23c-.45.23-.9.23-1.35.45.9-1.34-.67-3.8-.89-3.8a7.18,7.18,0,0,0-1.12,1.56,3.31,3.31,0,0,0,0,2.91c.45,1.12-.89,2.69-.89,2.69.89-.9,1.34-.9,2.9-.9a6.28,6.28,0,0,0,3.36-2.68Z"/><path class="cls-14" d="M34.45,35.12c-.45-.45-1.79.22-2.91.67a4,4,0,0,0-.22-3.58S30,33.78,30.2,34.67s.67,2,.22,2.46a6.44,6.44,0,0,1,2-.22,3.2,3.2,0,0,0,2-1.79"/><path class="cls-15" d="M31.32,32.43a4.27,4.27,0,0,1,.44,2.91c-.22,1.34-.67-1.12-.44-1.79V32.43"/><path class="cls-15" d="M34.67,35.12s-1.12,1.79-2.46,1.56,2.46-1.56,2.46-1.56"/><path class="cls-2" d="M32.21,36.91c-.67,0-1.34.22-2,.22.44-.45,0-1.56-.23-2.46s1.12-2.46,1.12-2.46a4.07,4.07,0,0,1,.23,3.58c1.11-.45,2.46-.9,2.9-.67a2.41,2.41,0,0,1-2,1.79m3.13-2a6.44,6.44,0,0,0-2-.22L32,35.34c.89-1.56-.67-4-.9-3.8A4,4,0,0,0,30,33.11,3.33,3.33,0,0,0,30,36c.45,1.12-.89,2.69-.89,2.69.89-.9,1.34-.9,2.91-1.12s3.35-2.69,3.35-2.69Z"/><path class="cls-14" d="M32.43,37.8c-.67-.22-1.79.23-2.9.9a4.06,4.06,0,0,0-.45-3.58s-1.34,1.56-.9,2.46.9,2,.45,2.46a6.92,6.92,0,0,1,1.79-.45c.9-.45,1.79-.89,2-1.79"/><path class="cls-15" d="M29.08,35.34a6.13,6.13,0,0,1,.67,2.91c-.22,1.34-.67-1.12-.67-1.79V35.34"/><path class="cls-15" d="M32.66,37.58s-.9,2-2.24,1.79,2.24-1.79,2.24-1.79"/><path class="cls-2" d="M30.42,39.37a4.16,4.16,0,0,0-1.79.45c.45-.45,0-1.57-.45-2.46s.9-2.47.9-2.47a5.21,5.21,0,0,1,.67,3.58c.89-.44,2.24-1.11,2.91-.89a3.42,3.42,0,0,1-2.24,1.79m2.91-2a3,3,0,0,0-2,0A4.31,4.31,0,0,0,30.2,38c.67-1.57-1.12-3.81-1.34-3.81-.45.45-.68,1.12-1.12,1.57A2.75,2.75,0,0,0,28,38.7c.67,1.12-.67,2.68-.67,2.68.89-.89,1.12-.89,2.91-1.12s3.09-2.9,3.09-2.9Z"/><path class="cls-14" d="M30.87,40.26c-.67-.22-1.79.67-2.69,1.12A3.66,3.66,0,0,0,27.07,38s-1.12,1.79-.68,2.68,1.12,1.79.68,2.46c.67-.22,1.11-.67,1.79-.67a4.94,4.94,0,0,0,2-2.24"/><path class="cls-15" d="M27.07,38.25a4.12,4.12,0,0,1,1.11,2.68c0,1.35-.89-1.11-.89-1.56a10.55,10.55,0,0,1-.22-1.12"/><path class="cls-15" d="M30.87,40.26s-.67,2-2,2,2-2,2-2"/><path class="cls-2" d="M28.86,42.28a12.86,12.86,0,0,0-1.79.67,3.74,3.74,0,0,0-.68-2.46c-.44-.9.68-2.69.68-2.69A3.49,3.49,0,0,1,28,41.38c.9-.67,2.24-1.34,2.68-1.12a2.73,2.73,0,0,1-1.78,2m2.68-2.46a6.44,6.44,0,0,0-2,.22c-.45.22-.67.45-1.12.67.67-1.57-1.57-3.58-1.79-3.58-.23.67-.67,1.12-.9,1.79a2.42,2.42,0,0,0,.45,2.69c.67.89-.22,2.68-.22,2.68.67-1.12.89-1.12,2.68-1.57s2.86-2.88,2.86-2.88Z"/><path class="cls-14" d="M29.3,43.17c-.67-.22-1.79.9-2.68,1.57a4.22,4.22,0,0,0-1.34-3.36s-.9,2-.23,2.69,1.34,1.79,1.12,2.23A4.66,4.66,0,0,1,28,45.41a5.3,5.3,0,0,0,1.34-2.24"/><path class="cls-15" d="M25.28,41.61a3.87,3.87,0,0,1,1.34,2.68c.22,1.57-.9-.9-1.12-1.57a1.66,1.66,0,0,0-.22-1.11"/><path class="cls-15" d="M29.3,43s-.44,2.23-1.79,2.23S29.3,43,29.3,43"/><path class="cls-2" d="M27.74,45.41A6.66,6.66,0,0,0,26,46.3c.22-.67-.45-1.56-1.12-2.23s.22-2.69.22-2.69a4.74,4.74,0,0,1,1.57,3.36c.89-.9,2-1.79,2.68-1.57a4.13,4.13,0,0,1-1.56,2.24M30,42.5a6.53,6.53,0,0,0-2,.5c-.45.22-.67.67-1.12.89.45-1.79-2-3.58-2.23-3.35l-.68,2a3.08,3.08,0,0,0,.9,2.68c.89.9.22,2.91.22,2.91a3.83,3.83,0,0,1,2.46-2C29.08,45.41,30,42.5,30,42.5Z"/><path class="cls-14" d="M28,46.3c-.67,0-1.57,1.12-2.46,2a4,4,0,0,0-2-3.36s-.67,2,0,2.91,1.56,1.56,1.34,2.24A6.75,6.75,0,0,1,26.39,49,3.42,3.42,0,0,0,28,46.3"/><path class="cls-15" d="M23.71,45.18a5.12,5.12,0,0,1,1.79,2.46c.45,1.35-1.12-.89-1.34-1.34,0-.44-.23-.67-.45-1.12"/><path class="cls-15" d="M28,46.08s0,2.24-1.57,2.46S28,46.08,28,46.08"/><path class="cls-2" d="M26.62,48.76a4.16,4.16,0,0,0-1.57,1.12c.23-.67-.67-1.34-1.34-2.24s0-2.9,0-2.9a4.79,4.79,0,0,1,2,3.35c.9-.89,1.79-2,2.46-2a4.13,4.13,0,0,1-1.56,2.68m2-3.13a3.6,3.6,0,0,0-2,.67c-.23.45-.67.67-.9,1.12.23-1.79-2.46-3.35-2.68-3.13-.22.67-.22,1.34-.45,2A3.21,3.21,0,0,0,23.93,49c.9.89.45,2.68.45,2.68.45-1.34.67-1.34,2.24-2.24s2-3.8,2-3.8Z"/><path class="cls-14" d="M26.84,49.43c-.67,0-1.56,1.35-2.23,2.24a3.84,3.84,0,0,0-2.24-2.91s-.45,2.24.45,2.91,1.79,1.34,1.56,2c.45-.44.9-1.11,1.57-1.34a3.53,3.53,0,0,0,.89-2.91"/><path class="cls-15" d="M22.59,49a4.92,4.92,0,0,1,2,2.23c.67,1.35-1.35-.67-1.35-1.11-.22-.45-.44-.68-.67-1.12"/><path class="cls-15" d="M26.84,49.21s.23,2.24-1.12,2.68,1.12-2.68,1.12-2.68"/><path class="cls-2" d="M26,52.12a10,10,0,0,0-1.57,1.34c0-.67-.89-1.34-1.56-2s-.45-2.69-.45-2.69a5.8,5.8,0,0,1,2.46,3.13c.67-1.11,1.56-2.23,2.24-2.23A3.57,3.57,0,0,1,26,52.12m1.56-3.36a3.1,3.1,0,0,0-1.79,1.12c-.67.9-.67,1.12-.67,1.12,0-1.79-2.91-2.91-3.13-2.91v2a2.75,2.75,0,0,0,1.57,2.46c1.12.67.89,2.68.89,2.68.23-1.34.45-1.57,2-2.68s1.12-3.81,1.12-3.81Z"/><path class="cls-14" d="M26.17,53c-.67,0-1.34,1.35-2,2.46a4,4,0,0,0-2.69-2.68s-.22,2.24.67,2.68,1.79,1.12,1.79,1.79a9.11,9.11,0,0,1,1.35-1.56A2.58,2.58,0,0,0,26.17,53"/><path class="cls-15" d="M21.92,53a6.92,6.92,0,0,1,2.46,2c.67,1.34-1.34-.45-1.56-1.12a3.21,3.21,0,0,1-.9-.9"/><path class="cls-15" d="M26.17,52.79s.45,2.24-.89,2.91.89-2.91.89-2.91"/><path class="cls-2" d="M25.5,55.7a9.51,9.51,0,0,0-1.34,1.56c0-.67-.9-1.34-1.79-1.79s-.67-2.68-.67-2.68a4.55,4.55,0,0,1,2.68,2.68c.67-1.11,1.34-2.46,2-2.46a3.91,3.91,0,0,1-.89,2.69m1.12-3.36a4.93,4.93,0,0,0-1.79,1.12l-.67,1.34C23.93,53,21,52.12,20.8,52.34a6.16,6.16,0,0,0,.23,2c0,.89.67,1.56,1.79,2.23s1.11,2.69,1.11,2.69c.23-1.35.45-1.57,1.57-2.91s1.12-4,1.12-4Z"/><path class="cls-14" d="M26,56.37c-.67.22-1.34,1.56-1.79,2.68a3.66,3.66,0,0,0-2.91-2.46s0,2.24.89,2.69,2,1.11,2,1.79a3.91,3.91,0,0,1,1.12-1.57A4.24,4.24,0,0,0,26,56.37"/><path class="cls-15" d="M21.47,56.59a6.34,6.34,0,0,1,2.46,1.79c.9,1.34-1.34-.45-1.56-.89s-.67-.67-.9-.9"/><path class="cls-15" d="M26,56.14s.67,2.24-.67,2.91.67-2.91.67-2.91"/><path class="cls-2" d="M25.28,59.05a6.42,6.42,0,0,0-1.12,1.57c0-.67-1.12-1.12-2-1.79s-.89-2.69-.89-2.69a5.36,5.36,0,0,1,2.91,2.47c.45-1.12,1.12-2.47,1.79-2.69a3.53,3.53,0,0,1-.67,3.13m.89-3.58a2.34,2.34,0,0,0-1.56,1.35,3,3,0,0,0-.45,1.34c-.45-1.79-3.36-2.46-3.58-2.24,0,.67.22,1.34.22,2a2.65,2.65,0,0,0,2,2.24c1.11.45,1.34,2.46,1.34,2.46,0-1.34.22-1.56,1.56-2.91a5.45,5.45,0,0,0,.45-4.24Z"/><path class="cls-14" d="M25.72,59.5c-.67.22-1.34,1.57-1.79,2.68A4.36,4.36,0,0,0,21,59.5s0,2.24.89,2.68,2,1.12,2,1.79A4.24,4.24,0,0,1,25,62.41a3.39,3.39,0,0,0,.67-2.91"/><path class="cls-15" d="M21.25,60a6.17,6.17,0,0,1,2.46,1.79c.9,1.34-1.34-.45-1.57-.9a1.68,1.68,0,0,0-.89-.89"/><path class="cls-15" d="M25.72,59.28s.67,2.23-.67,2.9.67-2.9.67-2.9"/><path class="cls-2" d="M25.28,62.41A6.81,6.81,0,0,0,24.16,64c0-.67-1.12-1.11-2-1.79s-.89-2.68-.89-2.68a4.93,4.93,0,0,1,2.91,2.68c.45-1.11,1.12-2.46,1.79-2.68a6.37,6.37,0,0,1-.67,2.91m.89-3.58s-1.34.67-1.56,1.34L24,61.54c-.44-1.79-3.35-2.46-3.57-2.23a6.44,6.44,0,0,0,.22,2,2.91,2.91,0,0,0,2,2.24C23.71,64,23.93,66,23.93,66c0-1.35.23-1.57,1.57-2.91a7.2,7.2,0,0,0,.67-4.26Z"/><path class="cls-14" d="M25.72,62.63c-.67.23-1.11,1.57-1.56,2.91A5.82,5.82,0,0,0,21,63.08s.22,2.24,1.11,2.68,2,.9,2,1.57a7.7,7.7,0,0,1,1.12-1.79,2.82,2.82,0,0,0,.44-2.91"/><path class="cls-15" d="M21.47,63.3a5.46,5.46,0,0,1,2.69,1.57c.89,1.12-1.34-.23-1.79-.9-.45,0-.67-.44-.9-.67"/><path class="cls-15" d="M25.72,62.63s.67,2.24-.44,3.13.44-3.13.44-3.13"/><path class="cls-2" d="M25.5,65.54a4.93,4.93,0,0,0-1.12,1.79c0-.67-1.12-1.12-2-1.57s-1.12-2.68-1.12-2.68a4.32,4.32,0,0,1,3.13,2.46c.45-1.12.9-2.68,1.57-2.91a4.05,4.05,0,0,1-.45,2.91M26.17,62s-1.34.67-1.56,1.57c-.23.44-.23.89-.45,1.34-.45-1.79-3.58-2.24-3.8-2a6.52,6.52,0,0,0,.44,2,3,3,0,0,0,2.24,2c1.34.45,1.57,2.46,1.57,2.46,0-1.34.22-1.56,1.34-3.13A5.61,5.61,0,0,0,26.17,62Z"/><path class="cls-14" d="M26.39,66.21c-.67.22-1.11,1.79-1.34,2.91a4.66,4.66,0,0,0-3.13-2.24s.22,2.24,1.34,2.69,2,.67,2.24,1.34a13,13,0,0,1,.89-1.79,6.22,6.22,0,0,0,0-2.91"/><path class="cls-15" d="M21.92,67.11a4.15,4.15,0,0,1,2.69,1.56c.89,1.12-1.35-.22-1.79-.67-.23-.45-.68-.67-.9-.89"/><path class="cls-15" d="M26.17,66s.9,2-.22,3.13.22-3.13.22-3.13"/><path class="cls-2" d="M26.17,69.12a6.38,6.38,0,0,0-.89,1.79c-.23-.67-1.35-1.12-2.24-1.34s-1.34-2.69-1.34-2.69a4.66,4.66,0,0,1,3.13,2.24c.22-1.12.67-2.69,1.34-2.91a3.31,3.31,0,0,1,0,2.91m.45-3.8s-1.34.89-1.57,1.56a2.92,2.92,0,0,0-.22,1.34c-.67-1.79-3.8-2-3.8-1.79a6.74,6.74,0,0,0,.67,2,2.61,2.61,0,0,0,2.46,1.79C25.5,70.46,26,72.7,26,72.7c-.23-1.34,0-1.57,1.12-3.13a13.83,13.83,0,0,0-.45-4.25Z"/><path class="cls-14" d="M27.07,69.34c-.68.23-.9,1.79-1.12,3.13a4.83,4.83,0,0,0-3.36-2s.45,2.24,1.57,2.46,2.23.67,2.23,1.34a8.18,8.18,0,0,1,.9-2,4.54,4.54,0,0,0-.22-2.91"/><path class="cls-15" d="M22.59,70.68A4,4,0,0,1,25.5,72c1.12,1.11-1.34,0-1.79-.45a4,4,0,0,0-1.12-.9"/><path class="cls-15" d="M26.84,69.34s1.12,2,0,3.13,0-3.13,0-3.13"/><path class="cls-2" d="M27.07,72.47a7.67,7.67,0,0,0-.9,2c-.22-.67-1.34-.9-2.24-1.35s-1.56-2.68-1.56-2.68a4.17,4.17,0,0,1,3.35,2c.23-1.11.45-2.68,1.12-3.13a3.18,3.18,0,0,1,.23,3.13m0-3.8a3.5,3.5,0,0,0-1.35,1.79,2.92,2.92,0,0,0-.22,1.34c-.89-1.56-4-1.79-4-1.56l.67,2A3.48,3.48,0,0,0,24.61,74c1.34.22,1.78,2.24,1.78,2.24-.22-1.35,0-1.57.9-3.14a6.11,6.11,0,0,0-.22-4.47Z"/><path class="cls-14" d="M27.74,72.25c-.67.45-.9,2-.9,3.13a4.43,4.43,0,0,0-3.58-1.56s.67,2.23,1.79,2.46,2.24.44,2.46,1.11l.67-2a4.92,4.92,0,0,0-.44-3.13"/><path class="cls-15" d="M23.49,73.82a5.13,5.13,0,0,1,3.13.89c1.12,1.12-1.34,0-2-.45a2.38,2.38,0,0,1-1.12-.44"/><path class="cls-15" d="M27.74,72s1.34,2,.22,3.13S27.74,72,27.74,72"/><path class="cls-2" d="M28.18,75.16l-.67,2c-.22-.67-1.34-.89-2.46-1.12s-1.79-2.23-1.79-2.23a4.43,4.43,0,0,1,3.58,1.56c.23-1.34.23-2.91.9-3.13a4,4,0,0,1,.44,2.91m-.44-3.8a4.68,4.68,0,0,0-1.12,1.78,4.4,4.4,0,0,1-.23,1.57c-.89-1.57-4-1.34-4.25-1.12a8.18,8.18,0,0,0,.9,2,3.41,3.41,0,0,0,2.68,1.56c1.35,0,2,2,2,2-.45-1.34-.23-1.56.44-3.35a4.41,4.41,0,0,0-.42-4.43Z"/><path class="cls-14" d="M29.08,75.16c-.67.45-.45,2-.45,3.35a4.86,4.86,0,0,0-3.8-1.12s.89,2,2,2.24,2.24,0,2.69.67a6.52,6.52,0,0,1,.44-2,5.13,5.13,0,0,0-.89-3.13"/><path class="cls-15" d="M24.83,77.39a3.85,3.85,0,0,1,3.13.68c1.34.89-1.57.22-2-.23a3.76,3.76,0,0,1-1.12-.45"/><path class="cls-15" d="M28.86,74.93s1.56,1.79.67,3.14-.67-3.14-.67-3.14"/><path class="cls-2" d="M29.75,78.07a6.84,6.84,0,0,0-.45,2c-.22-.67-1.56-.67-2.68-.67s-2-2.24-2-2.24a4.82,4.82,0,0,1,3.8,1.12c0-1.34,0-2.91.45-3.36a3.35,3.35,0,0,1,.89,3.14m-.67-3.81a3.35,3.35,0,0,0-.9,2v1.56c-1.11-1.56-4.25-.67-4.25-.67A5,5,0,0,0,25.05,79,2.9,2.9,0,0,0,28,80.08c1.34,0,2.46,1.79,2.46,1.79-.45-1.34-.45-1.57.22-3.36a11,11,0,0,0-1.6-4.25Z"/><path class="cls-14" d="M30.42,78.07c-.45.44-.22,2,0,3.35a5.12,5.12,0,0,0-4-.67s1.35,1.79,2.47,1.79,2.23-.22,2.68.45V80.75a3.32,3.32,0,0,0-1.12-2.68"/><path class="cls-15" d="M26.84,80.75a3.8,3.8,0,0,1,3.13,0c1.35.67-1.34.45-2,.22a1.69,1.69,0,0,0-1.12-.22"/><path class="cls-15" d="M30.2,77.84s1.79,1.57,1.12,2.91-1.12-2.91-1.12-2.91"/><path class="cls-2" d="M31.54,80.75V83c-.45-.67-1.57-.45-2.68-.45s-2.47-1.79-2.47-1.79a4.35,4.35,0,0,1,4,.67c-.22-1.34-.45-2.91,0-3.35a2.73,2.73,0,0,1,1.12,2.68m-1.12-3.58a3.74,3.74,0,0,0-.67,2.24c0,.45.22.89.22,1.56-1.34-1.34-4.25,0-4.47,0a10,10,0,0,0,1.34,1.57,2.91,2.91,0,0,0,2.91.67c1.34-.22,2.68,1.34,2.68,1.34-.67-1.34-.67-1.56-.44-3.35s-1.57-4-1.57-4Z"/><path class="cls-14" d="M32.21,81c-.45.67,0,2,.22,3.36a4.26,4.26,0,0,0-4-.22S30,85.92,30.89,85.7s2.24-.45,2.68,0a7.69,7.69,0,0,1-.22-2.24A1.91,1.91,0,0,0,32.24,81h0"/><path class="cls-15" d="M28.86,84.11A5.2,5.2,0,0,1,32,83.88c1.56.45-1.35.45-2,.45a1.66,1.66,0,0,0-1.11-.22"/><path class="cls-15" d="M32.21,80.75s2,1.34,1.34,2.91-1.34-2.91-1.34-2.91"/><path class="cls-2" d="M33.78,83.66A7.62,7.62,0,0,0,34,85.89c-.45-.44-1.79-.22-2.68,0s-2.46-1.56-2.46-1.56a4.29,4.29,0,0,1,4,.22c-.45-1.12-.67-2.68-.22-3.35a4.14,4.14,0,0,1,1.12,2.46M32.21,80.3a4.06,4.06,0,0,0-.45,2.24,3.23,3.23,0,0,0,.45,1.34c-1.57-1.12-4.25.23-4.47.45a9.59,9.59,0,0,0,1.56,1.56,3.11,3.11,0,0,0,3.13.45c1.35-.45,2.69,1.12,2.69,1.12-.9-1.12-.9-1.57-.67-3.35S32.21,80.11,32.21,80.3Z"/><path class="cls-14" d="M34.67,83.66c-.45.67.22,2,.67,3.35a4.24,4.24,0,0,0-4,.23S32.88,88.8,34,88.58s2.24-.67,2.68-.22a7.06,7.06,0,0,1-.22-2.24,4.58,4.58,0,0,0-1.79-2.46"/><path class="cls-15" d="M31.54,87.24a4.92,4.92,0,0,1,3.13-.45c1.57.45-1.34.67-2,.67a1.69,1.69,0,0,0-1.12-.22"/><path class="cls-15" d="M34.45,83.66s2,1.12,1.56,2.68-1.34-2.68-1.56-2.68"/><path class="cls-2" d="M36.46,86.34c0,.67.22,1.34.22,2.24-.44-.45-1.79,0-2.68.22s-2.68-1.56-2.68-1.56a4.29,4.29,0,0,1,4-.23c-.45-1.12-1.12-2.68-.67-3.35a4.41,4.41,0,0,1,1.79,2.68m-2-3.35a3.79,3.79,0,0,0-.23,2.23l.67,1.35c-1.56-1.12-4.25.67-4.25.89a11.76,11.76,0,0,0,1.79,1.34,2.7,2.7,0,0,0,3.14,0c1.34-.44,2.9.9,2.9.9-.89-1.12-.89-1.34-1.11-3.36s-2.9-3.58-2.9-3.34Z"/><path class="cls-14" d="M37.36,86.12c-.23.67.67,2,1.34,3.13a4.57,4.57,0,0,0-4,1.12s2,1.34,2.91.67,2-1.12,2.68-.67a3.6,3.6,0,0,1-.67-2,3.17,3.17,0,0,0-2.23-2.24"/><path class="cls-15" d="M34.89,90.14A5.34,5.34,0,0,1,38,89c1.56,0-1.12.89-1.79.89a3,3,0,0,0-1.35.22"/><path class="cls-15" d="M37.13,85.89s2.24.68,2.24,2.47-2.24-2.47-2.24-2.47"/><path class="cls-2" d="M39.37,88.13l.67,2c-.67-.44-1.79.23-2.68.68s-2.91-.9-2.91-.9a4.28,4.28,0,0,1,4-.89c-.67-1.12-1.56-2.46-1.34-3.14a3.2,3.2,0,0,1,2.24,2.24m-2.46-2.91a3.91,3.91,0,0,0,.22,2.24A4.73,4.73,0,0,0,38,88.8c-1.79-.67-4.25,1.57-4,1.79a8.18,8.18,0,0,0,2,.9A3.16,3.16,0,0,0,39.14,91c1.12-.67,3.14.22,3.14.22-1.12-.89-1.12-1.12-1.79-2.9s-3.58-3.1-3.58-3.1Z"/><path class="cls-14" d="M40.49,88.13c-.23.67.89,2,1.79,2.91a4.81,4.81,0,0,0-3.81,1.79s2.24.89,3.14.22,1.78-1.56,2.46-1.34A7.39,7.39,0,0,1,43,89.92a3.49,3.49,0,0,0-2.46-1.79"/><path class="cls-15" d="M38.92,92.61a6.35,6.35,0,0,1,2.91-1.79c1.56-.23-.9,1.11-1.57,1.34-.44.22-.89.22-1.34.45"/><path class="cls-15" d="M40.26,88.13s2.46.45,2.69,2-2.69-2-2.69-2"/><path class="cls-2" d="M43.17,89.92a4.93,4.93,0,0,0,1.12,1.79c-.67-.22-1.57.45-2.46,1.12s-3.13-.22-3.13-.22a4.78,4.78,0,0,1,3.8-1.79c-.89-.9-2-2.24-1.79-2.91a7,7,0,0,1,2.46,2m-3.35-2.46a3.74,3.74,0,0,0,.67,2.24c.22.44.67.67,1.12,1.12-2-.45-3.81,2.23-3.81,2.46.67.22,1.57.44,2.24.67a2.92,2.92,0,0,0,3-1.11c.89-.9,3.13-.22,3.13-.22-1.34-.68-1.34-.9-2.24-2.69s-4.07-2.46-4.07-2.46Z"/><path class="cls-14" d="M60.17,32.88a5.09,5.09,0,0,1,2.91.67A4,4,0,0,1,63.3,30s1.34,1.57,1.12,2.46-.67,2-.22,2.46a6.44,6.44,0,0,0-2-.22,5.15,5.15,0,0,1-2-1.79"/><path class="cls-15" d="M63.53,30.2a4.28,4.28,0,0,0-.45,2.91c.22,1.34.67-1.12.45-1.79V30.2"/><path class="cls-15" d="M60.17,32.66s1.12,1.79,2.46,1.56-2.46-1.56-2.46-1.56"/><path class="cls-2" d="M60.17,32.88a5.09,5.09,0,0,1,2.91.67A4,4,0,0,1,63.3,30s1.34,1.57,1.12,2.46-.67,2-.22,2.46a6.44,6.44,0,0,0-2-.22,5.15,5.15,0,0,1-2-1.79m2.46,2.24c1.79.22,2,0,2.91,1.12,0,0-1.34-1.57-.67-2.69a3.31,3.31,0,0,0,0-2.91,9.64,9.64,0,0,0-1.12-1.56c-.22,0-1.79,2.46-.89,3.8a3.23,3.23,0,0,0-1.35-.45,3.13,3.13,0,0,0-2,.23s1.34,2.23,3.13,2.46Z"/><path class="cls-14" d="M63.08,35.12c.67-.45,2,.22,2.91.67a4,4,0,0,1,.22-3.58s1.34,1.57,1.12,2.46-.67,2-.22,2.46a6.44,6.44,0,0,0-2-.22,3.85,3.85,0,0,1-2-1.79"/><path class="cls-15" d="M66.43,32.43A4.33,4.33,0,0,0,66,35.34c.22,1.34.67-1.12.44-1.79V32.43"/><path class="cls-15" d="M63.08,35.12s1.12,1.79,2.46,1.56-2.46-1.56-2.46-1.56"/><path class="cls-2" d="M63.08,35.12c.67-.45,2,.22,2.91.67a4,4,0,0,1,.22-3.58s1.34,1.57,1.12,2.46-.67,2-.22,2.46a6.44,6.44,0,0,0-2-.22,3.85,3.85,0,0,1-2-1.79m2.46,2.24c1.79.22,2,0,2.91,1.11,0,0-1.12-1.56-.67-2.68a3.37,3.37,0,0,0,0-2.91,9.06,9.06,0,0,0-1.12-1.56c-.23,0-1.79,2.46-.9,3.8a3.42,3.42,0,0,0-1.12-.45,3.21,3.21,0,0,0-2,.22c-.22,0,1.12,2.24,2.91,2.47Z"/><path class="cls-14" d="M65.32,37.8c.67-.22,1.79.23,2.9.9a3.44,3.44,0,0,1,.67-3.58s1.35,1.56.9,2.46-.9,2-.45,2.46a6.92,6.92,0,0,0-1.79-.45,3.75,3.75,0,0,1-2.23-1.79"/><path class="cls-15" d="M68.67,35.12A4.36,4.36,0,0,0,68,38c.22,1.34.67-1.12.67-1.57a1.44,1.44,0,0,1,0-1.34"/><path class="cls-15" d="M65.09,37.58s.9,2,2.24,1.79-2.24-1.79-2.24-1.79"/><path class="cls-2" d="M65.32,37.8c.67-.22,1.79.23,2.9.9a3.44,3.44,0,0,1,.67-3.58s1.35,1.56.9,2.46-.9,2-.45,2.46a6.92,6.92,0,0,0-1.79-.45,3.75,3.75,0,0,1-2.23-1.79M67.55,40c1.79.22,2,.22,2.91,1.12,0,0-1.12-1.57-.67-2.69a2.72,2.72,0,0,0,.22-2.9,7.38,7.38,0,0,0-1.12-1.79c-.22,0-2,2.23-1.11,3.8-.45-.22-.67-.45-1.12-.67a3,3,0,0,0-2,0c-.22.45,1.12,2.91,2.91,3.13Z"/><path class="cls-14" d="M66.88,40.26c.67-.22,1.79.67,2.69,1.12A3.66,3.66,0,0,1,70.68,38s1.12,1.79.68,2.68-1.12,1.79-.68,2.46c-.67-.22-1.11-.67-1.79-.67a3.34,3.34,0,0,1-2-2.24"/><path class="cls-15" d="M70.68,38.25a5.73,5.73,0,0,0-1.11,2.68c0,1.35.89-1.11.89-1.56a2.39,2.39,0,0,1,.22-1.12"/><path class="cls-15" d="M66.88,40s.67,2,2,2-2-2-2-2"/><path class="cls-2" d="M66.88,40.26c.67-.22,1.79.67,2.69,1.12A3.66,3.66,0,0,1,70.68,38s1.12,1.79.68,2.68-1.12,1.79-.68,2.46c-.67-.22-1.11-.67-1.79-.67a3.34,3.34,0,0,1-2-2.24m2,2.69c1.57.44,2,.44,2.69,1.56,0,0-.9-1.79-.22-2.68a2.38,2.38,0,0,0,.44-2.69,6.19,6.19,0,0,0-.89-1.78c-.23,0-2.24,2-1.79,3.57,0,0-.23-.22-1.12-.89a3.13,3.13,0,0,0-2-.22c.22,0,1.34,2.68,2.9,3.13Z"/><path class="cls-14" d="M68.45,43.17c.67-.22,1.79.9,2.68,1.57a3.77,3.77,0,0,1,1.57-3.36s.89,2,.22,2.69-1.34,1.79-1.12,2.23a4.54,4.54,0,0,0-1.8-.89,3.21,3.21,0,0,1-1.56-2.24"/><path class="cls-15" d="M72.47,41.61a3.87,3.87,0,0,0-1.34,2.68c-.22,1.57,1.12-.9,1.12-1.57a1.66,1.66,0,0,1,.22-1.11"/><path class="cls-15" d="M68.22,43s.45,2.23,1.79,2.23S68.22,43,68.22,43"/><path class="cls-2" d="M68.45,43.17c.67-.22,1.79.9,2.68,1.57a3.77,3.77,0,0,1,1.57-3.36s.89,2,.22,2.69-1.34,1.79-1.12,2.23a4.54,4.54,0,0,0-1.8-.89,3.21,3.21,0,0,1-1.56-2.24M70,46.08c1.57.67,1.79.67,2.46,2a4,4,0,0,1,0-2.91,3.08,3.08,0,0,0,.9-2.68l-.67-2c-.23,0-2.46,1.79-2.24,3.35A2.21,2.21,0,0,0,69.34,43a3.26,3.26,0,0,0-2-.45c.45,0,1.12,2.91,2.68,3.58Z"/><path class="cls-14" d="M69.79,46.3c.67,0,1.57,1.12,2.46,2A5,5,0,0,1,74,45s.67,2,0,2.91-1.57,1.56-1.34,2.24A6.6,6.6,0,0,0,71.13,49a3.22,3.22,0,0,1-1.34-2.69"/><path class="cls-15" d="M73.82,45.18A4,4,0,0,0,72,47.64c-.45,1.35,1.11-.89,1.34-1.34s.45-.67.45-1.12"/><path class="cls-15" d="M69.57,46.08s0,2.24,1.56,2.46-1.56-2.46-1.56-2.46"/><path class="cls-2" d="M69.79,46.3c.67,0,1.57,1.12,2.46,2A5,5,0,0,1,74,45s.67,2,0,2.91-1.57,1.56-1.34,2.24A6.6,6.6,0,0,0,71.13,49a3.22,3.22,0,0,1-1.34-2.69m1.12,3.13c1.56.9,1.79.9,2.23,2.24,0,0-.44-2,.45-2.68a2.58,2.58,0,0,0,1.12-2.69,6.25,6.25,0,0,0-.45-2c-.22,0-2.68,1.34-2.68,3.13-.22-.45-.67-.67-.9-1.12a2.75,2.75,0,0,0-2-.67c.45,0,.67,2.91,2.24,3.8Z"/><path class="cls-14" d="M70.68,49.43c.68,0,1.57,1.35,2.24,2.24a4.32,4.32,0,0,1,2.46-3.13s.45,2.24-.45,2.91-1.79,1.34-1.56,2c-.45-.45-.9-1.12-1.57-1.34a4.15,4.15,0,0,1-1.12-2.69"/><path class="cls-15" d="M75.16,49a5.41,5.41,0,0,0-2.24,2.23c-.67,1.35,1.34-.67,1.57-1.11,0-.45.22-.68.67-1.12"/><path class="cls-15" d="M70.68,49.21s-.22,2.24,1.12,2.68c1.57.68-1.12-2.68-1.12-2.68"/><path class="cls-2" d="M70.68,49.43c.68,0,1.57,1.35,2.24,2.24a4.32,4.32,0,0,1,2.46-3.13s.45,2.24-.45,2.91-1.79,1.34-1.56,2c-.45-.45-.9-1.12-1.57-1.34a4.15,4.15,0,0,1-1.12-2.69m.9,3.36c1.34,1.12,1.56,1.12,2,2.68,0,0-.22-2,.9-2.68A2.75,2.75,0,0,0,76,50.32v-2c-.22-.23-2.91,1.11-3.13,2.9a4.83,4.83,0,0,0-.67-1.11A4.66,4.66,0,0,0,70.46,49c0-.23-.22,2.68,1.12,3.8Z"/><path class="cls-14" d="M71.36,53c.67,0,1.34,1.35,2,2.46A4,4,0,0,1,76,52.78s.23,2.24-.67,2.68-1.79,1.12-1.79,1.79a9.51,9.51,0,0,0-1.34-1.56A3.92,3.92,0,0,1,71.36,53"/><path class="cls-15" d="M75.83,53a4.89,4.89,0,0,0-2.24,2c-.67,1.34,1.34-.45,1.57-1.12.22-.23.45-.67.67-.9"/><path class="cls-15" d="M71.36,52.79s-.45,2.24.89,2.91-.89-2.91-.89-2.91"/><path class="cls-2" d="M71.36,53c.67,0,1.34,1.35,2,2.46A4,4,0,0,1,76,52.78s.23,2.24-.67,2.68-1.79,1.12-1.79,1.79a9.51,9.51,0,0,0-1.34-1.56A3.92,3.92,0,0,1,71.36,53m.44,3.36c1.34,1.34,1.57,1.34,1.57,2.91,0,0,0-2,1.12-2.69a2.65,2.65,0,0,0,1.79-2.23c0-.68.22-1.35.22-2-.22-.22-3.13.67-3.36,2.46l-.67-1.34a5.14,5.14,0,0,0-1.79-1.34c.45.22,0,2.91,1.12,4.25Z"/><path class="cls-14" d="M71.8,56.14c.67.23,1.34,1.57,1.79,2.69a3.65,3.65,0,0,1,2.91-2.46s0,2.24-.89,2.68a4,4,0,0,0-2,1.79,3.88,3.88,0,0,0-1.12-1.56,3.91,3.91,0,0,1-.67-3.14"/><path class="cls-15" d="M76.28,56.59a4.76,4.76,0,0,0-2.46,1.79c-.68,1.34,1.34-.45,1.56-.89a1.79,1.79,0,0,1,.9-.9"/><path class="cls-15" d="M71.8,56.14s-.67,2.24.67,2.91-.67-2.91-.67-2.91"/><path class="cls-2" d="M71.8,56.14c.67.23,1.34,1.57,1.79,2.69a3.65,3.65,0,0,1,2.91-2.46s0,2.24-.89,2.68a4,4,0,0,0-2,1.79,3.88,3.88,0,0,0-1.12-1.56,3.91,3.91,0,0,1-.67-3.14M72,59.72c1.11,1.35,1.34,1.57,1.56,2.91,0,0,.23-2,1.34-2.46a2.65,2.65,0,0,0,2-2.24,6.44,6.44,0,0,0,.22-2c-.22-.22-3.13.45-3.58,2.24-.22-.45-.22-.9-.45-1.34a3,3,0,0,0-1.56-1.35A5,5,0,0,0,72,59.72Z"/><path class="cls-14" d="M72,59.5c.67.22,1.34,1.57,1.79,2.68a3.65,3.65,0,0,1,2.9-2.46s0,2.24-.89,2.69a4,4,0,0,0-2,1.79,4.27,4.27,0,0,0-1.12-1.57A3.41,3.41,0,0,1,72,59.5"/><path class="cls-15" d="M76.28,59.72a6.34,6.34,0,0,0-2.46,1.79c-.9,1.35,1.34-.44,1.56-.89a1.79,1.79,0,0,0,.9-.9"/><path class="cls-15" d="M72,59.28s-.67,2.23.67,2.9-.67-2.9-.67-2.9"/><path class="cls-2" d="M72,59.5c.67.22,1.34,1.57,1.79,2.68a3.65,3.65,0,0,1,2.9-2.46s0,2.24-.89,2.69-2,.89-2,1.56a4.24,4.24,0,0,0-1.12-1.56A2.89,2.89,0,0,1,72,59.5m.22,3.36c1.12,1.34,1.34,1.56,1.57,2.9,0,0,.22-2,1.34-2.46a2.61,2.61,0,0,0,2-2.23,6.44,6.44,0,0,0,.22-2c-.22-.22-3.13.45-3.57,2.24L73.14,60a6.06,6.06,0,0,0-1.56-1.34,6.64,6.64,0,0,0,.67,4.2Z"/><path class="cls-14" d="M71.8,62.63c.67.23,1.12,1.57,1.57,2.91a5.8,5.8,0,0,1,3.13-2.46s-.22,2.24-1.12,2.68-2,.9-2,1.57a7.91,7.91,0,0,0-1.12-1.79,3.45,3.45,0,0,1-.45-2.91"/><path class="cls-15" d="M76.28,63.3a5.46,5.46,0,0,0-2.69,1.57c-.89,1.12,1.34-.23,1.79-.9.23,0,.67-.44.9-.67"/><path class="cls-15" d="M71.8,62.41s-.67,2.23.45,3.13c1.34.89-.45-3.13-.45-3.13"/><path class="cls-2" d="M71.8,62.63c.67.23,1.12,1.57,1.57,2.91a5.8,5.8,0,0,1,3.13-2.46s-.22,2.24-1.12,2.68-2,.9-2,1.57a7.91,7.91,0,0,0-1.12-1.79,3.45,3.45,0,0,1-.45-2.91m0,3.58c1.12,1.34,1.34,1.57,1.34,3.13,0,0,.23-2,1.57-2.46a2.91,2.91,0,0,0,2.24-2c.22-.67.22-1.34.44-2-.22-.23-3.13.22-3.8,2-.22-.45-.22-.9-.45-1.34-.22-.9-1.56-1.35-1.56-1.35s-.9,2.46.22,4Z"/><path class="cls-14" d="M71.36,66.21c.67.22,1.11,1.79,1.34,2.91a4.6,4.6,0,0,1,3.35-2.24s-.44,2.24-1.34,2.69-2,.67-2.24,1.34a4.44,4.44,0,0,0-.89-1.79,3.31,3.31,0,0,1-.22-2.91"/><path class="cls-15" d="M75.83,67.11a4.15,4.15,0,0,0-2.69,1.56c-.89,1.12,1.35-.22,1.79-.67a1.74,1.74,0,0,1,.9-.89"/><path class="cls-15" d="M71.36,66s-.9,2,.22,3.13S71.36,66,71.36,66"/><path class="cls-2" d="M71.36,66.21c.67.22,1.11,1.79,1.34,2.91a4.6,4.6,0,0,1,3.35-2.24s-.44,2.24-1.34,2.69-2,.67-2.24,1.34a4.44,4.44,0,0,0-.89-1.79,3.31,3.31,0,0,1-.22-2.91m-.23,3.36c.9,1.56,1.12,1.79,1.12,3.13,0,0,.45-2,1.79-2.46a3.11,3.11,0,0,0,2.24-1.79l.67-2c0-.22-3.13,0-3.81,1.79a3.37,3.37,0,0,0-.44-1.34c-.23-.89-1.57-1.56-1.57-1.56a4.74,4.74,0,0,0,0,4.25Z"/><path class="cls-14" d="M70.68,69.34c.68.23.9,1.79,1.12,3.13a4.83,4.83,0,0,1,3.36-2s-.45,2.24-1.57,2.46-2.23.67-2.23,1.34a8.18,8.18,0,0,0-.9-2,4.41,4.41,0,0,1,.22-2.91"/><path class="cls-15" d="M75.16,70.68A4,4,0,0,0,72.25,72c-1.12,1.11,1.34-.23,1.79-.45a2.26,2.26,0,0,1,1.12-.9"/><path class="cls-15" d="M70.68,69.34s-1.11,2,0,3.13,0-3.13,0-3.13"/><path class="cls-2" d="M70.68,69.34c.68.23.9,1.79,1.12,3.13a4.83,4.83,0,0,1,3.36-2s-.45,2.24-1.57,2.46-2.23.67-2.23,1.34a8.18,8.18,0,0,0-.9-2,4.41,4.41,0,0,1,.22-2.91m-.44,3.58c.89,1.57,1.12,1.79.89,3.36,0,0,.67-2,1.79-2.24a2.61,2.61,0,0,0,2.46-1.79l.67-2c0-.23-3.35-.23-4,1.56,0-.44-.23-.89-.23-1.34a4.39,4.39,0,0,0-1.34-1.79A5.5,5.5,0,0,0,70.26,73Z"/><path class="cls-14" d="M70,72c.67.44.67,2,.9,3.13a4.44,4.44,0,0,1,3.58-1.57S73.81,75.8,72.69,76s-2.24.45-2.46,1.12l-.67-2A3.78,3.78,0,0,1,70,72"/><path class="cls-15" d="M74.26,73.82a7.29,7.29,0,0,0-3.13.89c-1.12.9,1.34,0,2-.45a3.58,3.58,0,0,0,1.12-.44"/><path class="cls-15" d="M70,72s-1.34,2-.22,3.13S70,72,70,72"/><path class="cls-2" d="M70,72c.67.44.67,2,.9,3.13a4.44,4.44,0,0,1,3.58-1.57S73.81,75.8,72.69,76s-2.24.45-2.46,1.12l-.67-2A3.78,3.78,0,0,1,70,72m-.89,3.58c.67,1.78.89,2,.45,3.35,0,0,.89-2,2-2a3.19,3.19,0,0,0,2.68-1.34,8.18,8.18,0,0,0,.9-2c0-.22-3.13-.45-4.25,1.12V73.14a4.8,4.8,0,0,0-1.12-1.78,6.59,6.59,0,0,0-.65,4.25Z"/><path class="cls-14" d="M68.67,75.16c.67.45.45,2,.45,3.35a4.86,4.86,0,0,1,3.8-1.12s-.89,2-2,2.24-2.24,0-2.69.67a6.52,6.52,0,0,0-.44-2,5.13,5.13,0,0,1,.89-3.13"/><path class="cls-15" d="M72.7,77.39a3.85,3.85,0,0,0-3.13.68c-1.35.89,1.34.22,2-.23.45-.22.67-.22,1.12-.45"/><path class="cls-15" d="M68.89,74.93s-1.56,1.79-.67,3.14.67-3.14.67-3.14"/><path class="cls-2" d="M68.67,75.16c.67.45.45,2,.45,3.35a4.86,4.86,0,0,1,3.8-1.12s-.89,2-2,2.24-2.24,0-2.69.67a6.52,6.52,0,0,0-.44-2,5.13,5.13,0,0,1,.89-3.13m-1.34,3.58c.45,1.79.67,2,.22,3.35,0,0,1.12-1.79,2.24-1.79a2.88,2.88,0,0,0,2.91-1.12,8.14,8.14,0,0,0,1.12-1.79c0-.22-3.14-.89-4.25.68V76.5a8.18,8.18,0,0,0-.9-2A7,7,0,0,0,67.34,78.75Z"/><path class="cls-14" d="M67.33,77.84c.45.45.22,2,0,3.36a5,5,0,0,1,4-.67S70,82.32,68.89,82.32s-2.23-.23-2.68.44V80.53a4.15,4.15,0,0,1,1.12-2.69"/><path class="cls-15" d="M70.91,80.75a7.5,7.5,0,0,0-3.13,0c-1.35.67,1.34.45,2,.22a8.53,8.53,0,0,1,1.12-.22"/><path class="cls-15" d="M67.33,77.84s-1.79,1.57-1.12,2.91,1.12-2.91,1.12-2.91"/><path class="cls-2" d="M67.33,77.84c.45.45.22,2,0,3.36a5,5,0,0,1,4-.67S70,82.32,68.89,82.32s-2.23-.23-2.68.44V80.53a4.15,4.15,0,0,1,1.12-2.69M65.54,81c.22,1.79.45,2.24-.45,3.36,0,0,1.34-1.79,2.69-1.34a2.39,2.39,0,0,0,2.9-.67c.45-.45.9-1.12,1.35-1.57,0-.22-2.91-1.34-4.48,0a3.26,3.26,0,0,0,.23-1.57A3.79,3.79,0,0,0,67.11,77C67.55,76.77,65.32,79.23,65.54,81Z"/><path class="cls-14" d="M65.32,81c.44.67,0,2-.23,3.36a4.29,4.29,0,0,1,4-.22s-1.57,1.78-2.46,1.56-2.24-.45-2.69,0V83.43A2.57,2.57,0,0,1,65.32,81"/><path class="cls-15" d="M68.89,84.11a5.16,5.16,0,0,0-3.13-.23c-1.56.45,1.35.45,2,.45a1.66,1.66,0,0,1,1.11-.22"/><path class="cls-15" d="M65.54,80.75s-1.79,1.34-1.34,2.91,1.34-2.91,1.34-2.91"/><path class="cls-2" d="M65.32,81c.44.67,0,2-.23,3.36a4.29,4.29,0,0,1,4-.22s-1.57,1.78-2.46,1.56-2.24-.45-2.69,0V83.43A2.57,2.57,0,0,1,65.32,81m-2,2.69c0,1.79.23,2.23-.67,3.35,0,0,1.57-1.56,2.69-1.12a3.13,3.13,0,0,0,3.13-.44A5.19,5.19,0,0,0,70,83.88c0-.22-2.9-1.56-4.47-.45A5.93,5.93,0,0,1,66,82.09a4,4,0,0,0-.45-2.23s-2.24,2.23-2.24,3.8Z"/><path class="cls-14" d="M62.86,83.66c.44.67-.23,2-.68,3.35a4.27,4.27,0,0,1,4,.23s-1.57,1.56-2.68,1.34-2.24-.67-2.69-.22A7.37,7.37,0,0,0,61,86.12a4.1,4.1,0,0,1,1.79-2.46"/><path class="cls-15" d="M66,87.24a4.92,4.92,0,0,0-3.13-.45c-1.57.45,1.34.67,1.78.67A3,3,0,0,1,66,87.24"/><path class="cls-15" d="M63.08,83.66s-2,1.12-1.57,2.68,1.57-2.68,1.57-2.68"/><path class="cls-2" d="M62.86,83.66c.44.67-.23,2-.68,3.35a5,5,0,0,1,4,.23s-1.79,1.56-2.68,1.34-2.24-.67-2.69-.22A7.37,7.37,0,0,0,61,86.12a4.1,4.1,0,0,1,1.79-2.46m-2.24,2.68c0,1.79,0,2.24-1.12,3.36,0,0,1.57-1.34,2.91-.9a2.69,2.69,0,0,0,3.13,0c.67-.44,1.12-.89,1.79-1.34,0-.22-2.69-2-4.25-.89l.67-1.35A3.92,3.92,0,0,0,63.53,83c-.23-.23-2.69,1.56-2.91,3.35Z"/><path class="cls-14" d="M60.39,86.12c.23.67-.67,2-1.34,3.13a4.57,4.57,0,0,1,4,1.12s-2,1.34-2.91.67-2-1.12-2.68-.67a3.6,3.6,0,0,0,.67-2,2.86,2.86,0,0,1,2.23-2.24"/><path class="cls-15" d="M62.63,90.14A5.31,5.31,0,0,0,59.5,89c-1.57,0,1.12.89,1.79.89s1.12,0,1.34.22"/><path class="cls-15" d="M60.62,85.89s-2.24.68-2.24,2.47,2.24-2.47,2.24-2.47"/><path class="cls-2" d="M60.39,86.12c.23.67-.67,2-1.34,3.13a4.57,4.57,0,0,1,4,1.12s-2,1.34-2.91.67-2-1.12-2.68-.67a3.6,3.6,0,0,0,.67-2,2.86,2.86,0,0,1,2.23-2.24m-2.9,2C57,89.92,57,90.37,55.7,91c0,0,1.79-1.12,3.13-.45A3.13,3.13,0,0,0,62,91c.67-.22,1.34-.67,2-.9,0-.22-2.23-2.46-4-1.78.22-.45.67-.9.89-1.35a3.79,3.79,0,0,0,.23-2.23c-.23.22-3.14,1.56-3.58,3.35Z"/><path class="cls-14" d="M57.26,88.13c.23.67-.89,2-1.79,2.91a4.81,4.81,0,0,1,3.81,1.79s-2.24.89-3.14.22-1.78-1.56-2.46-1.12a7.38,7.38,0,0,0,1.12-1.79,2.86,2.86,0,0,1,2.46-2"/><path class="cls-15" d="M58.83,92.61a6.35,6.35,0,0,0-2.91-1.79c-1.56-.23.9,1.11,1.57,1.34.44.22.89.22,1.34.45"/><path class="cls-15" d="M57.49,88.13s-2.46.45-2.69,2,2.69-2,2.69-2"/><path class="cls-2" d="M57.26,88.13c.23.67-.89,2-1.79,2.91a4.81,4.81,0,0,1,3.81,1.79s-2.24.89-3.14.22-1.78-1.56-2.46-1.12a7.38,7.38,0,0,0,1.12-1.79,2.86,2.86,0,0,1,2.46-2M53.91,89.7c-.9,1.79-.9,2-2.24,2.68,0,0,2-.67,3.13.23a2.92,2.92,0,0,0,2.91,1.11A8.37,8.37,0,0,0,60,93.05c0-.22-1.79-2.91-3.81-2.46l1.12-1.12A3.76,3.76,0,0,0,58,87.24S54.8,88.13,53.91,89.7Z"/><path class="cls-2" d="M45.41,92.16a52.75,52.75,0,0,0,8.5,2l.22,1.12S45,93.05,43.62,92.38c-.45-.22-.67-.67,1.79-.22"/><path class="cls-2" d="M52.57,91.93a40.34,40.34,0,0,1-9,2.24v1.12l10.29-2.91c.45,0,1.34-.89-1.34-.45"/><path class="cls-5" d="M49.88,93.28s2,2.9,4,2.23c-.45,1.35-1.79,2.24-2.46,2s-2.24-1.79-2.24-2.91.67-1.57.67-1.34"/><path class="cls-1" d="M53.68,96.41a9.91,9.91,0,0,1-4-2.69c0,.23-.23.45-.23.67a10.55,10.55,0,0,0,3.36,2.91,1.68,1.68,0,0,0,.89-.89"/><path class="cls-5" d="M47.64,93.28s-2,2.9-4,2.23c.45,1.35,1.79,2.24,2.46,2s2.24-1.79,2.24-2.91-.45-1.57-.68-1.34"/><path class="cls-1" d="M44.07,96.63a9.89,9.89,0,0,0,4-2.68c0,.22.23.44.23.67a11.47,11.47,0,0,1-3.58,2.91,3.3,3.3,0,0,0-.67-.9"/><path class="cls-5" d="M48.76,90.37c-1.34,0-4.92,0-3.35,2a6.06,6.06,0,0,0,3.35,1.79,6.29,6.29,0,0,0,3.13-1.79c1.79-2-1.56-2-3.13-2"/><path class="cls-1" d="M48.76,90.82c-.67,0-2,.44-1.12,1.79A3.94,3.94,0,0,0,49,94h0a2.87,2.87,0,0,0,1.12-1.12c.67-1.57-.68-2-1.35-2"/><path class="cls-5" d="M48.76,92.38h0c-1.12,0-2,.67-1.56,1.12.22.67.89.89,1.56,1.12h0c.45,0,.9-.45,1.57-1.12s-.45-1.12-1.57-1.12"/><path class="cls-1" d="M48.76,93.05h0c-.67,0-.89.23-.67.67l.67.67c.23,0,.45-.22.67-.67s0-.67-.67-.67"/><path class="cls-1" d="M47,90.82a1.72,1.72,0,0,0,.23,2.23c-.67-.44-2.69-1.79-.23-2.23"/><path class="cls-1" d="M50.55,90.82a1.71,1.71,0,0,1-.22,2.23c.67-.44,2.68-1.79.22-2.23"/><path class="cls-2" d="M7.16,63.75A5.26,5.26,0,0,1,6.71,62a3.33,3.33,0,0,1,.9-2.46,6.05,6.05,0,0,1,3.8-1.34c3.58,0,4.92,1.79,4.92,3.58a3.77,3.77,0,0,1-.22,1.56l-1.35-.22A2,2,0,0,0,15,62c0-1.12-.9-2.24-3.58-2.24s-3.36,1.12-3.36,2v.44h2.69V61.07h1.34v2.46Z"/><path class="cls-2" d="M12.3,67.78c-2,.44-3.35.89-3.13,2,.22.89,1.79.89,3.8.67s3.36-.89,3.14-1.79-2-1.12-3.81-.89m.67,4c-3.58.67-5.14-.44-5.36-2s1.56-3.13,4.25-3.58,4.92.22,5.14,2.24-1.34,3.15-4,3.37Z"/><path class="cls-2" d="M14.76,75.83l.23.45a1.52,1.52,0,0,0,1.79.89h0a1,1,0,0,0,.95-1,1.36,1.36,0,0,0-.06-.29v-.22a.77.77,0,0,0-.22-.45Zm-4,1.34v.45a1.39,1.39,0,0,0,1.58,1.17l.21-.05h.22A1.48,1.48,0,0,0,13.87,77v-.23l-.23-.44Zm7.38-3.8a4.42,4.42,0,0,1,.67,1.79,3.85,3.85,0,0,1,0,2.23,2.21,2.21,0,0,1-2.91,1.12c-.22-.22-.67-.44-.89-.67h0a2.18,2.18,0,0,1-1.79,2.24,3.11,3.11,0,0,1-2,0,3.49,3.49,0,0,1-1.79-2.46c-.22-.45-.22-1.12-.44-1.57Z"/><polygon class="cls-2" points="21.25 81.42 12.75 85.45 12.08 84.11 20.8 80.08 21.25 81.42"/><polygon class="cls-2" points="20.13 89.7 19.01 87.91 16.55 89.47 17.89 91.71 16.78 92.38 14.54 89.03 22.59 83.88 24.61 87.24 23.49 87.91 22.37 85.89 20.13 87.24 21.25 89.03 20.13 89.7"/><path class="cls-2" d="M23.71,93.05l.22.23a1.45,1.45,0,0,0,2,.22l.22-.22a1.2,1.2,0,0,0,.55-1.62,1,1,0,0,0-.1-.17l-.23-.23L26,90.82ZM26,89c.44.44.89.67,1.34,1.11a4.42,4.42,0,0,1,1.12,2.24,2.78,2.78,0,0,1-3.06,2.47h-.07a.82.82,0,0,1-.67-.22h0c.22.67,0,1.34-.68,2.24-.44.67-1.11,1.34-1.56,2L21.3,97.71A12,12,0,0,1,22.59,96c.9-.89.9-1.57.45-2l-.22-.23-2.91,2.46L19,95.07Z"/><path class="cls-2" d="M25.28,101.78,30.87,94l1.12.89-1.12,4.25c-.23.9-.67,2.24-.9,3.13h0a27.36,27.36,0,0,1,2.46-3.58L34,96.41l1.12.67-5.59,7.6-1.12-.89,1.12-4.25c.22-1.12.67-2,.89-3.13h0c-.67.89-1.34,2-2.46,3.58l-1.57,2.23Z"/><path class="cls-2" d="M36.24,103.12c-.9,2-.9,3.35,0,3.8S38,105.8,38.7,104s1.12-3.35,0-3.8-1.79.9-2.46,2.91m4,1.34c-1.34,3.36-2.9,4.25-4.47,3.58s-1.79-2.91-.9-5.59,2.91-4,4.48-3.36,1.81,3.14.91,5.38Z"/><path class="cls-2" d="M48.54,105.58H49A1.59,1.59,0,0,0,50.57,104a1.09,1.09,0,0,0,0-.18c0-1.12-.44-1.57-1.34-1.57h-.45ZM47,101.11a4.72,4.72,0,0,1,1.79-.23,4.53,4.53,0,0,1,2.46.67,3.29,3.29,0,0,1,.9,2,4.41,4.41,0,0,1-.67,2.23,3.11,3.11,0,0,1-2.24,1.12h-.45v3.8H47Z"/><path class="cls-2" d="M56.14,104.46h.45a1.23,1.23,0,0,0,1-1.38,1.25,1.25,0,0,0-.14-.41v-.22a1.39,1.39,0,0,0-1.58-1.17l-.21,0c-.23,0-.23,0-.45.22Zm-2.68-3.58a16,16,0,0,1,1.79-.67,4.67,4.67,0,0,1,2.46,0c.67.45,1.12.9,1.12,1.57a2.55,2.55,0,0,1-.9,2.68h0c.68,0,1.12.67,1.79,1.57a7.2,7.2,0,0,0,1.12,2.23l-1.56.45c-.45-.67-.67-1.34-1.12-2-.45-1.12-.9-1.34-1.79-1.12h-.23l1.12,3.8-1.34.23Z"/><path class="cls-2" d="M63.3,102.22c1.12,1.79,2,2.91,2.91,2.46s.22-2-.67-3.8-2-2.91-2.91-2.46-.45,2,.67,3.8M66.88,100c1.79,3.13,1.34,4.92,0,5.81s-3.35-.22-4.92-2.91-1.57-4.69.22-5.59S65.54,97.76,66.88,100Z"/><path class="cls-2" d="M73.59,100.88l-8-5.59,1.12-1.12L70,96.86a23.93,23.93,0,0,1,2.69,2.23h0c-.67-.89-1.34-2-2-2.91l-2.23-3.57,1.12-1.12,4.69,8.5Z"/><rect class="cls-2" x="74.77" y="87.7" width="1.57" height="9.39" transform="translate(-43.8 93.11) rotate(-51.07)"/><path class="cls-2" d="M81.64,91.26l-8-4.92.67-1.12,4.25.67c.9.23,2.24.45,3.13.68h0a21.87,21.87,0,0,1-3.8-2l-2.23-1.34.67-1.12,8,4.7-.67,1.12-4.25-.67c-1.12-.23-2-.45-3.13-.67h0a25.37,25.37,0,0,1,3.8,2.23l2.24,1.34Z"/><path class="cls-2" d="M87.68,79a2.17,2.17,0,0,1-.44,1.57c-.9,2-2.91,2.46-5.6,1.56-3.35-1.56-3.8-3.8-3.13-5.37.23-.44.45-.67.67-1.11l1.12.67c-.22.22-.44.44-.44.67-.45.89,0,2.23,2.46,3.13s3.57.45,4-.67a1.36,1.36,0,0,0,.23-.9Z"/><polygon class="cls-2" points="79.86 72.25 89.03 74.71 88.58 76.05 79.41 73.59 79.86 72.25"/><path class="cls-2" d="M86.79,67.33H82.32l2,.67,2,.67Zm.89,2,2.24.9-.22,1.34L80.7,68l.3-1.78,9.62-.45-.22,1.35-2.46.22Z"/><polygon class="cls-2" points="81.42 62.18 81.42 60.84 89.7 61.07 89.7 58.38 91.04 58.38 90.82 62.41 81.42 62.18"/><path class="cls-1" d="M109.17,45.54a15.54,15.54,0,0,0,6.66,1.56c3.66,0,5.52-1.92,5.52-4.56,0-2.94-1.8-4.38-5.22-6.6-5.52-3.36-7.62-7.62-7.62-11.28,0-6.48,4.32-11.88,12.72-11.88a14.17,14.17,0,0,1,6.36,1.44L126.33,21a9.54,9.54,0,0,0-5.1-1.38c-3.36,0-5,2-5,4.14,0,2.46,1.2,3.72,5.52,6.36,5.4,3.24,7.32,7.32,7.32,11.58,0,7.38-5.46,12.24-13.32,12.24A18,18,0,0,1,108,52.32Z"/><path class="cls-1" d="M139.69,40.7c.06,4.56,2.7,6.24,6.18,6.24a17.68,17.68,0,0,0,5.58-1l1,5.58a22.06,22.06,0,0,1-8,1.38c-8,0-12.42-5.28-12.42-14.46,0-9.84,5.16-15.72,11.76-15.72,6.3,0,10,5,10,13.86a27.84,27.84,0,0,1-.24,4.08Zm7-5.52c0-3.72-1-6.66-3.3-6.66-2.58,0-3.6,3.72-3.66,6.66Z"/><path class="cls-1" d="M174.49,52a12.42,12.42,0,0,1-5,.9c-7.44,0-12.3-5.16-12.3-14.7,0-9.06,5.34-15.36,13.44-15.36a11.6,11.6,0,0,1,4.32.78l-1,6.18a8.43,8.43,0,0,0-2.95-.5c-3.78,0-6,3.6-6,8.64,0,5.34,2.22,8.58,5.88,8.58a6.49,6.49,0,0,0,2.94-.6Z"/><path class="cls-1" d="M177.61,32.06c0-2.88-.12-6.06-.24-8.82h6.78l.42,4.32h.24c1.26-3.12,3.66-4.8,5.76-4.8a9.5,9.5,0,0,1,1.68.12v7.8a15.72,15.72,0,0,0-1.68-.06c-1.68,0-3.9,1.14-4.74,4.14a9.76,9.76,0,0,0-.36,2.94V52.58h-7.86Z"/><path class="cls-1" d="M201.61,40.7c.06,4.56,2.7,6.24,6.18,6.24a17.68,17.68,0,0,0,5.58-1l1,5.58a22.06,22.06,0,0,1-8,1.38c-8,0-12.42-5.28-12.42-14.46,0-9.84,5.16-15.72,11.76-15.72,6.3,0,10,5,10,13.86a27.84,27.84,0,0,1-.24,4.08Zm7-5.52c0-3.72-1-6.66-3.3-6.66-2.58,0-3.6,3.72-3.66,6.66Z"/><path class="cls-1" d="M229.39,15.62v7.62h5.76v5.58h-5.76V42.2c0,3.42,1.44,4.26,2.94,4.26a12.32,12.32,0,0,0,2.1-.18l.06,6.12a18.91,18.91,0,0,1-4.8.54,8.19,8.19,0,0,1-5.7-1.86c-1.56-1.56-2.46-3.78-2.46-8.4V28.82h-3.48V23.24h3.48V18.08Z"/><path class="cls-1" d="M258.61,45.86a47.19,47.19,0,0,0,.42,6.72h-7l-.42-2.88h-.18A7.6,7.6,0,0,1,245,53.06c-4.44,0-7.74-3.72-7.74-8.88,0-7.74,6.78-10.86,13.44-10.92V32.6c0-2.34-1.32-4-4.14-4a11.18,11.18,0,0,0-6,1.74L239.05,25a20.09,20.09,0,0,1,9.18-2.22c8.94,0,10.38,6.24,10.38,12.24Zm-7.74-7.56c-2.58.06-6.24,1-6.24,5,0,2.88,1.62,4,2.82,4a3.29,3.29,0,0,0,3.24-2.52,4.59,4.59,0,0,0,.18-1.38Z"/><path class="cls-1" d="M264.13,32.06c0-2.88-.12-6.06-.24-8.82h6.78l.42,4.32h.24c1.26-3.12,3.66-4.8,5.76-4.8a9.5,9.5,0,0,1,1.68.12v7.8a15.72,15.72,0,0,0-1.68-.06c-1.68,0-3.9,1.14-4.74,4.14A9.44,9.44,0,0,0,272,37.7V52.58h-7.86Z"/><path class="cls-1" d="M281.77,52.58V23.24h7.86V52.58ZM294,11.24l-6.06,8.4H283l4.14-8.4Z"/><path class="cls-1" d="M315,45.86a47.19,47.19,0,0,0,.42,6.72h-7L308,49.7h-.18a7.6,7.6,0,0,1-6.48,3.36c-4.44,0-7.74-3.72-7.74-8.88,0-7.74,6.78-10.86,13.44-10.92V32.6c0-2.34-1.32-4-4.14-4a11.18,11.18,0,0,0-6,1.74L295.39,25a20.09,20.09,0,0,1,9.18-2.22C313.51,22.76,315,29,315,35Zm-7.74-7.56c-2.58.06-6.24,1-6.24,5,0,2.88,1.62,4,2.82,4A3.29,3.29,0,0,0,307,44.78a4.59,4.59,0,0,0,.18-1.38Z"/><path class="cls-1" d="M351.3,11.06V43.94c0,2.76.12,5.94.25,8.64h-6.78l-.42-3.3h-.18a7,7,0,0,1-6.06,3.78c-6.24,0-9.12-6.9-9.12-15.06,0-10.2,4.5-15.24,9.42-15.24a5.08,5.08,0,0,1,4.92,3h.12V11.06Zm-7.85,23.46a7.88,7.88,0,0,0-.12-1.68c-.24-1.8-1.2-3.42-2.76-3.42-2.76,0-3.78,4-3.78,8.76,0,5.58,1.5,8.46,3.66,8.46,1,0,2.16-.54,2.76-2.52a5.57,5.57,0,0,0,.24-1.86Z"/><path class="cls-1" d="M363.42,40.7c.07,4.56,2.71,6.24,6.18,6.24a17.68,17.68,0,0,0,5.58-1l1,5.58a22.06,22.06,0,0,1-8,1.38c-8,0-12.41-5.28-12.41-14.46,0-9.84,5.15-15.72,11.75-15.72,6.3,0,10,5,10,13.86a27.84,27.84,0,0,1-.24,4.08Zm7-5.52c0-3.72-1-6.66-3.29-6.66-2.58,0-3.6,3.72-3.67,6.66Z"/><path class="cls-1" d="M396,19.4h-7.14V12.14H411V19.4h-7.2V52.58H396Z"/><path class="cls-1" d="M412.63,32.06c0-2.88-.12-6.06-.25-8.82h6.79l.42,4.32h.24c1.26-3.12,3.65-4.8,5.76-4.8a9.32,9.32,0,0,1,1.67.12v7.8a15.44,15.44,0,0,0-1.67-.06c-1.69,0-3.91,1.14-4.75,4.14a9.76,9.76,0,0,0-.36,2.94V52.58h-7.85Z"/><path class="cls-1" d="M450.06,45.86a47.19,47.19,0,0,0,.42,6.72h-7L443,49.7h-.18a7.6,7.6,0,0,1-6.48,3.36c-4.44,0-7.74-3.72-7.74-8.88,0-7.74,6.78-10.86,13.44-10.92V32.6c0-2.34-1.32-4-4.14-4a11.18,11.18,0,0,0-6,1.74L430.51,25a20,20,0,0,1,9.17-2.22c8.94,0,10.38,6.24,10.38,12.24Zm-7.74-7.56c-2.58.06-6.23,1-6.23,5,0,2.88,1.61,4,2.81,4a3.29,3.29,0,0,0,3.24-2.52,4.59,4.59,0,0,0,.18-1.38Z"/><path class="cls-1" d="M455.52,11.06h7.86V26.24h.12a7,7,0,0,1,6.12-3.48c5.64,0,8.28,6.48,8.28,14.34,0,10.32-4.08,16-9.54,16-2.46,0-4.2-1-5.76-3.9h-.18L462,52.58h-6.72c.12-2.58.24-5.88.24-8.64Zm7.86,31a5.71,5.71,0,0,0,.3,1.92c.66,2.1,1.74,2.64,2.7,2.64,2.64,0,3.72-3.3,3.72-8.88,0-5.1-1.14-8.34-3.78-8.34-1.2,0-2.22,1.26-2.64,2.7a6.12,6.12,0,0,0-.3,1.8Z"/><path class="cls-1" d="M502.2,45.86a47.19,47.19,0,0,0,.42,6.72h-7l-.42-2.88H495a7.6,7.6,0,0,1-6.48,3.36c-4.44,0-7.74-3.72-7.74-8.88,0-7.74,6.78-10.86,13.44-10.92V32.6c0-2.34-1.32-4-4.14-4a11.18,11.18,0,0,0-6,1.74L482.64,25a20.09,20.09,0,0,1,9.18-2.22c8.94,0,10.38,6.24,10.38,12.24Zm-7.74-7.56c-2.58.06-6.24,1-6.24,5,0,2.88,1.62,4,2.82,4a3.29,3.29,0,0,0,3.24-2.52,4.59,4.59,0,0,0,.18-1.38Z"/><path class="cls-1" d="M502.68,58.34a6,6,0,0,0,3.84-1.56c1.08-1.2,1.32-3.36,1.32-7.8V23.24h7.86V50.48c0,6.54-1.38,9.6-3.9,11.58-2.16,1.74-5.7,2.46-8.52,2.52Zm8.94-38.58a4,4,0,0,1-3.91-4.09c0-.06,0-.11,0-.17a4,4,0,1,1,8,0v0A4,4,0,0,1,512,19.75h-.37Z"/><path class="cls-1" d="M531.36,53.06c-7,0-11.22-5.58-11.22-15.06,0-10.5,5.52-15.24,11.34-15.24,7,0,11.1,5.82,11.1,15.06,0,12.18-6.78,15.24-11.16,15.24Zm.18-6c2.58,0,3.24-4.92,3.24-9.18,0-4.08-.66-9.12-3.36-9.12-2.88,0-3.48,5-3.48,9.12,0,5,.78,9.18,3.54,9.18Z"/><path class="cls-1" d="M128.86,89.72c-.24-4.27-.48-9-.33-12.67h-.19c-.72,3.6-1.59,7.49-2.6,11.23l-3.93,15.17h-2.4l-3.75-14.54c-1.1-4.13-2-8.12-2.68-11.86h-.15c0,3.79-.19,8.3-.38,12.91l-.63,13.68h-3.31l1.92-32.35h4l3.75,14.78c1.1,4.28,1.92,7.44,2.59,11.14h.14c.63-3.7,1.35-6.77,2.4-11.14L127,71.29h4.13L133,103.64h-3.45Z"/><path class="cls-1" d="M139.47,76.81a2.18,2.18,0,0,1-2.12-2.24.86.86,0,0,1,0-.16,2.22,2.22,0,0,1,2-2.39h.13a2.41,2.41,0,0,1,0,4.8Zm-1.73,26.83V80.41h3.7v23.23Z"/><path class="cls-1" d="M146.57,86.41c0-2.74-.14-4.13-.19-6h3.22l.19,2.78h.1A5.89,5.89,0,0,1,155.21,80c3.22,0,5.62,2.36,5.62,8v15.6h-3.69v-15c0-2.78-.53-5.52-3.22-5.52-1.54,0-3,1.3-3.46,3.8a8.41,8.41,0,0,0-.19,2.06v14.64h-3.7Z"/><path class="cls-1" d="M167.74,76.81a2.18,2.18,0,0,1-2.12-2.24.86.86,0,0,1,0-.16,2.22,2.22,0,0,1,2-2.39h.13a2.41,2.41,0,0,1,0,4.8ZM166,103.64V80.41h3.7v23.23Z"/><path class="cls-1" d="M174.22,99.8A7.37,7.37,0,0,0,178,101a3.16,3.16,0,0,0,3.4-2.9,3.53,3.53,0,0,0,0-.46c0-1.77-.62-3-3-4.56-3-2-4.66-4-4.66-6.62a6.23,6.23,0,0,1,6-6.46h.42a7.34,7.34,0,0,1,4.12,1.2l-1,2.79a5.24,5.24,0,0,0-3.08-1,2.83,2.83,0,0,0-3,2.67,1.82,1.82,0,0,0,0,.33c0,1.54.57,2.45,2.88,4,2.69,1.73,4.8,3.89,4.8,7.11,0,4.65-3.17,6.91-7,6.91a8,8,0,0,1-4.56-1.34Z"/><path class="cls-1" d="M193.23,75v5.43h4.46v2.78h-4.46V97c0,3.07,1.06,3.84,2.4,3.84a6.23,6.23,0,0,0,1.49-.15l.19,2.84a8.18,8.18,0,0,1-2.74.38,4.58,4.58,0,0,1-3.64-1.39c-1-1.06-1.4-2.64-1.4-5.86V83.19H186.7V80.41h2.83V76.47Z"/><path class="cls-1" d="M203.17,92.36c0,7.15,2.83,8.64,5.47,8.64a8.24,8.24,0,0,0,3.84-.86l.62,2.69a11.24,11.24,0,0,1-5.13,1.1c-5.53,0-8.41-4.51-8.41-11.66,0-7.54,3.17-12.25,7.83-12.25S214,85,214,90.25a14.06,14.06,0,0,1-.09,2.11Zm7.29-2.73c0-4.66-1.68-6.73-3.45-6.73-2.4,0-3.65,3.56-3.8,6.73Z"/><path class="cls-1" d="M218,86.41c0-2-.15-4.27-.19-6h3.31l.19,3.65h.1c.77-2.21,2.73-4,4.89-4a3.31,3.31,0,0,1,.77,0v3.79a5,5,0,0,0-.77,0c-2.35,0-4.08,2.16-4.46,4.84a12.53,12.53,0,0,0-.15,2.12v12.86H218Z"/><path class="cls-1" d="M231.63,76.81a2.18,2.18,0,0,1-2.12-2.24.86.86,0,0,1,0-.16,2.22,2.22,0,0,1,2-2.39h.13a2.41,2.41,0,0,1,0,4.8Zm-1.73,26.83V80.41h3.7v23.23Z"/><path class="cls-1" d="M245.26,104c-4.18,0-7.54-3.8-7.54-12,0-8.49,3.79-12,7.78-12,4.18,0,7.49,3.84,7.49,12,0,9-4.13,12-7.68,12Zm.19-2.93c3.17,0,3.84-5.43,3.84-9.07s-.67-9-3.93-9-3.94,5.48-3.94,9.08c0,3.84.67,9.07,4,9.07Z"/><path class="cls-1" d="M278.67,70.42V98.07c0,1.59.14,4.23.19,5.57h-3.17l-.24-2.88h-.19a5.34,5.34,0,0,1-4.85,3.27c-3.94,0-6.77-4.23-6.77-11.91,0-8.26,3.41-12.1,7-12.1a4.47,4.47,0,0,1,4.23,2.74H275V70.42ZM275,89.24c0-.48,0-1-.05-1.54-.19-2.39-1.68-4.51-3.45-4.51-3.07,0-4.13,4.28-4.13,8.93,0,4.9,1.25,8.83,3.94,8.83,1.15,0,2.73-.62,3.55-4a5.3,5.3,0,0,0,.14-1.54Z"/><path class="cls-1" d="M286.39,92.36c.05,7.15,2.84,8.64,5.48,8.64a8.24,8.24,0,0,0,3.84-.86l.62,2.69a11.26,11.26,0,0,1-5.14,1.1c-5.52,0-8.4-4.51-8.4-11.66,0-7.54,3.17-12.25,7.83-12.25s6.62,5,6.62,10.23a14.06,14.06,0,0,1-.09,2.11Zm7.3-2.73c.05-4.66-1.68-6.73-3.46-6.73-2.39,0-3.64,3.56-3.79,6.73Z"/><path class="cls-1" d="M312.75,71.29v32.35h-3.7V71.29Z"/><path class="cls-1" d="M318.31,86.41c0-2.74-.14-4.13-.19-6h3.22l.19,2.78h.1A5.9,5.9,0,0,1,327,80c3.22,0,5.62,2.36,5.62,8v15.6h-3.7v-15c0-2.78-.52-5.52-3.21-5.52-1.54,0-3,1.3-3.46,3.8A8.42,8.42,0,0,0,322,89v14.64h-3.7Z"/><path class="cls-1" d="M351.77,70.42V98.07c0,1.59.15,4.23.19,5.57h-3.17l-.24-2.88h-.19a5.34,5.34,0,0,1-4.85,3.27c-3.93,0-6.76-4.23-6.76-11.91,0-8.26,3.4-12.1,7-12.1A4.44,4.44,0,0,1,348,82.76h.09V70.42Zm-3.7,18.82V87.7c-.2-2.39-1.68-4.51-3.46-4.51-3.07,0-4.13,4.28-4.13,8.93,0,4.9,1.25,8.83,3.94,8.83,1.15,0,2.73-.62,3.55-4a5.3,5.3,0,0,0,.14-1.54Z"/><path class="cls-1" d="M370.83,97.31c0,2.54.14,4.6.19,6.33H367.8l-.29-2.45h-.09a5.94,5.94,0,0,1-4.95,2.84c-4,0-5.66-3.17-5.66-8.93V80.41h3.7V94.57c0,3.6.57,6.34,3.12,6.34a3.56,3.56,0,0,0,3.31-3.12,9.61,9.61,0,0,0,.19-2.07V80.41h3.7Z"/><path class="cls-1" d="M375.38,99.8a7.36,7.36,0,0,0,3.75,1.2,3.17,3.17,0,0,0,3.41-2.89,3.69,3.69,0,0,0,0-.47c0-1.77-.63-3-3-4.56-3-2-4.66-4-4.66-6.62a6.23,6.23,0,0,1,6-6.46h.44a7.48,7.48,0,0,1,4.13,1.2l-1,2.79a5.24,5.24,0,0,0-3.08-1,2.85,2.85,0,0,0-3,2.69,1.61,1.61,0,0,0,0,.31c0,1.54.58,2.45,2.88,4,2.69,1.73,4.8,3.89,4.8,7.11,0,4.65-3.17,6.91-7,6.91a8,8,0,0,1-4.56-1.34Z"/><path class="cls-1" d="M394.39,75v5.43h4.47v2.78h-4.47V97c0,3.07,1.06,3.84,2.4,3.84a6.23,6.23,0,0,0,1.49-.15l.19,2.84a8.13,8.13,0,0,1-2.73.38,4.55,4.55,0,0,1-3.65-1.39c-1-1.06-1.39-2.64-1.39-5.86V83.19h-2.84V80.41h2.84V76.47Z"/><path class="cls-1" d="M402.07,86.41c0-2-.14-4.27-.19-6h3.31l.19,3.65h.1c.77-2.21,2.73-4,4.9-4a3.22,3.22,0,0,1,.76,0v3.79a4.82,4.82,0,0,0-.76,0c-2.36,0-4.08,2.16-4.47,4.84a13.65,13.65,0,0,0-.14,2.12v12.86h-3.7Z"/><path class="cls-1" d="M415.75,76.81a2.18,2.18,0,0,1-2.12-2.24.86.86,0,0,1,0-.16,2.21,2.21,0,0,1,2-2.4h.14a2.41,2.41,0,0,1,0,4.8ZM414,103.64V80.41h3.7v23.23Z"/><path class="cls-1" d="M435.09,98.36a35.85,35.85,0,0,0,.25,5.28H432l-.24-2.45h-.14A5.23,5.23,0,0,1,427,104c-3.12,0-5.52-2.6-5.52-6.63,0-5.85,4.66-8.4,9.89-8.45V88.2c0-3.12-.77-5.28-3.7-5.28a6.59,6.59,0,0,0-3.84,1.2L423,81.53A10.07,10.07,0,0,1,428.47,80c4.66,0,6.62,3.08,6.62,8.26Zm-3.59-6.77c-1.93,0-6.39.39-6.39,5.43,0,3.07,1.54,4.13,2.83,4.13,1.63,0,3-1.2,3.41-3.51a6,6,0,0,0,.15-1.34Z"/><path class="cls-1" d="M438.55,109.69a68.18,68.18,0,0,0,2.78-11.18l4.18-.48a59.15,59.15,0,0,1-4.42,11.33Z"/><path class="cls-1" d="M459.57,74.6h-5.9V71.29h15.5V74.6h-5.9v29h-3.7Z"/><path class="cls-1" d="M469.85,86.41c0-2-.15-4.27-.2-6H473l.19,3.65h.09c.77-2.21,2.74-4,4.9-4a3.31,3.31,0,0,1,.77,0v3.79a5,5,0,0,0-.77,0c-2.35,0-4.08,2.16-4.46,4.84a12.53,12.53,0,0,0-.15,2.12v12.86h-3.69Z"/><path class="cls-1" d="M493.75,98.36a35.84,35.84,0,0,0,.24,5.28h-3.31l-.24-2.45h-.15a5.2,5.2,0,0,1-4.6,2.84c-3.12,0-5.52-2.6-5.52-6.63,0-5.85,4.65-8.4,9.88-8.45v-.72c0-3.12-.76-5.28-3.69-5.28a6.59,6.59,0,0,0-3.84,1.2l-.82-2.59A10.23,10.23,0,0,1,487.13,80c4.65,0,6.62,3.08,6.62,8.26Zm-3.6-6.77c-1.92,0-6.38.39-6.38,5.43,0,3.07,1.53,4.13,2.83,4.13,1.63,0,3-1.2,3.41-3.51a6.7,6.7,0,0,0,.14-1.34Z"/><path class="cls-1" d="M498.93,70.42h3.7V83.14h.1A5.18,5.18,0,0,1,507.62,80c3.65,0,6.34,4.13,6.34,11.77,0,8.4-3.46,12.24-7,12.24-2.5,0-3.74-1.44-4.61-3.41h-.19l-.24,3h-3.17c.05-1.34.19-4,.19-5.52Zm3.7,25.06a7,7,0,0,0,.14,1.44c.87,3.41,2.45,4,3.46,4,3,0,4-4,4-9,0-4.66-1.1-8.79-4.08-8.79-1.73,0-3.12,2.12-3.45,4.13-.05.53-.1,1.11-.1,1.63Z"/><path class="cls-1" d="M530.37,98.36a35.84,35.84,0,0,0,.24,5.28H527.3l-.24-2.45h-.14a5.22,5.22,0,0,1-4.61,2.84c-3.12,0-5.52-2.6-5.52-6.63,0-5.85,4.65-8.4,9.89-8.45v-.72c0-3.12-.77-5.28-3.7-5.28a6.59,6.59,0,0,0-3.84,1.2l-.82-2.59A10.23,10.23,0,0,1,523.75,80c4.66,0,6.62,3.08,6.62,8.26Zm-3.6-6.77c-1.92,0-6.38.39-6.38,5.43,0,3.07,1.53,4.13,2.83,4.13,1.63,0,3-1.2,3.41-3.51a6.7,6.7,0,0,0,.14-1.34Z"/><path class="cls-1" d="M531.67,110.32a5,5,0,0,0,3.12-1.78c.81-1.25,1.1-3,1.1-7.39V80.41h3.7v21.74c0,4.9-.72,7.16-2.35,8.93a8.27,8.27,0,0,1-5.09,2.16Zm6.05-33.51a2.19,2.19,0,0,1-2.17-2.21,1.21,1.21,0,0,1,0-.19,2.22,2.22,0,0,1,2-2.39h.17a2.41,2.41,0,0,1,0,4.8Z"/><path class="cls-1" d="M551.16,104c-4.18,0-7.54-3.8-7.54-12,0-8.49,3.79-12,7.78-12,4.17,0,7.49,3.84,7.49,12,0,9-4.13,12-7.68,12Zm.19-2.93c3.17,0,3.84-5.43,3.84-9.07s-.67-9-3.94-9-3.93,5.48-3.93,9.08c0,3.84.67,9.07,4,9.07Z"/><path class="cls-1" d="M572.47,80.41l3.07,13.34c.43,1.83.62,3.32,1,4.8h.1c.24-1.34.62-3.07,1-4.75l2.74-13.39H584l-3.8,14.93c-1.44,5.81-3,11.42-5.76,15a12.49,12.49,0,0,1-4.18,3.5l-1.34-3.12a12,12,0,0,0,3.26-2.93,14,14,0,0,0,2.11-3.94,3,3,0,0,0,.24-1.15,3.11,3.11,0,0,0-.09-.86l-5.86-21.41Z"/><path class="cls-1" d="M609.14,103.07a10.65,10.65,0,0,1-4.66.86c-6.28,0-10.85-5-10.85-16,0-12.82,6.34-16.9,11.48-16.9a7.71,7.71,0,0,1,4,.82L608.3,75a6.77,6.77,0,0,0-3.22-.68c-3.46,0-7.54,3.36-7.54,13.25s3.65,13.16,7.64,13.16a8.62,8.62,0,0,0,3.36-.68Z"/><path class="cls-1" d="M618.26,104c-4.18,0-7.54-3.8-7.54-12,0-8.49,3.79-12,7.78-12,4.18,0,7.49,3.84,7.49,12,0,9-4.13,12-7.68,12Zm.19-2.93c3.17,0,3.84-5.43,3.84-9.07s-.67-9-3.93-9-3.94,5.48-3.94,9.08c0,3.84.67,9.07,4,9.07Z"/><path class="cls-1" d="M630.11,86.41c0-2.74-.14-4.13-.19-6h3.27l.19,2.83h.09A5.73,5.73,0,0,1,638.66,80a4.86,4.86,0,0,1,4.9,3.51h.09a7.77,7.77,0,0,1,2.26-2.64,6,6,0,0,1,3.21-.87c3.17,0,5.62,2.26,5.62,8.21v15.41h-3.69V89.05c0-3-.44-6-3.22-6-1.54,0-2.88,1.29-3.41,3.5a9.48,9.48,0,0,0-.14,2.06v15h-3.7V88.38c0-2.55-.43-5.28-3.17-5.28-1.53,0-3,1.29-3.45,3.79a11.16,11.16,0,0,0-.15,2v14.78h-3.7Z"/><path class="cls-1" d="M662.47,92.36c0,7.15,2.83,8.64,5.47,8.64a8.24,8.24,0,0,0,3.84-.86l.62,2.69a11.24,11.24,0,0,1-5.13,1.1c-5.52,0-8.4-4.51-8.4-11.66,0-7.54,3.16-12.25,7.82-12.25s6.63,5,6.63,10.23c0,.91-.05,1.54-.1,2.11Zm7.29-2.73c0-4.66-1.68-6.73-3.45-6.73-2.4,0-3.65,3.56-3.8,6.73Z"/><path class="cls-1" d="M677.25,86.41c0-2-.14-4.27-.19-6h3.31l.19,3.65h.1c.77-2.21,2.73-4,4.89-4a3.31,3.31,0,0,1,.77,0v3.79a5,5,0,0,0-.77,0c-2.35,0-4.08,2.16-4.46,4.84a13.65,13.65,0,0,0-.14,2.12v12.86h-3.7Z"/><path class="cls-1" d="M699.86,103.07a8,8,0,0,1-3.84.86c-5.09,0-8.5-4.08-8.5-11.76,0-6.67,3.36-12.1,9.17-12.1a6.88,6.88,0,0,1,3.27.77l-.73,3a5.9,5.9,0,0,0-2.64-.63c-3.74,0-5.37,4.42-5.37,9,0,5.42,2.06,8.69,5.47,8.69a5.39,5.39,0,0,0,2.64-.63Z"/><path class="cls-1" d="M704.75,76.81a2.18,2.18,0,0,1-2.12-2.24.86.86,0,0,1,0-.16,2.21,2.21,0,0,1,2-2.4h.14a2.41,2.41,0,0,1,0,4.8ZM703,103.64V80.41h3.7v23.23Z"/><path class="cls-1" d="M718.39,104c-4.18,0-7.54-3.8-7.54-12,0-8.49,3.79-12,7.78-12,4.17,0,7.48,3.84,7.48,12,0,9-4.12,12-7.68,12Zm.19-2.93c3.17,0,3.84-5.43,3.84-9.07s-.67-9-3.94-9-3.93,5.48-3.93,9.08c0,3.84.67,9.07,4,9.07Z"/></g></g></svg>